<svg width="30" height="30" viewBox="0 0 30 30" fill="none" xmlns="http://www.w3.org/2000/svg">
<path d="M25.9758 15.6633L17.5383 24.1008C17.3624 24.2767 17.1238 24.3755 16.875 24.3755C16.6262 24.3755 16.3876 24.2767 16.2117 24.1008C16.0358 23.9249 15.937 23.6863 15.937 23.4375C15.937 23.1887 16.0358 22.9501 16.2117 22.7742L23.0496 15.9375H4.6875C4.43886 15.9375 4.2004 15.8387 4.02459 15.6629C3.84877 15.4871 3.75 15.2486 3.75 15C3.75 14.7514 3.84877 14.5129 4.02459 14.3371C4.2004 14.1613 4.43886 14.0625 4.6875 14.0625H23.0496L16.2117 7.22578C16.0358 7.04987 15.937 6.81128 15.937 6.5625C15.937 6.31372 16.0358 6.07513 16.2117 5.89922C16.3876 5.72331 16.6262 5.62448 16.875 5.62448C17.1238 5.62448 17.3624 5.72331 17.5383 5.89922L25.9758 14.3367C26.0629 14.4238 26.1321 14.5272 26.1793 14.641C26.2265 14.7548 26.2507 14.8768 26.2507 15C26.2507 15.1232 26.2265 15.2452 26.1793 15.359C26.1321 15.4728 26.0629 15.5762 25.9758 15.6633Z" fill="#141413"/>
</svg>
