<svg width="160" height="182" viewBox="0 0 160 182" fill="none" xmlns="http://www.w3.org/2000/svg">
<g id="Illustration">
<path id="Shape" d="M132.84 92.7919C131.159 92.7528 129.349 92.5071 127.645 92.4428C127.328 92.4313 126.917 92.6518 126.577 92.5852C126.334 92.5369 125.243 91.8044 125.073 91.6046C124.999 91.5173 124.425 90.3622 124.354 90.1923C123.054 86.9956 124.607 82.0926 124.954 78.5859C125.273 75.364 125.335 72.064 125.445 68.8306C125.5 67.1909 125.812 65.8452 125.548 64.1113C125.495 63.7623 124.993 62.9149 124.641 62.9402C124.462 62.9539 124.235 63.1239 123.895 63.1491C123.387 63.1859 122.903 63.009 122.519 63.0251C121.706 63.0619 119.727 63.8059 118.723 63.985C117.423 64.217 115.945 64.4099 114.624 64.5155C112.642 64.6763 111.398 64.2468 109.581 64.1802C109.165 64.1642 108.754 64.364 108.518 64.3571C108.114 64.3456 107.551 64.0218 107.11 64.0126C105.7 63.9827 104.54 64.5729 102.857 64.3341C101.966 64.2078 98.2709 63.1928 97.5797 62.7909C96.6405 62.2443 97.0561 62.2282 96.7208 61.5209C96.6244 61.3188 96.3695 61.2362 96.2455 60.871C95.9263 59.9272 96.0365 59.213 96.4062 58.322C96.5027 58.0877 96.7714 57.9086 96.7828 57.7088C96.7966 57.4654 96.4498 56.6501 96.4384 56.2C96.4131 55.2929 96.8586 54.3054 96.8425 53.4466C96.8058 51.4027 97.0768 51.0468 97.4029 49.1843C97.8185 46.7983 97.4511 44.2424 97.4603 41.8357C97.4626 41.2409 97.7106 40.3384 97.6739 39.8148C97.6509 39.4818 97.4121 39.2567 97.4075 38.9398C97.4029 38.4943 97.5292 37.8467 97.5338 37.1899C97.5384 36.3701 97.5981 35.5617 97.5407 34.7442C97.1365 34.8085 96.6933 34.6569 96.3075 34.7006C95.9217 34.7442 95.6093 35.0014 95.3521 35.006C95.0352 35.0129 94.7711 34.735 94.3509 34.7327C93.6964 34.7304 93.0304 34.8705 92.477 34.8705C91.1749 34.8705 90.0864 34.4525 88.9106 34.4227C87.783 34.3951 86.0836 34.8246 85.0249 34.5398C84.3245 34.3515 83.8997 34.2596 83.1763 34.1609C82.508 34.069 81.7525 34.0461 81.0819 34.0277C76.9896 33.9129 72.755 33.1964 68.7293 34.0323C66.589 34.4755 63.4313 34.588 61.19 34.6248C60.6641 34.634 58.3906 34.3653 58.1449 34.6523C58.053 34.758 57.9566 37.1853 57.9864 37.4402C58.0346 37.8352 58.2781 38.1131 58.3355 38.4668C58.4526 39.1764 58.7282 41.2087 58.7052 41.8403C58.696 42.0975 58.3653 42.357 58.3768 42.6945C58.3837 42.9104 58.5858 43.0918 58.611 43.3307C58.6685 43.8657 58.386 44.4881 58.3768 44.9566C58.3699 45.3952 58.6248 46.0359 58.6179 46.4493C58.6042 47.547 58.2781 49.1981 58.2505 50.3349C58.2229 51.5382 58.6983 52.6979 58.572 54.3077C58.4664 55.6466 58.595 56.5032 58.6271 57.8213C58.657 58.9971 58.7029 60.1408 58.4595 61.3005C58.0875 63.0733 57.495 64.6717 55.4213 64.7704C54.1651 64.8301 52.7689 64.4535 51.2922 64.5224C49.8156 64.5913 48.4653 65.0529 47.0484 65.1356C43.5876 65.3377 40.5746 65.2022 37.1414 64.798C36.0919 64.674 34.783 65.0368 33.7082 64.7704C33.6072 64.9541 33.9126 66.6926 33.9333 67.0853C34.0986 70.2705 34.6107 73.3523 34.6842 76.5926C34.7118 77.7615 34.5763 79.0797 34.6015 80.2164C34.6773 83.4958 35.2285 85.3169 34.0343 88.5526C33.8414 89.0762 33.6255 89.8478 33.1272 90.1532C32.7575 90.3806 32.0295 90.1165 31.6322 90.2635C31.2349 90.4104 30.98 90.9455 30.1051 91.1338C26.6742 91.8687 22.4739 92.0731 18.9971 92.0524C17.1806 92.0432 15.286 91.7791 13.4741 91.7033C9.98807 91.5609 6.31143 92.3119 2.88052 91.5104C1.92749 91.2877 1.35567 89.8478 1.335 88.9522C1.30055 87.4824 1.75985 85.9828 2.00786 84.5659C2.47634 81.9112 1.78281 80.7538 1.47279 78.2828C1.11454 75.426 1.11913 71.8321 1.29826 68.9592C1.34419 68.2036 1.54168 67.3448 1.54628 66.7063C1.55316 65.7556 1.25692 64.4007 1.29366 63.4637C1.30974 63.0756 1.67488 62.7128 1.6588 62.3408C1.60598 61.1673 1.22018 59.709 1.15128 58.4529C1.04794 56.5146 1.30055 54.3835 1.28218 52.4522C1.26381 50.3211 0.510571 48.144 0.659841 45.9417C0.781554 44.1666 0.944603 43.1561 0.776961 41.3327C0.618505 39.6081 0.733328 38.1384 0.370487 36.4734C0.060465 35.0542 0.517461 34.3033 0.476125 33.0494C0.386563 30.2546 0.618505 28.2383 1.10536 25.4918C1.42227 23.7051 1.13751 23.3905 1.04794 21.783C0.926231 19.5577 1.56005 17.0546 1.40849 14.7925C1.22018 11.9656 1.21559 10.2662 1.48427 7.45764C1.56924 6.57809 1.79429 5.59061 2.42582 4.92234C2.60265 4.73633 2.77718 4.7593 2.86674 4.67892C3.01831 4.54572 3.05275 4.27704 3.28929 4.16222C3.8037 3.9119 4.77051 3.83841 5.2918 3.66159C7.27595 2.98872 8.61938 1.92317 10.8676 1.47995C11.9883 1.25719 13.2284 1.40646 14.3605 1.34216C15.4927 1.27786 17.029 0.954059 18.0877 1.00458C18.6388 1.02984 19.2543 1.35824 19.7388 1.34675C20.2808 1.33527 20.8389 0.875979 21.2499 0.898944C21.5324 0.915019 21.9779 1.25719 22.2787 1.31231C23.342 1.5121 23.8817 1.27097 24.7543 1.20667C25.7992 1.13089 26.6558 1.23652 27.8844 1.09185C28.9867 0.963244 30.1395 0.942576 31.1752 0.75197C31.9721 0.604996 33.3017 0.45343 34.0963 0.536103C34.7761 0.607293 35.0723 0.94028 35.86 0.708337C35.9679 0.676187 35.9588 0.471802 36.0093 0.476395C36.402 0.506249 37.7087 0.582032 37.9934 0.639443C38.3172 0.706041 38.8133 1.04362 39.1577 1.08955C40.0924 1.20897 41.7137 1.11711 42.7746 1.21586C43.9573 1.32609 45.202 1.35824 46.3732 1.48684C46.7843 1.53277 47.549 1.90479 47.9141 1.95991C48.3528 2.02651 49.0256 1.86805 49.3816 1.9645C49.4872 1.99436 49.5446 2.21941 49.6732 2.32045C50.229 2.7453 51.0465 2.38935 51.7883 2.46513C53.1409 2.60751 53.1041 2.74071 54.5394 2.58684C56.4662 2.38016 58.6524 3.14259 60.5952 3.26889C65.2731 3.57432 70.1439 2.81879 74.7001 2.0977C75.2948 2.00354 76.7784 1.6384 77.1711 1.62463C77.5637 1.61085 78.3239 1.94383 78.6959 1.94613C79.5226 1.95302 80.6525 1.52358 81.4494 1.46158C82.43 1.38809 83.6586 1.45469 84.6369 1.42483C85.3304 1.40417 85.9918 1.32379 86.6463 1.26178C87.2204 1.20897 87.6705 1.70959 87.8129 1.69582C88.4742 1.63151 89.7603 1.2503 90.4699 1.22045C90.8993 1.20208 91.5033 1.49373 91.9534 1.46158C92.3369 1.43402 92.9294 1.09644 93.3634 1.09414C93.6022 1.09414 94.3922 1.42024 94.5966 1.42254C94.7757 1.42254 94.9227 1.16993 95.0926 1.14696C95.4716 1.09185 96.1077 1.39728 96.4912 1.42254C96.9849 1.45469 99.7866 1.70041 99.9611 1.68204C100.296 1.64529 100.489 1.33757 101.08 1.39268C101.941 1.47306 103.978 2.04028 104.648 1.94613C105.721 1.79456 105.659 1.94843 106.609 1.97369C107.503 1.99665 108.936 1.74174 109.749 1.82901C109.987 1.85427 109.921 2.08392 109.983 2.07932C111.016 1.99206 112.073 2.05866 113.067 2.0288C113.48 2.01732 113.928 2.36638 114.238 2.34342C114.482 2.32734 114.675 2.09081 114.994 2.08851C116.023 2.07703 117.352 2.57077 118.255 2.52943C119.509 2.47202 120.092 2.41461 121.376 2.46972C124.104 2.58684 126.832 2.65114 129.512 2.78434C130.341 2.82567 130.219 2.66952 131.058 2.95198C132.497 3.43653 132.722 2.89227 134.025 2.84175C136.746 2.73841 139.612 3.01398 142.407 2.96576C144.283 2.93361 146.644 3.08058 148.492 2.76597C150.157 2.4835 151.386 2.10918 153.156 1.95072C153.453 1.92317 153.76 1.73715 154.045 1.73715C154.481 1.73715 156.886 2.9405 157.076 3.25052C157.148 3.36534 157.102 3.57662 157.182 3.70292C157.572 4.31149 157.83 4.4332 157.869 5.276C158.048 9.1042 157.926 12.9646 157.981 16.7836C158.052 21.5763 158.213 26.33 158.206 31.0561C158.206 31.8759 158 32.8542 158.101 33.6855C158.13 33.9244 158.349 33.8555 158.346 33.9175C158.323 34.4296 158.167 34.9279 158.179 35.5503C158.259 39.8492 158.548 44.3641 158.482 48.6883C158.475 49.1109 158.574 49.5679 158.56 49.8159C158.546 50.0639 158.232 50.204 158.232 50.4359C158.232 50.4818 158.544 50.5071 158.544 51.1892C158.544 55.2906 158 59.3852 158.477 63.5809C158.714 65.6569 159.187 67.7673 159.41 69.7974C159.593 71.4646 159.568 72.916 159.55 74.5809C159.541 75.3365 159.66 75.4467 159.738 76.1402V76.8912C159.586 77.1575 159.511 77.6536 159.492 77.9567C159.426 78.997 159.715 80.3542 159.605 81.3118C159.557 81.7344 159.295 82.0421 159.244 82.3384C159.088 83.2478 159.139 84.2077 158.927 85.016C158.617 86.2033 158.521 87.7259 158.02 88.8649C157.981 88.9522 157.253 89.7054 157.155 89.7559C156.58 90.0522 155.917 89.7353 155.864 89.7743C155.827 89.8019 155.715 90.3484 155.572 90.4885C155.531 90.5298 154.922 90.8697 154.814 90.9202C152.428 92.0409 150.747 91.6551 148.283 91.6597C147.011 91.6597 145.477 91.685 144.154 91.7768C142.779 91.871 141.575 91.9077 140.142 91.9054C137.621 91.9008 136.036 91.9743 133.515 92.5163C133.303 92.5622 133.078 92.5576 132.952 92.7758C132.911 92.7758 132.869 92.7758 132.826 92.7758L132.84 92.7919ZM127.675 6.51609C127.406 6.36682 124.028 6.56431 123.282 6.43571C122.682 6.33237 122.239 6.19229 121.511 6.21755C117.49 6.35074 113.742 7.17288 109.815 7.30148C108.897 7.33133 108.157 7.05116 107.494 7.0305C106.274 6.98916 104.175 7.51505 102.859 7.60461C102.175 7.65054 101.21 7.45304 100.742 7.4806C100.324 7.50586 99.4146 7.94219 98.705 7.93989C96.3878 7.93301 94.0753 7.62528 91.8431 7.66202C90.5204 7.68499 88.4398 7.98123 87.2066 7.8067C87.0619 7.78603 86.9655 7.50127 86.7083 7.47371C86.4074 7.44156 85.6634 7.79062 84.8481 7.71714C83.8377 7.62528 82.7078 7.66432 81.5986 7.59083C79.9176 7.4806 77.798 7.23488 76.0642 7.24407C75.6944 7.24407 75.2351 7.4852 74.9435 7.46682C74.6909 7.45075 74.5255 7.14762 74.3257 7.14762C73.7103 7.14302 73.2671 7.21881 72.5184 7.1591C66.6418 6.68603 60.8225 6.02235 54.9183 6.35763C54.482 6.38289 53.7403 6.48623 53.4187 6.48394C53.0766 6.48164 52.8584 6.21755 52.429 6.22444C51.9077 6.23362 51.3336 6.54365 50.9133 6.59876C47.0851 7.0948 42.522 6.33696 38.6479 6.47475C36.5466 6.55054 34.4661 6.82611 32.3969 6.91108C32.0088 6.92716 31.1844 6.72047 30.9111 6.76411C30.6907 6.80085 30.3255 7.20503 29.88 7.2234C29.5332 7.23718 29.2462 6.97997 28.8925 6.97768C27.8752 6.97079 26.8303 7.25785 25.6752 7.19354C23.7554 7.08561 22.0491 7.4806 20.143 7.352C18.6388 7.25096 17.1048 7.22799 15.6259 7.12695C13.8186 7.60461 11.715 6.51379 10.119 6.47705C8.80539 6.44719 6.9843 7.21421 5.46634 7.2234C5.10349 7.2257 4.85318 6.98686 4.54545 6.85597C4.54775 7.60691 4.60976 8.26829 4.5133 9.01464C3.9989 12.9852 4.84629 17.0454 4.62353 21.032C4.40078 25.0187 4.37322 28.445 4.54775 32.5557C4.72687 36.7995 4.47197 41.1467 5.14024 45.2252C5.34922 46.5067 5.19076 47.7169 5.28262 48.9501C5.30099 49.1866 5.53064 49.1154 5.54901 49.2188C5.65465 49.7952 5.38826 51.0606 5.45945 51.552C5.48241 51.7036 5.70746 51.9034 5.74421 52.1261C6.10475 54.2457 5.78325 56.0967 5.82229 58.2025C5.85214 59.8904 6.23565 61.4245 6.30454 63.0756C6.43544 66.2562 6.14838 69.5631 6.3987 72.6151C6.54567 74.4133 6.21957 76.4456 6.12772 78.2369C6.0749 79.2634 5.69828 79.4747 5.57886 80.1223C5.48241 80.6436 5.60642 81.2016 5.54671 81.7183C5.36299 83.335 4.78888 85.3972 4.92437 86.9726C4.94504 87.2023 5.03001 87.4227 5.05757 87.6524C6.45841 87.5444 7.88221 87.3148 9.23942 87.673C13.9655 87.5559 18.8111 87.5812 23.5165 87.1724C25.6155 86.991 27.7122 87.0943 29.7882 87.115C30.0477 87.1173 30.3118 87.0048 30.5781 87.0369C30.4748 86.4927 30.6861 85.8405 30.6792 85.3513C30.647 82.8849 30.0224 80.4231 29.9489 77.8396C29.8731 75.1413 29.8249 72.6749 29.4253 69.9926C29.0028 67.1565 29.5195 66.9613 30.174 64.4306C30.3623 63.698 30.4013 61.6427 31.0535 61.2752C31.6299 60.9491 33.0675 60.7953 33.7656 60.77C37.9452 60.6092 42.2304 61.5301 46.4077 61.2798C48.5824 61.1489 50.7434 60.4531 52.7895 60.2785C53.1776 60.2464 53.5634 60.065 53.986 60.15C54.1467 57.4884 54.1743 54.829 53.6094 52.2088C54.2501 47.4344 52.739 41.2179 54.3626 36.6043C54.4177 36.4482 54.6703 36.4367 54.7943 36.2576C55.559 35.1553 55.2054 33.8991 55.768 32.5993C55.9494 32.179 56.79 31.2306 57.1712 31.001C58.2964 30.3281 60.2898 30.7483 61.5505 30.7483C64.4096 30.7483 67.6339 30.8861 70.4332 30.5026C71.6113 30.3419 72.6792 30.397 73.7034 30.2615C74.1122 30.2064 74.6518 29.8527 75.1111 29.7838C75.5704 29.7149 76.1951 29.8941 76.6727 29.8321C79.3779 29.4738 80.4917 29.4577 83.1832 29.5978C84.1041 29.646 85.6266 29.1454 86.7151 29.2005C87.303 29.2304 87.7554 29.6001 88.0838 29.6139C88.4467 29.6277 89.1241 29.32 89.4479 29.3774C89.5444 29.3934 89.4732 29.6093 89.7097 29.6415C91.439 29.8734 93.6114 29.2074 95.3177 29.2878C96.4682 29.3406 99.3204 30.2546 99.9428 31.2949C99.9933 31.3799 100.262 32.0344 100.267 32.0918C100.283 32.3031 100.06 32.4753 100.046 32.7003C99.9772 33.7177 100.172 35.1208 100.177 36.1979C100.191 40.3567 99.8096 44.8946 100.404 48.9708C100.586 50.2178 100.942 51.0904 101.146 52.2065C101.325 53.1756 101.121 56.3401 101.047 57.4539C101.018 57.904 100.712 59.6172 101.073 59.8767C101.495 60.1798 102.336 59.8996 102.74 59.8973C103.089 59.8973 103.714 60.0627 104.063 59.957C104.347 59.8721 104.536 59.5207 104.781 59.4656C105.16 59.3806 107.06 59.2957 107.611 59.2681C108.972 59.2038 109.82 59.5046 111.152 59.1625C112.008 58.942 114.44 59.3508 115.501 59.399C116.47 59.4426 116.909 59.6241 117.623 59.7182C118.239 59.8009 119.525 59.7894 120.131 59.7136C120.558 59.6608 121.488 59.3967 121.879 59.3852C122.652 59.3646 123.727 59.9777 124.531 60.0145C125.002 60.0351 125.392 59.8055 125.856 59.9295C126.288 60.0443 127.647 61.2109 127.911 61.6289C129.069 63.4546 129.092 65.3147 129.23 67.3425C129.457 70.6723 129.588 73.8851 129.631 77.1851C129.664 79.539 129.675 81.9388 129.51 84.3133C129.425 85.5304 129.312 86.0586 129.335 87.3538C129.347 87.9624 129.126 88.4515 129.328 89.0463C130.575 88.8534 131.627 88.362 132.908 88.1852C134.369 87.9854 135.791 87.8269 137.244 87.5146C137.717 87.4135 138.183 87.0966 138.647 87.0392C140.487 86.8119 142.416 87.1839 144.221 86.8601C146.414 86.4651 150.079 86.2768 152.286 86.5501C152.612 86.5914 152.947 86.929 153.347 86.782C153.306 86.4123 153.639 85.8726 153.668 85.6039C153.721 85.1125 153.414 84.7588 153.356 84.3547C153.244 83.5371 153.634 82.7035 153.613 82.1041C153.6 81.6999 153.248 81.197 153.232 80.9674C153.228 80.91 153.482 80.9191 153.487 80.8411C153.494 80.74 153.358 80.5265 153.354 80.3473C153.257 76.7924 153.168 74.2962 153.618 70.7274C153.689 70.1602 154.015 69.2416 154.047 68.718C154.077 68.2381 153.834 67.494 153.845 66.9613C153.875 65.5926 153.976 65.5903 153.76 64.1802C153.46 62.2099 153.815 59.3003 153.73 57.2036C153.623 54.5627 153.11 51.9424 153.606 49.3175C153.618 49.2578 153.363 49.267 153.365 49.2073C153.462 45.7534 153.292 42.3041 153.542 38.8135C153.708 36.4964 153.352 33.9404 153.866 31.5567C153.657 25.9763 153.809 20.6187 153.969 15.0451C154.008 13.7201 154.229 12.5489 154.339 11.2767C154.426 10.2708 154.144 9.12717 154.481 8.10524C154.16 8.05472 153.873 7.98812 153.54 7.97434C153.055 7.95367 152.224 8.22695 151.932 8.1948C151.753 8.17643 151.574 7.98353 151.289 7.96975C150.904 7.95138 150.486 8.19021 150.081 8.16035C149.482 8.11443 148.398 7.59543 147.787 7.59313C145.261 7.58394 142.662 7.89397 140.142 7.91234C138.946 7.92152 137.582 7.75388 136.3 7.70106C135.019 7.64824 128.355 6.90189 127.666 6.51609H127.675Z" fill="#141413"/>
<path id="Mark" d="M102.172 89.0393L102.558 89.3447C102.427 89.9418 102.666 90.5504 102.678 91.0992C102.707 92.523 102.648 93.9354 102.682 95.3569C102.813 100.779 102.884 106.389 102.625 111.848C102.57 113.017 102.142 114.626 102.351 115.692C102.466 116.278 102.719 116.716 103.369 116.693C103.621 116.684 103.75 116.5 103.865 116.489C104.783 116.395 106.999 116.951 107.998 116.82C109.847 116.578 110.848 116.096 112.883 116.064C116.596 116.002 120.262 116.101 123.982 115.903C125.036 115.848 125.325 115.958 126.292 116.039C126.568 116.062 126.85 115.862 127.119 115.954C127.16 115.968 127.746 116.521 127.766 116.56C127.787 116.597 127.782 117.343 127.778 117.385C127.755 117.525 127.528 117.612 127.479 117.78C127.252 118.551 127.897 120.708 127.923 121.667C127.939 122.287 127.663 123.284 127.707 123.881C127.723 124.097 127.906 124.506 127.964 124.99C128.485 129.331 128.088 133.63 128.274 137.977C128.32 139.063 128.198 139.082 128.088 140.032C128.017 140.652 127.757 143.176 127.923 143.555C128.003 143.739 128.194 143.881 128.327 144.026C127.562 144.315 128.09 145.016 128.648 145.213C128.733 145.243 130.049 145.42 130.162 145.42C130.589 145.427 131.147 145.204 131.526 145.208C131.856 145.213 132.061 145.463 132.391 145.466C132.837 145.47 133.68 145.084 133.898 145.091C134.187 145.101 135.136 145.569 135.657 145.592C139.687 145.778 143.793 145.624 147.792 145.597C149.626 145.585 151.971 145.268 153.693 145.399C154.568 145.466 154.144 145.454 154.479 145.902C154.814 146.35 155.205 145.957 155.613 146.212C155.611 146.253 155.613 146.295 155.613 146.336C155.333 151.859 154.915 157.366 154.807 162.912C154.736 166.533 154.619 170.086 154.417 173.671C154.288 175.937 154.091 178.213 154.109 180.487C153.962 180.427 153.845 180.372 153.675 180.358C153.269 180.326 152.074 180.317 151.682 180.363C151.289 180.409 150.738 180.877 150.384 180.955C150.093 181.019 149.287 180.868 148.944 180.889C144.485 181.166 139.848 181.07 135.4 181.04C134.121 181.031 132.564 181.258 131.301 181.206C129.881 181.146 128.68 181.238 127.27 181.233C124.039 181.224 120.884 181.065 117.733 181.118C115.756 181.153 113.822 181.251 111.866 181.265C109.025 181.284 106.301 181.341 103.49 181.357C98.5209 181.387 93.5353 181.254 88.591 181.235C85.4334 181.224 82.3378 181.336 79.2008 181.387C73.9304 181.47 69.0206 181.578 63.803 181.49C61.6834 181.454 59.5706 181.24 57.5475 181.481C55.7746 181.692 53.237 181.587 51.2965 181.607C43.3944 181.688 35.4486 181.729 27.5074 181.743C22.8663 181.75 18.193 181.867 13.4921 181.644C11.3587 181.543 9.33325 181.541 7.2228 181.598C6.76351 181.61 4.71736 181.307 4.45097 181.084C4.25118 180.916 4.26496 179.961 4.29481 179.674C4.45556 178.142 4.67143 177.444 4.66454 175.804C4.64158 170.279 4.71736 164.657 4.6255 159.182C4.57957 156.525 4.85285 153.673 4.92175 151.03C4.96079 149.613 5.07331 148.033 5.05724 146.648C5.05494 146.393 5.04116 146.194 4.92175 145.964C6.53616 145.585 8.09775 146.304 9.70298 146.187C11.508 146.056 13.4072 145.927 15.2558 145.835C17.1412 145.744 18.294 146.093 20.0141 146.327C21.7341 146.561 24.9446 145.918 26.7864 145.767C27.9874 145.668 29.0116 145.879 30.1415 145.962C30.7776 146.008 31.6801 145.732 32.268 145.739C32.5849 145.744 32.9409 145.941 33.2509 145.92C34.5185 145.838 34.3601 143.167 34.4657 142.283C34.6632 140.641 34.8745 139.506 34.8355 137.766C34.7803 135.297 34.6265 132.663 34.4611 130.258C34.2751 127.53 34.6265 124.862 34.7091 122.138C34.7712 120.104 34.6793 118.048 34.5943 116.025C35.0881 115.348 35.568 115.786 36.1467 115.814C38.2388 115.913 40.2138 115.6 42.2783 115.591C43.1234 115.586 43.8077 115.495 44.5495 115.483C45.2912 115.472 46.4992 115.658 47.4178 115.685C48.7451 115.724 50.9796 115.791 52.2449 115.619C52.6124 115.568 53.0142 115.318 53.4184 115.313C54.3416 115.304 55.4347 115.697 56.3234 115.761C56.7138 115.788 57.1019 115.623 57.4212 115.63C58.7439 115.66 58.9162 116.535 59.5729 114.835C60.7051 111.912 60.2091 107.406 60.2343 104.237C60.2642 100.501 60.1838 96.7141 60.4157 93.0076C60.441 92.5942 60.6063 92.1051 60.6178 91.7262C60.6316 91.299 60.3285 89.6203 60.6316 89.4366C61.9521 89.2437 63.2542 89.5882 64.5792 89.6226C66.7379 89.6777 68.8989 89.432 71.0713 89.4251C75.4346 89.4136 79.791 89.4963 84.0969 89.5308C89.8725 89.5767 95.7399 89.1978 101.541 89.0439H102.168L102.172 89.0393Z" fill="#BCD1CA"/>
</g>
</svg>