<svg width="226" height="256" viewBox="0 0 226 256" fill="none" xmlns="http://www.w3.org/2000/svg">
<path d="M187.334 130.521C184.969 130.466 182.423 130.12 180.026 130.03C179.58 130.013 179.002 130.324 178.524 130.23C178.181 130.162 176.647 129.132 176.408 128.85C176.304 128.728 175.497 127.103 175.397 126.864C173.568 122.367 175.752 115.469 176.24 110.536C176.689 106.004 176.776 101.361 176.931 96.8124C177.009 94.5058 177.448 92.6126 177.076 90.1735C177.002 89.6825 176.295 88.4904 175.8 88.5259C175.548 88.5453 175.229 88.7844 174.75 88.8199C174.036 88.8716 173.355 88.6228 172.815 88.6454C171.672 88.6971 168.887 89.7439 167.475 89.9959C165.647 90.3221 163.566 90.5935 161.708 90.7421C158.92 90.9683 157.169 90.3641 154.614 90.2704C154.029 90.2478 153.451 90.5289 153.118 90.5192C152.55 90.5031 151.758 90.0475 151.138 90.0346C149.154 89.9926 147.523 90.8229 145.155 90.4869C143.901 90.3092 138.703 88.8813 137.731 88.3159C136.409 87.547 136.994 87.5244 136.523 86.5294C136.387 86.2451 136.028 86.1288 135.854 85.6151C135.405 84.2874 135.56 83.2826 136.08 82.0291C136.216 81.6996 136.594 81.4476 136.61 81.1666C136.629 80.8241 136.141 79.6773 136.125 79.0441C136.09 77.768 136.716 76.3788 136.694 75.1705C136.642 72.2953 137.023 71.7946 137.482 69.1745C138.067 65.8179 137.55 62.2222 137.563 58.8366C137.566 57.9998 137.915 56.7302 137.863 55.9936C137.831 55.5252 137.495 55.2086 137.489 54.7628C137.482 54.136 137.66 53.225 137.666 52.301C137.673 51.1477 137.757 50.0105 137.676 48.8604C137.107 48.9509 136.484 48.7377 135.941 48.799C135.398 48.8604 134.959 49.2223 134.597 49.2287C134.151 49.2384 133.78 48.8475 133.189 48.8443C132.268 48.841 131.331 49.0381 130.552 49.0381C128.721 49.0381 127.189 48.4501 125.535 48.4081C123.949 48.3694 121.558 48.9735 120.069 48.5729C119.084 48.308 118.486 48.1788 117.468 48.0398C116.528 47.9106 115.465 47.8783 114.522 47.8525C108.765 47.6909 102.808 46.683 97.1446 47.8589C94.1336 48.4824 89.6916 48.6407 86.5385 48.6924C85.7987 48.7054 82.6003 48.3274 82.2547 48.7312C82.1254 48.8798 81.9898 52.2946 82.0318 52.6532C82.0996 53.2088 82.442 53.5997 82.5228 54.0972C82.6876 55.0955 83.0752 57.9546 83.0429 58.843C83.03 59.2049 82.5648 59.5699 82.581 60.0448C82.5906 60.3485 82.8749 60.6037 82.9105 60.9397C82.9912 61.6924 82.5939 62.5679 82.581 63.227C82.5713 63.844 82.9299 64.7454 82.9202 65.3269C82.9008 66.8711 82.442 69.1939 82.4033 70.7931C82.3645 72.4859 83.0332 74.1174 82.8556 76.382C82.707 78.2655 82.8879 79.4705 82.9331 81.3249C82.9751 82.9789 83.0397 84.5878 82.6973 86.2193C82.1739 88.7133 81.3404 90.9618 78.4232 91.1007C76.656 91.1847 74.6918 90.6549 72.6145 90.7518C70.5372 90.8487 68.6376 91.4981 66.6443 91.6144C61.7758 91.8987 57.5372 91.7081 52.7075 91.1395C51.2311 90.965 49.3896 91.4755 47.8777 91.1007C47.7355 91.3592 48.1652 93.8047 48.1943 94.3572C48.4269 98.838 49.1473 103.174 49.2507 107.732C49.2895 109.376 49.0989 111.231 49.1344 112.83C49.241 117.443 50.0164 120.005 48.3364 124.557C48.0651 125.294 47.7614 126.379 47.0603 126.809C46.5402 127.129 45.5161 126.757 44.9572 126.964C44.3983 127.171 44.0397 127.923 42.8088 128.188C37.9823 129.222 32.0735 129.51 27.1824 129.48C24.6269 129.468 21.9617 129.096 19.4127 128.989C14.5087 128.789 9.33644 129.845 4.5099 128.718C3.1692 128.405 2.36478 126.379 2.3357 125.119C2.28724 123.052 2.93336 120.942 3.28227 118.949C3.94132 115.214 2.96567 113.586 2.52954 110.11C2.02556 106.091 2.03202 101.035 2.28401 96.9934C2.34862 95.9305 2.62646 94.7222 2.63292 93.8241C2.64261 92.4866 2.22586 90.5806 2.27755 89.2625C2.30016 88.7165 2.81383 88.2061 2.79122 87.6827C2.71691 86.0319 2.17417 83.9804 2.07725 82.2133C1.93187 79.4867 2.28724 76.4886 2.2614 73.7717C2.23555 70.7737 1.17591 67.7111 1.3859 64.6129C1.55712 62.1156 1.7865 60.6942 1.55066 58.1291C1.32775 55.7029 1.48928 53.6353 0.978842 51.2931C0.542709 49.2966 1.1856 48.2401 1.12745 46.4762C1.00146 42.5446 1.32775 39.7081 2.01264 35.8443C2.45846 33.3309 2.05787 32.8883 1.93187 30.6268C1.76065 27.4964 2.6523 23.975 2.43908 20.7928C2.17417 16.816 2.16771 14.4253 2.54569 10.4743C2.66522 9.23693 2.98182 7.84776 3.87024 6.90765C4.119 6.64597 4.36453 6.67828 4.49052 6.56521C4.70374 6.37783 4.7522 5.99985 5.08495 5.83832C5.80861 5.48618 7.1687 5.3828 7.90205 5.13405C10.6933 4.18748 12.5832 2.68847 15.746 2.06496C17.3225 1.75159 19.0671 1.96158 20.6598 1.87113C22.2524 1.78067 24.4137 1.32515 25.903 1.39622C26.6784 1.43176 27.5442 1.89374 28.2259 1.87759C28.9883 1.86143 29.7733 1.21531 30.3516 1.24762C30.749 1.27023 31.3757 1.75159 31.7989 1.82913C33.2947 2.11019 34.0539 1.77098 35.2815 1.68052C36.7514 1.57391 37.9565 1.72252 39.6848 1.51899C41.2355 1.33807 42.8573 1.309 44.3143 1.04086C45.4353 0.834098 47.3059 0.620877 48.4237 0.737179C49.3799 0.837328 49.7967 1.30577 50.9048 0.979476C51.0566 0.934247 51.0437 0.646722 51.1148 0.653183C51.6672 0.695181 53.5054 0.801792 53.906 0.882557C54.3615 0.976245 55.0593 1.45115 55.5439 1.51576C56.8588 1.68375 59.1396 1.55452 60.6322 1.69344C62.2959 1.84851 64.0469 1.89374 65.6945 2.07465C66.2728 2.13927 67.3486 2.66263 67.8623 2.74016C68.4793 2.83385 69.4259 2.61094 69.9266 2.74662C70.0752 2.78862 70.156 3.10522 70.3369 3.24737C71.1187 3.84503 72.2688 3.34429 73.3123 3.4509C75.2152 3.65119 75.1635 3.83857 77.1826 3.62212C79.8931 3.33136 82.9686 4.40393 85.7017 4.58161C92.2825 5.01128 99.1346 3.94841 105.544 2.934C106.381 2.80154 108.468 2.28787 109.02 2.26849C109.573 2.24911 110.642 2.71755 111.165 2.72078C112.328 2.73047 113.918 2.12634 115.039 2.03912C116.418 1.93574 118.147 2.02943 119.523 1.98743C120.499 1.95835 121.429 1.84528 122.35 1.75805C123.157 1.68375 123.791 2.38802 123.991 2.36864C124.921 2.27818 126.731 1.7419 127.729 1.6999C128.333 1.67406 129.183 2.08435 129.816 2.03912C130.355 2.00035 131.189 1.52545 131.799 1.52222C132.135 1.52222 133.247 1.98097 133.534 1.9842C133.786 1.9842 133.993 1.62883 134.232 1.59652C134.765 1.51899 135.66 1.94866 136.199 1.9842C136.894 2.02943 140.835 2.3751 141.081 2.34926C141.553 2.29757 141.824 1.86466 142.654 1.9422C143.866 2.05527 146.731 2.85323 147.675 2.72078C149.183 2.50756 149.096 2.72401 150.434 2.75954C151.69 2.79185 153.706 2.43325 154.85 2.55602C155.186 2.59155 155.092 2.91461 155.179 2.90815C156.633 2.78539 158.119 2.87908 159.518 2.83708C160.1 2.82093 160.73 3.31198 161.166 3.27967C161.508 3.25706 161.779 2.92431 162.229 2.92108C163.676 2.90492 165.546 3.5995 166.816 3.54135C168.58 3.46059 169.401 3.37982 171.206 3.45736C175.044 3.62212 178.882 3.71258 182.653 3.89995C183.819 3.9581 183.648 3.73842 184.827 4.13579C186.852 4.81745 187.169 4.05179 189.001 3.98072C192.829 3.83534 196.861 4.22301 200.792 4.15517C203.432 4.10994 206.753 4.3167 209.354 3.87411C211.696 3.47674 213.424 2.95015 215.915 2.72724C216.332 2.68847 216.765 2.42679 217.165 2.42679C217.779 2.42679 221.161 4.11963 221.43 4.55577C221.53 4.7173 221.465 5.01451 221.578 5.1922C222.127 6.04831 222.489 6.21953 222.544 7.40517C222.796 12.7906 222.625 18.2213 222.702 23.5938C222.803 30.3361 223.029 37.0234 223.019 43.6721C223.019 44.8254 222.728 46.2016 222.87 47.3711C222.912 47.7071 223.219 47.6102 223.216 47.6974C223.184 48.4178 222.964 49.1189 222.98 49.9944C223.093 56.0421 223.5 62.3935 223.407 68.4767C223.397 69.0711 223.536 69.714 223.517 70.0629C223.497 70.4119 223.055 70.6089 223.055 70.9352C223.055 70.9998 223.494 71.0354 223.494 71.9949C223.494 77.7647 222.728 83.5249 223.4 89.4273C223.733 92.3477 224.399 95.3167 224.712 98.1725C224.97 100.518 224.935 102.56 224.909 104.902C224.896 105.965 225.064 106.12 225.174 107.095V108.152C224.961 108.527 224.854 109.224 224.828 109.651C224.735 111.114 225.142 113.024 224.987 114.371C224.919 114.965 224.55 115.398 224.479 115.815C224.26 117.094 224.331 118.445 224.033 119.582C223.597 121.252 223.462 123.394 222.757 124.996C222.702 125.119 221.678 126.179 221.539 126.25C220.732 126.667 219.798 126.221 219.724 126.276C219.672 126.314 219.514 127.083 219.314 127.28C219.255 127.339 218.399 127.817 218.247 127.888C214.891 129.464 212.526 128.922 209.06 128.928C207.27 128.928 205.112 128.964 203.251 129.093C201.316 129.225 199.623 129.277 197.607 129.274C194.06 129.267 191.831 129.371 188.283 130.133C187.986 130.198 187.67 130.191 187.492 130.498C187.434 130.498 187.376 130.498 187.314 130.498L187.334 130.521ZM180.068 9.1497C179.69 8.93971 174.938 9.21754 173.888 9.03663C173.045 8.89125 172.421 8.69418 171.397 8.72972C165.74 8.9171 160.468 10.0737 154.944 10.2546C153.651 10.2966 152.611 9.90244 151.677 9.87336C149.962 9.81521 147.009 10.555 145.158 10.681C144.195 10.7456 142.838 10.4678 142.179 10.5066C141.591 10.5421 140.312 11.1559 139.314 11.1527C136.054 11.143 132.801 10.7101 129.661 10.7618C127.8 10.7941 124.873 11.2108 123.138 10.9653C122.935 10.9362 122.799 10.5356 122.437 10.4969C122.014 10.4516 120.967 10.9427 119.82 10.8393C118.399 10.7101 116.809 10.765 115.249 10.6616C112.884 10.5066 109.902 10.1609 107.463 10.1738C106.943 10.1738 106.297 10.513 105.887 10.4872C105.531 10.4646 105.299 10.0381 105.018 10.0381C104.152 10.0317 103.528 10.1383 102.475 10.0543C94.2079 9.38877 86.0216 8.45512 77.7157 8.92679C77.1018 8.96233 76.0583 9.1077 75.6061 9.10447C75.1247 9.10124 74.8178 8.72972 74.2137 8.73941C73.4803 8.75234 72.6727 9.18847 72.0815 9.266C66.696 9.96382 60.2768 8.89771 54.8267 9.09155C51.8707 9.19816 48.9438 9.58583 46.033 9.70537C45.487 9.72798 44.3272 9.43723 43.9428 9.49861C43.6327 9.5503 43.119 10.1189 42.4922 10.1447C42.0044 10.1641 41.6006 9.80229 41.1031 9.79906C39.6719 9.78936 38.202 10.1932 36.577 10.1027C33.8762 9.95089 31.4759 10.5066 28.7944 10.3256C26.6784 10.1835 24.5203 10.1512 22.4398 10.009C19.8973 10.681 16.9381 9.14647 14.6928 9.09478C12.8449 9.05278 10.283 10.1318 8.14758 10.1447C7.63714 10.148 7.285 9.81198 6.8521 9.62783C6.85533 10.6842 6.94256 11.6147 6.80687 12.6646C6.08321 18.2503 7.27531 23.9621 6.96194 29.5704C6.64857 35.1788 6.6098 39.9988 6.85533 45.7816C7.10732 51.7518 6.74872 57.8674 7.68883 63.6049C7.98282 65.4076 7.7599 67.1102 7.88913 68.845C7.91497 69.1778 8.23803 69.0776 8.26388 69.223C8.41249 70.0339 8.03774 71.8139 8.13789 72.5053C8.17019 72.7185 8.48679 72.9996 8.53848 73.3129C9.04569 76.2948 8.5934 78.8987 8.64832 81.8612C8.69032 84.2357 9.22983 86.3937 9.32675 88.7165C9.5109 93.1909 9.10707 97.843 9.45921 102.137C9.66597 104.666 9.20722 107.525 9.07799 110.045C9.00369 111.489 8.47387 111.786 8.30588 112.697C8.17019 113.431 8.34465 114.216 8.26065 114.943C8.0022 117.217 7.19455 120.118 7.38515 122.334C7.41423 122.657 7.53376 122.968 7.57253 123.291C9.5432 123.139 11.5462 122.816 13.4555 123.32C20.1041 123.155 26.9207 123.19 33.5402 122.615C36.493 122.36 39.4425 122.506 42.363 122.535C42.7281 122.538 43.0996 122.38 43.4744 122.425C43.329 121.659 43.6262 120.742 43.6165 120.053C43.5713 116.584 42.6925 113.121 42.5892 109.486C42.4826 105.69 42.4147 102.221 41.8526 98.4471C41.2582 94.4573 41.985 94.1827 42.9058 90.6226C43.1707 89.592 43.2256 86.7006 44.1431 86.1837C44.954 85.725 46.9763 85.5085 47.9585 85.473C53.8382 85.2468 59.8665 86.5423 65.743 86.1902C68.8024 86.006 71.8424 85.0272 74.7209 84.7816C75.2668 84.7364 75.8096 84.4812 76.404 84.6007C76.6302 80.8564 76.6689 77.1154 75.8742 73.4292C76.7755 66.7128 74.6498 57.9675 76.9338 51.4772C77.0114 51.2575 77.3667 51.2414 77.5412 50.9894C78.617 49.4387 78.1195 47.6716 78.911 45.843C79.1662 45.2518 80.3486 43.9176 80.8849 43.5945C82.4679 42.648 85.2721 43.2392 87.0457 43.2392C91.0678 43.2392 95.6036 43.433 99.5417 42.8935C101.199 42.6673 102.701 42.7449 104.142 42.5543C104.717 42.4767 105.476 41.9792 106.122 41.8823C106.769 41.7854 107.647 42.0374 108.319 41.9501C112.125 41.4462 113.692 41.4235 117.478 41.6206C118.774 41.6885 120.915 40.9842 122.447 41.0617C123.274 41.1037 123.91 41.6238 124.372 41.6432C124.883 41.6626 125.836 41.2297 126.291 41.3105C126.427 41.3331 126.327 41.6368 126.659 41.682C129.092 42.0083 132.148 41.0714 134.549 41.1845C136.167 41.2588 140.18 42.5446 141.055 44.008C141.126 44.1276 141.504 45.0483 141.511 45.1291C141.533 45.4263 141.22 45.6686 141.2 45.9852C141.104 47.4163 141.378 49.3902 141.385 50.9054C141.404 56.756 140.868 63.1397 141.704 68.8741C141.96 70.6283 142.46 71.8559 142.748 73.426C143 74.7893 142.712 79.2411 142.609 80.808C142.567 81.4412 142.137 83.8512 142.645 84.2163C143.239 84.6427 144.421 84.2486 144.99 84.2454C145.481 84.2454 146.36 84.478 146.851 84.3293C147.251 84.2098 147.516 83.7155 147.862 83.638C148.395 83.5185 151.067 83.3989 151.842 83.3602C153.758 83.2697 154.95 83.6929 156.824 83.2116C158.029 82.9014 161.45 83.4765 162.943 83.5443C164.306 83.6057 164.923 83.8609 165.928 83.9934C166.793 84.1097 168.603 84.0935 169.455 83.9869C170.056 83.9126 171.365 83.5411 171.914 83.5249C173.003 83.4959 174.515 84.3584 175.645 84.4101C176.308 84.4392 176.857 84.1161 177.509 84.2906C178.117 84.4521 180.029 86.0933 180.401 86.6812C182.029 89.2496 182.061 91.8664 182.255 94.719C182.575 99.4034 182.759 103.923 182.821 108.565C182.866 111.877 182.882 115.253 182.649 118.593C182.53 120.305 182.371 121.049 182.404 122.871C182.42 123.727 182.11 124.415 182.394 125.252C184.148 124.98 185.628 124.289 187.431 124.04C189.485 123.759 191.485 123.536 193.53 123.097C194.195 122.955 194.851 122.509 195.504 122.428C198.092 122.108 200.805 122.632 203.345 122.176C206.43 121.62 211.586 121.355 214.691 121.74C215.149 121.798 215.621 122.273 216.183 122.066C216.125 121.546 216.593 120.787 216.635 120.409C216.71 119.718 216.277 119.22 216.196 118.651C216.038 117.501 216.587 116.329 216.558 115.485C216.538 114.917 216.044 114.209 216.022 113.886C216.015 113.805 216.374 113.818 216.38 113.709C216.39 113.566 216.199 113.266 216.193 113.014C216.057 108.013 215.931 104.501 216.564 99.4809C216.664 98.683 217.123 97.3907 217.168 96.6541C217.21 95.9789 216.868 94.9322 216.884 94.1827C216.926 92.2573 217.068 92.254 216.765 90.2704C216.341 87.4986 216.842 83.4054 216.723 80.4558C216.571 76.7406 215.85 73.0545 216.548 69.3619C216.564 69.2779 216.206 69.2908 216.209 69.2068C216.345 64.348 216.106 59.4956 216.458 54.5851C216.69 51.3254 216.19 47.7297 216.913 44.3763C216.619 36.5259 216.832 28.9889 217.059 21.1482C217.113 19.2841 217.424 17.6365 217.579 15.8468C217.701 14.4318 217.304 12.8229 217.779 11.3853C217.327 11.3142 216.923 11.2205 216.454 11.2011C215.773 11.1721 214.603 11.5565 214.193 11.5113C213.941 11.4854 213.689 11.2141 213.288 11.1947C212.746 11.1688 212.158 11.5048 211.589 11.4628C210.746 11.3982 209.221 10.6681 208.362 10.6649C204.808 10.6519 201.151 11.0881 197.607 11.1139C195.924 11.1268 194.005 10.891 192.202 10.8167C190.4 10.7424 181.024 9.69244 180.055 9.1497H180.068Z" fill="#141413"/>
<path d="M144.191 125.242L144.734 125.671C144.55 126.511 144.886 127.367 144.902 128.14C144.944 130.143 144.86 132.129 144.909 134.129C145.093 141.757 145.193 149.649 144.828 157.328C144.75 158.973 144.149 161.237 144.443 162.736C144.605 163.56 144.96 164.177 145.875 164.145C146.23 164.132 146.411 163.873 146.572 163.857C147.865 163.725 150.982 164.507 152.387 164.322C154.988 163.983 156.397 163.305 159.259 163.26C164.483 163.172 169.639 163.311 174.873 163.033C176.355 162.956 176.763 163.111 178.123 163.224C178.51 163.256 178.908 162.975 179.286 163.105C179.344 163.124 180.168 163.902 180.197 163.957C180.226 164.009 180.219 165.059 180.213 165.117C180.18 165.314 179.861 165.437 179.793 165.673C179.473 166.758 180.381 169.792 180.416 171.142C180.439 172.015 180.051 173.417 180.113 174.257C180.135 174.56 180.394 175.135 180.474 175.817C181.208 181.923 180.649 187.971 180.911 194.086C180.975 195.614 180.804 195.64 180.649 196.978C180.549 197.85 180.184 201.4 180.416 201.933C180.529 202.192 180.798 202.392 180.985 202.596C179.909 203.003 180.652 203.988 181.437 204.266C181.557 204.308 183.408 204.557 183.566 204.557C184.167 204.566 184.952 204.253 185.485 204.259C185.95 204.266 186.238 204.618 186.703 204.621C187.33 204.628 188.515 204.085 188.822 204.095C189.229 204.107 190.564 204.767 191.297 204.799C196.967 205.061 202.743 204.844 208.368 204.805C210.949 204.789 214.247 204.343 216.67 204.527C217.901 204.621 217.304 204.605 217.775 205.235C218.247 205.865 218.796 205.313 219.371 205.671C219.368 205.729 219.371 205.787 219.371 205.846C218.977 213.615 218.389 221.362 218.237 229.164C218.137 234.259 217.972 239.257 217.688 244.3C217.507 247.488 217.229 250.69 217.255 253.888C217.048 253.804 216.884 253.727 216.644 253.707C216.073 253.662 214.393 253.649 213.84 253.714C213.288 253.778 212.512 254.437 212.015 254.547C211.605 254.638 210.471 254.424 209.989 254.453C203.716 254.844 197.193 254.709 190.935 254.667C189.136 254.654 186.945 254.974 185.169 254.899C183.172 254.815 181.482 254.944 179.499 254.938C174.953 254.925 170.514 254.702 166.082 254.776C163.301 254.825 160.58 254.964 157.828 254.983C153.832 255.009 150 255.09 146.046 255.112C139.055 255.154 132.041 254.967 125.086 254.941C120.643 254.925 116.289 255.083 111.876 255.154C104.461 255.271 97.5543 255.423 90.2143 255.3C87.2324 255.248 84.2603 254.948 81.4141 255.287C78.9201 255.584 75.3502 255.436 72.6204 255.465C61.5038 255.578 50.3259 255.636 39.1544 255.655C32.6254 255.665 26.0511 255.83 19.438 255.516C16.4367 255.374 13.5873 255.371 10.6184 255.452C9.97228 255.468 7.0938 255.041 6.71905 254.728C6.43799 254.492 6.45737 253.148 6.49937 252.744C6.72551 250.59 7.02919 249.607 7.0195 247.301C6.98719 239.528 7.0938 231.619 6.96458 223.918C6.89997 220.18 7.28441 216.167 7.38133 212.449C7.43625 210.456 7.59455 208.233 7.57193 206.285C7.5687 205.926 7.54932 205.645 7.38133 205.322C9.65245 204.789 11.8493 205.8 14.1075 205.636C16.6467 205.451 19.3185 205.271 21.9191 205.141C24.5714 205.012 26.1932 205.503 28.6129 205.833C31.0327 206.162 35.5491 205.258 38.14 205.044C39.8296 204.905 41.2705 205.203 42.8599 205.319C43.7548 205.384 45.0245 204.996 45.8515 205.006C46.2973 205.012 46.7981 205.29 47.2342 205.261C49.0175 205.145 48.7946 201.387 48.9432 200.144C49.221 197.834 49.5182 196.238 49.4633 193.789C49.3858 190.316 49.1693 186.61 48.9367 183.228C48.6751 179.39 49.1693 175.636 49.2856 171.805C49.3729 168.942 49.2436 166.051 49.1241 163.205C49.8187 162.252 50.4939 162.869 51.308 162.907C54.2511 163.046 57.0294 162.607 59.9337 162.594C61.1226 162.588 62.0853 162.458 63.1288 162.442C64.1723 162.426 65.8716 162.688 67.1639 162.727C69.0312 162.781 72.1745 162.875 73.9546 162.633C74.4715 162.562 75.0369 162.21 75.6055 162.203C76.9042 162.19 78.4419 162.743 79.6922 162.833C80.2414 162.872 80.7874 162.639 81.2364 162.649C83.0973 162.691 83.3396 163.922 84.2635 161.531C85.8562 157.419 85.1584 151.08 85.1939 146.622C85.2359 141.366 85.1229 136.038 85.4492 130.824C85.4847 130.243 85.7173 129.555 85.7334 129.022C85.7528 128.421 85.3264 126.059 85.7528 125.801C87.6104 125.529 89.4422 126.014 91.3062 126.062C94.343 126.14 97.383 125.794 100.439 125.784C106.577 125.768 112.706 125.885 118.763 125.933C126.888 125.998 135.142 125.465 143.303 125.248H144.185L144.191 125.242Z" fill="#BCD1CA"/>
</svg>
