<svg width="46" height="47" viewBox="0 0 46 47" fill="none" xmlns="http://www.w3.org/2000/svg">
<path d="M7.86267 28.4882L22.2377 14.1132C22.4398 13.9113 22.7138 13.7979 22.9996 13.7979C23.2853 13.7979 23.5593 13.9113 23.7614 14.1132L38.1364 28.4882C38.3269 28.6925 38.4305 28.9629 38.4256 29.2422C38.4207 29.5215 38.3075 29.788 38.11 29.9855C37.9125 30.183 37.646 30.2962 37.3667 30.3011C37.0874 30.306 36.8171 30.2024 36.6127 30.0119L22.9996 16.4006L9.38642 30.0119C9.18205 30.2023 8.91173 30.306 8.63242 30.3011C8.35311 30.2962 8.08662 30.183 7.88909 29.9855C7.69156 29.788 7.57841 29.5215 7.57348 29.2422C7.56856 28.9629 7.67223 28.6925 7.86267 28.4882Z" fill="#535146"/>
</svg>
