<svg width="46" height="47" viewBox="0 0 46 47" fill="none" xmlns="http://www.w3.org/2000/svg">
<path d="M38.1368 18.5118L23.7618 32.8868C23.5597 33.0887 23.2857 33.2021 23 33.2021C22.7143 33.2021 22.4402 33.0887 22.2381 32.8868L7.86309 18.5118C7.67265 18.3075 7.56897 18.0371 7.5739 17.7578C7.57883 17.4785 7.69197 17.212 7.88951 17.0145C8.08704 16.817 8.35353 16.7038 8.63284 16.6989C8.91214 16.694 9.18246 16.7976 9.38684 16.9881L23 30.5994L36.6131 16.9881C36.8175 16.7976 37.0878 16.694 37.3671 16.6989C37.6464 16.7038 37.9129 16.817 38.1104 17.0145C38.308 17.212 38.4211 17.4785 38.426 17.7578C38.431 18.0371 38.3273 18.3075 38.1368 18.5118Z" fill="#535146"/>
</svg>
