<svg width="115" height="115" viewBox="0 0 115 115" fill="none" xmlns="http://www.w3.org/2000/svg">
<path d="M38.1037 49.8868L33.6006 28.7566L52.6524 38.4557C52.6524 38.4557 59.9532 24.71 46.7637 14.2081C33.5741 3.70619 17.1272 14.6247 15.5879 17.6728C14.0487 20.721 8.86259 33.5019 14.2023 41.2273C19.5421 48.9526 29.4209 51.926 38.1037 49.8868Z" fill="#E3DACC"/>
<path d="M35.4825 27.9481C37.2326 28.89 38.9834 29.832 40.7349 30.774C43.357 32.196 43.4647 32.0001 46.0868 33.422C48.7088 34.844 48.5578 35.12 51.1775 36.5418C52.9275 37.4852 54.6774 38.4279 56.4275 39.3699C59.0495 40.7918 59.125 40.6538 61.747 42.0757C64.3691 43.4976 64.3044 43.6156 66.9264 45.0375C69.5485 46.4595 69.5703 46.4171 72.1923 47.839C74.8144 49.2609 74.898 49.1073 77.52 50.5292C80.1421 51.9511 80.115 52.0024 82.737 53.4243C85.359 54.8463 85.3052 54.9442 87.9272 56.3661C90.5493 57.7881 90.6409 57.6211 93.2629 59.0431C95.885 60.465 95.8258 60.5718 98.4478 61.9937C98.7704 62.1705 99.0526 62.3258 99.3034 62.4648C99.7355 62.7053 100.118 62.919 100.465 63.1137C100.651 63.2178 100.828 63.319 100.998 63.4149C101.083 63.4629 101.153 63.5145 101.215 63.5677C101.276 63.6209 101.354 63.6684 101.399 63.7227C101.494 63.827 101.603 63.9277 101.659 64.0222L101.76 64.1641C101.794 64.2106 101.81 64.2511 101.837 64.2948C101.934 64.4596 102.016 64.6718 102.058 64.9343C102.099 65.1945 102.088 65.5018 101.993 65.8075C101.903 66.1159 101.707 66.4211 101.478 66.6219C101.425 66.6736 101.349 66.7235 101.283 66.7765C101.248 66.8017 101.213 66.8293 101.174 66.8565C101.13 66.8833 101.084 66.91 101.038 66.9367C100.991 66.9634 100.947 66.9926 100.894 67.0188C100.836 67.0446 100.778 67.0704 100.718 67.0961C100.609 67.1529 100.448 67.185 100.305 67.23C100.274 67.2369 100.198 67.2522 100.122 67.2697C99.7953 67.3428 99.4896 67.4105 99.203 67.4727C98.9564 67.5285 98.7262 67.5833 98.508 67.6343C98.2255 67.7038 97.9759 67.7687 97.7522 67.8309C97.3024 67.9551 96.9444 68.0676 96.5864 68.18C95.8728 68.4052 95.157 68.6278 93.6998 68.9462C90.7831 69.5827 90.7574 69.458 87.8407 70.0945C84.924 70.731 84.8926 70.5897 81.9759 71.2262C81.8857 71.2473 81.7958 71.2661 81.7104 71.2853C81.6796 71.2923 81.6511 71.2994 81.6226 71.3066C81.5916 71.3159 81.5606 71.3252 81.532 71.3346C81.4792 71.3539 81.434 71.3668 81.4086 71.395C81.3573 71.4584 81.397 71.5517 81.4592 71.5933C81.5283 71.6355 81.5876 71.6538 81.6306 71.6709L81.6465 71.6767C81.6876 71.7191 81.7309 71.764 81.7764 71.8114C81.8649 71.906 81.9601 72.0057 82.0596 72.1104C82.2584 72.322 82.4783 72.563 82.7258 72.8408C84.711 75.0564 84.5988 75.1547 86.584 77.3704C88.5691 79.586 88.6465 79.5176 90.6315 81.7356C92.6164 83.9536 92.4492 84.1034 94.4343 86.319C95.4268 87.428 95.9668 87.9429 96.5043 88.4599C96.7742 88.7185 97.0441 88.9771 97.3692 89.3093C97.5318 89.4742 97.7091 89.6611 97.9079 89.8727C98.0072 89.9797 98.1108 90.0916 98.223 90.2134C98.3652 90.3699 98.5159 90.5386 98.6754 90.7148C98.7913 90.8485 98.9126 90.9733 99.0174 91.1015C99.1198 91.2296 99.1962 91.3627 99.2615 91.488C99.3834 91.7309 99.4522 91.9978 99.4708 92.2494C99.5102 92.7573 99.3556 93.2068 99.1405 93.5314C99.0376 93.6929 98.8983 93.8425 98.7533 93.9753C98.5993 94.1029 98.4505 94.224 98.3066 94.3407C98.1354 94.4809 98.0913 94.5101 98.0097 94.5735C97.9332 94.6304 97.859 94.6875 97.785 94.7422C97.1878 95.1891 96.5905 95.6383 95.4671 96.6115C93.9632 97.907 92.4594 99.2018 90.9556 100.496C88.7063 102.444 88.7321 102.474 86.4852 104.423C86.2038 104.666 85.9572 104.879 85.738 105.069C85.6534 105.142 85.5712 105.212 85.4916 105.28C85.3995 105.359 85.3076 105.436 85.2226 105.513C85.0481 105.667 84.8698 105.776 84.7051 105.859C84.0328 106.187 83.3116 106.073 82.8252 105.748C82.7005 105.669 82.5843 105.57 82.4666 105.459C82.3518 105.342 82.2426 105.211 82.1337 105.076C81.9776 104.886 81.8106 104.686 81.6266 104.464C81.3291 104.106 80.9714 103.678 80.4938 103.108C78.5785 100.83 78.4644 100.924 76.5491 98.646C74.6338 96.3683 74.7431 96.2768 72.8278 93.9991C70.9125 91.7214 70.761 91.8469 68.8457 89.5692C66.9304 87.2915 66.8088 87.3914 64.8937 85.1114C64.731 84.9164 64.5811 84.7362 64.4419 84.5706C64.3735 84.4868 64.3071 84.4078 64.2428 84.3312L64.1957 84.2744C64.1957 84.2744 64.1969 84.2583 64.1978 84.2468C64.1927 84.2209 64.1661 84.2027 64.1437 84.2219C64.139 84.2216 64.1342 84.2236 64.1293 84.2278L64.1246 84.2275C64.1246 84.2275 64.1248 84.2252 64.1009 84.2651C64.064 84.3226 64.0244 84.3845 63.9801 84.4484C63.8114 84.7116 63.6003 85.0435 63.3474 85.4371C62.2819 87.1079 61.2164 88.7788 60.151 90.4496C58.5615 92.9635 58.3857 92.8509 56.7962 95.3648C56.0015 96.6217 55.6121 97.2531 55.2248 97.887C55.0289 98.2037 54.8354 98.5184 54.5916 98.915C54.4016 99.2136 54.1931 99.5433 53.9556 99.9172C53.8866 100.03 53.8089 100.136 53.7412 100.263C53.6735 100.39 53.5969 100.512 53.5075 100.616C53.3368 100.844 53.139 100.997 52.9421 101.137C52.8391 101.206 52.7708 101.247 52.6669 101.297C52.5724 101.346 52.465 101.38 52.3577 101.411C52.1413 101.469 51.9114 101.489 51.6981 101.474C51.2717 101.44 50.9058 101.281 50.6697 101.101C50.5455 101.015 50.4568 100.923 50.3675 100.838C50.2802 100.727 50.1909 100.642 50.1115 100.518C50.0719 100.454 50.0323 100.391 49.9948 100.331C49.9575 100.268 49.9286 100.187 49.8943 100.115C49.8228 99.9772 49.7848 99.7984 49.7338 99.6371C49.6352 99.3008 49.534 98.9667 49.4298 98.6115L49.3681 98.4054L49.3568 98.3698C49.3416 98.3223 49.3244 98.2724 49.3096 98.2204C49.2775 98.1184 49.2456 98.0141 49.2096 97.9025C49.0747 97.457 48.9232 96.9223 48.741 96.2022C48.0172 93.3225 48.205 93.2738 47.4788 90.3939C46.7528 87.5116 46.6957 87.5282 45.9697 84.646C45.2458 81.7662 45.3787 81.7343 44.6549 78.8546C43.9311 75.9748 43.8384 75.998 43.1124 73.1158C42.3865 70.2335 42.5288 70.2 41.8026 67.3201C41.0788 64.4403 40.9554 64.4706 40.2317 61.5885C39.5057 58.7062 39.5483 58.6978 38.8246 55.8157C38.3326 53.8982 37.8397 51.9807 37.3461 50.0631C36.6202 47.1809 36.4871 47.215 35.7611 44.3328C35.0353 41.4482 35.2323 41.4003 34.5065 38.5157C33.7807 35.6311 33.8235 35.6204 33.0975 32.7381C32.5372 30.5145 32.8216 30.0097 33.5246 29.8347C34.2275 29.6597 34.8097 29.9507 35.3675 32.1765C36.0914 35.0563 36.0321 35.0705 36.7561 37.9479C37.2339 39.869 37.7117 41.79 38.1895 43.7111C38.9133 46.5908 39.0986 46.5443 39.8224 49.4241C40.5463 52.3039 40.3706 52.3465 41.0944 55.2263C41.8183 58.106 42.1199 58.0311 42.846 60.911C43.5699 63.7908 43.52 63.8033 44.2463 66.681C44.9701 69.5608 44.8301 69.5944 45.5539 72.4742C46.0255 74.3963 46.497 76.3184 46.9685 78.2406C47.44 80.1627 47.9138 82.085 48.39 84.0075C49.1138 86.8872 49.0356 86.9046 49.7617 89.7846C50.4856 92.6643 50.5355 92.6518 51.2593 95.5316C51.4437 96.2518 51.581 96.7901 51.6947 97.2387C51.7492 97.4466 51.7983 97.6332 51.8437 97.808C51.857 97.8484 51.8682 97.8863 51.8793 97.9242C51.9042 97.9978 51.9221 98.071 51.9554 98.1568C51.978 98.1979 52.0243 98.2337 52.0847 98.2359C52.1427 98.2402 52.2171 98.211 52.2502 98.1416C52.2899 98.0774 52.3247 98.0174 52.3518 97.9661C52.3654 97.9393 52.3766 97.9147 52.3875 97.8923L52.3959 97.8744L52.3965 97.8652L52.42 97.8322C52.4519 97.7789 52.4813 97.7278 52.5106 97.679C52.7455 97.2771 52.9234 96.9521 53.1036 96.6272C53.4643 95.9752 53.8224 95.3253 54.6171 94.0683C56.2041 91.5566 56.1396 91.5147 57.7266 89.003C59.3135 86.4912 59.3648 86.5228 60.9541 84.0112C61.5791 83.0313 62.0035 82.3677 62.2065 82.0515C62.374 81.772 62.5746 81.5506 62.7622 81.4093C62.943 81.2651 63.1521 81.1486 63.3746 81.0724C63.8176 80.9129 64.3143 80.9103 64.767 81.062C64.9945 81.1368 65.1937 81.2488 65.4123 81.4132C65.636 81.5711 65.8398 81.841 66.0629 82.1031C66.3391 82.434 66.6539 82.8094 67.0352 83.2639C68.9505 85.5416 68.881 85.599 70.7941 87.8742C72.7096 90.1495 72.7594 90.1069 74.6747 92.3846C76.59 94.6623 76.5304 94.7111 78.4457 96.9888C79.7275 98.5045 81.0085 100.019 82.2888 101.534C82.7665 102.102 83.1315 102.525 83.4389 102.874C83.5164 102.961 83.5895 103.045 83.6582 103.124C83.6926 103.164 83.7269 103.204 83.7614 103.241C83.7722 103.253 83.7743 103.256 83.7743 103.256L83.779 103.256L83.7876 103.266C83.8097 103.282 83.8296 103.297 83.8474 103.308C83.883 103.331 83.937 103.326 83.9748 103.287C83.9926 103.267 84.0082 103.245 84.026 103.226C84.2452 103.036 84.4871 102.822 84.7664 102.576C87.0156 100.628 87.1404 100.769 89.3896 98.8208C91.639 96.8701 91.4283 96.6298 93.6776 94.6813C94.8033 93.7083 95.3661 93.2218 95.9289 92.7353C96.0633 92.6202 96.1978 92.5051 96.3398 92.3812L96.3444 92.3816C96.3444 92.3816 96.3499 92.3704 96.3455 92.3677C95.0738 90.947 93.8029 89.5262 92.5328 88.1056C91.2078 86.6284 89.882 85.1518 88.5553 83.676C86.568 81.4579 86.7774 81.2742 84.7901 79.056C82.8051 76.838 82.7576 76.8809 80.7703 74.6627C80.5203 74.3871 80.3028 74.1462 80.1066 73.9302C79.8821 73.6888 79.6858 73.4751 79.5067 73.2811C79.3599 73.122 79.2175 72.9678 79.0836 72.8236C78.9523 72.6772 78.8063 72.5389 78.7098 72.3951C78.6014 72.2527 78.5347 72.1157 78.4656 71.9786C78.417 71.8476 78.3583 71.7274 78.3309 71.5933C78.1949 71.069 78.2822 70.362 78.7462 69.794C78.8614 69.6543 78.9916 69.5342 79.1443 69.4227C79.2139 69.3653 79.3201 69.3153 79.4107 69.2571C79.5123 69.2068 79.6257 69.1549 79.75 69.1132C80.0056 69.0302 80.3078 68.9784 80.6162 68.9063C80.8531 68.8543 81.1043 68.7988 81.3721 68.7399C84.2888 68.1034 84.2727 68.0373 87.1894 67.4008C90.106 66.7643 90.1831 67.1082 93.0998 66.4717C94.5593 66.1535 95.28 65.959 96.0005 65.7668C96.362 65.6708 96.7212 65.5723 97.1748 65.46C97.4597 65.3907 97.8013 65.3095 98.2569 65.2019L98.2806 65.1967C98.3851 65.1697 98.4789 65.1627 98.4847 65.0844C98.4943 65.0179 98.4379 64.9605 98.3785 64.9445C98.3283 64.9292 98.2782 64.9139 98.2168 64.8931C98.2054 64.89 98.1918 64.8843 98.1806 64.8789L98.1625 64.8706L98.1533 64.8699C98.1266 64.8517 98.0997 64.8381 98.0727 64.8246C97.8216 64.6901 97.539 64.5395 97.2207 64.3677C94.5987 62.9457 94.6178 62.9078 91.9958 61.4858C89.3714 60.0637 89.3041 60.1862 86.682 58.7642C84.0577 57.3421 84.1897 57.1017 81.5653 55.6796C78.9433 54.2577 78.8758 54.3824 76.2537 52.9605C73.6317 51.5385 73.5564 51.6743 70.9343 50.2523C69.1829 49.3088 67.4314 48.3652 65.6799 47.4216C63.9304 46.4735 62.1816 45.5255 60.4335 44.5776C57.8092 43.1555 57.9361 42.9216 55.314 41.4997C52.692 40.0778 52.7191 40.0265 50.097 38.6046C47.4727 37.1825 47.427 37.2648 44.8028 35.8404C42.1763 34.4158 42.1412 34.4804 39.5147 33.0558C36.8882 31.6312 36.9555 31.5088 34.329 30.0842C34.2708 30.0521 34.2147 30.0225 34.1677 29.9958L34.0646 29.9396L34.2512 29.687C34.3003 29.6211 34.3062 29.5729 34.3062 29.5729C34.3061 29.5752 34.3052 29.5867 34.313 29.6082C34.3266 29.6439 34.3319 29.635 34.3121 29.6197C34.2946 29.6045 34.2764 29.5985 34.2717 29.5982L34.281 29.5988C34.281 29.5988 34.3042 29.6006 34.309 29.5986L34.3183 29.5993C34.3044 29.5983 34.2924 29.602 34.2782 29.6056C34.2497 29.6127 34.2212 29.6199 34.1925 29.6294C34.128 29.6501 34.0657 29.6732 33.9987 29.6961C33.8623 29.7439 33.7054 29.7856 33.5362 29.8356C33.3672 29.8833 33.2156 29.9462 33.0699 29.9632C32.929 29.9759 32.7704 29.9457 32.6422 29.7254C32.5782 29.6141 32.5295 29.4529 32.5297 29.2306C32.5343 29.0108 32.597 28.7305 32.7792 28.4429C32.961 28.1598 33.2645 27.8696 33.7357 27.7075C33.9681 27.6228 34.2504 27.5881 34.549 27.6172C34.8497 27.6487 35.1562 27.7595 35.4256 27.93L35.3341 27.8746C35.3834 27.9014 35.4395 27.931 35.4979 27.9608L35.4825 27.9481Z" fill="#141413"/>
<path d="M52.0829 35.908C52.3851 34.8061 52.4734 34.2354 52.5664 33.6694C52.6106 33.3853 52.6524 33.1011 52.7059 32.7453C52.7617 32.3873 52.8035 31.9737 52.8872 31.4147C52.9546 30.8556 52.9686 30.4351 52.9918 30.084C53.0058 29.7328 52.9872 29.4533 52.9872 29.1738C52.9849 29.0351 52.9825 28.8942 52.9802 28.7464C52.9779 28.5985 52.9593 28.4414 52.9477 28.2681C52.9174 27.9216 52.9221 27.5035 52.8477 26.9536C52.8175 26.6787 52.7919 26.4361 52.7687 26.2213C52.7361 26.0064 52.6989 25.8216 52.6687 25.6507C52.6385 25.4797 52.6106 25.3272 52.585 25.1817C52.5618 25.0362 52.5362 24.8999 52.4967 24.7682C52.4293 24.5002 52.3618 24.2322 52.2782 23.8995C52.1921 23.5669 52.0457 23.1787 51.8783 22.6543C51.6784 22.1415 51.5203 21.7626 51.4041 21.4368C51.2646 21.1227 51.1553 20.8708 51.0484 20.6144C50.9949 20.4873 50.9415 20.358 50.881 20.224C50.8113 20.0946 50.7369 19.9583 50.6532 19.8058C50.4812 19.5055 50.2929 19.1312 49.9488 18.6923C49.7861 18.4682 49.6373 18.2742 49.5048 18.1032C49.363 17.9369 49.2235 17.8029 49.1026 17.6804C48.8516 17.4356 48.6516 17.2438 48.4354 17.0682C48.2123 16.8973 47.9891 16.7286 47.7264 16.5045C47.473 16.2712 47.1383 16.024 46.7175 15.6636C46.3083 15.2917 45.9666 15.0514 45.7039 14.8227C45.4366 14.6032 45.2343 14.393 45.0205 14.2313C44.8089 14.0603 44.5997 13.8801 44.3091 13.6976C44.0255 13.5036 43.6652 13.3003 43.163 13.0669C42.1518 12.6072 41.5915 12.5032 41.0522 12.3762C40.5036 12.2699 39.955 12.1636 38.86 11.9511C38.588 11.8933 38.3416 11.8633 38.1278 11.8217C37.9139 11.7801 37.7233 11.7501 37.5489 11.7224C37.2025 11.6646 36.9236 11.6092 36.6446 11.5699C36.3656 11.5237 36.0843 11.4798 35.731 11.4521C35.3776 11.4151 34.9499 11.4013 34.3803 11.3966C33.8108 11.4082 33.3831 11.4151 33.0251 11.4336C32.667 11.4429 32.3834 11.4613 32.0975 11.4775C31.8116 11.4891 31.5256 11.5145 31.1699 11.5514C30.8119 11.5838 30.3865 11.6485 29.8216 11.7409C29.5403 11.794 29.2939 11.8448 29.0754 11.8957C28.8569 11.9488 28.6686 12.0065 28.4965 12.0574C28.1525 12.1567 27.8852 12.2699 27.6178 12.3762C27.0831 12.591 26.5578 12.8128 25.4837 13.1755C25.2164 13.2702 24.9839 13.3534 24.7747 13.4273C24.5678 13.5059 24.3842 13.5752 24.2191 13.6376C23.8844 13.7577 23.624 13.8663 23.359 13.9679C22.8313 14.1758 22.3059 14.3953 21.3109 14.9313C21.0645 15.0699 20.8483 15.19 20.6554 15.2986C20.4647 15.4095 20.2974 15.5088 20.1463 15.5966C19.8371 15.7676 19.6 15.92 19.3559 16.0633C19.1048 16.2065 18.8886 16.359 18.6096 16.553C18.5399 16.6016 18.4655 16.6524 18.3911 16.7078C18.319 16.7679 18.2423 16.8303 18.1586 16.8996C17.9982 17.0382 17.8053 17.1791 17.6147 17.3755C16.8243 18.1217 16.4872 18.556 16.1292 18.9695C15.9548 19.1798 15.7968 19.4039 15.5899 19.6788C15.4062 19.9699 15.1644 20.3048 14.9087 20.7946C14.3857 21.7672 14.2322 22.3101 14.0788 22.8415C14.0137 23.1117 13.9277 23.3728 13.8487 23.7101C13.8068 23.8787 13.758 24.0612 13.6999 24.2692C13.6487 24.4794 13.5906 24.715 13.5255 24.983C13.4558 25.251 13.4186 25.4913 13.3721 25.7015C13.3256 25.9117 13.2977 26.1012 13.2745 26.2721C13.221 26.614 13.1838 26.889 13.1629 27.1662C13.135 27.4434 13.1071 27.7183 13.0908 28.0649C13.0629 28.4114 13.0536 28.8272 13.0373 29.384C13.042 29.9407 13.0373 30.3589 13.0466 30.7077C13.0466 31.0566 13.0559 31.3361 13.0652 31.6156C13.0676 31.8952 13.0885 32.1747 13.121 32.5259C13.135 32.7015 13.1559 32.8932 13.1931 33.1081C13.2303 33.3229 13.2582 33.5678 13.3186 33.8427C13.5372 34.9424 13.7185 35.4737 13.8812 36.0097C14.0602 36.5387 14.2299 37.0724 14.6786 38.0866C15.1365 39.0961 15.3876 39.5882 15.648 40.0757C15.7782 40.3182 15.906 40.5631 16.1106 40.8542C16.3082 41.1453 16.5407 41.5011 16.8777 41.9492C17.2427 42.3789 17.5287 42.6908 17.7751 42.9403C17.8936 43.0697 18.0215 43.1667 18.1377 43.2614C18.2563 43.3539 18.3679 43.4416 18.4771 43.5294C18.7003 43.7004 18.9188 43.8783 19.1862 44.0977C19.4698 44.3034 19.7952 44.5598 20.216 44.9225C20.3183 45.0172 20.4229 45.0934 20.5229 45.1628C20.6228 45.2344 20.7135 45.3014 20.8018 45.3661C20.9762 45.4931 21.1296 45.604 21.2714 45.7057C21.4132 45.805 21.5341 45.9043 21.6596 45.9806C21.7852 46.0568 21.9037 46.1284 22.0223 46.2C22.2594 46.3433 22.4942 46.4865 22.7918 46.6667C23.0893 46.8446 23.4682 47.0132 23.9611 47.2674C24.0843 47.3297 24.2005 47.3898 24.3098 47.4452C24.4214 47.4938 24.5283 47.5377 24.6283 47.5792C24.8282 47.6647 25.0025 47.7433 25.1583 47.8149C25.4744 47.9581 25.7209 48.0921 25.9836 48.1845C26.5043 48.3786 27.0134 48.635 28.113 48.8614C28.3873 48.9192 28.6221 48.9908 28.8406 49.0208C29.0568 49.0555 29.2474 49.0832 29.4218 49.1109C29.7682 49.1664 30.0471 49.2126 30.3238 49.2565C30.605 49.2796 30.8863 49.3027 31.2374 49.3327C31.414 49.3466 31.607 49.3604 31.8255 49.3789C32.0464 49.3974 32.2928 49.3812 32.5764 49.3835C33.7085 49.3997 34.2734 49.335 34.8406 49.3119C34.9824 49.305 35.1242 49.298 35.2754 49.2888C35.4265 49.2796 35.5845 49.2518 35.7612 49.2287C36.1146 49.1779 36.5353 49.1155 37.1002 49.0324C38.8112 48.6373 38.9972 49.0786 39.1878 49.7716C39.3761 50.467 39.504 51.1531 37.6 51.5875C36.977 51.6868 36.5098 51.7515 36.1192 51.8023C35.9239 51.8254 35.7496 51.8554 35.5822 51.8647C35.4148 51.8716 35.2568 51.8786 35.0987 51.8855C34.4664 51.9063 33.841 51.971 32.5787 51.9548C30.0564 51.8809 30.0634 51.703 27.6015 51.2363C26.3695 50.9799 25.772 50.7789 25.1536 50.6333C24.8445 50.564 24.5469 50.4578 24.1749 50.3215C23.989 50.2522 23.7867 50.1736 23.5543 50.0858C23.438 50.0396 23.3171 49.9911 23.187 49.9403C23.0591 49.8848 22.9266 49.8132 22.7848 49.7439C22.2199 49.4551 21.7875 49.2588 21.4411 49.0647C21.0971 48.866 20.8227 48.7089 20.5484 48.5518C20.4113 48.4733 20.2718 48.3947 20.1253 48.3093C19.9789 48.2261 19.8371 48.1152 19.672 48.0043C19.5093 47.8888 19.3326 47.7641 19.1304 47.6208C19.0304 47.5492 18.9235 47.4707 18.8096 47.3898C18.6956 47.3089 18.5748 47.2212 18.4562 47.1149C17.975 46.699 17.617 46.3895 17.3148 46.1307C17.0288 45.8581 16.8126 45.6248 16.5895 45.4007C16.3733 45.1697 16.1385 44.9548 15.8828 44.6545C15.6294 44.3519 15.3248 43.9892 14.918 43.5063C14.5344 43.0073 14.2718 42.6123 14.0416 42.2935C13.93 42.1294 13.8254 41.9908 13.7348 41.8453C13.6464 41.6997 13.5627 41.5634 13.4814 41.4248C13.1559 40.875 12.8397 40.3159 12.3144 39.1631C12.0494 38.5879 11.9006 38.1374 11.7704 37.7654C11.6588 37.3866 11.5705 37.0862 11.4961 36.7813C11.3589 36.1691 11.2008 35.5615 10.9567 34.3394C10.7243 33.1173 10.6313 32.5005 10.5499 31.8813C10.5104 31.5718 10.4662 31.2622 10.443 30.8718C10.4314 30.6777 10.4104 30.4629 10.4035 30.218C10.4011 29.9731 10.3965 29.7005 10.3918 29.3886C10.4081 28.7625 10.4104 28.2936 10.4267 27.9008C10.4314 27.5081 10.4407 27.1939 10.4546 26.8774C10.4616 26.7203 10.4639 26.5609 10.4755 26.3946C10.4918 26.2259 10.5104 26.0503 10.529 25.854C10.5662 25.4589 10.6545 24.99 10.7917 24.3708C10.8707 24.0612 10.9428 23.7933 11.0125 23.5553C11.0916 23.3197 11.166 23.1117 11.238 22.9246C11.3729 22.5504 11.5309 22.2662 11.6658 21.9774C11.961 21.4091 12.2493 20.8408 12.8467 19.7204C13.142 19.1567 13.4 18.7524 13.5836 18.3966C13.7929 18.0547 13.9463 17.7682 14.1114 17.4887C14.4601 16.9458 14.7925 16.3659 15.7456 15.4603C16.7057 14.5709 17.3078 14.2428 17.8611 13.9448C18.14 13.7993 18.419 13.6514 18.7654 13.4689C18.9374 13.3765 19.1257 13.2749 19.3373 13.1524C19.5535 13.0392 19.7906 12.9075 20.0626 12.7551C21.1575 12.1636 21.7084 11.8749 22.264 11.5953C22.543 11.459 22.8196 11.3135 23.18 11.1633C23.359 11.0871 23.5566 11.0039 23.7821 10.9092C24.0099 10.826 24.2656 10.7313 24.5585 10.6227C25.7371 10.2231 26.3276 10.0221 26.9227 9.82801C27.2203 9.73329 27.5179 9.63164 27.8968 9.53692C28.0874 9.49072 28.2943 9.43759 28.5314 9.37983C28.7709 9.33363 29.0405 9.28049 29.3474 9.21811C30.5771 8.99864 31.2118 9.00326 31.8371 9.01944C32.151 9.02637 32.4625 9.0333 32.853 9.04254C33.0483 9.04716 33.2622 9.04254 33.5039 9.04254C33.748 9.04254 34.02 9.04254 34.3292 9.03561C34.9522 9.03561 35.4195 9.03099 35.8077 9.04023C36.1983 9.04023 36.5098 9.04485 36.8236 9.05409C37.1374 9.0564 37.4513 9.07257 37.8418 9.10722C38.2347 9.13495 38.702 9.19963 39.325 9.30821C40.5664 9.53692 41.1824 9.70557 41.8031 9.85111C42.4168 10.0267 43.0445 10.1745 44.2208 10.7059C44.8066 10.9785 45.2367 11.2072 45.5807 11.4244C45.9294 11.63 46.1921 11.824 46.4571 12.0135C46.7291 12.1983 46.9593 12.4085 47.2731 12.6511C47.5776 12.9006 47.9705 13.164 48.4424 13.589C49.4211 14.3907 49.814 14.9012 50.2487 15.3587C50.4579 15.5966 50.6439 15.8554 50.895 16.1603C51.0205 16.3128 51.1553 16.4814 51.3111 16.6732C51.4552 16.8742 51.6179 17.0983 51.8016 17.3547C52.1875 17.856 52.4339 18.2603 52.6687 18.5837C52.7849 18.7454 52.8919 18.8887 52.9965 19.025C53.0941 19.1636 53.1801 19.2976 53.2708 19.4293C53.4498 19.6949 53.6288 19.9629 53.8357 20.3095C54.0147 20.6675 54.2262 21.1019 54.4587 21.6979C54.6563 22.3078 54.819 22.7606 54.9167 23.1487C55.0073 23.5368 55.0794 23.8487 55.1515 24.1606C55.1701 24.2391 55.1863 24.3154 55.2049 24.3962C55.2166 24.4771 55.2305 24.5579 55.2445 24.6411C55.2724 24.8074 55.3003 24.9853 55.3305 25.1817C55.363 25.3781 55.3979 25.5929 55.4374 25.8378C55.463 26.085 55.4932 26.3599 55.5257 26.6764C55.6071 27.3071 55.5978 27.783 55.6118 28.1781C55.6141 28.3767 55.6234 28.5546 55.6187 28.721C55.6118 28.8873 55.6025 29.0467 55.5955 29.2038C55.5769 29.518 55.5722 29.8345 55.5397 30.2249C55.4955 30.6153 55.47 31.0866 55.3956 31.7081C55.3049 32.3249 55.2421 32.7985 55.1654 33.1704C55.0887 33.547 55.019 33.845 54.9469 34.143C54.7958 34.7391 54.654 35.3374 54.3262 36.5295C54.0682 37.4513 53.7799 37.8994 53.494 38.0843C53.2057 38.2691 52.9105 38.1975 52.5711 38.075C52.2293 37.9549 51.9759 37.8301 51.8806 37.5298C51.7807 37.2295 51.8434 36.7582 52.0829 35.9103V35.908Z" fill="#141413"/>
<path d="M82.6013 26.7296C81.0833 26.7296 81.0833 26.5494 79.5629 26.5494C78.0426 26.5494 78.0426 26.4871 76.5222 26.4871C75.0019 26.4871 75.0019 26.6719 73.4839 26.6719C71.9658 26.6719 71.9635 26.7481 70.4432 26.7481C68.9228 26.7481 68.9228 26.4686 67.4025 26.4686C65.8821 26.4686 65.8821 26.5564 64.3641 26.5564C62.8461 26.5564 62.8437 26.5864 61.3234 26.5864C59.803 26.5864 59.8007 26.4732 58.2804 26.4732C56.76 26.4732 56.7577 26.5887 55.2373 26.5887C54.1145 26.5887 53.9634 26.0666 53.9634 25.3943C53.9634 24.7221 54.1145 24.2924 55.2373 24.2924C56.7554 24.2924 56.7554 24.0613 58.2757 24.0613C59.7961 24.0613 59.7961 24.3201 61.3141 24.3201C62.8321 24.3201 62.8344 24.3663 64.3548 24.3663C65.8751 24.3663 65.8751 24.0844 67.3955 24.0844C68.9158 24.0844 68.9158 24.297 70.4362 24.297C71.9565 24.297 71.9565 24.3178 73.4746 24.3178C74.9926 24.3178 74.9949 24.2877 76.5153 24.2877C78.0356 24.2877 78.0379 24.0914 79.5583 24.0914C81.0786 24.0914 81.081 24.0359 82.6013 24.0359C83.7241 24.0359 83.6567 24.7221 83.6567 25.3943C83.6567 26.0666 83.7241 26.7273 82.6013 26.7273V26.7296Z" fill="#141413"/>
<path d="M19.8207 67.5881C20.088 66.5624 20.2624 66.6063 20.532 65.5805C20.7994 64.5525 20.8621 64.5687 21.1295 63.5429C21.3968 62.5149 21.2178 62.4687 21.4852 61.443C21.7525 60.4149 21.6781 60.3964 21.9478 59.3684C22.2151 58.3403 22.4894 58.4119 22.7568 57.3839C23.0241 56.3559 22.9381 56.3351 23.2054 55.307C23.4728 54.279 23.4426 54.272 23.7122 53.244C23.9796 52.2159 24.0888 52.2437 24.3585 51.2156C24.6258 50.1876 24.5142 50.1575 24.7816 49.1295C24.9792 48.3694 25.5139 48.3995 26.1694 48.5681C26.825 48.7368 27.2179 48.947 27.0179 49.7071C26.7506 50.7328 26.9738 50.7905 26.7064 51.8186C26.4391 52.8466 26.1857 52.7796 25.9184 53.8077C25.651 54.8357 25.6045 54.8242 25.3372 55.8499C25.0698 56.878 25.3442 56.9473 25.0768 57.9753C24.8095 59.0034 24.6026 58.9502 24.3352 59.976C24.0679 61.004 24.047 60.9971 23.7796 62.0251C23.5123 63.0532 23.5402 63.0601 23.2729 64.0881C23.0055 65.1162 23.1938 65.1647 22.9265 66.1951C22.6591 67.2231 22.7126 67.237 22.4453 68.2673C22.2477 69.0274 21.5921 68.8079 20.9365 68.6393C20.281 68.4706 19.6254 68.3505 19.823 67.5904L19.8207 67.5881Z" fill="#141413"/>
<path d="M81.044 23.2641C81.2346 22.4347 81.481 21.841 81.7042 21.3605C81.8274 21.1249 81.939 20.9146 82.0482 20.7183C82.1528 20.5196 82.2877 20.3532 82.4016 20.1754C82.5248 20.0044 82.6317 19.8219 82.7782 19.6509C82.92 19.4777 83.0688 19.2952 83.2361 19.0919C83.5848 18.6991 84.0103 18.2348 84.6472 17.6896C84.9657 17.417 85.2726 17.2137 85.5329 17.0173C85.8096 16.8417 86.0606 16.6985 86.2861 16.5645C86.3977 16.4952 86.5093 16.4397 86.6186 16.3912C86.7278 16.3404 86.8324 16.2919 86.9324 16.2457C87.137 16.1579 87.3206 16.0562 87.5229 15.9962C87.9204 15.8622 88.3109 15.7074 88.8247 15.5988C89.0781 15.5364 89.3571 15.4625 89.6825 15.4232C90.0056 15.377 90.366 15.3077 90.7844 15.3031C90.9936 15.2916 91.1889 15.2823 91.3726 15.2731C91.5562 15.2731 91.7282 15.2846 91.8933 15.2869C92.2188 15.2985 92.507 15.2985 92.7674 15.3378C93.0278 15.3678 93.2625 15.3932 93.4857 15.4186C93.7066 15.4556 93.9111 15.4995 94.1204 15.5411C94.9386 15.7189 95.7965 15.9199 97.2378 16.8232C97.5911 17.0566 97.8817 17.2899 98.1514 17.484C98.4001 17.7034 98.6186 17.8952 98.8162 18.0707C99.0138 18.2463 99.1673 18.4311 99.3277 18.5905C99.4834 18.7546 99.6345 18.9047 99.7601 19.0757C99.8926 19.242 100.023 19.4107 100.162 19.5886C100.304 19.7641 100.42 19.9767 100.567 20.1985C100.636 20.3117 100.711 20.4295 100.79 20.5565C100.855 20.6882 100.927 20.8291 101.001 20.977C101.074 21.1272 101.153 21.2866 101.234 21.4552C101.306 21.6285 101.371 21.8179 101.448 22.0166C101.608 22.414 101.69 22.779 101.764 23.1024C101.799 23.2641 101.843 23.4166 101.859 23.5621C101.876 23.71 101.892 23.8486 101.906 23.9803C101.978 24.507 101.948 24.9321 101.934 25.3525C101.859 26.1888 101.813 27.0321 101.35 28.6284C101.215 29.0212 101.09 29.3631 100.974 29.6634C100.836 29.9568 100.713 30.2155 100.604 30.4512C100.488 30.6822 100.36 30.8809 100.251 31.0726C100.195 31.1674 100.141 31.2621 100.088 31.3522C100.034 31.4423 99.9693 31.5254 99.9112 31.6109C99.7903 31.7819 99.6694 31.9505 99.5392 32.1307C99.4067 32.3086 99.244 32.4796 99.0719 32.6759C98.9836 32.773 98.8953 32.8792 98.793 32.9809C98.6861 33.0802 98.5721 33.1842 98.4536 33.2951C98.3327 33.406 98.2048 33.5238 98.0654 33.6439C97.9166 33.7548 97.7608 33.8726 97.5911 33.9974C97.261 34.2584 96.9356 34.4317 96.6566 34.605C96.3823 34.7852 96.1103 34.8914 95.8778 35.0116C95.7593 35.0693 95.6477 35.1224 95.5384 35.1756C95.4292 35.2241 95.3199 35.2611 95.2153 35.3003C95.0061 35.3789 94.8085 35.4528 94.6109 35.5244C94.4109 35.5914 94.204 35.6376 93.9878 35.6977C93.7717 35.7531 93.5438 35.8247 93.2811 35.8571C93.0208 35.8941 92.7348 35.9518 92.4071 35.9842C92.0793 35.998 91.7096 36.035 91.2889 36.028C91.0773 36.0165 90.8797 36.0073 90.6938 35.998C90.5078 35.9865 90.3334 35.9818 90.1707 35.9495C89.8452 35.8987 89.5593 35.8502 89.2989 35.8016C89.0456 35.73 88.8177 35.6653 88.6015 35.6053C88.4946 35.5729 88.39 35.5452 88.2877 35.5106C88.1877 35.4713 88.0901 35.432 87.9925 35.3927C87.7972 35.3142 87.6019 35.2356 87.395 35.1525C87.1951 35.0554 86.9859 34.9469 86.7511 34.829C86.514 34.7205 86.2699 34.5657 85.9932 34.3924C85.8561 34.3046 85.705 34.2215 85.5539 34.1129C85.4074 34.002 85.2493 33.8865 85.082 33.7617C84.4217 33.2535 83.9754 32.8122 83.6244 32.4287C83.536 32.334 83.4477 32.2462 83.3687 32.1561C83.2943 32.0637 83.2222 31.9736 83.1525 31.8881C83.013 31.7149 82.8828 31.5509 82.7526 31.3868C82.6364 31.2113 82.5225 31.038 82.3993 30.8509C82.3388 30.7561 82.276 30.6614 82.211 30.5598C82.1552 30.4535 82.0994 30.3426 82.0389 30.2271C81.7925 29.7651 81.5321 29.1852 81.3066 28.3743C81.2346 28.0717 81.1555 27.806 81.1346 27.5588C81.1114 27.3139 81.1021 27.0968 81.1044 26.905C81.1044 26.8103 81.1091 26.7225 81.116 26.6393C81.13 26.5562 81.1462 26.4799 81.1625 26.4106C81.1974 26.2697 81.2416 26.1519 81.2904 26.0548C81.488 25.6667 81.7855 25.5951 82.1226 25.5951C82.462 25.5951 82.7433 25.6714 82.9525 25.9809C83.0037 26.0572 83.0525 26.1496 83.0943 26.2581C83.1153 26.3136 83.1362 26.3713 83.1548 26.436C83.1803 26.4984 83.2059 26.5654 83.2292 26.6393C83.278 26.7849 83.3222 26.9489 83.364 27.136C83.4035 27.3255 83.4826 27.5288 83.536 27.7621C83.7104 28.3905 83.9196 28.8387 84.1242 29.1921C84.173 29.2799 84.2195 29.3654 84.266 29.4462C84.3195 29.5225 84.3729 29.5941 84.4241 29.6657C84.5264 29.8043 84.6217 29.936 84.717 30.0677C84.8239 30.1878 84.9332 30.3103 85.0471 30.4373C85.1029 30.502 85.161 30.569 85.2214 30.6383C85.2842 30.7053 85.3563 30.7677 85.426 30.8393C85.705 31.1258 86.0537 31.4584 86.5581 31.8466C86.686 31.9436 86.8045 32.0337 86.9185 32.1192C87.03 32.2046 87.1486 32.267 87.2509 32.3363C87.4601 32.4726 87.6414 32.5997 87.8204 32.6898C87.9971 32.7868 88.1529 32.8792 88.3017 32.967C88.4574 33.0409 88.6039 33.1102 88.7503 33.1796C88.8247 33.2142 88.8968 33.2512 88.9735 33.2881C89.0479 33.3228 89.1292 33.3459 89.2106 33.3759C89.3757 33.4314 89.55 33.4914 89.7453 33.5561C89.9452 33.6023 90.1684 33.6416 90.4218 33.6901C90.5473 33.7201 90.6845 33.7271 90.8309 33.734C90.9774 33.7432 91.1308 33.7502 91.2959 33.7617C91.626 33.771 91.9142 33.7363 92.1746 33.7317C92.4326 33.7132 92.6558 33.6647 92.8604 33.6416C93.0673 33.6231 93.2463 33.57 93.416 33.5307C93.5857 33.4868 93.7484 33.4568 93.9088 33.4106C94.0646 33.3574 94.2203 33.302 94.3877 33.2442C94.4714 33.2142 94.5574 33.1865 94.6457 33.1541C94.7318 33.1149 94.8201 33.0733 94.9131 33.0294C95.292 32.8631 95.736 32.6297 96.2707 32.2416C96.4032 32.1423 96.5264 32.0499 96.645 31.9621C96.7566 31.8674 96.8519 31.768 96.9472 31.6802C97.0402 31.5901 97.1262 31.5046 97.2099 31.4261C97.2912 31.3452 97.354 31.2551 97.4191 31.1766C97.547 31.0126 97.6655 30.874 97.7631 30.7284C97.8538 30.5783 97.9375 30.4373 98.0212 30.2964C98.3257 29.7212 98.6535 29.1575 99.0487 27.9446C99.409 26.7202 99.4393 26.0687 99.4997 25.4242C99.5067 25.1007 99.5369 24.7704 99.4764 24.3684C99.4555 24.1651 99.4393 23.941 99.3695 23.6938C99.3091 23.4466 99.2556 23.1625 99.1277 22.8598C99.072 22.7073 99.0185 22.5618 98.9697 22.4255C98.9069 22.2961 98.8465 22.1737 98.7907 22.0582C98.7349 21.9427 98.6837 21.8341 98.6349 21.7324C98.5768 21.6354 98.521 21.543 98.4675 21.4552C98.3583 21.2819 98.2746 21.1156 98.17 20.977C98.0654 20.8361 97.9677 20.7044 97.8701 20.5727C97.7794 20.4364 97.6655 20.3163 97.547 20.1869C97.4261 20.0598 97.3122 19.9143 97.1634 19.7734C97.0123 19.6348 96.8449 19.4823 96.6543 19.309C96.4474 19.1565 96.2196 18.9764 95.9499 18.7915C94.8317 18.0869 94.1785 17.9044 93.5462 17.7381C93.3858 17.6988 93.2253 17.6595 93.0556 17.6203C92.8813 17.5948 92.7 17.5694 92.4954 17.5417C92.2931 17.5001 92.0653 17.4978 91.8073 17.4863C91.6794 17.4816 91.5423 17.4701 91.3958 17.4678C91.2494 17.4747 91.0959 17.484 90.9309 17.4932C90.6008 17.4932 90.3172 17.5556 90.0638 17.5972C89.9382 17.6226 89.8173 17.6318 89.7081 17.6665C89.5988 17.6988 89.4965 17.7311 89.3966 17.7589C88.9991 17.8628 88.7061 18.0153 88.4086 18.1447C88.2575 18.2024 88.1203 18.2971 87.9692 18.378C87.8228 18.4681 87.6531 18.5374 87.488 18.6552C87.3206 18.7661 87.1347 18.8863 86.9231 19.0226C86.7302 19.182 86.4954 19.3391 86.2513 19.547C85.7631 19.9651 85.4469 20.3301 85.1935 20.6397C85.075 20.8014 84.9704 20.947 84.8704 21.0833C84.7658 21.2173 84.7007 21.3651 84.617 21.5014C84.5426 21.6423 84.445 21.7717 84.3799 21.9265C84.3078 22.079 84.2334 22.243 84.1497 22.4232C84.001 22.7905 83.8289 23.2364 83.6848 23.8532C83.6685 23.9087 83.6546 23.9641 83.6406 24.0172C83.6313 24.0704 83.622 24.1235 83.6127 24.1743C83.5918 24.2737 83.5709 24.3661 83.5477 24.4539C83.5035 24.6271 83.4384 24.7704 83.4012 24.8951C83.3152 25.1446 83.199 25.3086 83.0641 25.4126C82.7945 25.6251 82.455 25.602 82.1156 25.5997C81.7762 25.5997 81.4392 25.6413 81.202 25.371C81.0835 25.237 80.9882 25.0199 80.9347 24.6803C80.8998 24.5093 80.9138 24.3106 80.9254 24.075C80.9347 23.9572 80.9463 23.8301 80.9626 23.6938C80.9719 23.6268 80.9812 23.5552 80.9905 23.4836C81.0044 23.412 81.0254 23.338 81.044 23.2618V23.2641Z" fill="#141413"/>
<path d="M26.39 71.2659C26.7573 71.8481 26.9573 72.3286 27.1037 72.7306C27.1688 72.9362 27.2223 73.121 27.2711 73.2943C27.3246 73.4675 27.3408 73.6408 27.3757 73.8071C27.4013 73.9758 27.4431 74.1398 27.4571 74.32C27.4733 74.4979 27.4919 74.6873 27.5129 74.8976C27.5361 75.318 27.557 75.824 27.5082 76.4939C27.4826 76.8289 27.4245 77.1177 27.3897 77.3787C27.3339 77.6352 27.2711 77.8593 27.2176 78.0626C27.1688 78.2682 27.0874 78.4391 27.0293 78.6078C26.9619 78.7741 26.9154 78.9358 26.8341 79.0837C26.683 79.384 26.5481 79.6913 26.318 80.0424C26.2087 80.2203 26.0925 80.4213 25.9298 80.6246C25.7717 80.8325 25.6066 81.0751 25.3718 81.3153C25.2602 81.4401 25.1533 81.5556 25.0557 81.6642C24.9534 81.7704 24.8464 81.8605 24.7535 81.9506C24.5605 82.1285 24.4001 82.2926 24.2304 82.4173C24.0653 82.549 23.9189 82.6691 23.7794 82.7823C23.6353 82.8886 23.4935 82.981 23.3517 83.078C22.7891 83.4477 22.1847 83.8289 20.8433 84.1315C20.5062 84.1985 20.2087 84.2308 19.9437 84.2724C19.6763 84.2886 19.4392 84.3024 19.2253 84.3163C19.0115 84.3302 18.8185 84.3117 18.6349 84.3117C18.4512 84.3071 18.2792 84.3071 18.1095 84.2816C17.9375 84.2609 17.7678 84.2424 17.5841 84.2193C17.4005 84.1985 17.2145 84.1454 17.0029 84.1015C16.8983 84.076 16.7867 84.0506 16.6705 84.0252C16.5566 83.9883 16.4357 83.9467 16.3079 83.9051C16.18 83.8612 16.0452 83.815 15.8987 83.7642C15.7569 83.7064 15.6104 83.6348 15.4524 83.5632C15.1316 83.4269 14.8758 83.2628 14.648 83.1196C14.4156 82.9833 14.2296 82.8308 14.0645 82.6922C13.7251 82.4265 13.4996 82.1632 13.2718 81.9114C12.8441 81.3823 12.4 80.8695 11.7515 79.7005C11.1354 78.513 11.0099 77.8408 10.8564 77.1939C10.8262 77.0299 10.7983 76.8635 10.7681 76.688C10.7402 76.5124 10.7356 76.323 10.7193 76.1127C10.7146 76.0088 10.703 75.8979 10.7007 75.7824C10.7053 75.6645 10.7077 75.5421 10.7123 75.4104C10.7193 75.2787 10.7216 75.1401 10.7332 74.9923C10.7542 74.8444 10.7751 74.6896 10.7983 74.5233C10.8355 74.1883 10.9215 73.9042 10.982 73.6477C11.0354 73.389 11.1284 73.1741 11.1912 72.9731C11.2261 72.8738 11.2586 72.7791 11.2912 72.689C11.326 72.5989 11.3679 72.5157 11.4028 72.4349C11.4771 72.2708 11.5469 72.1184 11.6166 71.9636C11.691 71.8111 11.7817 71.6679 11.87 71.5131C11.963 71.3583 12.0513 71.1897 12.1815 71.021C12.3071 70.8524 12.4396 70.6583 12.6069 70.455C12.7859 70.261 12.9742 70.0322 13.2183 69.7966C14.2087 68.8656 14.8526 68.5791 15.464 68.3019C15.6197 68.2372 15.7755 68.1725 15.9429 68.1055C16.1126 68.0501 16.2939 67.9923 16.4938 67.9299C16.6914 67.8583 16.9192 67.8098 17.175 67.7521C17.3028 67.7243 17.4377 67.6874 17.5841 67.6643C17.7306 67.6435 17.8863 67.6204 18.0537 67.5973C18.7186 67.5118 19.2253 67.5118 19.6438 67.528C19.7484 67.5303 19.8484 67.5303 19.946 67.5372C20.0413 67.5465 20.1343 67.5557 20.2226 67.5649C20.4016 67.5834 20.569 67.6019 20.7364 67.6204C20.9014 67.6527 21.0688 67.6851 21.2455 67.7197C21.3338 67.7382 21.4245 67.7567 21.5198 67.7775C21.6128 67.8052 21.7081 67.8352 21.8104 67.8676C22.2172 67.99 22.6984 68.1702 23.2912 68.5052C23.5051 68.6346 23.7027 68.7455 23.8538 68.8771C24.0072 69.0065 24.1328 69.1289 24.2374 69.2421C24.2885 69.2999 24.335 69.353 24.3769 69.4062C24.4141 69.4639 24.4466 69.5194 24.4745 69.5725C24.5303 69.6788 24.5652 69.7758 24.5861 69.8659C24.6674 70.2286 24.4931 70.4758 24.256 70.7138C24.0165 70.9517 23.7748 71.1065 23.4633 71.0857C23.3865 71.0811 23.3029 71.0649 23.2168 71.0349C23.1727 71.021 23.1285 71.0025 23.082 70.9817C23.0332 70.9633 22.9797 70.9448 22.9263 70.9217C22.8193 70.8755 22.7031 70.8154 22.5799 70.7392C22.4567 70.6629 22.3056 70.5982 22.1498 70.5012C21.7197 70.2586 21.3687 70.1362 21.0711 70.0623C20.9968 70.0415 20.927 70.023 20.8596 70.0068C20.7899 69.9976 20.7224 69.9883 20.6574 69.9791C20.5295 69.9629 20.4086 69.9468 20.2854 69.9306C20.1645 69.926 20.0413 69.9237 19.9111 69.919C19.846 69.9167 19.7809 69.9121 19.7135 69.9098C19.6438 69.9098 19.574 69.9144 19.4973 69.9167C19.1974 69.9167 18.8394 69.9283 18.3675 69.9884C18.249 70.0045 18.1397 70.0184 18.0351 70.0322C17.9305 70.0461 17.8352 70.0738 17.7445 70.09C17.5632 70.127 17.3981 70.1501 17.2563 70.1963C17.1122 70.2355 16.9797 70.2633 16.8518 70.2933C16.7286 70.3326 16.6124 70.3695 16.4962 70.4065C16.2544 70.4666 16.0405 70.5844 15.7569 70.7114C15.6244 70.79 15.4826 70.8847 15.3222 70.991C15.2385 71.0418 15.1618 71.1088 15.0804 71.1827C14.999 71.2543 14.9107 71.3329 14.8177 71.4138C14.6364 71.5847 14.5016 71.7557 14.3667 71.892C14.2389 72.0375 14.1459 72.1807 14.0506 72.3009C13.9506 72.4187 13.8832 72.5411 13.8135 72.6543C13.746 72.7675 13.674 72.8692 13.6135 72.9778C13.5577 73.0887 13.5043 73.1995 13.4462 73.3174C13.4159 73.3774 13.388 73.4375 13.3555 73.5022C13.3322 73.5692 13.3067 73.6385 13.2788 73.7101C13.1649 73.9989 13.0533 74.357 12.9766 74.849C12.9603 74.9715 12.944 75.087 12.9277 75.1956C12.9184 75.3042 12.9231 75.4081 12.9208 75.5051C12.9208 75.6022 12.9208 75.6923 12.9208 75.7801C12.9208 75.8655 12.9394 75.9464 12.9487 76.0249C12.9719 76.1774 12.9859 76.316 13.0184 76.4431C13.0556 76.5678 13.0905 76.688 13.1253 76.8058C13.2881 77.2678 13.4322 77.7299 13.8646 78.5754C14.3226 79.4071 14.641 79.7744 14.9433 80.1579C15.1083 80.3358 15.2617 80.5345 15.5058 80.7193C15.6244 80.8186 15.7522 80.9318 15.9196 81.0266C16.0824 81.1282 16.2614 81.2506 16.4915 81.3431C16.6031 81.3962 16.7077 81.4447 16.8077 81.4909C16.9099 81.5256 17.0076 81.5602 17.0982 81.5926C17.1889 81.6249 17.2749 81.6549 17.3563 81.685C17.44 81.7058 17.519 81.7242 17.5934 81.745C17.7445 81.7797 17.877 81.8236 18.0072 81.8444C18.1374 81.8652 18.2606 81.8836 18.3815 81.9021C18.5024 81.9275 18.6279 81.9322 18.7581 81.9391C18.8906 81.9437 19.0301 81.9622 19.1835 81.9576C19.3392 81.9506 19.509 81.9437 19.7019 81.9368C19.8925 81.9068 20.111 81.8836 20.3528 81.8398C21.3245 81.6226 21.7686 81.3731 22.1916 81.1259C22.2963 81.0612 22.4032 80.9988 22.5148 80.9295C22.6194 80.851 22.731 80.7678 22.8542 80.6754C22.9844 80.5899 23.1053 80.4698 23.2471 80.3404C23.3191 80.2757 23.3935 80.2064 23.4749 80.1348C23.5469 80.054 23.626 79.9685 23.7073 79.8761C23.8817 79.7005 24.0003 79.518 24.1095 79.3609C24.2258 79.2084 24.3025 79.0559 24.3722 78.9196C24.5233 78.654 24.5907 78.416 24.6744 78.1873C24.7209 78.0764 24.7395 77.954 24.7721 77.8292C24.8 77.7045 24.8488 77.5774 24.872 77.4296C24.8976 77.2817 24.9325 77.12 24.9673 76.9398C24.9836 76.7527 25.0231 76.5494 25.0417 76.3114C25.0975 75.3596 24.9859 74.8814 24.8604 74.4286C24.8255 74.3154 24.8069 74.1976 24.7581 74.0821C24.7139 73.9642 24.6674 73.8395 24.614 73.7032C24.4954 73.4329 24.3513 73.1094 24.1002 72.7098C24.0584 72.6335 24.0142 72.5642 23.9724 72.5019C23.9305 72.4372 23.8956 72.3771 23.8631 72.317C23.798 72.2015 23.7655 72.086 23.7236 71.9936C23.6516 71.8042 23.6446 71.6378 23.6841 71.4877C23.7585 71.1873 24.0119 70.961 24.2513 70.723C24.4931 70.4874 24.7046 70.224 25.0301 70.2078C25.1928 70.2009 25.3835 70.2563 25.6206 70.4111C25.7438 70.485 25.8554 70.6029 25.9855 70.7415C26.0506 70.8131 26.1181 70.8916 26.1878 70.9771C26.2599 71.0626 26.3296 71.1596 26.3924 71.2705L26.39 71.2659Z" fill="#141413"/>
</svg>
