<svg width="115" height="115" viewBox="0 0 115 115" fill="none" xmlns="http://www.w3.org/2000/svg">
<path d="M43.6497 96.2251L43.2794 75.5159C43.2794 75.5159 49.0363 74.3751 48.8983 70.6537C48.7603 66.9323 43.2725 65.6351 43.2725 65.6351V47.9159C43.2725 47.9159 48.9006 47.3984 48.9006 42.1015C48.9006 36.8046 43.2725 38.0374 43.2725 38.0374V17.9078C43.2725 17.9078 46.9847 16.721 48.2175 13.0755C55.6603 13.0755 66.5669 12.9237 66.5669 12.9237C66.5669 12.9237 66.4864 16.6175 68.8922 17.2799C71.298 17.9423 71.2497 18.423 71.2497 18.423L71.3325 36.4274C71.3325 36.4274 66.7003 37.0323 66.7003 41.8623C66.7003 46.6923 71.7511 46.4623 71.7511 46.4623L73.1725 65.6374C73.1725 65.6374 68.6346 67.091 68.6346 70.5778C68.6346 74.0646 73.5911 76.0334 73.5911 76.0334V95.0912C73.5911 95.0912 67.8411 95.841 67.8411 100.478C56.3503 100.478 48.8983 100.556 48.8983 100.556C48.8983 100.556 49.3514 96.0825 43.6497 96.2274V96.2251Z" fill="#E3DACC"/>
<path d="M69.9204 36.8345C69.9204 35.7719 70.0998 35.7719 70.0998 34.707C70.0998 33.6421 70.1619 33.6421 70.1619 32.5795C70.1619 31.5169 69.9779 31.5169 69.9779 30.452C69.9779 29.3871 69.902 29.3894 69.902 28.3245C69.902 27.2596 70.1803 27.2596 70.1803 26.197C70.1803 25.1344 70.0929 25.1344 70.0929 24.0695C70.0929 23.0046 70.063 23.0046 70.063 21.9397C70.063 20.8748 70.1757 20.8748 70.1757 19.8099C70.1757 18.745 70.0607 18.745 70.0607 17.6801C70.0607 16.8935 70.5805 16.7877 71.2498 16.7877C71.9191 16.7877 72.3469 16.8935 72.3469 17.6801C72.3469 18.7427 72.5769 18.7427 72.5769 19.8076C72.5769 20.8725 72.3193 20.8702 72.3193 21.9351C72.3193 23 72.2733 22.9977 72.2733 24.0626C72.2733 25.1275 72.5539 25.1252 72.5539 26.1901C72.5539 27.255 72.3423 27.255 72.3423 28.3176C72.3423 29.3802 72.3216 29.3802 72.3216 30.4451C72.3216 31.51 72.3515 31.51 72.3515 32.5749C72.3515 33.6398 72.547 33.6398 72.547 34.7047C72.547 35.7696 72.6022 35.7696 72.6022 36.8345C72.6022 37.6211 71.9191 37.5728 71.2498 37.5728C70.5805 37.5728 69.9227 37.6211 69.9227 36.8345H69.9204Z" fill="#141413"/>
<path d="M12.2341 76.7993C11.7327 76.728 11.3693 76.6084 11.0749 76.4957C10.7851 76.3715 10.5597 76.2611 10.3504 76.1231C10.1342 75.9989 9.93412 75.8471 9.68342 75.6677C9.43962 75.4791 9.14982 75.2514 8.80022 74.9064C8.62542 74.7362 8.48972 74.566 8.36322 74.4234C8.24592 74.2716 8.15162 74.1313 8.06422 74.0071C7.97452 73.8829 7.91472 73.7564 7.85032 73.6437C7.79052 73.5287 7.72382 73.4252 7.68012 73.3102C7.58352 73.0848 7.48002 72.864 7.39262 72.5719C7.34432 72.427 7.28912 72.2683 7.25232 72.082C7.21092 71.8957 7.15342 71.691 7.12812 71.4495C7.11202 71.3299 7.09592 71.2172 7.08212 71.1114C7.07062 71.0056 7.06832 70.9044 7.06142 70.8101C7.04992 70.6215 7.03382 70.4536 7.04072 70.3018C7.04072 70.1477 7.04072 70.0097 7.04072 69.8786C7.04532 69.7475 7.05682 69.6256 7.06602 69.5014C7.11202 69.0115 7.16952 68.4917 7.63182 67.6016C7.75142 67.3831 7.87332 67.1991 7.97452 67.0335C8.08952 66.8771 8.19302 66.7368 8.28502 66.6103C8.37932 66.4838 8.47822 66.3826 8.56332 66.2814C8.65072 66.1802 8.73122 66.0836 8.82552 65.9985C9.00492 65.8214 9.18662 65.6443 9.44422 65.4603C9.50862 65.412 9.57302 65.3637 9.64432 65.3108C9.72022 65.2648 9.79842 65.2165 9.88352 65.1636C9.96862 65.113 10.0583 65.0601 10.1549 65.0026C10.2538 64.952 10.3619 64.9014 10.4769 64.8485C10.7046 64.7358 10.9185 64.6691 11.1071 64.6116C11.2957 64.5495 11.4682 64.5196 11.6246 64.4966C11.9351 64.4391 12.1904 64.4483 12.4388 64.4506C12.9356 64.4805 13.4278 64.4943 14.38 64.6852C15.3276 64.9037 15.7623 65.1406 16.197 65.3568C16.3028 65.4166 16.4086 65.4764 16.5236 65.5408C16.6363 65.6075 16.7444 65.6926 16.8686 65.78C16.9307 65.826 16.9974 65.872 17.0618 65.9249C17.1262 65.9824 17.1929 66.0422 17.2642 66.1043C17.3355 66.1687 17.4114 66.2377 17.4873 66.3113C17.5609 66.3918 17.6368 66.4769 17.7196 66.5689C18.0416 66.9392 18.2463 67.2497 18.4004 67.5165C18.5683 67.7764 18.6557 68.0087 18.7684 68.2272C18.819 68.3399 18.8581 68.4572 18.9041 68.5814C18.9478 68.7056 19.0007 68.8344 19.0329 68.9862C19.0697 69.1357 19.1157 69.3013 19.1502 69.4899C19.1755 69.6808 19.2146 69.8947 19.2307 70.1385C19.2882 71.1252 19.1387 71.6197 18.9984 72.0866C18.9593 72.2039 18.9202 72.3189 18.8788 72.4431C18.8282 72.5627 18.7753 72.6892 18.7155 72.8295C18.6603 72.9721 18.5821 73.1193 18.4947 73.2872C18.4487 73.37 18.4073 73.462 18.3521 73.554C18.2946 73.6437 18.2348 73.7403 18.1704 73.8438C17.9082 74.2509 17.6736 74.5315 17.4712 74.7592C17.3746 74.8765 17.278 74.9754 17.1837 75.0651C17.0917 75.1571 17.0043 75.2422 16.9169 75.3296C16.8226 75.4078 16.7283 75.486 16.6271 75.5688C16.5765 75.6102 16.5236 75.6516 16.4684 75.6953C16.4086 75.7344 16.3488 75.7735 16.2844 75.8172C16.0268 75.9874 15.7002 76.1714 15.2356 76.3439C15.0631 76.4014 14.9067 76.4566 14.7618 76.475C14.6169 76.4957 14.4881 76.5026 14.3754 76.498C14.15 76.498 13.9775 76.4152 13.8556 76.3301C13.6118 76.1461 13.5497 75.854 13.5221 75.5205C13.4922 75.187 13.5129 74.9064 13.644 74.6971C13.7084 74.5867 13.805 74.5154 13.9315 74.4257C13.9959 74.3843 14.0695 74.3452 14.1546 74.313C14.242 74.2808 14.3317 74.2302 14.4421 74.1957C15.024 73.9749 15.2379 73.7196 15.4472 73.5011C15.6335 73.255 15.8313 73.0319 16.1533 72.5443C16.2315 72.4201 16.3051 72.3143 16.3557 72.2131C16.4132 72.1142 16.4707 72.0291 16.5098 71.9463C16.5535 71.8635 16.5972 71.7922 16.6409 71.7232C16.6754 71.6519 16.7099 71.5829 16.7467 71.5139C16.8801 71.2402 17.0204 70.9366 16.9859 70.3064C16.9376 69.6785 16.8157 69.3841 16.726 69.0828C16.6018 68.7976 16.4937 68.4894 16.082 68.0041C16.0291 67.9466 15.9785 67.8914 15.9325 67.8385C15.8819 67.7902 15.829 67.7511 15.783 67.7097C15.6887 67.6292 15.6013 67.5648 15.5139 67.5188C15.4265 67.4705 15.3506 67.4268 15.2747 67.3946C15.1965 67.367 15.1206 67.3394 15.047 67.3141C14.7457 67.2267 14.4605 67.1347 13.8901 67.0013C13.3151 66.884 13.0161 66.8679 12.7079 66.838C12.5561 66.8357 12.3974 66.8173 12.2065 66.8541C12.1099 66.8679 12.0041 66.8794 11.8891 66.9185C11.7741 66.9553 11.6407 66.9875 11.5027 67.0611C11.4314 67.0933 11.367 67.1232 11.3049 67.1531C11.2451 67.1876 11.1899 67.2221 11.1393 67.252C11.0864 67.2819 11.0381 67.3095 10.9898 67.3371C10.9461 67.3693 10.9047 67.3992 10.8656 67.4268C10.7874 67.4843 10.7115 67.5303 10.6494 67.5832C10.5873 67.6384 10.5275 67.689 10.4677 67.7396C10.2469 67.9558 9.99852 68.1651 9.69492 68.7148C9.40512 69.2714 9.34992 69.5865 9.29932 69.8901C9.28782 69.966 9.27632 70.0442 9.26482 70.1247C9.26022 70.2075 9.25792 70.2949 9.25332 70.3915C9.24182 70.4881 9.25332 70.5962 9.25562 70.7158C9.25792 70.7756 9.26022 70.84 9.26252 70.909C9.27172 70.978 9.28322 71.0493 9.29472 71.1275C9.30852 71.2839 9.34992 71.4127 9.38212 71.53C9.40972 71.6473 9.45572 71.7462 9.49712 71.8336C9.56842 72.013 9.66502 72.1372 9.75012 72.2637C9.94102 72.5029 10.1089 72.7513 10.5252 73.1699C10.9553 73.577 11.229 73.7104 11.4935 73.8277C11.7603 73.945 12.0363 74.0531 12.6067 74.1451C12.7102 74.1704 12.8045 74.1704 12.885 74.2003C12.9655 74.2233 13.0322 74.267 13.092 74.2969C13.2116 74.3659 13.2944 74.4694 13.3565 74.5959C13.4784 74.8466 13.4991 75.1847 13.5244 75.5182C13.5497 75.8517 13.6049 76.1829 13.4692 76.4359C13.4002 76.5624 13.2806 76.6705 13.0828 76.7487C12.9839 76.7924 12.8643 76.8062 12.724 76.8177C12.5837 76.8223 12.4181 76.8361 12.2341 76.8016V76.7993Z" fill="#141413"/>
<path d="M12.6941 107.389C12.1927 107.318 11.8293 107.198 11.5349 107.086C11.2451 106.961 11.0197 106.851 10.8104 106.713C10.5942 106.589 10.3941 106.437 10.1434 106.258C9.89962 106.069 9.60982 105.841 9.26022 105.496C9.08542 105.326 8.94972 105.156 8.82322 105.013C8.70592 104.862 8.61162 104.721 8.52422 104.597C8.43452 104.473 8.37472 104.346 8.31032 104.234C8.25052 104.119 8.18382 104.015 8.14012 103.9C8.04352 103.675 7.94002 103.454 7.85262 103.162C7.80432 103.017 7.74912 102.858 7.71232 102.672C7.67092 102.486 7.61342 102.281 7.58812 102.039C7.57202 101.92 7.55592 101.807 7.54212 101.701C7.53062 101.596 7.52832 101.494 7.52142 101.4C7.50992 101.211 7.49382 101.044 7.50072 100.892C7.50072 100.738 7.50072 100.6 7.50072 100.469C7.50532 100.337 7.51682 100.216 7.52602 100.091C7.57202 99.6015 7.62952 99.0817 8.09182 98.1916C8.21142 97.9731 8.33332 97.7891 8.43452 97.6235C8.54952 97.4671 8.65302 97.3268 8.74502 97.2003C8.83932 97.0738 8.93822 96.9726 9.02332 96.8714C9.11072 96.7702 9.19122 96.6736 9.28552 96.5885C9.46492 96.4114 9.64662 96.2343 9.90422 96.0503C9.96862 96.002 10.033 95.9537 10.1043 95.9008C10.1802 95.8548 10.2584 95.8065 10.3435 95.7536C10.4286 95.703 10.5183 95.6501 10.6149 95.5926C10.7138 95.542 10.8219 95.4914 10.9369 95.4385C11.1646 95.3258 11.3785 95.2591 11.5671 95.2016C11.7557 95.1395 11.9282 95.1096 12.0846 95.0866C12.3951 95.0291 12.6504 95.0383 12.8988 95.0406C13.3956 95.0705 13.8878 95.0843 14.84 95.2752C15.7876 95.4937 16.2223 95.7306 16.657 95.9468C16.7628 96.0066 16.8686 96.0664 16.9836 96.1308C17.0963 96.1975 17.2044 96.2826 17.3286 96.37C17.3907 96.416 17.4574 96.462 17.5218 96.5149C17.5862 96.5724 17.6529 96.6322 17.7242 96.6943C17.7955 96.7587 17.8714 96.8277 17.9473 96.9013C18.0209 96.9818 18.0968 97.0669 18.1796 97.1589C18.5016 97.5292 18.7063 97.8397 18.8604 98.1065C19.0283 98.3664 19.1157 98.5987 19.2284 98.8172C19.279 98.9299 19.3181 99.0472 19.3641 99.1714C19.4078 99.2956 19.4607 99.4244 19.4929 99.5762C19.5297 99.7257 19.5757 99.8913 19.6102 100.08C19.6355 100.271 19.6746 100.485 19.6907 100.728C19.7482 101.715 19.5987 102.21 19.4584 102.677C19.4193 102.794 19.3802 102.909 19.3388 103.033C19.2882 103.153 19.2353 103.279 19.1755 103.419C19.1203 103.562 19.0421 103.709 18.9547 103.877C18.9087 103.96 18.8673 104.052 18.8121 104.144C18.7546 104.234 18.6948 104.33 18.6304 104.434C18.3682 104.841 18.1336 105.121 17.9312 105.349C17.8346 105.466 17.738 105.565 17.6437 105.655C17.5517 105.747 17.4643 105.832 17.3769 105.92C17.2826 105.998 17.1883 106.076 17.0871 106.159C17.0365 106.2 16.9836 106.242 16.9284 106.285C16.8686 106.324 16.8088 106.363 16.7444 106.407C16.4868 106.577 16.1602 106.761 15.6956 106.934C15.5231 106.991 15.3667 107.047 15.2218 107.065C15.0769 107.086 14.9481 107.093 14.8354 107.088C14.61 107.088 14.4375 107.005 14.3156 106.92C14.0718 106.736 14.0097 106.444 13.9821 106.11C13.9522 105.777 13.9729 105.496 14.104 105.287C14.1684 105.177 14.265 105.105 14.3915 105.016C14.4559 104.974 14.5295 104.935 14.6146 104.903C14.702 104.871 14.7917 104.82 14.9021 104.786C15.484 104.565 15.6979 104.31 15.9072 104.091C16.0935 103.845 16.2913 103.622 16.6133 103.134C16.6915 103.01 16.7651 102.904 16.8157 102.803C16.8732 102.704 16.9307 102.619 16.9698 102.536C17.0135 102.453 17.0572 102.382 17.1009 102.313C17.1354 102.242 17.1699 102.173 17.2067 102.104C17.3401 101.83 17.4804 101.527 17.4459 100.896C17.3976 100.268 17.2757 99.9741 17.186 99.6728C17.0618 99.3876 16.9537 99.0794 16.542 98.5941C16.4891 98.5366 16.4385 98.4814 16.3925 98.4285C16.3419 98.3802 16.289 98.3411 16.243 98.2997C16.1487 98.2192 16.0613 98.1548 15.9739 98.1088C15.8865 98.0605 15.8106 98.0168 15.7347 97.9846C15.6565 97.957 15.5806 97.9294 15.507 97.9041C15.2057 97.8167 14.9205 97.7247 14.3501 97.5913C13.7751 97.474 13.4761 97.4579 13.1679 97.428C13.0161 97.4257 12.8574 97.4073 12.6665 97.4441C12.5699 97.4579 12.4641 97.4694 12.3491 97.5085C12.2341 97.5453 12.1007 97.5775 11.9627 97.6511C11.8914 97.6833 11.827 97.7132 11.7649 97.7431C11.7051 97.7776 11.6499 97.8121 11.5993 97.842C11.5464 97.8719 11.4981 97.8995 11.4498 97.9271C11.4061 97.9593 11.3647 97.9892 11.3256 98.0168C11.2474 98.0743 11.1715 98.1203 11.1094 98.1732C11.0473 98.2284 10.9875 98.279 10.9277 98.3296C10.7069 98.5458 10.4585 98.7551 10.1549 99.3048C9.86512 99.8614 9.80992 100.176 9.75932 100.48C9.74782 100.556 9.73632 100.634 9.72482 100.715C9.72022 100.797 9.71792 100.885 9.71332 100.981C9.70182 101.078 9.71332 101.186 9.71562 101.306C9.71792 101.366 9.72022 101.43 9.72252 101.499C9.73172 101.568 9.74322 101.639 9.75472 101.717C9.76852 101.874 9.80992 102.003 9.84212 102.12C9.86972 102.237 9.91572 102.336 9.95712 102.424C10.0284 102.603 10.125 102.727 10.2101 102.854C10.401 103.093 10.5689 103.341 10.9852 103.76C11.4153 104.167 11.689 104.3 11.9535 104.418C12.2203 104.535 12.4963 104.643 13.0667 104.735C13.1702 104.76 13.2645 104.76 13.345 104.79C13.4255 104.813 13.4922 104.857 13.552 104.887C13.6716 104.956 13.7544 105.059 13.8165 105.186C13.9384 105.437 13.9591 105.775 13.9844 106.108C14.0097 106.442 14.0649 106.773 13.9292 107.026C13.8602 107.152 13.7406 107.26 13.5428 107.339C13.4439 107.382 13.3243 107.396 13.184 107.408C13.0437 107.412 12.8781 107.426 12.6941 107.392V107.389Z" fill="#141413"/>
<path d="M42.8241 107.389C42.3227 107.318 41.9593 107.198 41.6649 107.086C41.3751 106.961 41.1497 106.851 40.9404 106.713C40.7242 106.589 40.5241 106.437 40.2734 106.258C40.0296 106.069 39.7398 105.841 39.3902 105.496C39.2154 105.326 39.0797 105.156 38.9532 105.013C38.8359 104.862 38.7416 104.721 38.6542 104.597C38.5645 104.473 38.5047 104.346 38.4403 104.234C38.3805 104.119 38.3138 104.015 38.2701 103.9C38.1735 103.675 38.07 103.454 37.9826 103.162C37.9343 103.017 37.8791 102.858 37.8423 102.672C37.8009 102.486 37.7434 102.281 37.7181 102.039C37.702 101.92 37.6859 101.807 37.6721 101.701C37.6606 101.596 37.6583 101.494 37.6514 101.4C37.6399 101.211 37.6238 101.044 37.6307 100.892C37.6307 100.738 37.6307 100.6 37.6307 100.469C37.6353 100.337 37.6468 100.216 37.656 100.091C37.702 99.6015 37.7595 99.0817 38.2218 98.1916C38.3414 97.9731 38.4633 97.7891 38.5645 97.6235C38.6795 97.4671 38.783 97.3268 38.875 97.2003C38.9693 97.0738 39.0682 96.9726 39.1533 96.8714C39.2407 96.7702 39.3212 96.6736 39.4155 96.5885C39.5949 96.4114 39.7766 96.2343 40.0342 96.0503C40.0986 96.002 40.163 95.9537 40.2343 95.9008C40.3102 95.8548 40.3884 95.8065 40.4735 95.7536C40.5586 95.703 40.6483 95.6501 40.7449 95.5926C40.8438 95.542 40.9519 95.4914 41.0669 95.4385C41.2946 95.3258 41.5085 95.2591 41.6971 95.2016C41.8857 95.1395 42.0582 95.1096 42.2146 95.0866C42.5251 95.0291 42.7804 95.0383 43.0288 95.0406C43.5256 95.0705 44.0178 95.0843 44.97 95.2752C45.9176 95.4937 46.3523 95.7306 46.787 95.9468C46.8928 96.0066 46.9986 96.0664 47.1136 96.1308C47.2263 96.1975 47.3344 96.2826 47.4586 96.37C47.5207 96.416 47.5874 96.462 47.6518 96.5149C47.7162 96.5724 47.7829 96.6322 47.8542 96.6943C47.9255 96.7587 48.0014 96.8277 48.0773 96.9013C48.1509 96.9818 48.2268 97.0669 48.3096 97.1589C48.6316 97.5292 48.8363 97.8397 48.9904 98.1065C49.1583 98.3664 49.2457 98.5987 49.3584 98.8172C49.409 98.9299 49.4481 99.0472 49.4941 99.1714C49.5378 99.2956 49.5907 99.4244 49.6229 99.5762C49.6597 99.7257 49.7057 99.8913 49.7402 100.08C49.7655 100.271 49.8046 100.485 49.8207 100.728C49.8782 101.715 49.7287 102.21 49.5884 102.677C49.5493 102.794 49.5102 102.909 49.4688 103.033C49.4182 103.153 49.3653 103.279 49.3055 103.419C49.2503 103.562 49.1721 103.709 49.0847 103.877C49.0387 103.96 48.9973 104.052 48.9421 104.144C48.8846 104.234 48.8248 104.33 48.7604 104.434C48.4982 104.841 48.2636 105.121 48.0612 105.349C47.9646 105.466 47.868 105.565 47.7737 105.655C47.6817 105.747 47.5943 105.832 47.5069 105.92C47.4126 105.998 47.3183 106.076 47.2171 106.159C47.1665 106.2 47.1136 106.242 47.0584 106.285C46.9986 106.324 46.9388 106.363 46.8744 106.407C46.6168 106.577 46.2902 106.761 45.8256 106.934C45.6531 106.991 45.4967 107.047 45.3518 107.065C45.2069 107.086 45.0781 107.093 44.9654 107.088C44.74 107.088 44.5675 107.005 44.4456 106.92C44.2018 106.736 44.1397 106.444 44.1121 106.11C44.0822 105.777 44.1029 105.496 44.234 105.287C44.2984 105.177 44.395 105.105 44.5215 105.016C44.5859 104.974 44.6595 104.935 44.7446 104.903C44.832 104.871 44.9217 104.82 45.0321 104.786C45.614 104.565 45.8279 104.31 46.0372 104.091C46.2235 103.845 46.4213 103.622 46.7433 103.134C46.8215 103.01 46.8951 102.904 46.9457 102.803C47.0032 102.704 47.0607 102.619 47.0998 102.536C47.1435 102.453 47.1872 102.382 47.2309 102.313C47.2654 102.242 47.2999 102.173 47.3367 102.104C47.4701 101.83 47.6104 101.527 47.5759 100.896C47.5276 100.268 47.4057 99.9741 47.316 99.6728C47.1918 99.3876 47.0837 99.0794 46.672 98.5941C46.6191 98.5366 46.5685 98.4814 46.5225 98.4285C46.4719 98.3802 46.419 98.3411 46.373 98.2997C46.2787 98.2192 46.1913 98.1548 46.1039 98.1088C46.0165 98.0605 45.9406 98.0168 45.8647 97.9846C45.7865 97.957 45.7106 97.9294 45.637 97.9041C45.3357 97.8167 45.0505 97.7247 44.4801 97.5913C43.9051 97.474 43.6061 97.4579 43.2979 97.428C43.1461 97.4257 42.9874 97.4073 42.7965 97.4441C42.6999 97.4579 42.5941 97.4694 42.4791 97.5085C42.3641 97.5453 42.2307 97.5775 42.0927 97.6511C42.0214 97.6833 41.957 97.7132 41.8949 97.7431C41.8351 97.7776 41.7799 97.8121 41.7293 97.842C41.6764 97.8719 41.6281 97.8995 41.5798 97.9271C41.5361 97.9593 41.4947 97.9892 41.4556 98.0168C41.3774 98.0743 41.3015 98.1203 41.2394 98.1732C41.1773 98.2284 41.1175 98.279 41.0577 98.3296C40.8369 98.5458 40.5885 98.7551 40.2849 99.3048C39.9951 99.8614 39.9399 100.176 39.8893 100.48C39.8778 100.556 39.8663 100.634 39.8548 100.715C39.8502 100.797 39.8479 100.885 39.8433 100.981C39.8318 101.078 39.8433 101.186 39.8456 101.306C39.8479 101.366 39.8502 101.43 39.8525 101.499C39.8617 101.568 39.8732 101.639 39.8847 101.717C39.8985 101.874 39.9399 102.003 39.9721 102.12C39.9997 102.237 40.0457 102.336 40.0871 102.424C40.1584 102.603 40.255 102.727 40.3401 102.854C40.531 103.093 40.6989 103.341 41.1152 103.76C41.5453 104.167 41.819 104.3 42.0835 104.418C42.3503 104.535 42.6263 104.643 43.1967 104.735C43.3002 104.76 43.3945 104.76 43.475 104.79C43.5555 104.813 43.6222 104.857 43.682 104.887C43.8016 104.956 43.8844 105.059 43.9465 105.186C44.0684 105.437 44.0891 105.775 44.1144 106.108C44.1397 106.442 44.1949 106.773 44.0592 107.026C43.9902 107.152 43.8706 107.26 43.6728 107.339C43.5739 107.382 43.4543 107.396 43.314 107.408C43.1737 107.412 43.0081 107.426 42.8241 107.392V107.389Z" fill="#141413"/>
<path d="M42.8241 76.7993C42.3227 76.728 41.9593 76.6084 41.6649 76.4957C41.3751 76.3715 41.1497 76.2611 40.9404 76.1231C40.7242 75.9989 40.5241 75.8471 40.2734 75.6677C40.0296 75.4791 39.7398 75.2514 39.3902 74.9064C39.2154 74.7362 39.0797 74.566 38.9532 74.4234C38.8359 74.2716 38.7416 74.1313 38.6542 74.0071C38.5645 73.8829 38.5047 73.7564 38.4403 73.6437C38.3805 73.5287 38.3138 73.4252 38.2701 73.3102C38.1735 73.0848 38.07 72.864 37.9826 72.5719C37.9343 72.427 37.8791 72.2683 37.8423 72.082C37.8009 71.8957 37.7434 71.691 37.7181 71.4495C37.702 71.3299 37.6859 71.2172 37.6721 71.1114C37.6606 71.0056 37.6583 70.9044 37.6514 70.8101C37.6399 70.6215 37.6238 70.4536 37.6307 70.3018C37.6307 70.1477 37.6307 70.0097 37.6307 69.8786C37.6353 69.7475 37.6468 69.6256 37.656 69.5014C37.702 69.0115 37.7595 68.4917 38.2218 67.6016C38.3414 67.3831 38.4633 67.1991 38.5645 67.0335C38.6795 66.8771 38.783 66.7368 38.875 66.6103C38.9693 66.4838 39.0682 66.3826 39.1533 66.2814C39.2407 66.1802 39.3212 66.0836 39.4155 65.9985C39.5949 65.8214 39.7766 65.6443 40.0342 65.4603C40.0986 65.412 40.163 65.3637 40.2343 65.3108C40.3102 65.2648 40.3884 65.2165 40.4735 65.1636C40.5586 65.113 40.6483 65.0601 40.7449 65.0026C40.8438 64.952 40.9519 64.9014 41.0669 64.8485C41.2946 64.7358 41.5085 64.6691 41.6971 64.6116C41.8857 64.5495 42.0582 64.5196 42.2146 64.4966C42.5251 64.4391 42.7804 64.4483 43.0288 64.4506C43.5256 64.4805 44.0178 64.4943 44.97 64.6852C45.9176 64.9037 46.3523 65.1406 46.787 65.3568C46.8928 65.4166 46.9986 65.4764 47.1136 65.5408C47.2263 65.6075 47.3344 65.6926 47.4586 65.78C47.5207 65.826 47.5874 65.872 47.6518 65.9249C47.7162 65.9824 47.7829 66.0422 47.8542 66.1043C47.9255 66.1687 48.0014 66.2377 48.0773 66.3113C48.1509 66.3918 48.2268 66.4769 48.3096 66.5689C48.6316 66.9392 48.8363 67.2497 48.9904 67.5165C49.1583 67.7764 49.2457 68.0087 49.3584 68.2272C49.409 68.3399 49.4481 68.4572 49.4941 68.5814C49.5378 68.7056 49.5907 68.8344 49.6229 68.9862C49.6597 69.1357 49.7057 69.3013 49.7402 69.4899C49.7655 69.6808 49.8046 69.8947 49.8207 70.1385C49.8782 71.1252 49.7287 71.6197 49.5884 72.0866C49.5493 72.2039 49.5102 72.3189 49.4688 72.4431C49.4182 72.5627 49.3653 72.6892 49.3055 72.8295C49.2503 72.9721 49.1721 73.1193 49.0847 73.2872C49.0387 73.37 48.9973 73.462 48.9421 73.554C48.8846 73.6437 48.8248 73.7403 48.7604 73.8438C48.4982 74.2509 48.2636 74.5315 48.0612 74.7592C47.9646 74.8765 47.868 74.9754 47.7737 75.0651C47.6817 75.1571 47.5943 75.2422 47.5069 75.3296C47.4126 75.4078 47.3183 75.486 47.2171 75.5688C47.1665 75.6102 47.1136 75.6516 47.0584 75.6953C46.9986 75.7344 46.9388 75.7735 46.8744 75.8172C46.6168 75.9874 46.2902 76.1714 45.8256 76.3439C45.6531 76.4014 45.4967 76.4566 45.3518 76.475C45.2069 76.4957 45.0781 76.5026 44.9654 76.498C44.74 76.498 44.5675 76.4152 44.4456 76.3301C44.2018 76.1461 44.1397 75.854 44.1121 75.5205C44.0822 75.187 44.1029 74.9064 44.234 74.6971C44.2984 74.5867 44.395 74.5154 44.5215 74.4257C44.5859 74.3843 44.6595 74.3452 44.7446 74.313C44.832 74.2808 44.9217 74.2302 45.0321 74.1957C45.614 73.9749 45.8279 73.7196 46.0372 73.5011C46.2235 73.255 46.4213 73.0319 46.7433 72.5443C46.8215 72.4201 46.8951 72.3143 46.9457 72.2131C47.0032 72.1142 47.0607 72.0291 47.0998 71.9463C47.1435 71.8635 47.1872 71.7922 47.2309 71.7232C47.2654 71.6519 47.2999 71.5829 47.3367 71.5139C47.4701 71.2402 47.6104 70.9366 47.5759 70.3064C47.5276 69.6785 47.4057 69.3841 47.316 69.0828C47.1918 68.7976 47.0837 68.4894 46.672 68.0041C46.6191 67.9466 46.5685 67.8914 46.5225 67.8385C46.4719 67.7902 46.419 67.7511 46.373 67.7097C46.2787 67.6292 46.1913 67.5648 46.1039 67.5188C46.0165 67.4705 45.9406 67.4268 45.8647 67.3946C45.7865 67.367 45.7106 67.3394 45.637 67.3141C45.3357 67.2267 45.0505 67.1347 44.4801 67.0013C43.9051 66.884 43.6061 66.8679 43.2979 66.838C43.1461 66.8357 42.9874 66.8173 42.7965 66.8541C42.6999 66.8679 42.5941 66.8794 42.4791 66.9185C42.3641 66.9553 42.2307 66.9875 42.0927 67.0611C42.0214 67.0933 41.957 67.1232 41.8949 67.1531C41.8351 67.1876 41.7799 67.2221 41.7293 67.252C41.6764 67.2819 41.6281 67.3095 41.5798 67.3371C41.5361 67.3693 41.4947 67.3992 41.4556 67.4268C41.3774 67.4843 41.3015 67.5303 41.2394 67.5832C41.1773 67.6384 41.1175 67.689 41.0577 67.7396C40.8369 67.9558 40.5885 68.1651 40.2849 68.7148C39.9951 69.2714 39.9399 69.5865 39.8893 69.8901C39.8778 69.966 39.8663 70.0442 39.8548 70.1247C39.8502 70.2075 39.8479 70.2949 39.8433 70.3915C39.8318 70.4881 39.8433 70.5962 39.8456 70.7158C39.8479 70.7756 39.8502 70.84 39.8525 70.909C39.8617 70.978 39.8732 71.0493 39.8847 71.1275C39.8985 71.2839 39.9399 71.4127 39.9721 71.53C39.9997 71.6473 40.0457 71.7462 40.0871 71.8336C40.1584 72.013 40.255 72.1372 40.3401 72.2637C40.531 72.5029 40.6989 72.7513 41.1152 73.1699C41.5453 73.577 41.819 73.7104 42.0835 73.8277C42.3503 73.945 42.6263 74.0531 43.1967 74.1451C43.3002 74.1704 43.3945 74.1704 43.475 74.2003C43.5555 74.2233 43.6222 74.267 43.682 74.2969C43.8016 74.3659 43.8844 74.4694 43.9465 74.5959C44.0684 74.8466 44.0891 75.1847 44.1144 75.5182C44.1397 75.8517 44.1949 76.1829 44.0592 76.4359C43.9902 76.5624 43.8706 76.6705 43.6728 76.7487C43.5739 76.7924 43.4543 76.8062 43.314 76.8177C43.1737 76.8223 43.0081 76.8361 42.8241 76.8016V76.7993Z" fill="#141413"/>
<path d="M42.8241 49.1993C42.3227 49.128 41.9593 49.0084 41.6649 48.8957C41.3751 48.7715 41.1497 48.6611 40.9404 48.5231C40.7242 48.3989 40.5241 48.2471 40.2734 48.0677C40.0296 47.8791 39.7398 47.6514 39.3902 47.3064C39.2154 47.1362 39.0797 46.966 38.9532 46.8234C38.8359 46.6716 38.7416 46.5313 38.6542 46.4071C38.5645 46.2829 38.5047 46.1564 38.4403 46.0437C38.3805 45.9287 38.3138 45.8252 38.2701 45.7102C38.1735 45.4848 38.07 45.264 37.9826 44.9719C37.9343 44.827 37.8791 44.6683 37.8423 44.482C37.8009 44.2957 37.7434 44.091 37.7181 43.8495C37.702 43.7299 37.6859 43.6172 37.6721 43.5114C37.6606 43.4056 37.6583 43.3044 37.6514 43.2101C37.6399 43.0215 37.6238 42.8536 37.6307 42.7018C37.6307 42.5477 37.6307 42.4097 37.6307 42.2786C37.6353 42.1475 37.6468 42.0256 37.656 41.9014C37.702 41.4115 37.7595 40.8917 38.2218 40.0016C38.3414 39.7831 38.4633 39.5991 38.5645 39.4335C38.6795 39.2771 38.783 39.1368 38.875 39.0103C38.9693 38.8838 39.0682 38.7826 39.1533 38.6814C39.2407 38.5802 39.3212 38.4836 39.4155 38.3985C39.5949 38.2214 39.7766 38.0443 40.0342 37.8603C40.0986 37.812 40.163 37.7637 40.2343 37.7108C40.3102 37.6648 40.3884 37.6165 40.4735 37.5636C40.5586 37.513 40.6483 37.4601 40.7449 37.4026C40.8438 37.352 40.9519 37.3014 41.0669 37.2485C41.2946 37.1358 41.5085 37.0691 41.6971 37.0116C41.8857 36.9495 42.0582 36.9196 42.2146 36.8966C42.5251 36.8391 42.7804 36.8483 43.0288 36.8506C43.5256 36.8805 44.0178 36.8943 44.97 37.0852C45.9176 37.3037 46.3523 37.5406 46.787 37.7568C46.8928 37.8166 46.9986 37.8764 47.1136 37.9408C47.2263 38.0075 47.3344 38.0926 47.4586 38.18C47.5207 38.226 47.5874 38.272 47.6518 38.3249C47.7162 38.3824 47.7829 38.4422 47.8542 38.5043C47.9255 38.5687 48.0014 38.6377 48.0773 38.7113C48.1509 38.7918 48.2268 38.8769 48.3096 38.9689C48.6316 39.3392 48.8363 39.6497 48.9904 39.9165C49.1583 40.1764 49.2457 40.4087 49.3584 40.6272C49.409 40.7399 49.4481 40.8572 49.4941 40.9814C49.5378 41.1056 49.5907 41.2344 49.6229 41.3862C49.6597 41.5357 49.7057 41.7013 49.7402 41.8899C49.7655 42.0808 49.8046 42.2947 49.8207 42.5385C49.8782 43.5252 49.7287 44.0197 49.5884 44.4866C49.5493 44.6039 49.5102 44.7189 49.4688 44.8431C49.4182 44.9627 49.3653 45.0892 49.3055 45.2295C49.2503 45.3721 49.1721 45.5193 49.0847 45.6872C49.0387 45.77 48.9973 45.862 48.9421 45.954C48.8846 46.0437 48.8248 46.1403 48.7604 46.2438C48.4982 46.6509 48.2636 46.9315 48.0612 47.1592C47.9646 47.2765 47.868 47.3754 47.7737 47.4651C47.6817 47.5571 47.5943 47.6422 47.5069 47.7296C47.4126 47.8078 47.3183 47.886 47.2171 47.9688C47.1665 48.0102 47.1136 48.0516 47.0584 48.0953C46.9986 48.1344 46.9388 48.1735 46.8744 48.2172C46.6168 48.3874 46.2902 48.5714 45.8256 48.7439C45.6531 48.8014 45.4967 48.8566 45.3518 48.875C45.2069 48.8957 45.0781 48.9026 44.9654 48.898C44.74 48.898 44.5675 48.8152 44.4456 48.7301C44.2018 48.5461 44.1397 48.254 44.1121 47.9205C44.0822 47.587 44.1029 47.3064 44.234 47.0971C44.2984 46.9867 44.395 46.9154 44.5215 46.8257C44.5859 46.7843 44.6595 46.7452 44.7446 46.713C44.832 46.6808 44.9217 46.6302 45.0321 46.5957C45.614 46.3749 45.8279 46.1196 46.0372 45.9011C46.2235 45.655 46.4213 45.4319 46.7433 44.9443C46.8215 44.8201 46.8951 44.7143 46.9457 44.6131C47.0032 44.5142 47.0607 44.4291 47.0998 44.3463C47.1435 44.2635 47.1872 44.1922 47.2309 44.1232C47.2654 44.0519 47.2999 43.9829 47.3367 43.9139C47.4701 43.6402 47.6104 43.3366 47.5759 42.7064C47.5276 42.0785 47.4057 41.7841 47.316 41.4828C47.1918 41.1976 47.0837 40.8894 46.672 40.4041C46.6191 40.3466 46.5685 40.2914 46.5225 40.2385C46.4719 40.1902 46.419 40.1511 46.373 40.1097C46.2787 40.0292 46.1913 39.9648 46.1039 39.9188C46.0165 39.8705 45.9406 39.8268 45.8647 39.7946C45.7865 39.767 45.7106 39.7394 45.637 39.7141C45.3357 39.6267 45.0505 39.5347 44.4801 39.4013C43.9051 39.284 43.6061 39.2679 43.2979 39.238C43.1461 39.2357 42.9874 39.2173 42.7965 39.2541C42.6999 39.2679 42.5941 39.2794 42.4791 39.3185C42.3641 39.3553 42.2307 39.3875 42.0927 39.4611C42.0214 39.4933 41.957 39.5232 41.8949 39.5531C41.8351 39.5876 41.7799 39.6221 41.7293 39.652C41.6764 39.6819 41.6281 39.7095 41.5798 39.7371C41.5361 39.7693 41.4947 39.7992 41.4556 39.8268C41.3774 39.8843 41.3015 39.9303 41.2394 39.9832C41.1773 40.0384 41.1175 40.089 41.0577 40.1396C40.8369 40.3558 40.5885 40.5651 40.2849 41.1148C39.9951 41.6714 39.9399 41.9865 39.8893 42.2901C39.8778 42.366 39.8663 42.4442 39.8548 42.5247C39.8502 42.6075 39.8479 42.6949 39.8433 42.7915C39.8318 42.8881 39.8433 42.9962 39.8456 43.1158C39.8479 43.1756 39.8502 43.24 39.8525 43.309C39.8617 43.378 39.8732 43.4493 39.8847 43.5275C39.8985 43.6839 39.9399 43.8127 39.9721 43.93C39.9997 44.0473 40.0457 44.1462 40.0871 44.2336C40.1584 44.413 40.255 44.5372 40.3401 44.6637C40.531 44.9029 40.6989 45.1513 41.1152 45.5699C41.5453 45.977 41.819 46.1104 42.0835 46.2277C42.3503 46.345 42.6263 46.4531 43.1967 46.5451C43.3002 46.5704 43.3945 46.5704 43.475 46.6003C43.5555 46.6233 43.6222 46.667 43.682 46.6969C43.8016 46.7659 43.8844 46.8694 43.9465 46.9959C44.0684 47.2466 44.0891 47.5847 44.1144 47.9182C44.1397 48.2517 44.1949 48.5829 44.0592 48.8359C43.9902 48.9624 43.8706 49.0705 43.6728 49.1487C43.5739 49.1924 43.4543 49.2062 43.314 49.2177C43.1737 49.2223 43.0081 49.2361 42.8241 49.2016V49.1993Z" fill="#141413"/>
<path d="M41.6741 19.2993C41.1727 19.228 40.8093 19.1084 40.5149 18.9957C40.2251 18.8715 39.9997 18.7611 39.7904 18.6231C39.5742 18.4989 39.3741 18.3471 39.1234 18.1677C38.8796 17.9791 38.5898 17.7514 38.2402 17.4064C38.0654 17.2362 37.9297 17.066 37.8032 16.9234C37.6859 16.7716 37.5916 16.6313 37.5042 16.5071C37.4145 16.3829 37.3547 16.2564 37.2903 16.1437C37.2305 16.0287 37.1638 15.9252 37.1201 15.8102C37.0235 15.5848 36.92 15.364 36.8326 15.0719C36.7843 14.927 36.7291 14.7683 36.6923 14.582C36.6509 14.3957 36.5934 14.191 36.5681 13.9495C36.552 13.8299 36.5359 13.7172 36.5221 13.6114C36.5106 13.5056 36.5083 13.4044 36.5014 13.3101C36.4899 13.1215 36.4738 12.9536 36.4807 12.8018C36.4807 12.6477 36.4807 12.5097 36.4807 12.3786C36.4853 12.2475 36.4968 12.1256 36.506 12.0014C36.552 11.5115 36.6095 10.9917 37.0718 10.1016C37.1914 9.88309 37.3133 9.69909 37.4145 9.53349C37.5295 9.37709 37.633 9.23679 37.725 9.11029C37.8193 8.98379 37.9182 8.88259 38.0033 8.78139C38.0907 8.68019 38.1712 8.58359 38.2655 8.49849C38.4449 8.32139 38.6266 8.14429 38.8842 7.96029C38.9486 7.91199 39.013 7.86369 39.0843 7.81079C39.1602 7.76479 39.2384 7.71649 39.3235 7.66359C39.4086 7.61299 39.4983 7.56009 39.5949 7.50259C39.6938 7.45199 39.8019 7.40139 39.9169 7.34849C40.1446 7.23579 40.3585 7.16909 40.5471 7.11159C40.7357 7.04949 40.9082 7.01959 41.0646 6.99659C41.3751 6.93909 41.6304 6.94829 41.8788 6.95059C42.3756 6.98049 42.8678 6.99429 43.82 7.18519C44.7676 7.40369 45.2023 7.64059 45.637 7.85679C45.7428 7.91659 45.8486 7.97639 45.9636 8.04079C46.0763 8.10749 46.1844 8.19259 46.3086 8.27999C46.3707 8.32599 46.4374 8.37199 46.5018 8.42489C46.5662 8.48239 46.6329 8.54219 46.7042 8.60429C46.7755 8.66869 46.8514 8.73769 46.9273 8.81129C47.0009 8.89179 47.0768 8.97689 47.1596 9.06889C47.4816 9.43919 47.6863 9.74969 47.8404 10.0165C48.0083 10.2764 48.0957 10.5087 48.2084 10.7272C48.259 10.8399 48.2981 10.9572 48.3441 11.0814C48.3878 11.2056 48.4407 11.3344 48.4729 11.4862C48.5097 11.6357 48.5557 11.8013 48.5902 11.9899C48.6155 12.1808 48.6546 12.3947 48.6707 12.6385C48.7282 13.6252 48.5787 14.1197 48.4384 14.5866C48.3993 14.7039 48.3602 14.8189 48.3188 14.9431C48.2682 15.0627 48.2153 15.1892 48.1555 15.3295C48.1003 15.4721 48.0221 15.6193 47.9347 15.7872C47.8887 15.87 47.8473 15.962 47.7921 16.054C47.7346 16.1437 47.6748 16.2403 47.6104 16.3438C47.3482 16.7509 47.1136 17.0315 46.9112 17.2592C46.8146 17.3765 46.718 17.4754 46.6237 17.5651C46.5317 17.6571 46.4443 17.7422 46.3569 17.8296C46.2626 17.9078 46.1683 17.986 46.0671 18.0688C46.0165 18.1102 45.9636 18.1516 45.9084 18.1953C45.8486 18.2344 45.7888 18.2735 45.7244 18.3172C45.4668 18.4874 45.1402 18.6714 44.6756 18.8439C44.5031 18.9014 44.3467 18.9566 44.2018 18.975C44.0569 18.9957 43.9281 19.0026 43.8154 18.998C43.59 18.998 43.4175 18.9152 43.2956 18.8301C43.0518 18.6461 42.9897 18.354 42.9621 18.0205C42.9322 17.687 42.9529 17.4064 43.084 17.1971C43.1484 17.0867 43.245 17.0154 43.3715 16.9257C43.4359 16.8843 43.5095 16.8452 43.5946 16.813C43.682 16.7808 43.7717 16.7302 43.8821 16.6957C44.464 16.4749 44.6779 16.2196 44.8872 16.0011C45.0735 15.755 45.2713 15.5319 45.5933 15.0443C45.6715 14.9201 45.7451 14.8143 45.7957 14.7131C45.8532 14.6142 45.9107 14.5291 45.9498 14.4463C45.9935 14.3635 46.0372 14.2922 46.0809 14.2232C46.1154 14.1519 46.1499 14.0829 46.1867 14.0139C46.3201 13.7402 46.4604 13.4366 46.4259 12.8064C46.3776 12.1785 46.2557 11.8841 46.166 11.5828C46.0418 11.2976 45.9337 10.9894 45.522 10.5041C45.4691 10.4466 45.4185 10.3914 45.3725 10.3385C45.3219 10.2902 45.269 10.2511 45.223 10.2097C45.1287 10.1292 45.0413 10.0648 44.9539 10.0188C44.8665 9.97049 44.7906 9.92679 44.7147 9.89459C44.6365 9.86699 44.5606 9.83939 44.487 9.81409C44.1857 9.72669 43.9005 9.63469 43.3301 9.50129C42.7551 9.38399 42.4561 9.36789 42.1479 9.33799C41.9961 9.33569 41.8374 9.31729 41.6465 9.35409C41.5499 9.36789 41.4441 9.37939 41.3291 9.41849C41.2141 9.45529 41.0807 9.48749 40.9427 9.56109C40.8714 9.59329 40.807 9.62319 40.7449 9.65309C40.6851 9.68759 40.6299 9.72209 40.5793 9.75199C40.5264 9.78189 40.4781 9.80949 40.4298 9.83709C40.3861 9.86929 40.3447 9.89919 40.3056 9.92679C40.2274 9.98429 40.1515 10.0303 40.0894 10.0832C40.0273 10.1384 39.9675 10.189 39.9077 10.2396C39.6869 10.4558 39.4385 10.6651 39.1349 11.2148C38.8451 11.7714 38.7899 12.0865 38.7393 12.3901C38.7278 12.466 38.7163 12.5442 38.7048 12.6247C38.7002 12.7075 38.6979 12.7949 38.6933 12.8915C38.6818 12.9881 38.6933 13.0962 38.6956 13.2158C38.6979 13.2756 38.7002 13.34 38.7025 13.409C38.7117 13.478 38.7232 13.5493 38.7347 13.6275C38.7485 13.7839 38.7899 13.9127 38.8221 14.03C38.8497 14.1473 38.8957 14.2462 38.9371 14.3336C39.0084 14.513 39.105 14.6372 39.1901 14.7637C39.381 15.0029 39.5489 15.2513 39.9652 15.6699C40.3953 16.077 40.669 16.2104 40.9335 16.3277C41.2003 16.445 41.4763 16.5531 42.0467 16.6451C42.1502 16.6704 42.2445 16.6704 42.325 16.7003C42.4055 16.7233 42.4722 16.767 42.532 16.7969C42.6516 16.8659 42.7344 16.9694 42.7965 17.0959C42.9184 17.3466 42.9391 17.6847 42.9644 18.0182C42.9897 18.3517 43.0449 18.6829 42.9092 18.9359C42.8402 19.0624 42.7206 19.1705 42.5228 19.2487C42.4239 19.2924 42.3043 19.3062 42.164 19.3177C42.0237 19.3223 41.8581 19.3361 41.6741 19.3016V19.2993Z" fill="#141413"/>
<path d="M70.6541 19.2993C70.1527 19.228 69.7893 19.1084 69.4949 18.9957C69.2051 18.8715 68.9797 18.7611 68.7704 18.6231C68.5542 18.4989 68.3541 18.3471 68.1034 18.1677C67.8596 17.9791 67.5698 17.7514 67.2202 17.4064C67.0454 17.2362 66.9097 17.066 66.7832 16.9234C66.6659 16.7716 66.5716 16.6313 66.4842 16.5071C66.3945 16.3829 66.3347 16.2564 66.2703 16.1437C66.2105 16.0287 66.1438 15.9252 66.1001 15.8102C66.0035 15.5848 65.9 15.364 65.8126 15.0719C65.7643 14.927 65.7091 14.7683 65.6723 14.582C65.6309 14.3957 65.5734 14.191 65.5481 13.9495C65.532 13.8299 65.5159 13.7172 65.5021 13.6114C65.4906 13.5056 65.4883 13.4044 65.4814 13.3101C65.4699 13.1215 65.4538 12.9536 65.4607 12.8018C65.4607 12.6477 65.4607 12.5097 65.4607 12.3786C65.4653 12.2475 65.4768 12.1256 65.486 12.0014C65.532 11.5115 65.5895 10.9917 66.0518 10.1016C66.1714 9.88309 66.2933 9.69909 66.3945 9.53349C66.5095 9.37709 66.613 9.23679 66.705 9.11029C66.7993 8.98379 66.8982 8.88259 66.9833 8.78139C67.0707 8.68019 67.1512 8.58359 67.2455 8.49849C67.4249 8.32139 67.6066 8.14429 67.8642 7.96029C67.9286 7.91199 67.993 7.86369 68.0643 7.81079C68.1402 7.76479 68.2184 7.71649 68.3035 7.66359C68.3886 7.61299 68.4783 7.56009 68.5749 7.50259C68.6738 7.45199 68.7819 7.40139 68.8969 7.34849C69.1246 7.23579 69.3385 7.16909 69.5271 7.11159C69.7157 7.04949 69.8882 7.01959 70.0446 6.99659C70.3551 6.93909 70.6104 6.94829 70.8588 6.95059C71.3556 6.98049 71.8478 6.99429 72.8 7.18519C73.7476 7.40369 74.1823 7.64059 74.617 7.85679C74.7228 7.91659 74.8286 7.97639 74.9436 8.04079C75.0563 8.10749 75.1644 8.19259 75.2886 8.27999C75.3507 8.32599 75.4174 8.37199 75.4818 8.42489C75.5462 8.48239 75.6129 8.54219 75.6842 8.60429C75.7555 8.66869 75.8314 8.73769 75.9073 8.81129C75.9809 8.89179 76.0568 8.97689 76.1396 9.06889C76.4616 9.43919 76.6663 9.74969 76.8204 10.0165C76.9883 10.2764 77.0757 10.5087 77.1884 10.7272C77.239 10.8399 77.2781 10.9572 77.3241 11.0814C77.3678 11.2056 77.4207 11.3344 77.4529 11.4862C77.4897 11.6357 77.5357 11.8013 77.5702 11.9899C77.5955 12.1808 77.6346 12.3947 77.6507 12.6385C77.7082 13.6252 77.5587 14.1197 77.4184 14.5866C77.3793 14.7039 77.3402 14.8189 77.2988 14.9431C77.2482 15.0627 77.1953 15.1892 77.1355 15.3295C77.0803 15.4721 77.0021 15.6193 76.9147 15.7872C76.8687 15.87 76.8273 15.962 76.7721 16.054C76.7146 16.1437 76.6548 16.2403 76.5904 16.3438C76.3282 16.7509 76.0936 17.0315 75.8912 17.2592C75.7946 17.3765 75.698 17.4754 75.6037 17.5651C75.5117 17.6571 75.4243 17.7422 75.3369 17.8296C75.2426 17.9078 75.1483 17.986 75.0471 18.0688C74.9965 18.1102 74.9436 18.1516 74.8884 18.1953C74.8286 18.2344 74.7688 18.2735 74.7044 18.3172C74.4468 18.4874 74.1202 18.6714 73.6556 18.8439C73.4831 18.9014 73.3267 18.9566 73.1818 18.975C73.0369 18.9957 72.9081 19.0026 72.7954 18.998C72.57 18.998 72.3975 18.9152 72.2756 18.8301C72.0318 18.6461 71.9697 18.354 71.9421 18.0205C71.9122 17.687 71.9329 17.4064 72.064 17.1971C72.1284 17.0867 72.225 17.0154 72.3515 16.9257C72.4159 16.8843 72.4895 16.8452 72.5746 16.813C72.662 16.7808 72.7517 16.7302 72.8621 16.6957C73.444 16.4749 73.6579 16.2196 73.8672 16.0011C74.0535 15.755 74.2513 15.5319 74.5733 15.0443C74.6515 14.9201 74.7251 14.8143 74.7757 14.7131C74.8332 14.6142 74.8907 14.5291 74.9298 14.4463C74.9735 14.3635 75.0172 14.2922 75.0609 14.2232C75.0954 14.1519 75.1299 14.0829 75.1667 14.0139C75.3001 13.7402 75.4404 13.4366 75.4059 12.8064C75.3576 12.1785 75.2357 11.8841 75.146 11.5828C75.0218 11.2976 74.9137 10.9894 74.502 10.5041C74.4491 10.4466 74.3985 10.3914 74.3525 10.3385C74.3019 10.2902 74.249 10.2511 74.203 10.2097C74.1087 10.1292 74.0213 10.0648 73.9339 10.0188C73.8465 9.97049 73.7706 9.92679 73.6947 9.89459C73.6165 9.86699 73.5406 9.83939 73.467 9.81409C73.1657 9.72669 72.8805 9.63469 72.3101 9.50129C71.7351 9.38399 71.4361 9.36789 71.1279 9.33799C70.9761 9.33569 70.8174 9.31729 70.6265 9.35409C70.5299 9.36789 70.4241 9.37939 70.3091 9.41849C70.1941 9.45529 70.0607 9.48749 69.9227 9.56109C69.8514 9.59329 69.787 9.62319 69.7249 9.65309C69.6651 9.68759 69.6099 9.72209 69.5593 9.75199C69.5064 9.78189 69.4581 9.80949 69.4098 9.83709C69.3661 9.86929 69.3247 9.89919 69.2856 9.92679C69.2074 9.98429 69.1315 10.0303 69.0694 10.0832C69.0073 10.1384 68.9475 10.189 68.8877 10.2396C68.6669 10.4558 68.4185 10.6651 68.1149 11.2148C67.8251 11.7714 67.7699 12.0865 67.7193 12.3901C67.7078 12.466 67.6963 12.5442 67.6848 12.6247C67.6802 12.7075 67.6779 12.7949 67.6733 12.8915C67.6618 12.9881 67.6733 13.0962 67.6756 13.2158C67.6779 13.2756 67.6802 13.34 67.6825 13.409C67.6917 13.478 67.7032 13.5493 67.7147 13.6275C67.7285 13.7839 67.7699 13.9127 67.8021 14.03C67.8297 14.1473 67.8757 14.2462 67.9171 14.3336C67.9884 14.513 68.085 14.6372 68.1701 14.7637C68.361 15.0029 68.5289 15.2513 68.9452 15.6699C69.3753 16.077 69.649 16.2104 69.9135 16.3277C70.1803 16.445 70.4563 16.5531 71.0267 16.6451C71.1302 16.6704 71.2245 16.6704 71.305 16.7003C71.3855 16.7233 71.4522 16.767 71.512 16.7969C71.6316 16.8659 71.7144 16.9694 71.7765 17.0959C71.8984 17.3466 71.9191 17.6847 71.9444 18.0182C71.9697 18.3517 72.0249 18.6829 71.8892 18.9359C71.8202 19.0624 71.7006 19.1705 71.5028 19.2487C71.4039 19.2924 71.2843 19.3062 71.144 19.3177C71.0037 19.3223 70.8381 19.3361 70.6541 19.3016V19.2993Z" fill="#141413"/>
<path d="M70.8841 47.5893C70.3827 47.518 70.0193 47.3984 69.7249 47.2857C69.4351 47.1615 69.2097 47.0511 69.0004 46.9131C68.7842 46.7889 68.5841 46.6371 68.3334 46.4577C68.0896 46.2691 67.7998 46.0414 67.4502 45.6964C67.2754 45.5262 67.1397 45.356 67.0132 45.2134C66.8959 45.0616 66.8016 44.9213 66.7142 44.7971C66.6245 44.6729 66.5647 44.5464 66.5003 44.4337C66.4405 44.3187 66.3738 44.2152 66.3301 44.1002C66.2335 43.8748 66.13 43.654 66.0426 43.3619C65.9943 43.217 65.9391 43.0583 65.9023 42.872C65.8609 42.6857 65.8034 42.481 65.7781 42.2395C65.762 42.1199 65.7459 42.0072 65.7321 41.9014C65.7206 41.7956 65.7183 41.6944 65.7114 41.6001C65.6999 41.4115 65.6838 41.2436 65.6907 41.0918C65.6907 40.9377 65.6907 40.7997 65.6907 40.6686C65.6953 40.5375 65.7068 40.4156 65.716 40.2914C65.762 39.8015 65.8195 39.2817 66.2818 38.3916C66.4014 38.1731 66.5233 37.9891 66.6245 37.8235C66.7395 37.6671 66.843 37.5268 66.935 37.4003C67.0293 37.2738 67.1282 37.1726 67.2133 37.0714C67.3007 36.9702 67.3812 36.8736 67.4755 36.7885C67.6549 36.6114 67.8366 36.4343 68.0942 36.2503C68.1586 36.202 68.223 36.1537 68.2943 36.1008C68.3702 36.0548 68.4484 36.0065 68.5335 35.9536C68.6186 35.903 68.7083 35.8501 68.8049 35.7926C68.9038 35.742 69.0119 35.6914 69.1269 35.6385C69.3546 35.5258 69.5685 35.4591 69.7571 35.4016C69.9457 35.3395 70.1182 35.3096 70.2746 35.2866C70.5851 35.2291 70.8404 35.2383 71.0888 35.2406C71.5856 35.2705 72.0778 35.2843 73.03 35.4752C73.9776 35.6937 74.4123 35.9306 74.847 36.1468C74.9528 36.2066 75.0586 36.2664 75.1736 36.3308C75.2863 36.3975 75.3944 36.4826 75.5186 36.57C75.5807 36.616 75.6474 36.662 75.7118 36.7149C75.7762 36.7724 75.8429 36.8322 75.9142 36.8943C75.9855 36.9587 76.0614 37.0277 76.1373 37.1013C76.2109 37.1818 76.2868 37.2669 76.3696 37.3589C76.6916 37.7292 76.8963 38.0397 77.0504 38.3065C77.2183 38.5664 77.3057 38.7987 77.4184 39.0172C77.469 39.1299 77.5081 39.2472 77.5541 39.3714C77.5978 39.4956 77.6507 39.6244 77.6829 39.7762C77.7197 39.9257 77.7657 40.0913 77.8002 40.2799C77.8255 40.4708 77.8646 40.6847 77.8807 40.9285C77.9382 41.9152 77.7887 42.4097 77.6484 42.8766C77.6093 42.9939 77.5702 43.1089 77.5288 43.2331C77.4782 43.3527 77.4253 43.4792 77.3655 43.6195C77.3103 43.7621 77.2321 43.9093 77.1447 44.0772C77.0987 44.16 77.0573 44.252 77.0021 44.344C76.9446 44.4337 76.8848 44.5303 76.8204 44.6338C76.5582 45.0409 76.3236 45.3215 76.1212 45.5492C76.0246 45.6665 75.928 45.7654 75.8337 45.8551C75.7417 45.9471 75.6543 46.0322 75.5669 46.1196C75.4726 46.1978 75.3783 46.276 75.2771 46.3588C75.2265 46.4002 75.1736 46.4416 75.1184 46.4853C75.0586 46.5244 74.9988 46.5635 74.9344 46.6072C74.6768 46.7774 74.3502 46.9614 73.8856 47.1339C73.7131 47.1914 73.5567 47.2466 73.4118 47.265C73.2669 47.2857 73.1381 47.2926 73.0254 47.288C72.8 47.288 72.6275 47.2052 72.5056 47.1201C72.2618 46.9361 72.1997 46.644 72.1721 46.3105C72.1422 45.977 72.1629 45.6964 72.294 45.4871C72.3584 45.3767 72.455 45.3054 72.5815 45.2157C72.6459 45.1743 72.7195 45.1352 72.8046 45.103C72.892 45.0708 72.9817 45.0202 73.0921 44.9857C73.674 44.7649 73.8879 44.5096 74.0972 44.2911C74.2835 44.045 74.4813 43.8219 74.8033 43.3343C74.8815 43.2101 74.9551 43.1043 75.0057 43.0031C75.0632 42.9042 75.1207 42.8191 75.1598 42.7363C75.2035 42.6535 75.2472 42.5822 75.2909 42.5132C75.3254 42.4419 75.3599 42.3729 75.3967 42.3039C75.5301 42.0302 75.6704 41.7266 75.6359 41.0964C75.5876 40.4685 75.4657 40.1741 75.376 39.8728C75.2518 39.5876 75.1437 39.2794 74.732 38.7941C74.6791 38.7366 74.6285 38.6814 74.5825 38.6285C74.5319 38.5802 74.479 38.5411 74.433 38.4997C74.3387 38.4192 74.2513 38.3548 74.1639 38.3088C74.0765 38.2605 74.0006 38.2168 73.9247 38.1846C73.8465 38.157 73.7706 38.1294 73.697 38.1041C73.3957 38.0167 73.1105 37.9247 72.5401 37.7913C71.9651 37.674 71.6661 37.6579 71.3579 37.628C71.2061 37.6257 71.0474 37.6073 70.8565 37.6441C70.7599 37.6579 70.6541 37.6694 70.5391 37.7085C70.4241 37.7453 70.2907 37.7775 70.1527 37.8511C70.0814 37.8833 70.017 37.9132 69.9549 37.9431C69.8951 37.9776 69.8399 38.0121 69.7893 38.042C69.7364 38.0719 69.6881 38.0995 69.6398 38.1271C69.5961 38.1593 69.5547 38.1892 69.5156 38.2168C69.4374 38.2743 69.3615 38.3203 69.2994 38.3732C69.2373 38.4284 69.1775 38.479 69.1177 38.5296C68.8969 38.7458 68.6485 38.9551 68.3449 39.5048C68.0551 40.0614 67.9999 40.3765 67.9493 40.6801C67.9378 40.756 67.9263 40.8342 67.9148 40.9147C67.9102 40.9975 67.9079 41.0849 67.9033 41.1815C67.8918 41.2781 67.9033 41.3862 67.9056 41.5058C67.9079 41.5656 67.9102 41.63 67.9125 41.699C67.9217 41.768 67.9332 41.8393 67.9447 41.9175C67.9585 42.0739 67.9999 42.2027 68.0321 42.32C68.0597 42.4373 68.1057 42.5362 68.1471 42.6236C68.2184 42.803 68.315 42.9272 68.4001 43.0537C68.591 43.2929 68.7589 43.5413 69.1752 43.9599C69.6053 44.367 69.879 44.5004 70.1435 44.6177C70.4103 44.735 70.6863 44.8431 71.2567 44.9351C71.3602 44.9604 71.4545 44.9604 71.535 44.9903C71.6155 45.0133 71.6822 45.057 71.742 45.0869C71.8616 45.1559 71.9444 45.2594 72.0065 45.3859C72.1284 45.6366 72.1491 45.9747 72.1744 46.3082C72.1997 46.6417 72.2549 46.9729 72.1192 47.2259C72.0502 47.3524 71.9306 47.4605 71.7328 47.5387C71.6339 47.5824 71.5143 47.5962 71.374 47.6077C71.2337 47.6123 71.0681 47.6261 70.8841 47.5916V47.5893Z" fill="#141413"/>
<path d="M100.784 47.8193C100.283 47.748 99.9193 47.6284 99.6249 47.5157C99.3351 47.3915 99.1097 47.2811 98.9004 47.1431C98.6842 47.0189 98.4841 46.8671 98.2334 46.6877C97.9896 46.4991 97.6998 46.2714 97.3502 45.9264C97.1754 45.7562 97.0397 45.586 96.9132 45.4434C96.7959 45.2916 96.7016 45.1513 96.6142 45.0271C96.5245 44.9029 96.4647 44.7764 96.4003 44.6637C96.3405 44.5487 96.2738 44.4452 96.2301 44.3302C96.1335 44.1048 96.03 43.884 95.9426 43.5919C95.8943 43.447 95.8391 43.2883 95.8023 43.102C95.7609 42.9157 95.7034 42.711 95.6781 42.4695C95.662 42.3499 95.6459 42.2372 95.6321 42.1314C95.6206 42.0256 95.6183 41.9244 95.6114 41.8301C95.5999 41.6415 95.5838 41.4736 95.5907 41.3218C95.5907 41.1677 95.5907 41.0297 95.5907 40.8986C95.5953 40.7675 95.6068 40.6456 95.616 40.5214C95.662 40.0315 95.7195 39.5117 96.1818 38.6216C96.3014 38.4031 96.4233 38.2191 96.5245 38.0535C96.6395 37.8971 96.743 37.7568 96.835 37.6303C96.9293 37.5038 97.0282 37.4026 97.1133 37.3014C97.2007 37.2002 97.2812 37.1036 97.3755 37.0185C97.5549 36.8414 97.7366 36.6643 97.9942 36.4803C98.0586 36.432 98.123 36.3837 98.1943 36.3308C98.2702 36.2848 98.3484 36.2365 98.4335 36.1836C98.5186 36.133 98.6083 36.0801 98.7049 36.0226C98.8038 35.972 98.9119 35.9214 99.0269 35.8685C99.2546 35.7558 99.4685 35.6891 99.6571 35.6316C99.8457 35.5695 100.018 35.5396 100.175 35.5166C100.485 35.4591 100.74 35.4683 100.989 35.4706C101.486 35.5005 101.978 35.5143 102.93 35.7052C103.878 35.9237 104.312 36.1606 104.747 36.3768C104.853 36.4366 104.959 36.4964 105.074 36.5608C105.186 36.6275 105.294 36.7126 105.419 36.8C105.481 36.846 105.547 36.892 105.612 36.9449C105.676 37.0024 105.743 37.0622 105.814 37.1243C105.886 37.1887 105.961 37.2577 106.037 37.3313C106.111 37.4118 106.187 37.4969 106.27 37.5889C106.592 37.9592 106.796 38.2697 106.95 38.5365C107.118 38.7964 107.206 39.0287 107.318 39.2472C107.369 39.3599 107.408 39.4772 107.454 39.6014C107.498 39.7256 107.551 39.8544 107.583 40.0062C107.62 40.1557 107.666 40.3213 107.7 40.5099C107.726 40.7008 107.765 40.9147 107.781 41.1585C107.838 42.1452 107.689 42.6397 107.548 43.1066C107.509 43.2239 107.47 43.3389 107.429 43.4631C107.378 43.5827 107.325 43.7092 107.266 43.8495C107.21 43.9921 107.132 44.1393 107.045 44.3072C106.999 44.39 106.957 44.482 106.902 44.574C106.845 44.6637 106.785 44.7603 106.72 44.8638C106.458 45.2709 106.224 45.5515 106.021 45.7792C105.925 45.8965 105.828 45.9954 105.734 46.0851C105.642 46.1771 105.554 46.2622 105.467 46.3496C105.373 46.4278 105.278 46.506 105.177 46.5888C105.127 46.6302 105.074 46.6716 105.018 46.7153C104.959 46.7544 104.899 46.7935 104.834 46.8372C104.577 47.0074 104.25 47.1914 103.786 47.3639C103.613 47.4214 103.457 47.4766 103.312 47.495C103.167 47.5157 103.038 47.5226 102.925 47.518C102.7 47.518 102.528 47.4352 102.406 47.3501C102.162 47.1661 102.1 46.874 102.072 46.5405C102.042 46.207 102.063 45.9264 102.194 45.7171C102.258 45.6067 102.355 45.5354 102.482 45.4457C102.546 45.4043 102.62 45.3652 102.705 45.333C102.792 45.3008 102.882 45.2502 102.992 45.2157C103.574 44.9949 103.788 44.7396 103.997 44.5211C104.184 44.275 104.381 44.0519 104.703 43.5643C104.782 43.4401 104.855 43.3343 104.906 43.2331C104.963 43.1342 105.021 43.0491 105.06 42.9663C105.104 42.8835 105.147 42.8122 105.191 42.7432C105.225 42.6719 105.26 42.6029 105.297 42.5339C105.43 42.2602 105.57 41.9566 105.536 41.3264C105.488 40.6985 105.366 40.4041 105.276 40.1028C105.152 39.8176 105.044 39.5094 104.632 39.0241C104.579 38.9666 104.529 38.9114 104.483 38.8585C104.432 38.8102 104.379 38.7711 104.333 38.7297C104.239 38.6492 104.151 38.5848 104.064 38.5388C103.977 38.4905 103.901 38.4468 103.825 38.4146C103.747 38.387 103.671 38.3594 103.597 38.3341C103.296 38.2467 103.011 38.1547 102.44 38.0213C101.865 37.904 101.566 37.8879 101.258 37.858C101.106 37.8557 100.947 37.8373 100.757 37.8741C100.66 37.8879 100.554 37.8994 100.439 37.9385C100.324 37.9753 100.191 38.0075 100.053 38.0811C99.9814 38.1133 99.917 38.1432 99.8549 38.1731C99.7951 38.2076 99.7399 38.2421 99.6893 38.272C99.6364 38.3019 99.5881 38.3295 99.5398 38.3571C99.4961 38.3893 99.4547 38.4192 99.4156 38.4468C99.3374 38.5043 99.2615 38.5503 99.1994 38.6032C99.1373 38.6584 99.0775 38.709 99.0177 38.7596C98.7969 38.9758 98.5485 39.1851 98.2449 39.7348C97.9551 40.2914 97.8999 40.6065 97.8493 40.9101C97.8378 40.986 97.8263 41.0642 97.8148 41.1447C97.8102 41.2275 97.8079 41.3149 97.8033 41.4115C97.7918 41.5081 97.8033 41.6162 97.8056 41.7358C97.8079 41.7956 97.8102 41.86 97.8125 41.929C97.8217 41.998 97.8332 42.0693 97.8447 42.1475C97.8585 42.3039 97.8999 42.4327 97.9321 42.55C97.9597 42.6673 98.0057 42.7662 98.0471 42.8536C98.1184 43.033 98.215 43.1572 98.3001 43.2837C98.491 43.5229 98.6589 43.7713 99.0752 44.1899C99.5053 44.597 99.779 44.7304 100.044 44.8477C100.31 44.965 100.586 45.0731 101.157 45.1651C101.26 45.1904 101.355 45.1904 101.435 45.2203C101.516 45.2433 101.582 45.287 101.642 45.3169C101.762 45.3859 101.844 45.4894 101.907 45.6159C102.028 45.8666 102.049 46.2047 102.074 46.5382C102.1 46.8717 102.155 47.2029 102.019 47.4559C101.95 47.5824 101.831 47.6905 101.633 47.7687C101.534 47.8124 101.414 47.8262 101.274 47.8377C101.134 47.8423 100.968 47.8561 100.784 47.8216V47.8193Z" fill="#141413"/>
<path d="M100.784 76.3393C100.283 76.268 99.9193 76.1484 99.6249 76.0357C99.3351 75.9115 99.1097 75.8011 98.9004 75.6631C98.6842 75.5389 98.4841 75.3871 98.2334 75.2077C97.9896 75.0191 97.6998 74.7914 97.3502 74.4464C97.1754 74.2762 97.0397 74.106 96.9132 73.9634C96.7959 73.8116 96.7016 73.6713 96.6142 73.5471C96.5245 73.4229 96.4647 73.2964 96.4003 73.1837C96.3405 73.0687 96.2738 72.9652 96.2301 72.8502C96.1335 72.6248 96.03 72.404 95.9426 72.1119C95.8943 71.967 95.8391 71.8083 95.8023 71.622C95.7609 71.4357 95.7034 71.231 95.6781 70.9895C95.662 70.8699 95.6459 70.7572 95.6321 70.6514C95.6206 70.5456 95.6183 70.4444 95.6114 70.3501C95.5999 70.1615 95.5838 69.9936 95.5907 69.8418C95.5907 69.6877 95.5907 69.5497 95.5907 69.4186C95.5953 69.2875 95.6068 69.1656 95.616 69.0414C95.662 68.5515 95.7195 68.0317 96.1818 67.1416C96.3014 66.9231 96.4233 66.7391 96.5245 66.5735C96.6395 66.4171 96.743 66.2768 96.835 66.1503C96.9293 66.0238 97.0282 65.9226 97.1133 65.8214C97.2007 65.7202 97.2812 65.6236 97.3755 65.5385C97.5549 65.3614 97.7366 65.1843 97.9942 65.0003C98.0586 64.952 98.123 64.9037 98.1943 64.8508C98.2702 64.8048 98.3484 64.7565 98.4335 64.7036C98.5186 64.653 98.6083 64.6001 98.7049 64.5426C98.8038 64.492 98.9119 64.4414 99.0269 64.3885C99.2546 64.2758 99.4685 64.2091 99.6571 64.1516C99.8457 64.0895 100.018 64.0596 100.175 64.0366C100.485 63.9791 100.74 63.9883 100.989 63.9906C101.486 64.0205 101.978 64.0343 102.93 64.2252C103.878 64.4437 104.312 64.6806 104.747 64.8968C104.853 64.9566 104.959 65.0164 105.074 65.0808C105.186 65.1475 105.294 65.2326 105.419 65.32C105.481 65.366 105.547 65.412 105.612 65.4649C105.676 65.5224 105.743 65.5822 105.814 65.6443C105.886 65.7087 105.961 65.7777 106.037 65.8513C106.111 65.9318 106.187 66.0169 106.27 66.1089C106.592 66.4792 106.796 66.7897 106.95 67.0565C107.118 67.3164 107.206 67.5487 107.318 67.7672C107.369 67.8799 107.408 67.9972 107.454 68.1214C107.498 68.2456 107.551 68.3744 107.583 68.5262C107.62 68.6757 107.666 68.8413 107.7 69.0299C107.726 69.2208 107.765 69.4347 107.781 69.6785C107.838 70.6652 107.689 71.1597 107.548 71.6266C107.509 71.7439 107.47 71.8589 107.429 71.9831C107.378 72.1027 107.325 72.2292 107.266 72.3695C107.21 72.5121 107.132 72.6593 107.045 72.8272C106.999 72.91 106.957 73.002 106.902 73.094C106.845 73.1837 106.785 73.2803 106.72 73.3838C106.458 73.7909 106.224 74.0715 106.021 74.2992C105.925 74.4165 105.828 74.5154 105.734 74.6051C105.642 74.6971 105.554 74.7822 105.467 74.8696C105.373 74.9478 105.278 75.026 105.177 75.1088C105.127 75.1502 105.074 75.1916 105.018 75.2353C104.959 75.2744 104.899 75.3135 104.834 75.3572C104.577 75.5274 104.25 75.7114 103.786 75.8839C103.613 75.9414 103.457 75.9966 103.312 76.015C103.167 76.0357 103.038 76.0426 102.925 76.038C102.7 76.038 102.528 75.9552 102.406 75.8701C102.162 75.6861 102.1 75.394 102.072 75.0605C102.042 74.727 102.063 74.4464 102.194 74.2371C102.258 74.1267 102.355 74.0554 102.482 73.9657C102.546 73.9243 102.62 73.8852 102.705 73.853C102.792 73.8208 102.882 73.7702 102.992 73.7357C103.574 73.5149 103.788 73.2596 103.997 73.0411C104.184 72.795 104.381 72.5719 104.703 72.0843C104.782 71.9601 104.855 71.8543 104.906 71.7531C104.963 71.6542 105.021 71.5691 105.06 71.4863C105.104 71.4035 105.147 71.3322 105.191 71.2632C105.225 71.1919 105.26 71.1229 105.297 71.0539C105.43 70.7802 105.57 70.4766 105.536 69.8464C105.488 69.2185 105.366 68.9241 105.276 68.6228C105.152 68.3376 105.044 68.0294 104.632 67.5441C104.579 67.4866 104.529 67.4314 104.483 67.3785C104.432 67.3302 104.379 67.2911 104.333 67.2497C104.239 67.1692 104.151 67.1048 104.064 67.0588C103.977 67.0105 103.901 66.9668 103.825 66.9346C103.747 66.907 103.671 66.8794 103.597 66.8541C103.296 66.7667 103.011 66.6747 102.44 66.5413C101.865 66.424 101.566 66.4079 101.258 66.378C101.106 66.3757 100.947 66.3573 100.757 66.3941C100.66 66.4079 100.554 66.4194 100.439 66.4585C100.324 66.4953 100.191 66.5275 100.053 66.6011C99.9814 66.6333 99.917 66.6632 99.8549 66.6931C99.7951 66.7276 99.7399 66.7621 99.6893 66.792C99.6364 66.8219 99.5881 66.8495 99.5398 66.8771C99.4961 66.9093 99.4547 66.9392 99.4156 66.9668C99.3374 67.0243 99.2615 67.0703 99.1994 67.1232C99.1373 67.1784 99.0775 67.229 99.0177 67.2796C98.7969 67.4958 98.5485 67.7051 98.2449 68.2548C97.9551 68.8114 97.8999 69.1265 97.8493 69.4301C97.8378 69.506 97.8263 69.5842 97.8148 69.6647C97.8102 69.7475 97.8079 69.8349 97.8033 69.9315C97.7918 70.0281 97.8033 70.1362 97.8056 70.2558C97.8079 70.3156 97.8102 70.38 97.8125 70.449C97.8217 70.518 97.8332 70.5893 97.8447 70.6675C97.8585 70.8239 97.8999 70.9527 97.9321 71.07C97.9597 71.1873 98.0057 71.2862 98.0471 71.3736C98.1184 71.553 98.215 71.6772 98.3001 71.8037C98.491 72.0429 98.6589 72.2913 99.0752 72.7099C99.5053 73.117 99.779 73.2504 100.044 73.3677C100.31 73.485 100.586 73.5931 101.157 73.6851C101.26 73.7104 101.355 73.7104 101.435 73.7403C101.516 73.7633 101.582 73.807 101.642 73.8369C101.762 73.9059 101.844 74.0094 101.907 74.1359C102.028 74.3866 102.049 74.7247 102.074 75.0582C102.1 75.3917 102.155 75.7229 102.019 75.9759C101.95 76.1024 101.831 76.2105 101.633 76.2887C101.534 76.3324 101.414 76.3462 101.274 76.3577C101.134 76.3623 100.968 76.3761 100.784 76.3416V76.3393Z" fill="#141413"/>
<path d="M100.784 106.699C100.283 106.628 99.9193 106.508 99.6249 106.396C99.3351 106.271 99.1097 106.161 98.9004 106.023C98.6842 105.899 98.4841 105.747 98.2334 105.568C97.9896 105.379 97.6998 105.151 97.3502 104.806C97.1754 104.636 97.0397 104.466 96.9132 104.323C96.7959 104.172 96.7016 104.031 96.6142 103.907C96.5245 103.783 96.4647 103.656 96.4003 103.544C96.3405 103.429 96.2738 103.325 96.2301 103.21C96.1335 102.985 96.03 102.764 95.9426 102.472C95.8943 102.327 95.8391 102.168 95.8023 101.982C95.7609 101.796 95.7034 101.591 95.6781 101.349C95.662 101.23 95.6459 101.117 95.6321 101.011C95.6206 100.906 95.6183 100.804 95.6114 100.71C95.5999 100.521 95.5838 100.354 95.5907 100.202C95.5907 100.048 95.5907 99.9097 95.5907 99.7786C95.5953 99.6475 95.6068 99.5256 95.616 99.4014C95.662 98.9115 95.7195 98.3917 96.1818 97.5016C96.3014 97.2831 96.4233 97.0991 96.5245 96.9335C96.6395 96.7771 96.743 96.6368 96.835 96.5103C96.9293 96.3838 97.0282 96.2826 97.1133 96.1814C97.2007 96.0802 97.2812 95.9836 97.3755 95.8985C97.5549 95.7214 97.7366 95.5443 97.9942 95.3603C98.0586 95.312 98.123 95.2637 98.1943 95.2108C98.2702 95.1648 98.3484 95.1165 98.4335 95.0636C98.5186 95.013 98.6083 94.9601 98.7049 94.9026C98.8038 94.852 98.9119 94.8014 99.0269 94.7485C99.2546 94.6358 99.4685 94.5691 99.6571 94.5116C99.8457 94.4495 100.018 94.4196 100.175 94.3966C100.485 94.3391 100.74 94.3483 100.989 94.3506C101.486 94.3805 101.978 94.3943 102.93 94.5852C103.878 94.8037 104.312 95.0406 104.747 95.2568C104.853 95.3166 104.959 95.3764 105.074 95.4408C105.186 95.5075 105.294 95.5926 105.419 95.68C105.481 95.726 105.547 95.772 105.612 95.8249C105.676 95.8824 105.743 95.9422 105.814 96.0043C105.886 96.0687 105.961 96.1377 106.037 96.2113C106.111 96.2918 106.187 96.3769 106.27 96.4689C106.592 96.8392 106.796 97.1497 106.95 97.4165C107.118 97.6764 107.206 97.9087 107.318 98.1272C107.369 98.2399 107.408 98.3572 107.454 98.4814C107.498 98.6056 107.551 98.7344 107.583 98.8862C107.62 99.0357 107.666 99.2013 107.7 99.3899C107.726 99.5808 107.765 99.7947 107.781 100.038C107.838 101.025 107.689 101.52 107.548 101.987C107.509 102.104 107.47 102.219 107.429 102.343C107.378 102.463 107.325 102.589 107.266 102.729C107.21 102.872 107.132 103.019 107.045 103.187C106.999 103.27 106.957 103.362 106.902 103.454C106.845 103.544 106.785 103.64 106.72 103.744C106.458 104.151 106.224 104.431 106.021 104.659C105.925 104.776 105.828 104.875 105.734 104.965C105.642 105.057 105.554 105.142 105.467 105.23C105.373 105.308 105.278 105.386 105.177 105.469C105.127 105.51 105.074 105.552 105.018 105.595C104.959 105.634 104.899 105.673 104.834 105.717C104.577 105.887 104.25 106.071 103.786 106.244C103.613 106.301 103.457 106.357 103.312 106.375C103.167 106.396 103.038 106.403 102.925 106.398C102.7 106.398 102.528 106.315 102.406 106.23C102.162 106.046 102.1 105.754 102.072 105.42C102.042 105.087 102.063 104.806 102.194 104.597C102.258 104.487 102.355 104.415 102.482 104.326C102.546 104.284 102.62 104.245 102.705 104.213C102.792 104.181 102.882 104.13 102.992 104.096C103.574 103.875 103.788 103.62 103.997 103.401C104.184 103.155 104.381 102.932 104.703 102.444C104.782 102.32 104.855 102.214 104.906 102.113C104.963 102.014 105.021 101.929 105.06 101.846C105.104 101.763 105.147 101.692 105.191 101.623C105.225 101.552 105.26 101.483 105.297 101.414C105.43 101.14 105.57 100.837 105.536 100.206C105.488 99.5785 105.366 99.2841 105.276 98.9828C105.152 98.6976 105.044 98.3894 104.632 97.9041C104.579 97.8466 104.529 97.7914 104.483 97.7385C104.432 97.6902 104.379 97.6511 104.333 97.6097C104.239 97.5292 104.151 97.4648 104.064 97.4188C103.977 97.3705 103.901 97.3268 103.825 97.2946C103.747 97.267 103.671 97.2394 103.597 97.2141C103.296 97.1267 103.011 97.0347 102.44 96.9013C101.865 96.784 101.566 96.7679 101.258 96.738C101.106 96.7357 100.947 96.7173 100.757 96.7541C100.66 96.7679 100.554 96.7794 100.439 96.8185C100.324 96.8553 100.191 96.8875 100.053 96.9611C99.9814 96.9933 99.917 97.0232 99.8549 97.0531C99.7951 97.0876 99.7399 97.1221 99.6893 97.152C99.6364 97.1819 99.5881 97.2095 99.5398 97.2371C99.4961 97.2693 99.4547 97.2992 99.4156 97.3268C99.3374 97.3843 99.2615 97.4303 99.1994 97.4832C99.1373 97.5384 99.0775 97.589 99.0177 97.6396C98.7969 97.8558 98.5485 98.0651 98.2449 98.6148C97.9551 99.1714 97.8999 99.4865 97.8493 99.7901C97.8378 99.866 97.8263 99.9442 97.8148 100.025C97.8102 100.107 97.8079 100.195 97.8033 100.291C97.7918 100.388 97.8033 100.496 97.8056 100.616C97.8079 100.676 97.8102 100.74 97.8125 100.809C97.8217 100.878 97.8332 100.949 97.8447 101.027C97.8585 101.184 97.8999 101.313 97.9321 101.43C97.9597 101.547 98.0057 101.646 98.0471 101.734C98.1184 101.913 98.215 102.037 98.3001 102.164C98.491 102.403 98.6589 102.651 99.0752 103.07C99.5053 103.477 99.779 103.61 100.044 103.728C100.31 103.845 100.586 103.953 101.157 104.045C101.26 104.07 101.355 104.07 101.435 104.1C101.516 104.123 101.582 104.167 101.642 104.197C101.762 104.266 101.844 104.369 101.907 104.496C102.028 104.747 102.049 105.085 102.074 105.418C102.1 105.752 102.155 106.083 102.019 106.336C101.95 106.462 101.831 106.57 101.633 106.649C101.534 106.692 101.414 106.706 101.274 106.718C101.134 106.722 100.968 106.736 100.784 106.702V106.699Z" fill="#141413"/>
<path d="M72.0341 106.699C71.5327 106.628 71.1693 106.508 70.8749 106.396C70.5851 106.271 70.3597 106.161 70.1504 106.023C69.9342 105.899 69.7341 105.747 69.4834 105.568C69.2396 105.379 68.9498 105.151 68.6002 104.806C68.4254 104.636 68.2897 104.466 68.1632 104.323C68.0459 104.172 67.9516 104.031 67.8642 103.907C67.7745 103.783 67.7147 103.656 67.6503 103.544C67.5905 103.429 67.5238 103.325 67.4801 103.21C67.3835 102.985 67.28 102.764 67.1926 102.472C67.1443 102.327 67.0891 102.168 67.0523 101.982C67.0109 101.796 66.9534 101.591 66.9281 101.349C66.912 101.23 66.8959 101.117 66.8821 101.011C66.8706 100.906 66.8683 100.804 66.8614 100.71C66.8499 100.521 66.8338 100.354 66.8407 100.202C66.8407 100.048 66.8407 99.9097 66.8407 99.7786C66.8453 99.6475 66.8568 99.5256 66.866 99.4014C66.912 98.9115 66.9695 98.3917 67.4318 97.5016C67.5514 97.2831 67.6733 97.0991 67.7745 96.9335C67.8895 96.7771 67.993 96.6368 68.085 96.5103C68.1793 96.3838 68.2782 96.2826 68.3633 96.1814C68.4507 96.0802 68.5312 95.9836 68.6255 95.8985C68.8049 95.7214 68.9866 95.5443 69.2442 95.3603C69.3086 95.312 69.373 95.2637 69.4443 95.2108C69.5202 95.1648 69.5984 95.1165 69.6835 95.0636C69.7686 95.013 69.8583 94.9601 69.9549 94.9026C70.0538 94.852 70.1619 94.8014 70.2769 94.7485C70.5046 94.6358 70.7185 94.5691 70.9071 94.5116C71.0957 94.4495 71.2682 94.4196 71.4246 94.3966C71.7351 94.3391 71.9904 94.3483 72.2388 94.3506C72.7356 94.3805 73.2278 94.3943 74.18 94.5852C75.1276 94.8037 75.5623 95.0406 75.997 95.2568C76.1028 95.3166 76.2086 95.3764 76.3236 95.4408C76.4363 95.5075 76.5444 95.5926 76.6686 95.68C76.7307 95.726 76.7974 95.772 76.8618 95.8249C76.9262 95.8824 76.9929 95.9422 77.0642 96.0043C77.1355 96.0687 77.2114 96.1377 77.2873 96.2113C77.3609 96.2918 77.4368 96.3769 77.5196 96.4689C77.8416 96.8392 78.0463 97.1497 78.2004 97.4165C78.3683 97.6764 78.4557 97.9087 78.5684 98.1272C78.619 98.2399 78.6581 98.3572 78.7041 98.4814C78.7478 98.6056 78.8007 98.7344 78.8329 98.8862C78.8697 99.0357 78.9157 99.2013 78.9502 99.3899C78.9755 99.5808 79.0146 99.7947 79.0307 100.038C79.0882 101.025 78.9387 101.52 78.7984 101.987C78.7593 102.104 78.7202 102.219 78.6788 102.343C78.6282 102.463 78.5753 102.589 78.5155 102.729C78.4603 102.872 78.3821 103.019 78.2947 103.187C78.2487 103.27 78.2073 103.362 78.1521 103.454C78.0946 103.544 78.0348 103.64 77.9704 103.744C77.7082 104.151 77.4736 104.431 77.2712 104.659C77.1746 104.776 77.078 104.875 76.9837 104.965C76.8917 105.057 76.8043 105.142 76.7169 105.23C76.6226 105.308 76.5283 105.386 76.4271 105.469C76.3765 105.51 76.3236 105.552 76.2684 105.595C76.2086 105.634 76.1488 105.673 76.0844 105.717C75.8268 105.887 75.5002 106.071 75.0356 106.244C74.8631 106.301 74.7067 106.357 74.5618 106.375C74.4169 106.396 74.2881 106.403 74.1754 106.398C73.95 106.398 73.7775 106.315 73.6556 106.23C73.4118 106.046 73.3497 105.754 73.3221 105.42C73.2922 105.087 73.3129 104.806 73.444 104.597C73.5084 104.487 73.605 104.415 73.7315 104.326C73.7959 104.284 73.8695 104.245 73.9546 104.213C74.042 104.181 74.1317 104.13 74.2421 104.096C74.824 103.875 75.0379 103.62 75.2472 103.401C75.4335 103.155 75.6313 102.932 75.9533 102.444C76.0315 102.32 76.1051 102.214 76.1557 102.113C76.2132 102.014 76.2707 101.929 76.3098 101.846C76.3535 101.763 76.3972 101.692 76.4409 101.623C76.4754 101.552 76.5099 101.483 76.5467 101.414C76.6801 101.14 76.8204 100.837 76.7859 100.206C76.7376 99.5785 76.6157 99.2841 76.526 98.9828C76.4018 98.6976 76.2937 98.3894 75.882 97.9041C75.8291 97.8466 75.7785 97.7914 75.7325 97.7385C75.6819 97.6902 75.629 97.6511 75.583 97.6097C75.4887 97.5292 75.4013 97.4648 75.3139 97.4188C75.2265 97.3705 75.1506 97.3268 75.0747 97.2946C74.9965 97.267 74.9206 97.2394 74.847 97.2141C74.5457 97.1267 74.2605 97.0347 73.6901 96.9013C73.1151 96.784 72.8161 96.7679 72.5079 96.738C72.3561 96.7357 72.1974 96.7173 72.0065 96.7541C71.9099 96.7679 71.8041 96.7794 71.6891 96.8185C71.5741 96.8553 71.4407 96.8875 71.3027 96.9611C71.2314 96.9933 71.167 97.0232 71.1049 97.0531C71.0451 97.0876 70.9899 97.1221 70.9393 97.152C70.8864 97.1819 70.8381 97.2095 70.7898 97.2371C70.7461 97.2693 70.7047 97.2992 70.6656 97.3268C70.5874 97.3843 70.5115 97.4303 70.4494 97.4832C70.3873 97.5384 70.3275 97.589 70.2677 97.6396C70.0469 97.8558 69.7985 98.0651 69.4949 98.6148C69.2051 99.1714 69.1499 99.4865 69.0993 99.7901C69.0878 99.866 69.0763 99.9442 69.0648 100.025C69.0602 100.107 69.0579 100.195 69.0533 100.291C69.0418 100.388 69.0533 100.496 69.0556 100.616C69.0579 100.676 69.0602 100.74 69.0625 100.809C69.0717 100.878 69.0832 100.949 69.0947 101.027C69.1085 101.184 69.1499 101.313 69.1821 101.43C69.2097 101.547 69.2557 101.646 69.2971 101.734C69.3684 101.913 69.465 102.037 69.5501 102.164C69.741 102.403 69.9089 102.651 70.3252 103.07C70.7553 103.477 71.029 103.61 71.2935 103.728C71.5603 103.845 71.8363 103.953 72.4067 104.045C72.5102 104.07 72.6045 104.07 72.685 104.1C72.7655 104.123 72.8322 104.167 72.892 104.197C73.0116 104.266 73.0944 104.369 73.1565 104.496C73.2784 104.747 73.2991 105.085 73.3244 105.418C73.3497 105.752 73.4049 106.083 73.2692 106.336C73.2002 106.462 73.0806 106.57 72.8828 106.649C72.7839 106.692 72.6643 106.706 72.524 106.718C72.3837 106.722 72.2181 106.736 72.0341 106.702V106.699Z" fill="#141413"/>
<path d="M72.7241 76.7993C72.2227 76.728 71.8593 76.6084 71.5649 76.4957C71.2751 76.3715 71.0497 76.2611 70.8404 76.1231C70.6242 75.9989 70.4241 75.8471 70.1734 75.6677C69.9296 75.4791 69.6398 75.2514 69.2902 74.9064C69.1154 74.7362 68.9797 74.566 68.8532 74.4234C68.7359 74.2716 68.6416 74.1313 68.5542 74.0071C68.4645 73.8829 68.4047 73.7564 68.3403 73.6437C68.2805 73.5287 68.2138 73.4252 68.1701 73.3102C68.0735 73.0848 67.97 72.864 67.8826 72.5719C67.8343 72.427 67.7791 72.2683 67.7423 72.082C67.7009 71.8957 67.6434 71.691 67.6181 71.4495C67.602 71.3299 67.5859 71.2172 67.5721 71.1114C67.5606 71.0056 67.5583 70.9044 67.5514 70.8101C67.5399 70.6215 67.5238 70.4536 67.5307 70.3018C67.5307 70.1477 67.5307 70.0097 67.5307 69.8786C67.5353 69.7475 67.5468 69.6256 67.556 69.5014C67.602 69.0115 67.6595 68.4917 68.1218 67.6016C68.2414 67.3831 68.3633 67.1991 68.4645 67.0335C68.5795 66.8771 68.683 66.7368 68.775 66.6103C68.8693 66.4838 68.9682 66.3826 69.0533 66.2814C69.1407 66.1802 69.2212 66.0836 69.3155 65.9985C69.4949 65.8214 69.6766 65.6443 69.9342 65.4603C69.9986 65.412 70.063 65.3637 70.1343 65.3108C70.2102 65.2648 70.2884 65.2165 70.3735 65.1636C70.4586 65.113 70.5483 65.0601 70.6449 65.0026C70.7438 64.952 70.8519 64.9014 70.9669 64.8485C71.1946 64.7358 71.4085 64.6691 71.5971 64.6116C71.7857 64.5495 71.9582 64.5196 72.1146 64.4966C72.4251 64.4391 72.6804 64.4483 72.9288 64.4506C73.4256 64.4805 73.9178 64.4943 74.87 64.6852C75.8176 64.9037 76.2523 65.1406 76.687 65.3568C76.7928 65.4166 76.8986 65.4764 77.0136 65.5408C77.1263 65.6075 77.2344 65.6926 77.3586 65.78C77.4207 65.826 77.4874 65.872 77.5518 65.9249C77.6162 65.9824 77.6829 66.0422 77.7542 66.1043C77.8255 66.1687 77.9014 66.2377 77.9773 66.3113C78.0509 66.3918 78.1268 66.4769 78.2096 66.5689C78.5316 66.9392 78.7363 67.2497 78.8904 67.5165C79.0583 67.7764 79.1457 68.0087 79.2584 68.2272C79.309 68.3399 79.3481 68.4572 79.3941 68.5814C79.4378 68.7056 79.4907 68.8344 79.5229 68.9862C79.5597 69.1357 79.6057 69.3013 79.6402 69.4899C79.6655 69.6808 79.7046 69.8947 79.7207 70.1385C79.7782 71.1252 79.6287 71.6197 79.4884 72.0866C79.4493 72.2039 79.4102 72.3189 79.3688 72.4431C79.3182 72.5627 79.2653 72.6892 79.2055 72.8295C79.1503 72.9721 79.0721 73.1193 78.9847 73.2872C78.9387 73.37 78.8973 73.462 78.8421 73.554C78.7846 73.6437 78.7248 73.7403 78.6604 73.8438C78.3982 74.2509 78.1636 74.5315 77.9612 74.7592C77.8646 74.8765 77.768 74.9754 77.6737 75.0651C77.5817 75.1571 77.4943 75.2422 77.4069 75.3296C77.3126 75.4078 77.2183 75.486 77.1171 75.5688C77.0665 75.6102 77.0136 75.6516 76.9584 75.6953C76.8986 75.7344 76.8388 75.7735 76.7744 75.8172C76.5168 75.9874 76.1902 76.1714 75.7256 76.3439C75.5531 76.4014 75.3967 76.4566 75.2518 76.475C75.1069 76.4957 74.9781 76.5026 74.8654 76.498C74.64 76.498 74.4675 76.4152 74.3456 76.3301C74.1018 76.1461 74.0397 75.854 74.0121 75.5205C73.9822 75.187 74.0029 74.9064 74.134 74.6971C74.1984 74.5867 74.295 74.5154 74.4215 74.4257C74.4859 74.3843 74.5595 74.3452 74.6446 74.313C74.732 74.2808 74.8217 74.2302 74.9321 74.1957C75.514 73.9749 75.7279 73.7196 75.9372 73.5011C76.1235 73.255 76.3213 73.0319 76.6433 72.5443C76.7215 72.4201 76.7951 72.3143 76.8457 72.2131C76.9032 72.1142 76.9607 72.0291 76.9998 71.9463C77.0435 71.8635 77.0872 71.7922 77.1309 71.7232C77.1654 71.6519 77.1999 71.5829 77.2367 71.5139C77.3701 71.2402 77.5104 70.9366 77.4759 70.3064C77.4276 69.6785 77.3057 69.3841 77.216 69.0828C77.0918 68.7976 76.9837 68.4894 76.572 68.0041C76.5191 67.9466 76.4685 67.8914 76.4225 67.8385C76.3719 67.7902 76.319 67.7511 76.273 67.7097C76.1787 67.6292 76.0913 67.5648 76.0039 67.5188C75.9165 67.4705 75.8406 67.4268 75.7647 67.3946C75.6865 67.367 75.6106 67.3394 75.537 67.3141C75.2357 67.2267 74.9505 67.1347 74.3801 67.0013C73.8051 66.884 73.5061 66.8679 73.1979 66.838C73.0461 66.8357 72.8874 66.8173 72.6965 66.8541C72.5999 66.8679 72.4941 66.8794 72.3791 66.9185C72.2641 66.9553 72.1307 66.9875 71.9927 67.0611C71.9214 67.0933 71.857 67.1232 71.7949 67.1531C71.7351 67.1876 71.6799 67.2221 71.6293 67.252C71.5764 67.2819 71.5281 67.3095 71.4798 67.3371C71.4361 67.3693 71.3947 67.3992 71.3556 67.4268C71.2774 67.4843 71.2015 67.5303 71.1394 67.5832C71.0773 67.6384 71.0175 67.689 70.9577 67.7396C70.7369 67.9558 70.4885 68.1651 70.1849 68.7148C69.8951 69.2714 69.8399 69.5865 69.7893 69.8901C69.7778 69.966 69.7663 70.0442 69.7548 70.1247C69.7502 70.2075 69.7479 70.2949 69.7433 70.3915C69.7318 70.4881 69.7433 70.5962 69.7456 70.7158C69.7479 70.7756 69.7502 70.84 69.7525 70.909C69.7617 70.978 69.7732 71.0493 69.7847 71.1275C69.7985 71.2839 69.8399 71.4127 69.8721 71.53C69.8997 71.6473 69.9457 71.7462 69.9871 71.8336C70.0584 72.013 70.155 72.1372 70.2401 72.2637C70.431 72.5029 70.5989 72.7513 71.0152 73.1699C71.4453 73.577 71.719 73.7104 71.9835 73.8277C72.2503 73.945 72.5263 74.0531 73.0967 74.1451C73.2002 74.1704 73.2945 74.1704 73.375 74.2003C73.4555 74.2233 73.5222 74.267 73.582 74.2969C73.7016 74.3659 73.7844 74.4694 73.8465 74.5959C73.9684 74.8466 73.9891 75.1847 74.0144 75.5182C74.0397 75.8517 74.0949 76.1829 73.9592 76.4359C73.8902 76.5624 73.7706 76.6705 73.5728 76.7487C73.4739 76.7924 73.3543 76.8062 73.214 76.8177C73.0737 76.8223 72.9081 76.8361 72.7241 76.8016V76.7993Z" fill="#141413"/>
<path d="M12.1904 95.4868C12.1904 94.4265 12.3698 94.4265 12.3698 93.3685C12.3698 92.3105 12.4319 92.3082 12.4319 91.2479C12.4319 90.1876 12.2479 90.1876 12.2479 89.1273C12.2479 88.067 12.172 88.067 12.172 87.0067C12.172 85.9464 12.4503 85.9464 12.4503 84.8861C12.4503 83.8258 12.3629 83.8258 12.3629 82.7678C12.3629 81.7098 12.333 81.7075 12.333 80.6472C12.333 79.5869 12.4457 79.5869 12.4457 78.5243C12.4457 77.4617 12.3307 77.464 12.3307 76.4014C12.3307 75.6171 12.8505 75.5136 13.5198 75.5136C14.1891 75.5136 14.6169 75.6194 14.6169 76.4014C14.6169 77.4617 14.8469 77.4617 14.8469 78.5197C14.8469 79.5777 14.5893 79.58 14.5893 80.6403C14.5893 81.7006 14.5433 81.7006 14.5433 82.7609C14.5433 83.8212 14.8239 83.8212 14.8239 84.8815C14.8239 85.9418 14.6123 85.9418 14.6123 87.0021C14.6123 88.0624 14.5916 88.0624 14.5916 89.1204C14.5916 90.1784 14.6215 90.1807 14.6215 91.241C14.6215 92.3013 14.817 92.3013 14.817 93.3639C14.817 94.4265 14.8722 94.4242 14.8722 95.4868C14.8722 96.2711 14.1891 96.2228 13.5198 96.2228C12.8505 96.2228 12.1927 96.2711 12.1927 95.4868H12.1904Z" fill="#141413"/>
<path d="M42.3204 95.4868C42.3204 94.4265 42.4998 94.4265 42.4998 93.3685C42.4998 92.3105 42.5619 92.3082 42.5619 91.2479C42.5619 90.1876 42.3779 90.1876 42.3779 89.1273C42.3779 88.067 42.302 88.067 42.302 87.0067C42.302 85.9464 42.5803 85.9464 42.5803 84.8861C42.5803 83.8258 42.4929 83.8258 42.4929 82.7678C42.4929 81.7098 42.463 81.7075 42.463 80.6472C42.463 79.5869 42.5757 79.5869 42.5757 78.5243C42.5757 77.4617 42.4607 77.464 42.4607 76.4014C42.4607 75.6171 42.9805 75.5136 43.6498 75.5136C44.3191 75.5136 44.7469 75.6194 44.7469 76.4014C44.7469 77.4617 44.9769 77.4617 44.9769 78.5197C44.9769 79.5777 44.7193 79.58 44.7193 80.6403C44.7193 81.7006 44.6733 81.7006 44.6733 82.7609C44.6733 83.8212 44.9539 83.8212 44.9539 84.8815C44.9539 85.9418 44.7423 85.9418 44.7423 87.0021C44.7423 88.0624 44.7216 88.0624 44.7216 89.1204C44.7216 90.1784 44.7515 90.1807 44.7515 91.241C44.7515 92.3013 44.947 92.3013 44.947 93.3639C44.947 94.4265 45.0022 94.4242 45.0022 95.4868C45.0022 96.2711 44.3191 96.2228 43.6498 96.2228C42.9805 96.2228 42.3227 96.2711 42.3227 95.4868H42.3204Z" fill="#141413"/>
<path d="M42.3204 66.5045C42.3204 65.4419 42.4998 65.4419 42.4998 64.377C42.4998 63.3121 42.5619 63.3121 42.5619 62.2495C42.5619 61.1869 42.3779 61.1869 42.3779 60.122C42.3779 59.0571 42.302 59.0594 42.302 57.9945C42.302 56.9296 42.5803 56.9296 42.5803 55.867C42.5803 54.8044 42.4929 54.8044 42.4929 53.7395C42.4929 52.6746 42.463 52.6746 42.463 51.6097C42.463 50.5448 42.5757 50.5448 42.5757 49.4799C42.5757 48.415 42.4607 48.415 42.4607 47.3501C42.4607 46.5635 42.9805 46.4577 43.6498 46.4577C44.3191 46.4577 44.7469 46.5635 44.7469 47.3501C44.7469 48.4127 44.9769 48.4127 44.9769 49.4776C44.9769 50.5425 44.7193 50.5402 44.7193 51.6051C44.7193 52.67 44.6733 52.6677 44.6733 53.7326C44.6733 54.7975 44.9539 54.7952 44.9539 55.8601C44.9539 56.925 44.7423 56.925 44.7423 57.9876C44.7423 59.0502 44.7216 59.0502 44.7216 60.1151C44.7216 61.18 44.7515 61.18 44.7515 62.2449C44.7515 63.3098 44.947 63.3098 44.947 64.3747C44.947 65.4396 45.0022 65.4396 45.0022 66.5045C45.0022 67.2911 44.3191 67.2428 43.6498 67.2428C42.9805 67.2428 42.3227 67.2911 42.3227 66.5045H42.3204Z" fill="#141413"/>
<path d="M42.3204 36.8345C42.3204 35.7719 42.4998 35.7719 42.4998 34.707C42.4998 33.6421 42.5619 33.6421 42.5619 32.5795C42.5619 31.5169 42.3779 31.5169 42.3779 30.452C42.3779 29.3871 42.302 29.3894 42.302 28.3245C42.302 27.2596 42.5803 27.2596 42.5803 26.197C42.5803 25.1344 42.4929 25.1344 42.4929 24.0695C42.4929 23.0046 42.463 23.0046 42.463 21.9397C42.463 20.8748 42.5757 20.8748 42.5757 19.8099C42.5757 18.745 42.4607 18.745 42.4607 17.6801C42.4607 16.8935 42.9805 16.7877 43.6498 16.7877C44.3191 16.7877 44.7469 16.8935 44.7469 17.6801C44.7469 18.7427 44.9769 18.7427 44.9769 19.8076C44.9769 20.8725 44.7193 20.8702 44.7193 21.9351C44.7193 23 44.6733 22.9977 44.6733 24.0626C44.6733 25.1275 44.9539 25.1252 44.9539 26.1901C44.9539 27.255 44.7423 27.255 44.7423 28.3176C44.7423 29.3802 44.7216 29.3802 44.7216 30.4451C44.7216 31.51 44.7515 31.51 44.7515 32.5749C44.7515 33.6398 44.947 33.6398 44.947 34.7047C44.947 35.7696 45.0022 35.7696 45.0022 36.8345C45.0022 37.6211 44.3191 37.5728 43.6498 37.5728C42.9805 37.5728 42.3227 37.6211 42.3227 36.8345H42.3204Z" fill="#141413"/>
<path d="M18.5867 69.322C19.6493 69.322 19.6493 69.5014 20.7142 69.5014C21.7791 69.5014 21.7768 69.5635 22.8417 69.5635C23.9066 69.5635 23.9043 69.3795 24.9692 69.3795C26.0341 69.3795 26.0318 69.3036 27.0967 69.3036C28.1616 69.3036 28.1616 69.5819 29.2242 69.5819C30.2868 69.5819 30.2868 69.4945 31.3517 69.4945C32.4166 69.4945 32.4166 69.4646 33.4815 69.4646C34.5464 69.4646 34.5464 69.5773 35.6113 69.5773C36.6762 69.5773 36.6762 69.4623 37.7411 69.4623C38.5277 69.4623 38.6335 69.9821 38.6335 70.6514C38.6335 71.3207 38.5277 71.7485 37.7411 71.7485C36.6785 71.7485 36.6785 71.9785 35.6136 71.9785C34.5487 71.9785 34.551 71.7209 33.4861 71.7209C32.4212 71.7209 32.4235 71.6749 31.3586 71.6749C30.2937 71.6749 30.296 71.9555 29.2311 71.9555C28.1662 71.9555 28.1662 71.7439 27.1036 71.7439C26.041 71.7439 26.041 71.7232 24.9761 71.7232C23.9112 71.7232 23.9112 71.7531 22.8463 71.7531C21.7814 71.7531 21.7814 71.9486 20.7165 71.9486C19.6516 71.9486 19.6516 72.0038 18.5867 72.0038C17.8001 72.0038 17.8484 71.3207 17.8484 70.6514C17.8484 69.9821 17.8001 69.3243 18.5867 69.3243V69.322Z" fill="#141413"/>
<path d="M18.5867 99.222C19.6493 99.222 19.6493 99.4014 20.7142 99.4014C21.7791 99.4014 21.7768 99.4635 22.8417 99.4635C23.9066 99.4635 23.9043 99.2795 24.9692 99.2795C26.0341 99.2795 26.0318 99.2036 27.0967 99.2036C28.1616 99.2036 28.1616 99.4819 29.2242 99.4819C30.2868 99.4819 30.2868 99.3945 31.3517 99.3945C32.4166 99.3945 32.4166 99.3646 33.4815 99.3646C34.5464 99.3646 34.5464 99.4773 35.6113 99.4773C36.6762 99.4773 36.6762 99.3623 37.7411 99.3623C38.5277 99.3623 38.6335 99.8821 38.6335 100.551C38.6335 101.221 38.5277 101.648 37.7411 101.648C36.6785 101.648 36.6785 101.878 35.6136 101.878C34.5487 101.878 34.551 101.621 33.4861 101.621C32.4212 101.621 32.4235 101.575 31.3586 101.575C30.2937 101.575 30.296 101.855 29.2311 101.855C28.1662 101.855 28.1662 101.644 27.1036 101.644C26.041 101.644 26.041 101.623 24.9761 101.623C23.9112 101.623 23.9112 101.653 22.8463 101.653C21.7814 101.653 21.7814 101.849 20.7165 101.849C19.6516 101.849 19.6516 101.904 18.5867 101.904C17.8001 101.904 17.8484 101.221 17.8484 100.551C17.8484 99.8821 17.8001 99.2243 18.5867 99.2243V99.222Z" fill="#141413"/>
<path d="M49.6367 69.322C50.6993 69.322 50.6993 69.5014 51.7642 69.5014C52.8291 69.5014 52.8268 69.5635 53.8917 69.5635C54.9566 69.5635 54.9543 69.3795 56.0192 69.3795C57.0841 69.3795 57.0818 69.3036 58.1467 69.3036C59.2116 69.3036 59.2116 69.5819 60.2742 69.5819C61.3368 69.5819 61.3368 69.4945 62.4017 69.4945C63.4666 69.4945 63.4666 69.4646 64.5315 69.4646C65.5964 69.4646 65.5964 69.5773 66.6613 69.5773C67.7262 69.5773 67.7262 69.4623 68.7911 69.4623C69.5777 69.4623 69.6835 69.9821 69.6835 70.6514C69.6835 71.3207 69.5777 71.7485 68.7911 71.7485C67.7285 71.7485 67.7285 71.9785 66.6636 71.9785C65.5987 71.9785 65.601 71.7209 64.5361 71.7209C63.4712 71.7209 63.4735 71.6749 62.4086 71.6749C61.3437 71.6749 61.346 71.9555 60.2811 71.9555C59.2162 71.9555 59.2162 71.7439 58.1536 71.7439C57.091 71.7439 57.091 71.7232 56.0261 71.7232C54.9612 71.7232 54.9612 71.7531 53.8963 71.7531C52.8314 71.7531 52.8314 71.9486 51.7665 71.9486C50.7016 71.9486 50.7016 72.0038 49.6367 72.0038C48.8501 72.0038 48.8984 71.3207 48.8984 70.6514C48.8984 69.9821 48.8501 69.3243 49.6367 69.3243V69.322Z" fill="#141413"/>
<path d="M47.5667 11.592C48.6293 11.592 48.6293 11.7714 49.6942 11.7714C50.7591 11.7714 50.7568 11.8335 51.8217 11.8335C52.8866 11.8335 52.8843 11.6495 53.9492 11.6495C55.0141 11.6495 55.0118 11.5736 56.0767 11.5736C57.1416 11.5736 57.1416 11.8519 58.2042 11.8519C59.2668 11.8519 59.2668 11.7645 60.3317 11.7645C61.3966 11.7645 61.3966 11.7346 62.4615 11.7346C63.5264 11.7346 63.5264 11.8473 64.5913 11.8473C65.6562 11.8473 65.6562 11.7323 66.7211 11.7323C67.5077 11.7323 67.6135 12.2521 67.6135 12.9214C67.6135 13.5907 67.5077 14.0185 66.7211 14.0185C65.6585 14.0185 65.6585 14.2485 64.5936 14.2485C63.5287 14.2485 63.531 13.9909 62.4661 13.9909C61.4012 13.9909 61.4035 13.9449 60.3386 13.9449C59.2737 13.9449 59.276 14.2255 58.2111 14.2255C57.1462 14.2255 57.1462 14.0139 56.0836 14.0139C55.021 14.0139 55.021 13.9932 53.9561 13.9932C52.8912 13.9932 52.8912 14.0231 51.8263 14.0231C50.7614 14.0231 50.7614 14.2186 49.6965 14.2186C48.6316 14.2186 48.6316 14.2738 47.5667 14.2738C46.7801 14.2738 46.8284 13.5907 46.8284 12.9214C46.8284 12.2521 46.7801 11.5943 47.5667 11.5943V11.592Z" fill="#141413"/>
<path d="M49.6367 99.222C50.6993 99.222 50.6993 99.4014 51.7642 99.4014C52.8291 99.4014 52.8268 99.4635 53.8917 99.4635C54.9566 99.4635 54.9543 99.2795 56.0192 99.2795C57.0841 99.2795 57.0818 99.2036 58.1467 99.2036C59.2116 99.2036 59.2116 99.4819 60.2742 99.4819C61.3368 99.4819 61.3368 99.3945 62.4017 99.3945C63.4666 99.3945 63.4666 99.3646 64.5315 99.3646C65.5964 99.3646 65.5964 99.4773 66.6613 99.4773C67.7262 99.4773 67.7262 99.3623 68.7911 99.3623C69.5777 99.3623 69.6835 99.8821 69.6835 100.551C69.6835 101.221 69.5777 101.648 68.7911 101.648C67.7285 101.648 67.7285 101.878 66.6636 101.878C65.5987 101.878 65.601 101.621 64.5361 101.621C63.4712 101.621 63.4735 101.575 62.4086 101.575C61.3437 101.575 61.346 101.855 60.2811 101.855C59.2162 101.855 59.2162 101.644 58.1536 101.644C57.091 101.644 57.091 101.623 56.0261 101.623C54.9612 101.623 54.9612 101.653 53.8963 101.653C52.8314 101.653 52.8314 101.849 51.7665 101.849C50.7016 101.849 50.7016 101.904 49.6367 101.904C48.8501 101.904 48.8984 101.221 48.8984 100.551C48.8984 99.8821 48.8501 99.2243 49.6367 99.2243V99.222Z" fill="#141413"/>
<path d="M78.8076 69.322C79.8127 69.322 79.8127 69.5014 80.8178 69.5014C81.8229 69.5014 81.8229 69.5635 82.828 69.5635C83.8331 69.5635 83.8331 69.3795 84.8382 69.3795C85.8433 69.3795 85.8433 69.3036 86.8484 69.3036C87.8535 69.3036 87.8535 69.5819 88.8586 69.5819C89.8637 69.5819 89.8637 69.4945 90.8688 69.4945C91.8739 69.4945 91.8739 69.4646 92.8813 69.4646C93.8887 69.4646 93.8887 69.5773 94.8938 69.5773C95.8989 69.5773 95.9012 69.4623 96.9063 69.4623C97.6492 69.4623 97.7504 69.9821 97.7504 70.6514C97.7504 71.3207 97.6515 71.7485 96.9063 71.7485C95.9012 71.7485 95.9012 71.9785 94.8961 71.9785C93.891 71.9785 93.891 71.7209 92.8859 71.7209C91.8808 71.7209 91.8808 71.6749 90.8757 71.6749C89.8706 71.6749 89.8706 71.9555 88.8655 71.9555C87.8604 71.9555 87.8604 71.7439 86.8553 71.7439C85.8502 71.7439 85.8502 71.7232 84.8451 71.7232C83.84 71.7232 83.84 71.7531 82.8326 71.7531C81.8252 71.7531 81.8252 71.9486 80.8201 71.9486C79.815 71.9486 79.8127 72.0038 78.8076 72.0038C78.0647 72.0038 78.1107 71.3207 78.1107 70.6514C78.1107 69.9821 78.0647 69.3243 78.8076 69.3243V69.322Z" fill="#141413"/>
<path d="M76.7376 40.342C77.7427 40.342 77.7427 40.5214 78.7478 40.5214C79.7529 40.5214 79.7529 40.5835 80.758 40.5835C81.7631 40.5835 81.7631 40.3995 82.7682 40.3995C83.7733 40.3995 83.7733 40.3236 84.7784 40.3236C85.7835 40.3236 85.7835 40.6019 86.7886 40.6019C87.7937 40.6019 87.7937 40.5145 88.7988 40.5145C89.8039 40.5145 89.8039 40.4846 90.8113 40.4846C91.8187 40.4846 91.8187 40.5973 92.8238 40.5973C93.8289 40.5973 93.8312 40.4823 94.8363 40.4823C95.5792 40.4823 95.6804 41.0021 95.6804 41.6714C95.6804 42.3407 95.5815 42.7685 94.8363 42.7685C93.8312 42.7685 93.8312 42.9985 92.8261 42.9985C91.821 42.9985 91.821 42.7409 90.8159 42.7409C89.8108 42.7409 89.8108 42.6949 88.8057 42.6949C87.8006 42.6949 87.8006 42.9755 86.7955 42.9755C85.7904 42.9755 85.7904 42.7639 84.7853 42.7639C83.7802 42.7639 83.7802 42.7432 82.7751 42.7432C81.77 42.7432 81.77 42.7731 80.7626 42.7731C79.7552 42.7731 79.7552 42.9686 78.7501 42.9686C77.745 42.9686 77.7427 43.0238 76.7376 43.0238C75.9947 43.0238 76.0407 42.3407 76.0407 41.6714C76.0407 41.0021 75.9947 40.3443 76.7376 40.3443V40.342Z" fill="#141413"/>
<path d="M48.857 40.7376C49.8598 40.6939 49.869 40.8733 50.8718 40.8296C51.8769 40.7859 51.8792 40.848 52.8843 40.8043C53.8894 40.7606 53.8802 40.5766 54.8853 40.5329C55.8904 40.4892 55.8858 40.4133 56.8909 40.3696C57.896 40.3259 57.9075 40.6042 58.9126 40.5605C59.9177 40.5168 59.9131 40.4294 60.9159 40.3857C61.921 40.342 61.9187 40.3121 62.9238 40.2684C63.9289 40.2247 63.9335 40.3351 64.9409 40.2914C65.946 40.2477 65.9414 40.1327 66.9465 40.089C67.6894 40.0568 67.8113 40.572 67.8412 41.2413C67.8711 41.9106 67.7883 42.343 67.0477 42.3752C66.0449 42.4189 66.0541 42.6489 65.049 42.6926C64.0439 42.7363 64.0324 42.4787 63.0296 42.5224C62.0245 42.5661 62.0222 42.5224 61.0194 42.5638C60.0143 42.6075 60.0281 42.8881 59.023 42.9318C58.0179 42.9755 58.0087 42.7639 57.0036 42.8076C55.9985 42.8513 55.9985 42.8306 54.9957 42.8743C53.9906 42.918 53.9929 42.9479 52.9878 42.9916C51.9827 43.0353 51.9896 43.2285 50.9845 43.2722C49.9794 43.3159 49.9817 43.3711 48.9766 43.4148C48.2337 43.447 48.2498 42.7639 48.2199 42.0946C48.19 41.4253 48.1164 40.7698 48.8593 40.7376H48.857Z" fill="#141413"/>
<path d="M78.8076 99.222C79.8127 99.222 79.8127 99.4014 80.8178 99.4014C81.8229 99.4014 81.8229 99.4635 82.828 99.4635C83.8331 99.4635 83.8331 99.2795 84.8382 99.2795C85.8433 99.2795 85.8433 99.2036 86.8484 99.2036C87.8535 99.2036 87.8535 99.4819 88.8586 99.4819C89.8637 99.4819 89.8637 99.3945 90.8688 99.3945C91.8739 99.3945 91.8739 99.3646 92.8813 99.3646C93.8887 99.3646 93.8887 99.4773 94.8938 99.4773C95.8989 99.4773 95.9012 99.3623 96.9063 99.3623C97.6492 99.3623 97.7504 99.8821 97.7504 100.551C97.7504 101.221 97.6515 101.648 96.9063 101.648C95.9012 101.648 95.9012 101.878 94.8961 101.878C93.891 101.878 93.891 101.621 92.8859 101.621C91.8808 101.621 91.8808 101.575 90.8757 101.575C89.8706 101.575 89.8706 101.855 88.8655 101.855C87.8604 101.855 87.8604 101.644 86.8553 101.644C85.8502 101.644 85.8502 101.623 84.8451 101.623C83.84 101.623 83.84 101.653 82.8326 101.653C81.8252 101.653 81.8252 101.849 80.8201 101.849C79.815 101.849 79.8127 101.904 78.8076 101.904C78.0647 101.904 78.1107 101.221 78.1107 100.551C78.1107 99.8821 78.0647 99.2243 78.8076 99.2243V99.222Z" fill="#141413"/>
<path d="M71.0497 65.8651C71.0014 64.8025 71.1785 64.7956 71.1302 63.733C71.0819 62.6704 71.144 62.6681 71.0957 61.6055C71.0474 60.5429 70.8634 60.5521 70.8151 59.4895C70.7668 58.4269 70.6909 58.4292 70.6426 57.3666C70.5943 56.304 70.8726 56.2902 70.8243 55.2276C70.776 54.165 70.6886 54.1696 70.6403 53.107C70.592 52.0444 70.5621 52.0444 70.5138 50.9818C70.4655 49.9169 70.5759 49.9123 70.5276 48.8497C70.4793 47.7848 70.3643 47.7917 70.316 46.7268C70.2792 45.9402 70.7944 45.8114 71.4637 45.7815C72.133 45.7516 72.5654 45.8367 72.6022 46.6233C72.6505 47.6859 72.8805 47.6744 72.9288 48.737C72.9771 49.7996 72.7195 49.8111 72.7678 50.8737C72.8161 51.9363 72.7701 51.9386 72.8184 53.0012C72.8667 54.0638 73.1473 54.05 73.1956 55.1149C73.2439 56.1775 73.0323 56.1867 73.0806 57.2493C73.1289 58.3119 73.1082 58.3119 73.1565 59.3745C73.2048 60.4371 73.2347 60.4371 73.283 61.4997C73.3313 62.5646 73.5245 62.5554 73.5751 63.618C73.6234 64.6829 73.6786 64.6783 73.7269 65.7432C73.7637 66.5298 73.0783 66.5114 72.409 66.5413C71.7397 66.5712 71.0842 66.6494 71.0497 65.8628V65.8651Z" fill="#141413"/>
<path d="M99.8319 65.7823C99.8549 64.7197 100.034 64.7243 100.057 63.6594C100.08 62.5968 100.145 62.5968 100.168 61.5342C100.191 60.4716 100.009 60.467 100.032 59.4021C100.055 58.3395 99.9791 58.3372 100.004 57.2723C100.027 56.2097 100.308 56.2143 100.331 55.1517C100.354 54.0891 100.267 54.0868 100.292 53.0242C100.315 51.9593 100.285 51.9593 100.31 50.8944C100.333 49.8295 100.446 49.8318 100.471 48.7669C100.494 47.702 100.379 47.6997 100.405 46.6348C100.423 45.8482 100.945 45.7539 101.614 45.77C102.284 45.7861 102.709 45.9011 102.693 46.6877C102.67 47.7503 102.898 47.7549 102.875 48.8198C102.852 49.8824 102.592 49.8778 102.569 50.9404C102.546 52.003 102.5 52.003 102.475 53.0656C102.452 54.1282 102.732 54.1351 102.707 55.2C102.684 56.2626 102.472 56.258 102.447 57.3229C102.424 58.3855 102.401 58.3855 102.378 59.4481C102.355 60.513 102.385 60.513 102.36 61.5779C102.337 62.6428 102.53 62.6474 102.507 63.7123C102.484 64.7772 102.539 64.7795 102.514 65.8444C102.495 66.631 101.815 66.5666 101.145 66.5528C100.476 66.5367 99.8158 66.5712 99.8342 65.7846L99.8319 65.7823Z" fill="#141413"/>
<path d="M72.2204 95.4868C72.2204 94.4265 72.3998 94.4265 72.3998 93.3685C72.3998 92.3105 72.4619 92.3082 72.4619 91.2479C72.4619 90.1876 72.2779 90.1876 72.2779 89.1273C72.2779 88.067 72.202 88.067 72.202 87.0067C72.202 85.9464 72.4803 85.9464 72.4803 84.8861C72.4803 83.8258 72.3929 83.8258 72.3929 82.7678C72.3929 81.7098 72.363 81.7075 72.363 80.6472C72.363 79.5869 72.4757 79.5869 72.4757 78.5243C72.4757 77.4617 72.3607 77.464 72.3607 76.4014C72.3607 75.6171 72.8805 75.5136 73.5498 75.5136C74.2191 75.5136 74.6469 75.6194 74.6469 76.4014C74.6469 77.4617 74.8769 77.4617 74.8769 78.5197C74.8769 79.5777 74.6193 79.58 74.6193 80.6403C74.6193 81.7006 74.5733 81.7006 74.5733 82.7609C74.5733 83.8212 74.8539 83.8212 74.8539 84.8815C74.8539 85.9418 74.6423 85.9418 74.6423 87.0021C74.6423 88.0624 74.6216 88.0624 74.6216 89.1204C74.6216 90.1784 74.6515 90.1807 74.6515 91.241C74.6515 92.3013 74.847 92.3013 74.847 93.3639C74.847 94.4265 74.9022 94.4242 74.9022 95.4868C74.9022 96.2711 74.2191 96.2228 73.5498 96.2228C72.8805 96.2228 72.2227 96.2711 72.2227 95.4868H72.2204Z" fill="#141413"/>
<path d="M100.74 95.4868C100.74 94.4265 100.92 94.4265 100.92 93.3685C100.92 92.3105 100.982 92.3082 100.982 91.2479C100.982 90.1876 100.798 90.1876 100.798 89.1273C100.798 88.067 100.722 88.067 100.722 87.0067C100.722 85.9464 101 85.9464 101 84.8861C101 83.8258 100.913 83.8258 100.913 82.7678C100.913 81.7098 100.883 81.7075 100.883 80.6472C100.883 79.5869 100.996 79.5869 100.996 78.5243C100.996 77.4617 100.881 77.464 100.881 76.4014C100.881 75.6171 101.401 75.5136 102.07 75.5136C102.739 75.5136 103.167 75.6194 103.167 76.4014C103.167 77.4617 103.397 77.4617 103.397 78.5197C103.397 79.5777 103.139 79.58 103.139 80.6403C103.139 81.7006 103.093 81.7006 103.093 82.7609C103.093 83.8212 103.374 83.8212 103.374 84.8815C103.374 85.9418 103.162 85.9418 103.162 87.0021C103.162 88.0624 103.142 88.0624 103.142 89.1204C103.142 90.1784 103.172 90.1807 103.172 91.241C103.172 92.3013 103.367 92.3013 103.367 93.3639C103.367 94.4265 103.422 94.4242 103.422 95.4868C103.422 96.2711 102.739 96.2228 102.07 96.2228C101.401 96.2228 100.743 96.2711 100.743 95.4868H100.74Z" fill="#141413"/>
</svg>
