<svg
    xmlns="http://www.w3.org/2000/svg"
    width="24"
    height="24"
    viewBox="0 0 24 24"
    fill="none"
>
    <path
    d="M21.5306 20.1164L16.8366 15.6189C18.1971 14.0535 18.8755 12.0458 18.7307 10.0133C18.5859 7.98078 17.629 6.08003 16.0591 4.70642C14.4892 3.33281 12.4272 2.59211 10.3019 2.6384C8.17666 2.68469 6.15184 3.5144 4.64867 4.95494C3.1455 6.39547 2.27971 8.33593 2.23141 10.3726C2.18311 12.4093 2.95602 14.3855 4.38935 15.89C5.82268 17.3945 7.80607 18.3115 9.92694 18.4502C12.0478 18.589 14.1428 17.9388 15.7762 16.635L20.4694 21.1335C20.5391 21.2003 20.6218 21.2532 20.7128 21.2894C20.8039 21.3255 20.9015 21.3441 21 21.3441C21.0985 21.3441 21.1961 21.3255 21.2872 21.2894C21.3782 21.2532 21.4609 21.2003 21.5306 21.1335C21.6003 21.0667 21.6556 20.9874 21.6933 20.9002C21.731 20.8129 21.7504 20.7194 21.7504 20.625C21.7504 20.5305 21.731 20.437 21.6933 20.3498C21.6556 20.2625 21.6003 20.1832 21.5306 20.1164ZM3.75 10.5625C3.75 9.28306 4.14588 8.0324 4.88758 6.96862C5.62928 5.90483 6.68349 5.07572 7.91689 4.58612C9.15029 4.09651 10.5075 3.96841 11.8169 4.21801C13.1262 4.4676 14.329 5.08369 15.273 5.98836C16.217 6.89303 16.8599 8.04566 17.1203 9.30047C17.3808 10.5553 17.2471 11.8559 16.7362 13.0379C16.2253 14.22 15.3601 15.2302 14.2501 15.941C13.1401 16.6518 11.835 17.0312 10.5 17.0312C8.7104 17.0293 6.99466 16.3472 5.72922 15.1345C4.46378 13.9217 3.75199 12.2775 3.75 10.5625Z"
    fill="#535146"
    />
</svg>