<svg width="115" height="115" viewBox="0 0 115 115" fill="none" xmlns="http://www.w3.org/2000/svg">
<path d="M57.2265 73.3739C65.7783 73.3739 72.7108 66.4696 72.7108 57.9529C72.7108 49.4361 65.7783 42.5319 57.2265 42.5319C48.6748 42.5319 41.7422 49.4361 41.7422 57.9529C41.7422 66.4696 48.6748 73.3739 57.2265 73.3739Z" fill="#E3DACC"/>
<path d="M24.9204 12.9399C24.7047 12.8577 24.4994 12.7807 24.3094 12.7063C24.1143 12.6498 23.9295 12.5985 23.7575 12.5497C23.583 12.5035 23.4238 12.4419 23.2672 12.4136C23.1107 12.3828 22.9643 12.352 22.8232 12.3212C22.682 12.2904 22.5485 12.2622 22.4201 12.2339C22.2892 12.2185 22.166 12.2031 22.0454 12.1877C21.9247 12.1723 21.8066 12.1544 21.6911 12.139C21.5756 12.121 21.4601 12.1056 21.3446 12.1056C21.1136 12.0953 20.8825 12.0851 20.6387 12.0722C20.3922 12.0748 20.133 12.0979 19.8429 12.1133C19.5528 12.1287 19.2397 12.2006 18.8803 12.2545C18.7006 12.2879 18.5158 12.3469 18.3156 12.3957C18.1153 12.447 17.9023 12.5009 17.6841 12.5882C17.4633 12.6703 17.2554 12.7396 17.0603 12.8141C16.8704 12.8988 16.6907 12.9784 16.5238 13.0554C16.4391 13.0939 16.357 13.1298 16.2774 13.1632C16.2004 13.2043 16.126 13.2453 16.0541 13.2838C15.9078 13.3608 15.7717 13.4353 15.6382 13.5046C15.3738 13.6381 15.1556 13.7972 14.9349 13.9256C14.7141 14.0514 14.5242 14.1977 14.3291 14.3363C14.134 14.4749 13.9363 14.611 13.7412 14.7778C13.5487 14.9447 13.3254 15.1012 13.1123 15.3143C12.8967 15.5248 12.64 15.7379 12.3936 16.0228C12.2652 16.1614 12.1292 16.3077 11.9854 16.4643C11.852 16.6312 11.7082 16.8057 11.5568 16.9931C10.9689 17.7606 10.589 18.3818 10.322 18.9183C10.0448 19.4497 9.87796 19.8989 9.71624 20.3456C9.64437 20.5714 9.57506 20.7948 9.49805 21.0335C9.43644 21.2748 9.37227 21.5264 9.30296 21.8087C9.19772 22.3735 9.0514 23.0537 9.036 23.9393C9.0283 24.8249 9.18231 25.4487 9.32093 25.9518C9.3697 26.0724 9.41334 26.1854 9.45698 26.2958C9.50318 26.4087 9.52885 26.5037 9.59303 26.6269C9.70854 26.8579 9.80865 27.0813 9.92417 27.2969C10.1526 27.7281 10.3862 28.1543 10.7071 28.6625C11.0228 29.1759 11.4258 29.7766 12.0239 30.5133C12.6272 31.25 13.1252 31.7506 13.5436 32.1613C13.6488 32.264 13.7515 32.3589 13.8465 32.4514C13.9466 32.5412 14.0416 32.6259 14.134 32.7081C14.3162 32.88 14.5011 33.0238 14.6833 33.1752C14.863 33.3293 15.0581 33.4576 15.2609 33.6091C15.4688 33.7451 15.6896 33.894 15.9488 34.0326C16.4597 34.3227 17.1117 34.6102 18.0229 34.8489C18.9342 35.0799 19.6478 35.1287 20.2357 35.1441C20.8261 35.1621 21.301 35.1184 21.7707 35.0671C22.7102 34.9413 23.66 34.7873 25.4851 34.1199C27.3154 33.3909 28.0931 32.8723 28.8555 32.3076C29.0455 32.1664 29.2226 32.0098 29.4177 31.8558C29.6102 31.6967 29.7976 31.5093 30.0158 31.3116C30.4239 30.8932 30.9168 30.3875 31.4456 29.6149C31.9718 28.8422 32.2696 28.2082 32.5135 27.6794C32.7393 27.1429 32.8985 26.7039 33.0243 26.2547C33.0808 26.0288 33.1552 25.8055 33.1937 25.5591C33.2425 25.3152 33.2964 25.0559 33.3195 24.7659C33.3939 24.1857 33.4222 23.4772 33.3092 22.5454C33.2912 22.3118 33.2425 22.0962 33.2065 21.8909C33.1886 21.7882 33.168 21.6906 33.1501 21.5957C33.1244 21.5007 33.1013 21.4108 33.0782 21.321C33.0294 21.1439 32.9935 20.9745 32.9396 20.8204C32.8857 20.6664 32.8343 20.5201 32.7856 20.3815C32.5802 19.8296 32.3697 19.4086 32.1412 18.9953C31.9076 18.5872 31.6587 18.1867 31.3121 17.7067C31.1478 17.4629 30.9271 17.219 30.7063 16.9238C30.4522 16.6517 30.1955 16.3257 29.8464 15.9971C29.7206 15.8739 29.6076 15.7507 29.4947 15.6403C29.3792 15.5325 29.2714 15.4298 29.1687 15.3297C29.0686 15.2296 28.9762 15.1346 28.8889 15.0422C28.7965 14.9549 28.7143 14.8728 28.6373 14.7932C28.4833 14.6341 28.3575 14.4826 28.2574 14.344C28.1496 14.2131 28.0649 14.0924 28.0033 13.9769C27.7543 13.5174 27.8467 13.1786 28.0495 12.8629C28.2523 12.5471 28.5013 12.3469 29.0481 12.4624C29.1841 12.4906 29.3407 12.5394 29.5178 12.6113C29.6898 12.6909 29.8823 12.7961 30.1005 12.9296C30.2083 12.9963 30.3238 13.0708 30.447 13.1504C30.5651 13.2376 30.6858 13.3326 30.8167 13.4379C30.945 13.5431 31.0811 13.656 31.2248 13.7741C31.366 13.8973 31.5046 14.0385 31.6535 14.1874C32.0642 14.5776 32.38 14.9652 32.6829 15.2886C32.9575 15.6403 33.2194 15.9329 33.4273 16.2256C33.856 16.8006 34.1743 17.2832 34.472 17.7837C34.6107 18.0379 34.7647 18.2868 34.8982 18.5666C35.0239 18.849 35.1805 19.1416 35.3012 19.4882C35.3628 19.6602 35.4295 19.8424 35.4988 20.035C35.5681 20.2275 35.6169 20.438 35.6811 20.6587C35.7119 20.7691 35.7401 20.8846 35.7735 21.0027C35.7966 21.1233 35.8223 21.2466 35.8479 21.3749C35.8941 21.6316 35.9558 21.9011 35.9814 22.1963C36.1252 23.3694 36.079 24.2653 35.9763 24.9943C35.9506 25.1766 35.9326 25.3511 35.8993 25.5154C35.8633 25.6797 35.83 25.8363 35.7966 25.9903C35.7376 26.2958 35.6426 26.5756 35.5604 26.8554C35.3885 27.415 35.1754 27.9592 34.8828 28.6214C34.5722 29.2735 34.1948 30.0564 33.5479 31.0113C32.8959 31.9611 32.2927 32.5823 31.787 33.088C31.52 33.3267 31.2864 33.5474 31.0503 33.74C30.8116 33.9274 30.5882 34.107 30.3598 34.2765C29.4408 34.9336 28.4422 35.5625 26.3912 36.3762C25.3491 36.7716 24.5405 37.0103 23.8602 37.1951C23.5188 37.2824 23.2056 37.3543 22.9104 37.4261C22.6127 37.4826 22.3329 37.5468 22.0479 37.5904C21.4806 37.6777 20.9031 37.7547 20.1741 37.7521C19.4476 37.7547 18.5594 37.7034 17.4146 37.4184C16.2723 37.1258 15.456 36.7716 14.8117 36.4276C14.4857 36.2633 14.2084 36.0836 13.944 35.9245C13.6899 35.7473 13.4435 35.5933 13.215 35.4136C12.9866 35.2365 12.753 35.0645 12.5245 34.8643C12.409 34.7668 12.2883 34.6641 12.1626 34.5588C12.0419 34.4485 11.9161 34.3329 11.7852 34.2123C11.2667 33.7246 10.6583 33.1239 9.94213 32.2537C9.23109 31.3809 8.76903 30.6776 8.41222 30.0795C8.05028 29.4839 7.79615 28.9911 7.54972 28.4931C7.42394 28.2467 7.31613 27.99 7.19292 27.7256C7.13131 27.5998 7.07227 27.4355 7.01066 27.2712C6.95162 27.1069 6.88745 26.935 6.82071 26.7553C6.61278 26.0339 6.40999 25.1329 6.41769 23.9444C6.4408 22.7585 6.62818 21.9037 6.78734 21.2004C6.87718 20.8512 6.97729 20.5458 7.062 20.2506C7.15698 19.9605 7.26222 19.6961 7.35977 19.4291C7.45218 19.157 7.58566 18.9055 7.70374 18.6283C7.82182 18.3485 7.97584 18.0687 8.14269 17.7581C8.47383 17.1317 8.92562 16.4104 9.611 15.5145C9.78812 15.2938 9.95497 15.0884 10.1116 14.8933C10.2784 14.7059 10.4324 14.5314 10.5787 14.3671C10.8662 14.0308 11.1512 13.7664 11.3976 13.5097C11.6389 13.2505 11.8879 13.0477 12.1087 12.8397C12.3268 12.6293 12.5476 12.4496 12.7709 12.2699C13.2073 11.9002 13.6771 11.5665 14.288 11.1815C14.4446 11.0916 14.6089 10.9967 14.7834 10.8966C14.8707 10.8478 14.9605 10.7964 15.053 10.7425C15.1505 10.6963 15.248 10.6501 15.3507 10.6014C15.5561 10.5064 15.7768 10.4063 16.0079 10.2985C16.2466 10.2009 16.5059 10.1111 16.7805 10.011C17.0526 9.90571 17.317 9.83383 17.5686 9.76453C17.8201 9.69779 18.0512 9.62591 18.2745 9.57714C18.7263 9.49756 19.1216 9.40258 19.4887 9.36151C19.8558 9.32301 20.1843 9.2845 20.4975 9.25883C20.8107 9.2537 21.1084 9.246 21.4036 9.24087C21.5525 9.23316 21.6988 9.24087 21.8503 9.2537C21.9992 9.26397 22.1532 9.27424 22.3098 9.28707C22.4664 9.29991 22.6281 9.31274 22.7975 9.32558C22.9643 9.35381 23.1363 9.38205 23.3186 9.41029C23.5008 9.44109 23.6908 9.47446 23.8936 9.5104C24.0964 9.54377 24.3017 9.61308 24.5251 9.66698C24.7458 9.72859 24.982 9.79276 25.231 9.86207C25.4723 9.95191 25.729 10.0469 26.0036 10.1496C26.4143 10.2908 26.7404 10.4704 27.0201 10.627C27.2974 10.7887 27.5361 10.9248 27.7107 11.0788C28.0649 11.3817 28.2523 11.6281 28.3344 11.8412C28.4962 12.2673 28.2446 12.5548 28.0444 12.8706C27.8441 13.1863 27.6773 13.5174 27.2563 13.5919C27.0458 13.6304 26.7763 13.6047 26.4092 13.4815C26.227 13.4173 26.0062 13.3634 25.7623 13.2659C25.5185 13.1735 25.2464 13.0425 24.9204 12.9347V12.9399Z" fill="#141413"/>
<path d="M28.83 19.0519C36.3948 18.3383 40.1811 18.0303 43.9674 17.7223C44.9146 17.6452 45.8618 17.5682 46.8655 17.4861C47.117 17.4656 47.3711 17.445 47.633 17.4219C47.7639 17.4116 47.8948 17.3988 48.0257 17.3885L48.1258 17.3808C48.1618 17.3783 48.1849 17.3757 48.2439 17.3731C48.3466 17.3731 48.4467 17.368 48.5494 17.3654H48.7034L48.8112 17.368L49.0166 17.3757C49.1552 17.3808 49.2938 17.386 49.435 17.3911C49.7174 17.4014 50.0074 17.4116 50.3026 17.4219C52.6745 17.5041 55.5238 17.5913 59.3204 17.6914C69.4513 17.9824 79.5823 18.2733 89.7132 18.5642C90.663 18.5873 91.5537 18.6104 92.3931 18.6335C92.8115 18.6438 93.2197 18.6541 93.6124 18.6618C93.71 18.6618 93.8075 18.6669 93.9051 18.6695L94.0565 18.6746L94.285 18.6951C94.5853 18.7285 94.8574 18.8004 95.1244 18.8979C95.6532 19.1007 96.1178 19.4164 96.4823 19.8041C96.8442 20.1942 97.1086 20.6512 97.2678 21.1312C97.3474 21.3699 97.3961 21.6163 97.4269 21.8602C97.4398 21.9808 97.4423 22.1041 97.4475 22.2247C97.4475 22.3043 97.4475 22.3864 97.4475 22.466C97.4475 22.7792 97.4526 23.0821 97.4552 23.3798C97.4834 25.7543 97.504 27.6564 97.5245 29.556C97.5758 33.3576 97.6272 37.1567 97.6272 44.7601C97.6272 52.3634 97.6477 56.1625 97.6708 59.9642C97.6759 60.914 97.6811 61.8638 97.6862 62.8752C97.6862 63.1267 97.6862 63.3834 97.6888 63.6452V63.8455L97.6836 64.0072L97.6759 64.1535C97.6657 64.287 97.658 64.4205 97.6477 64.5539C97.6092 65.0956 97.5681 65.6577 97.5271 66.2507C97.3525 68.62 97.142 71.4616 96.8596 75.2531C96.2872 82.8359 95.9227 86.6196 95.5608 90.4058C95.5146 90.8782 95.4709 91.3531 95.4247 91.8331C95.4016 92.0744 95.3785 92.3157 95.3554 92.5595C95.3426 92.6827 95.3323 92.8059 95.3195 92.9292L95.3118 93.0216L95.2989 93.1422C95.2861 93.2372 95.2733 93.3347 95.2579 93.4297C95.1115 94.1998 94.7034 94.9442 94.0719 95.491C93.4482 96.0403 92.5882 96.3894 91.6795 96.3792C89.2999 96.3509 86.4506 96.3304 82.6489 96.3304C67.4499 96.3304 67.4499 96.4279 52.2509 96.4279C42.1097 96.4399 31.9677 96.451 21.8247 96.4613H21.2086L21.0803 96.4562C20.7209 96.451 20.3667 96.3792 20.0355 96.2714C19.3681 96.0506 18.7983 95.6425 18.3773 95.1393C17.9589 94.6336 17.6842 94.033 17.5841 93.422C17.5533 93.2706 17.543 93.1166 17.5328 92.9677C17.5251 92.8804 17.5276 92.8522 17.5251 92.7983L17.5199 92.6545C17.5148 92.462 17.5097 92.2746 17.5045 92.0898C17.4634 90.6035 17.4275 89.2969 17.3941 88.1084C17.3351 85.7314 17.2889 83.8293 17.2427 81.9246C17.2196 80.9722 17.1991 80.0225 17.1734 79.0111C17.1605 78.5054 17.1477 77.9869 17.1349 77.4427L17.1297 77.2373C17.1297 77.1834 17.1297 77.0243 17.1297 76.9601C17.1349 76.8215 17.1374 76.6829 17.1426 76.5391C17.1503 76.2567 17.1605 75.9667 17.1682 75.6689C17.2324 73.2919 17.312 70.4374 17.4172 66.6332C17.8023 51.4162 17.6714 51.4111 18.0564 36.1941C18.3413 24.956 18.9574 23.462 19.707 23.4825C20.454 23.5005 20.8929 25.0227 20.6105 36.2583C20.2255 51.4496 20.4822 51.4573 20.0997 66.6486C20.0047 70.4477 19.9149 73.297 19.8276 75.6715C19.8174 75.9692 19.8045 76.2567 19.7943 76.5417C19.7891 76.6829 19.784 76.824 19.7788 76.9601L19.7737 77.1013V77.2912C19.784 77.8329 19.7917 78.354 19.802 78.8571C19.8148 79.8659 19.8276 80.8182 19.8405 81.768C19.8687 83.6676 19.8995 85.5697 19.9354 87.9441C19.9637 89.1326 19.9919 90.4366 20.0278 91.9229C20.033 92.1077 20.0381 92.2977 20.0432 92.4876C20.0458 92.5826 20.0484 92.6802 20.0509 92.7777C20.0509 92.8368 20.0561 92.8419 20.0561 92.8727C20.0561 92.8958 20.0561 92.9215 20.0612 92.9446C20.092 93.1345 20.1588 93.3271 20.2871 93.4888C20.4103 93.6556 20.59 93.7891 20.7928 93.8661C20.8929 93.9098 21.0033 93.9277 21.1188 93.938L21.2112 93.9431H21.3858C21.5038 93.9431 21.6194 93.9431 21.74 93.9431L52.1457 93.9945C67.3498 93.9945 67.3498 93.6813 82.554 93.6813C86.3556 93.6813 89.2075 93.6967 91.5845 93.7172H91.7309C91.7617 93.7172 91.7899 93.7172 91.8181 93.7121C91.8464 93.7121 91.8746 93.707 91.9028 93.6993C91.9311 93.6941 91.9593 93.689 91.985 93.6787C92.0928 93.6453 92.1929 93.594 92.2802 93.5273C92.4573 93.3938 92.578 93.2038 92.6267 93.0036C92.6344 92.9779 92.6421 92.9548 92.6447 92.9266L92.6498 92.8881C92.6498 92.8881 92.655 92.8676 92.6575 92.8291C92.6678 92.7058 92.6806 92.5826 92.6909 92.4594C92.714 92.2156 92.7345 91.9717 92.7576 91.733C92.8013 91.2529 92.8449 90.778 92.8885 90.3057C93.2325 86.5195 93.5791 82.7332 94.1515 75.1504C94.439 71.3615 94.6546 68.5199 94.8343 66.1532C94.8805 65.5602 94.9216 64.998 94.9652 64.459C94.9755 64.3229 94.9858 64.1894 94.996 64.0585C95.0012 63.9943 95.0089 63.9122 95.0063 63.8968V63.848L95.0089 63.7556C95.0089 63.4938 95.0089 63.2397 95.0089 62.9855C95.0089 61.9767 95.0114 61.0269 95.014 60.0772C95.0166 56.2781 95.0191 52.4764 95.0268 44.8782C95.0191 37.2723 95.014 33.468 95.0089 29.6663C95.0063 27.7642 95.0012 25.8621 94.9986 23.4851C94.9986 23.1873 94.9986 22.8844 94.9986 22.5712C94.9986 22.1862 94.9986 22.1092 94.955 21.9449C94.8728 21.6446 94.6392 21.3519 94.3107 21.2159C94.2311 21.1774 94.1412 21.1594 94.054 21.1414C94.0334 21.1363 94.0129 21.1389 93.9949 21.1363C93.9667 21.1363 93.9744 21.1286 93.9128 21.1286C93.8152 21.1286 93.7177 21.1235 93.6201 21.1209C93.2248 21.1106 92.8192 21.1004 92.4008 21.0901C91.5614 21.067 90.6707 21.0439 89.7209 21.0208C74.504 20.6204 74.4937 20.836 59.2767 20.4355C55.4725 20.3406 52.618 20.2661 50.241 20.2071C49.9432 20.1994 49.6532 20.1942 49.3708 20.1865C49.2296 20.184 49.0884 20.1788 48.9498 20.1763L48.7419 20.1711H48.6392C48.5982 20.166 48.6033 20.1711 48.5828 20.1711C48.5314 20.1634 48.1823 20.1968 47.9384 20.2225C47.6792 20.2481 47.4225 20.2738 47.1709 20.2969C46.1647 20.397 45.2175 20.4894 44.2703 20.5819C40.4814 20.9489 36.6951 21.3134 29.1175 22.045C26.3195 22.3094 24.2608 22.4557 22.7411 22.5173C22.5512 22.525 22.3689 22.5302 22.1969 22.5353C22.1174 22.5353 22.0378 22.5404 21.9608 22.5404C21.9248 22.543 21.8863 22.5353 21.853 22.5404C21.7118 22.5456 21.5834 22.5738 21.4653 22.6149C21.2266 22.697 21.0495 22.8331 20.9057 22.9486C20.6259 23.195 20.4617 23.3824 20.2768 23.4543C20.0946 23.5339 19.9072 23.5005 19.7224 23.4902C19.535 23.4825 19.345 23.5339 19.1807 23.3901C19.0986 23.3157 19.019 23.1899 18.9805 22.9666C18.9446 22.7458 18.9395 22.4224 19.0832 21.9937C19.2295 21.5753 19.5222 21.0336 20.1434 20.5639C20.4514 20.3329 20.8441 20.1224 21.3139 19.9966C21.432 19.9606 21.5552 19.9427 21.681 19.9196C21.7682 19.9042 21.8555 19.8913 21.9479 19.8759C22.1199 19.8503 22.297 19.822 22.487 19.7938C23.9887 19.5705 26.0397 19.3317 28.8377 19.0673L28.83 19.0519Z" fill="#141413"/>
<path d="M46.1981 53.4748C45.7797 54.7583 45.5384 55.7389 45.3998 56.5655C45.3638 56.7708 45.3279 56.9685 45.2945 57.1559C45.2586 57.3433 45.2483 57.5255 45.2252 57.7026C45.1867 58.0543 45.1302 58.388 45.1251 58.7217C45.0789 59.3891 45.0686 60.0565 45.1405 60.8857C45.1636 61.0936 45.1867 61.3092 45.2098 61.5402C45.2355 61.7713 45.2919 62.0074 45.3381 62.2616C45.3612 62.3899 45.3869 62.5208 45.4126 62.6543C45.4485 62.7878 45.487 62.9238 45.5255 63.065C45.6077 63.3448 45.6744 63.6503 45.7976 63.9558C46.2366 65.2007 46.7166 66.0684 47.1735 66.7435C47.289 66.9103 47.384 67.0849 47.5021 67.2261C47.6176 67.3724 47.7254 67.5136 47.8332 67.6496C48.0335 67.9345 48.2748 68.1553 48.4904 68.4017L48.6572 68.5814L48.8395 68.7483C48.9601 68.8612 49.0859 68.9742 49.2117 69.0923C49.3349 69.2155 49.4812 69.3181 49.6275 69.4311C49.7739 69.544 49.9279 69.6621 50.0896 69.7879C50.7698 70.2345 51.6144 70.7505 52.8568 71.1792C53.1725 71.2716 53.4626 71.3794 53.745 71.4462C54.0299 71.5078 54.2969 71.5642 54.5484 71.6181C54.8025 71.6669 55.0464 71.6849 55.2749 71.7157C55.5033 71.7414 55.7189 71.7773 55.9269 71.7747C56.756 71.8209 57.426 71.7747 58.0908 71.7157C58.422 71.6721 58.7557 71.6284 59.1073 71.5796C59.4564 71.5103 59.8287 71.4359 60.2419 71.3537C60.6527 71.2588 61.0993 71.1304 61.6127 71.0046C61.8643 70.9225 62.1338 70.8352 62.4187 70.7428C62.5625 70.6966 62.7088 70.6504 62.8602 70.6016C63.0091 70.5503 63.1503 70.4887 63.3018 70.4322C64.5108 69.9599 65.322 69.4311 65.9534 68.9485C66.5823 68.4608 67.0393 68.0116 67.45 67.5264C67.8684 67.0464 68.2406 66.5279 68.641 65.8373C69.0389 65.1443 69.4599 64.2715 69.8244 63.0239C70.1761 61.7713 70.2916 60.7881 70.3712 59.9693C70.4456 59.1478 70.4456 58.4804 70.4379 57.8104C70.4046 57.143 70.3583 56.4705 70.1992 55.6439C70.0323 54.8199 69.7731 53.8342 69.2237 52.5995C68.0481 50.1224 67.1368 49.2753 66.1152 48.4744C65.6095 48.0765 65.0499 47.7351 64.3234 47.3578C63.5944 46.9881 62.6754 46.5979 61.3817 46.2668C60.0854 45.9382 59.074 45.8433 58.2371 45.8073C58.0267 45.7919 57.829 45.7996 57.6365 45.7945C57.4439 45.7893 57.2617 45.7919 57.0846 45.8022C56.9075 45.8099 56.7329 45.815 56.5635 45.8227C56.3941 45.8381 56.2272 45.8535 56.0604 45.8664C55.7266 45.8869 55.3955 45.9511 55.0438 45.9921C54.6973 46.0614 54.3225 46.1154 53.9221 46.2206C53.116 46.4157 52.1534 46.7006 50.9803 47.2808C50.01 47.7659 49.3195 48.2665 48.7753 48.7183C48.7086 48.7747 48.6418 48.8312 48.5777 48.8851L48.4801 48.9647L48.457 48.9852L48.3287 49.1213C48.1028 49.36 47.8871 49.5885 47.6792 49.8092C47.4739 50.0197 47.2711 50.2584 47.076 50.4766C46.8835 50.6948 46.6961 50.9079 46.5113 51.1158C45.5923 50.1018 44.776 49.2008 43.7543 48.0739C43.0818 47.3295 42.2706 46.4465 41.1104 45.2066C39.1261 43.0915 38.1044 42.0647 37.0828 41.0379C36.0586 40.0137 35.0395 38.9818 33.0167 36.9231C31.5227 35.406 30.7629 34.4819 30.4446 33.8863C30.288 33.5886 30.2367 33.3755 30.2752 33.2138C30.2829 33.1239 30.2932 33.0392 30.3111 32.9597C30.3291 32.8827 30.3625 32.8159 30.401 32.7312C30.4421 32.6465 30.4831 32.5489 30.5473 32.4771C30.6115 32.4052 30.6936 32.3513 30.8014 32.3282C31.0402 32.2974 31.3097 32.3436 31.6537 32.5027C32.3416 32.821 33.3196 33.5937 34.8341 35.1313C36.8749 37.2106 37.9171 38.2219 38.9669 39.2282C40.0143 40.237 41.0616 41.2458 43.0484 43.361C44.2292 44.6188 45.0378 45.5224 45.695 46.2822C45.8592 46.4722 46.0133 46.6544 46.1647 46.829C46.2366 46.9137 46.3085 46.9984 46.3778 47.0805L46.388 47.1165C46.406 47.1627 46.4342 47.2345 46.4779 47.2987C46.4907 47.2936 46.5087 47.2859 46.5241 47.2731C46.5421 47.2628 46.5575 47.2525 46.596 47.2243C46.6319 47.1986 46.6678 47.1704 46.7038 47.1421C46.8424 47.0292 46.9861 46.9111 47.135 46.7853C47.8178 46.2309 48.6649 45.6302 49.8124 45.0501C51.2268 44.3467 52.3614 44.0181 53.306 43.7948C53.7783 43.6767 54.2121 43.6126 54.6177 43.5407C55.0259 43.4919 55.4109 43.4303 55.796 43.4072C56.566 43.3379 57.3413 43.3302 58.3064 43.3661C59.2691 43.4149 60.4293 43.5253 61.9336 43.9026C63.4378 44.2877 64.5288 44.7318 65.4195 45.1553C66.3051 45.5866 67.0008 45.987 67.6553 46.4619C68.3099 46.9316 68.9491 47.4553 69.6216 48.2459C69.7987 48.4359 69.9553 48.6618 70.1273 48.8928C70.3096 49.129 70.4533 49.3703 70.6202 49.6295C70.9513 50.1506 71.2748 50.759 71.611 51.47C72.2579 52.905 72.5685 54.0498 72.7764 55.0073C72.9741 55.9674 73.0537 56.7503 73.1024 57.5306C73.1307 58.3136 73.1512 59.0939 73.0768 60.0694C72.9972 61.0422 72.8688 62.2128 72.4504 63.7299C72.014 65.2418 71.4904 66.3199 70.9898 67.1747C70.746 67.6085 70.4816 67.9705 70.2428 68.3196C69.981 68.6533 69.7474 68.9742 69.4727 69.2668C68.9491 69.8675 68.3638 70.4194 67.5732 71.0252C66.78 71.6233 65.7609 72.2779 64.2926 72.858C64.1078 72.9299 63.9307 72.9966 63.7561 73.0633C63.5841 73.1173 63.4198 73.1712 63.2581 73.2199C62.9373 73.3226 62.6343 73.4176 62.3494 73.5074C61.7693 73.6537 61.2559 73.7847 60.7887 73.8873C60.3138 73.9695 59.8851 74.0439 59.4821 74.1158C59.0714 74.1569 58.6864 74.1979 58.3013 74.2364C57.5261 74.2852 56.7457 74.3135 55.7677 74.239C55.5239 74.2339 55.2672 74.1979 54.9951 74.1594C54.723 74.1209 54.4355 74.0901 54.1326 74.0362C53.8322 73.9695 53.5114 73.8976 53.17 73.8232C52.8285 73.7462 52.4794 73.6178 52.0995 73.5049C50.5953 72.9889 49.548 72.3857 48.7009 71.8569C48.4981 71.7131 48.303 71.5745 48.1182 71.441C47.9333 71.305 47.7485 71.1869 47.5894 71.0457C47.4251 70.9097 47.2685 70.7762 47.1119 70.6453C46.9553 70.5144 46.8013 70.386 46.6627 70.2397C46.519 70.0985 46.3778 69.9573 46.2315 69.811C46.1596 69.7391 46.0877 69.6647 46.0133 69.5902C45.9465 69.5107 45.8772 69.4311 45.8079 69.3489C45.5332 69.0229 45.2303 68.6815 44.9557 68.2606C44.3704 67.4443 43.762 66.3841 43.2281 64.8773C43.0792 64.5051 42.9919 64.1431 42.8918 63.8043C42.8456 63.6349 42.7994 63.4706 42.7532 63.3114C42.7198 63.1497 42.6865 62.9931 42.6557 62.8417C42.5966 62.5362 42.5273 62.2539 42.4888 61.9792C42.4529 61.7071 42.4195 61.4478 42.3861 61.204C42.2732 60.2208 42.2475 59.4328 42.2629 58.6447C42.2552 58.2494 42.2963 57.8592 42.3245 57.4434C42.3425 57.2354 42.3502 57.0198 42.381 56.7991C42.4118 56.5783 42.4477 56.3473 42.4811 56.106C42.6172 55.1382 42.8764 53.9908 43.359 52.5174C44.1111 50.3483 44.835 49.5063 45.2945 49.1983C45.7668 48.8928 46.0646 49.1367 46.3957 49.3138C46.7243 49.4909 47.0785 49.6141 47.1196 50.1455C47.171 50.682 46.845 51.583 46.1929 53.4723L46.1981 53.4748Z" fill="#141413"/>
<path d="M82.2844 86.6581C81.599 87.8287 81.1242 88.7168 80.7519 89.4587C80.3823 90.2005 80.1025 90.7935 79.8766 91.3839C79.7431 91.6945 79.6841 91.9435 79.5942 92.2259C79.5429 92.5159 79.4659 92.824 79.4659 93.1808C79.4325 93.8893 79.5198 94.7851 79.9459 95.9428C80.3797 97.1005 80.906 97.9194 81.3578 98.5791C81.8095 99.244 82.2331 99.742 82.6592 100.235C82.8748 100.479 83.1084 100.71 83.3471 100.964C83.5987 101.208 83.8657 101.462 84.1711 101.739C84.7923 102.278 85.5701 102.917 86.6714 103.621C87.7803 104.311 88.6633 104.704 89.4129 104.948C90.165 105.186 90.7759 105.317 91.392 105.382C91.546 105.397 91.6975 105.412 91.8541 105.43C92.0107 105.438 92.1698 105.438 92.3315 105.443C92.6575 105.466 93.0015 105.43 93.384 105.42C94.1489 105.348 95.0653 105.22 96.2641 104.83C97.4552 104.429 98.3408 103.99 99.0236 103.585C99.7193 103.189 100.228 102.809 100.728 102.422C100.969 102.219 101.208 102.014 101.457 101.79C101.691 101.552 101.958 101.321 102.214 101.023C102.743 100.448 103.344 99.7214 103.97 98.6305C104.594 97.5369 104.951 96.6462 105.233 95.8966C105.3 95.7067 105.369 95.5296 105.428 95.355C105.485 95.1805 105.539 95.011 105.592 94.8467C105.654 94.6773 105.675 94.5438 105.713 94.3975C105.749 94.2538 105.785 94.1126 105.821 93.974C105.865 93.6813 105.903 93.3836 105.939 93.0653C105.942 92.901 105.944 92.7341 105.947 92.557C105.952 92.3825 105.957 92.1976 105.931 92C105.913 91.8049 105.895 91.597 105.877 91.3788C105.847 91.1606 105.8 90.9296 105.757 90.6831C105.721 90.4367 105.646 90.1774 105.574 89.9028C105.539 89.7642 105.5 89.623 105.462 89.4767C105.413 89.3329 105.361 89.1815 105.31 89.0274C104.884 87.7953 104.445 86.9046 104.042 86.1935C103.842 85.8367 103.642 85.5287 103.459 85.2335C103.259 84.9562 103.087 84.6739 102.884 84.4274C102.787 84.3017 102.687 84.1759 102.589 84.0475C102.489 83.9218 102.379 83.8088 102.271 83.683C102.217 83.6214 102.16 83.5572 102.104 83.4931C102.045 83.4366 101.986 83.3775 101.924 83.3185C101.804 83.203 101.678 83.0644 101.547 82.972C101.483 82.9181 101.416 82.8642 101.347 82.8077C101.277 82.7486 101.164 82.6742 101.072 82.6049C100.88 82.4637 100.674 82.3174 100.456 82.1582C100.025 81.8528 99.5498 81.5191 99.0056 81.1931C97.9172 80.5436 97.0368 80.2433 96.2667 80.0225C95.4966 79.8069 94.8472 79.6914 94.1951 79.5861C94.0309 79.563 93.8666 79.5399 93.6972 79.5168C93.6176 79.5066 93.5354 79.4937 93.4533 79.4835C93.3891 79.4758 93.3224 79.4706 93.2531 79.4681C92.9784 79.4501 92.6652 79.4655 92.3059 79.5117C91.5845 79.6092 90.6656 79.8428 89.4617 80.3383C87.8855 81.0031 86.8511 81.6038 86.0014 82.0992C85.5778 82.3508 85.1979 82.5869 84.8309 82.8308L84.5588 83.0156L84.3791 83.144L84.2482 83.2415L84.2148 83.2672L84.2071 83.2723C84.2071 83.2723 84.2071 83.2851 84.1891 83.2595L84.1198 83.1594L83.5653 82.3533L83.496 82.2532C83.496 82.2532 83.4883 82.2532 83.4832 82.2532L83.4652 82.2661L83.3934 82.3225C83.3472 82.361 83.2984 82.3995 83.2496 82.438C83.2034 82.4791 83.1546 82.5202 83.111 82.5638C83.0956 82.5844 83.0545 82.6152 83.0725 82.6383C83.0802 82.6408 83.0879 82.6383 83.0956 82.6383H83.0982V82.6665L83.1059 82.7769L83.1187 82.9951C83.1341 83.2877 83.1495 83.5803 83.1649 83.873C82.939 83.8884 82.6464 83.8961 82.3512 83.8858C82.2716 83.8601 82.192 83.8345 82.1099 83.8062C82.0688 83.8011 82.0303 83.7549 81.9892 83.7241L81.866 83.624C81.7017 83.4905 81.5323 83.3519 81.3552 83.2081C81.2679 83.1363 81.1832 83.0438 81.0934 82.9591C81.0215 82.8898 80.9496 82.8179 80.8752 82.7435C80.7751 82.6434 80.6698 82.5407 80.562 82.4355C80.1256 82.0094 79.6251 81.5216 79.0398 80.9518C77.0273 79.0086 75.9954 78.0665 74.9609 77.1244C73.9264 76.1875 72.8945 75.2403 70.8537 73.3433C69.3469 71.952 68.5768 71.0715 68.2534 70.5042C68.0788 70.1962 68.0583 70.0216 68.0583 69.8188C68.0634 69.6263 68.1251 69.4518 68.22 69.2901C68.315 69.1283 68.428 69.0025 68.6179 68.9538C68.7976 68.8999 69.1031 68.9461 69.4162 69.0796C70.0939 69.3542 71.0591 70.055 72.589 71.4668C74.6477 73.3792 75.7002 74.3008 76.7603 75.2197C77.8179 76.1413 78.8755 77.0628 80.888 79.0086C81.4784 79.5784 81.9764 80.0713 82.4102 80.5051C82.518 80.6129 82.6207 80.7182 82.7234 80.8209L82.7953 80.8953V80.9004L82.7978 80.9107C82.803 80.9235 82.8081 80.9415 82.8158 80.962C82.8158 80.962 82.8363 80.9774 82.8466 80.9826C82.8517 80.9903 82.8748 80.9826 82.8979 80.9826H82.9159C82.9159 80.9826 82.9108 80.9877 82.9364 80.9723L83.016 80.921L83.3292 80.7207C83.745 80.4589 84.1634 80.2151 84.6306 79.9481C85.5701 79.427 86.6816 78.7955 88.4657 78.0357C89.8364 77.4684 90.9556 77.1706 91.949 77.0423C92.447 76.9781 92.9142 76.9601 93.3686 76.9909C93.8614 77.0269 94.1746 77.0962 94.5442 77.1475C95.2656 77.2759 95.9894 77.4119 96.8956 77.6712C97.7915 77.933 98.9004 78.3181 100.21 79.0933C100.859 79.4809 101.388 79.848 101.85 80.1663C102.076 80.3254 102.291 80.4769 102.492 80.6181C102.592 80.6899 102.689 80.7567 102.787 80.8234C102.897 80.9107 103.002 80.9928 103.108 81.075C103.326 81.2393 103.495 81.401 103.66 81.5576C103.742 81.6346 103.824 81.7116 103.906 81.7886C103.983 81.8656 104.052 81.9426 104.122 82.0171C104.263 82.1685 104.399 82.3148 104.532 82.4586C104.656 82.6075 104.779 82.7538 104.902 82.9001C105.156 83.1902 105.364 83.4982 105.608 83.8216C105.836 84.1502 106.07 84.5019 106.311 84.9049C106.789 85.7109 107.305 86.7172 107.803 88.1444C107.864 88.3241 107.921 88.4986 107.98 88.6655C108.034 88.8349 108.075 89.0043 108.118 89.1686C108.203 89.4946 108.293 89.795 108.342 90.0953C108.398 90.3905 108.452 90.6677 108.496 90.9347C108.524 91.2042 108.55 91.4584 108.575 91.7022C108.586 91.8229 108.601 91.9409 108.606 92.059C108.606 92.1771 108.606 92.2926 108.609 92.4056C108.609 92.6315 108.609 92.8471 108.609 93.0576C108.586 93.4811 108.534 93.8841 108.491 94.2795C108.403 94.6748 108.326 95.0932 108.216 95.4859C108.1 95.8658 107.98 96.2688 107.821 96.7104C107.505 97.5908 107.097 98.6459 106.35 99.9627C105.598 101.277 104.863 102.163 104.217 102.853C103.901 103.207 103.58 103.49 103.29 103.767C102.99 104.036 102.694 104.27 102.402 104.511C102.096 104.73 101.796 104.963 101.462 105.184C101.123 105.394 100.777 105.641 100.364 105.859C100.158 105.972 99.9426 106.09 99.7167 106.216C99.4831 106.329 99.2367 106.447 98.9748 106.575C98.7156 106.709 98.4229 106.814 98.1175 106.945C97.9635 107.006 97.8069 107.076 97.64 107.135C97.4706 107.191 97.2986 107.25 97.1189 107.309C95.6788 107.784 94.5211 107.941 93.5585 108.01C93.0734 108.015 92.6396 108.046 92.2263 108.01C92.0209 107.997 91.8207 107.987 91.623 107.974C91.428 107.949 91.2354 107.92 91.0455 107.895C90.278 107.792 89.5233 107.602 88.6171 107.297C87.7136 106.978 86.6688 106.506 85.4007 105.715C84.1403 104.914 83.2804 104.232 82.5617 103.644C82.2074 103.346 81.8968 103.066 81.599 102.807C81.3141 102.532 81.0369 102.281 80.7751 102.014C80.2565 101.472 79.738 100.923 79.1784 100.15C78.6214 99.38 77.9668 98.4174 77.4046 96.9311C76.8502 95.4423 76.6859 94.1896 76.7013 93.1423C76.6936 92.6161 76.7757 92.1386 76.8399 91.6894C76.9451 91.2479 77.0478 90.8064 77.1762 90.4649C77.4175 89.7308 77.705 89.0428 78.09 88.206C78.4802 87.3692 78.9782 86.3989 79.7098 85.1539C80.7956 83.3211 81.5297 82.61 82.0252 82.3816C82.1484 82.3251 82.2613 82.2994 82.364 82.2943C82.4153 82.2917 82.459 82.302 82.5103 82.302C82.5848 82.2738 82.6464 82.2686 82.6977 82.2763C82.9031 82.3174 82.9749 82.5099 83.1007 82.646L83.1777 82.7384L83.1059 82.646L83.2573 82.8334L83.2676 82.8462L83.1033 82.6434L83.111 82.6511L83.2547 82.8308L83.3446 82.9386L83.3677 82.9643C83.3985 82.9976 83.4344 83.0284 83.4729 83.0516C83.514 83.0747 83.5602 83.0926 83.609 83.0926C83.6372 83.1234 83.6552 83.1696 83.6732 83.2158C83.7065 83.3057 83.7245 83.4109 83.7194 83.5418C83.704 84.0629 83.3112 84.9383 82.2896 86.6658L82.2844 86.6581Z" fill="#141413"/>
</svg>
