<svg width="115" height="115" viewBox="0 0 115 115" fill="none" xmlns="http://www.w3.org/2000/svg">
<path d="M71.5012 59.6473L93.2615 7.77769L108.186 15.0043L85.499 66.3426L71.5012 59.6473Z" fill="#E3DACC"/>
<path d="M18.293 107.464C24.455 107.464 29.4503 102.469 29.4503 96.307C29.4503 90.145 24.455 85.1497 18.293 85.1497C12.131 85.1497 7.13574 90.145 7.13574 96.307C7.13574 102.469 12.131 107.464 18.293 107.464Z" fill="#E3DACC"/>
<path d="M70.4473 57.3381C71.6594 54.5574 71.5697 54.5183 72.7818 51.7399C73.9939 48.9615 73.9042 48.9224 75.1163 46.144C75.9244 44.2902 76.7317 42.4364 77.5383 40.5826C78.7504 37.8042 78.8952 37.8663 80.1073 35.0879C81.3194 32.3072 81.0503 32.1899 82.2624 29.4115C83.4745 26.6331 83.7045 26.732 84.9166 23.9513C86.1288 21.1706 85.9425 21.0901 87.1546 18.3094C88.3667 15.531 88.5277 15.6 89.7398 12.8216C90.347 11.4324 90.6666 10.7447 90.9886 10.057C91.1473 9.71199 91.3083 9.36929 91.5061 8.93919C91.5659 8.80579 91.6304 8.66549 91.6971 8.51599C91.796 8.30439 91.8857 8.06519 92.0122 7.84439C92.1433 7.62359 92.2905 7.43729 92.5021 7.27169C92.7137 7.10609 92.9874 6.97729 93.2933 6.92439C93.5187 6.88759 93.7326 6.89449 93.9235 6.93129C94.119 6.96809 94.3099 7.03249 94.4778 7.10839C94.7078 7.21419 94.9239 7.31539 95.1286 7.41199C95.2482 7.46489 95.3609 7.51319 95.4667 7.55919C95.6829 7.65119 95.8762 7.73169 96.0602 7.80299C96.4259 7.94789 96.7432 8.06289 97.0698 8.18479C97.7253 8.42859 98.4291 8.70229 99.6688 9.30259C102.399 10.6251 102.362 10.7033 105.092 12.0258C105.775 12.357 106.284 12.61 106.705 12.8262C106.914 12.9366 107.105 13.0332 107.282 13.1275C107.556 13.2678 107.811 13.4012 108.068 13.5323C108.225 13.6151 108.374 13.7071 108.499 13.8152C108.63 13.9187 108.733 14.036 108.837 14.1717C109.037 14.4454 109.182 14.8065 109.202 15.209C109.212 15.4114 109.189 15.6069 109.131 15.83C109.076 16.0531 108.954 16.29 108.844 16.5407C108.708 16.8443 108.556 17.1824 108.384 17.5688C107.158 20.3426 107.091 20.315 105.865 23.0888C104.639 25.8649 104.812 25.9408 103.586 28.7169C102.36 31.4907 102.399 31.5068 101.173 34.2806C99.9471 37.0544 99.8252 37.0015 98.5993 39.7753C97.7897 41.6291 96.9801 43.4821 96.1705 45.3344C94.9446 48.1082 94.8251 48.0553 93.5992 50.8314C92.3733 53.6075 92.6401 53.7248 91.4142 56.5009C90.6 58.3516 89.7858 60.2024 88.9716 62.0531C88.3575 63.4423 88.0148 64.1185 87.6698 64.797C87.5847 64.9672 87.4995 65.1374 87.4075 65.3168C87.3845 65.3628 87.3615 65.4088 87.3385 65.4548C87.3109 65.5146 87.281 65.5744 87.2511 65.6342C87.1637 65.8205 87.074 66.016 86.9774 66.2207C86.7727 66.6278 86.5059 66.9567 86.0413 67.1959C85.8136 67.3132 85.5422 67.3868 85.2593 67.4006C84.9764 67.4144 84.6912 67.3707 84.3554 67.2373C84.3278 67.2258 84.3025 67.2166 84.3025 67.2166C83.4883 66.8509 82.8789 66.5772 82.3683 66.3472C81.9405 66.1517 81.5954 65.993 81.2504 65.8343C80.5627 65.5169 79.8728 65.1995 78.4928 64.5854C75.719 63.348 75.7466 63.2859 72.9728 62.0485C70.8315 61.094 70.9488 60.6363 71.2409 59.9808C71.533 59.3253 71.8849 58.725 74.0285 59.6795C76.7977 60.9146 76.7586 61.0043 79.5278 62.2394C80.9101 62.8558 81.584 63.2054 82.2579 63.555C82.5937 63.7298 82.9317 63.9046 83.3549 64.1116C83.5688 64.2128 83.8035 64.3255 84.0703 64.452C84.2589 64.5394 84.4704 64.636 84.7119 64.7464C84.7487 64.7625 84.7809 64.7809 84.8154 64.7855C84.8499 64.7901 84.8821 64.7809 84.9074 64.7648C84.9626 64.7303 84.9696 64.6659 84.9834 64.6222C84.9903 64.5992 84.9948 64.5785 84.9994 64.5578C85.0017 64.5486 84.9994 64.5578 85.0063 64.5325L85.0362 64.4589C85.0546 64.4106 85.0731 64.3623 85.0915 64.3163C85.1651 64.1277 85.2341 63.9506 85.3008 63.7735C85.5745 63.0651 85.8481 62.3567 86.4599 60.9698C87.6858 58.196 87.6145 58.1661 88.8404 55.3923C89.6638 53.5462 90.4872 51.6993 91.3106 49.8516C92.5365 47.0778 92.5733 47.0939 93.7992 44.3201C95.0251 41.5463 95.1701 41.6107 96.396 38.8346C97.6219 36.0608 97.5345 36.0217 98.7604 33.2479C99.9863 30.4741 99.8069 30.3936 101.033 27.6198C102.259 24.8437 102.512 24.9564 103.738 22.1803C104.963 19.4065 104.706 19.2915 105.932 16.5177C106.01 16.3452 106.081 16.1819 106.15 16.0301C106.185 15.9542 106.219 15.8806 106.251 15.8093C106.268 15.7725 106.284 15.738 106.3 15.7035C106.307 15.6874 106.304 15.6989 106.307 15.6966C106.314 15.6966 106.33 15.6966 106.346 15.6851C106.38 15.6644 106.401 15.623 106.389 15.5816C106.514 15.6023 106.008 15.3194 105.63 15.1078C105.214 14.8778 104.71 14.6133 104.027 14.2844C101.297 12.9619 101.244 13.07 98.5142 11.7475C97.2837 11.1518 96.5937 10.8505 95.9474 10.5745C95.6231 10.4365 95.3104 10.3008 94.9447 10.1421C94.763 10.0616 94.5675 9.97419 94.349 9.87529C94.2409 9.82469 94.1281 9.77409 94.0085 9.71889C93.9648 9.69819 93.9879 9.70969 93.981 9.70739L93.9786 9.70969C93.9786 9.70969 93.9764 9.71199 93.9741 9.71199C93.9741 9.71199 93.9672 9.70739 93.9603 9.70739C93.9557 9.70739 93.9511 9.70739 93.9442 9.70739H93.9373L93.9166 9.74879C93.889 9.80399 93.8613 9.85919 93.8337 9.91209C93.6198 10.3353 93.4336 10.6688 93.2473 11C92.877 11.6647 92.5066 12.3317 91.8994 13.7209C90.6873 16.5016 90.8184 16.5591 89.6063 19.3398C88.3942 22.1205 88.4931 22.1642 87.2787 24.9449C86.0666 27.7256 85.9332 27.6681 84.7211 30.4488C83.509 33.2295 83.4009 33.1835 82.1888 35.9642C80.9767 38.7449 81.2505 38.8645 80.0384 41.6429C78.824 44.4259 78.7756 44.4029 77.5635 47.1859C76.3491 49.9712 76.2848 49.9413 75.0704 52.7266C73.856 55.5096 73.7662 55.4705 72.5518 58.2558C72.3172 58.794 72.1102 59.1942 71.9216 59.4863L71.9033 59.5139C71.7768 59.461 71.6502 59.4081 71.526 59.3552H71.5168L71.5099 59.3506C71.5099 59.3506 71.5145 59.3506 71.5168 59.3506C71.5237 59.3506 71.5191 59.3506 71.5168 59.3506C71.5145 59.3506 71.5123 59.3552 71.5146 59.3529C71.4939 59.3782 71.4478 59.4564 71.4225 59.5185C71.3673 59.6519 71.3121 59.8106 71.2385 59.9739C71.1649 60.1372 71.096 60.2821 70.9534 60.3626C70.8177 60.4362 70.5784 60.4569 70.2863 60.22C70.146 60.1004 69.9965 59.9095 69.9091 59.6289C69.8677 59.4886 69.8424 59.3276 69.8493 59.1459C69.8539 59.0562 69.8654 58.9619 69.8861 58.8676C69.8953 58.8193 69.9115 58.7733 69.9253 58.7227L69.946 58.6583L69.9552 58.6261C70.0495 58.2903 70.2058 57.8694 70.4404 57.3312L70.4473 57.3381Z" fill="#231F20"/>
<path d="M85.3375 68.0469C84.0449 68.9048 83.9461 68.7576 82.6558 69.6155C81.3632 70.4757 81.3286 70.4228 80.036 71.2807C78.7434 72.1386 78.8447 72.2927 77.5521 73.1529C76.2595 74.0131 76.3009 74.0752 75.0083 74.9354C74.8588 75.0343 74.7184 75.1263 74.585 75.2137C74.4424 75.3034 74.3113 75.3885 74.1848 75.469C74.0606 75.5518 73.9388 75.6093 73.8284 75.6622C73.718 75.699 73.6099 75.7473 73.5179 75.7588C73.3224 75.8025 73.1775 75.8048 73.0234 75.7956C72.8716 75.7841 72.7221 75.7588 72.5772 75.7082C72.2897 75.6116 72.0045 75.4552 71.7515 75.1861C71.625 75.0527 71.5122 74.894 71.4248 74.7077C71.3397 74.5145 71.2363 74.2776 71.1972 73.9395C71.1949 73.9165 71.1902 73.882 71.1856 73.8452C71.1442 73.5094 71.1097 73.215 71.0775 72.9528C71.0568 72.8033 71.0384 72.6699 71.02 72.5503C70.9832 72.3111 70.9511 72.1179 70.9166 71.927C70.8499 71.5452 70.7832 71.1611 70.6935 70.3906C70.5141 68.8473 70.4818 68.8519 70.3024 67.3086C70.123 65.7653 70.2335 65.7515 70.0541 64.2082C69.8747 62.6649 69.7596 62.6787 69.5779 61.1354C69.4445 59.9946 69.9437 59.783 70.6084 59.7048C71.2731 59.6266 71.717 59.7301 71.8504 60.8709C72.0298 62.4119 72.2574 62.3843 72.4368 63.9253C72.6162 65.4663 72.361 65.4962 72.5404 67.0395C72.7198 68.5805 72.6737 68.5874 72.8554 70.1284C72.9451 70.8989 73.0602 71.2761 73.1752 71.6533C73.2327 71.8419 73.2901 72.0305 73.343 72.2674C73.3706 72.387 73.3959 72.5181 73.4212 72.6676C73.4235 72.6791 73.4281 72.7182 73.4281 72.7113C73.4281 72.7113 73.4281 72.7113 73.4304 72.7113L73.435 72.7159C73.435 72.7159 73.4397 72.7205 73.4397 72.7251C73.4351 72.7481 73.3936 72.8378 73.4212 72.916C73.4327 72.9528 73.4557 72.9781 73.4879 72.9758C73.504 72.9758 73.5247 72.9712 73.55 72.962C73.5615 72.9574 73.5753 72.9505 73.5891 72.9436L73.6098 72.9321C73.6213 72.9252 73.6352 72.916 73.649 72.9068C74.5138 72.3395 75.3793 71.7729 76.2456 71.2071C77.5382 70.3469 77.5222 70.3216 78.8148 69.4637C80.1097 68.6035 80.0016 68.4425 81.2965 67.5823C82.5914 66.7221 82.5592 66.6761 83.8541 65.8159C84.8109 65.1811 85.1283 65.7883 85.5009 66.3449C85.8712 66.9038 86.2943 67.4121 85.3375 68.0469Z" fill="#231F20"/>
<path d="M25.2616 89.5588C25.1282 89.4116 25.0017 89.2713 24.8844 89.1402C24.7556 89.0206 24.636 88.9079 24.5233 88.8021C24.4083 88.6986 24.3093 88.5882 24.2012 88.5054C24.0931 88.4203 23.9942 88.3375 23.8976 88.2616C23.8033 88.1834 23.7114 88.1075 23.624 88.0362C23.532 87.9718 23.4422 87.912 23.3548 87.8522C23.2697 87.7924 23.1847 87.7326 23.1019 87.6751C23.0214 87.6153 22.9386 87.5601 22.8512 87.5141C22.6787 87.4152 22.5062 87.3163 22.3245 87.2105C22.1359 87.1162 21.9266 87.0311 21.6989 86.9276C21.4712 86.8264 21.2021 86.7574 20.9054 86.6562C20.7559 86.6102 20.5903 86.5826 20.4178 86.5435C20.243 86.5044 20.0589 86.4607 19.8565 86.4423C19.6564 86.4193 19.4679 86.3894 19.2885 86.371C19.1091 86.3618 18.9412 86.3526 18.7825 86.3457C18.702 86.3411 18.626 86.3365 18.5501 86.3319C18.4742 86.3319 18.4007 86.3342 18.3317 86.3365C18.1891 86.3365 18.0557 86.3411 17.9269 86.3434C17.4163 86.3687 17.0045 86.3986 16.5951 86.4676C16.3904 86.4975 16.1858 86.5228 15.9719 86.5757C15.758 86.6286 15.5256 86.6585 15.2772 86.739C15.0288 86.8172 14.7483 86.8793 14.447 87.0012C14.2952 87.0564 14.1318 87.1162 13.9593 87.1806C13.7914 87.2542 13.612 87.3347 13.4211 87.4198C12.669 87.7763 12.1332 88.1052 11.7192 88.4134C11.2983 88.7124 10.9924 88.993 10.6957 89.2713C10.5531 89.4162 10.4105 89.5611 10.2587 89.7152C10.1184 89.8762 9.96885 90.0464 9.80555 90.235C9.50425 90.626 9.12705 91.0906 8.76825 91.7645C8.41635 92.4384 8.28985 92.9743 8.20015 93.4136C8.19095 93.524 8.17945 93.6275 8.17025 93.7287C8.16105 93.8322 8.14495 93.915 8.14725 94.0346C8.14495 94.2577 8.13575 94.4693 8.14035 94.6786C8.14725 95.0972 8.15875 95.5181 8.20475 96.0356C8.24615 96.5531 8.31975 97.1718 8.48995 97.9745C8.66245 98.7749 8.84875 99.3545 9.00745 99.8352C9.09025 100.074 9.16385 100.291 9.24435 100.488C9.31565 100.693 9.40075 100.875 9.48125 101.061C9.55715 101.25 9.65835 101.424 9.75265 101.62C9.85845 101.806 9.96885 102.006 10.1115 102.216C10.3898 102.639 10.7762 103.115 11.3811 103.655C11.9906 104.191 12.5173 104.509 12.9635 104.75C13.4097 104.996 13.7915 105.148 14.1733 105.293C14.9438 105.564 15.7327 105.82 17.3956 106.024C19.0884 106.183 19.8887 106.091 20.6937 105.958C20.8938 105.923 21.0917 105.875 21.3033 105.831C21.5149 105.785 21.731 105.714 21.9748 105.65C22.4509 105.489 23.0283 105.293 23.7367 104.911C24.4428 104.525 24.9212 104.157 25.3145 103.846C25.6986 103.524 25.993 103.251 26.2667 102.956C26.4001 102.807 26.545 102.664 26.6715 102.492C26.8049 102.324 26.9475 102.147 27.0809 101.933C27.3661 101.516 27.665 100.985 27.9456 100.226C28.0238 100.04 28.0699 99.8559 28.1228 99.6834C28.1481 99.5983 28.1734 99.5155 28.1964 99.435C28.2148 99.3522 28.2309 99.274 28.247 99.1958C28.2769 99.0417 28.3183 98.8968 28.3367 98.7565C28.3551 98.6162 28.3734 98.4851 28.3895 98.3586C28.447 97.8549 28.4517 97.4478 28.4379 97.043C28.4195 96.6382 28.385 96.2334 28.3045 95.7297C28.2746 95.4767 28.201 95.2053 28.1458 94.8902C28.0584 94.582 27.9871 94.2301 27.8491 93.8414C27.8031 93.6965 27.7594 93.5585 27.718 93.4297C27.672 93.3009 27.6283 93.179 27.5915 93.064C27.5547 92.949 27.5225 92.8386 27.4903 92.7328C27.4535 92.6316 27.4235 92.5327 27.3959 92.4407C27.343 92.2567 27.3063 92.0934 27.2833 91.9462C27.2534 91.8036 27.2373 91.6748 27.2373 91.5621C27.2327 91.109 27.4466 90.8767 27.7364 90.7088C28.0262 90.5409 28.3067 90.4788 28.6862 90.7824C28.7805 90.8583 28.8841 90.9572 28.9922 91.0814C29.0934 91.2102 29.2014 91.3689 29.3187 91.5552C29.3762 91.6495 29.436 91.7507 29.4981 91.8611C29.5556 91.9738 29.6108 92.0957 29.6706 92.2268C29.7281 92.3579 29.7879 92.4982 29.8523 92.6477C29.9121 92.7972 29.9628 92.9628 30.0203 93.1353C30.1836 93.5976 30.2756 94.0231 30.3791 94.3934C30.4527 94.7729 30.54 95.1041 30.5837 95.4123C30.6895 96.0264 30.7448 96.5255 30.777 97.0269C30.7839 97.2776 30.8046 97.5306 30.7977 97.802C30.7839 98.0711 30.7884 98.3586 30.747 98.6737C30.7102 98.9911 30.6689 99.3384 30.5769 99.7294C30.5562 99.8283 30.5332 99.9272 30.5125 100.031C30.4826 100.132 30.4527 100.238 30.4228 100.348C30.3584 100.564 30.2963 100.797 30.1997 101.036C29.8455 101.999 29.4544 102.673 29.0887 103.195C28.9116 103.462 28.73 103.685 28.5552 103.892C28.3873 104.106 28.2032 104.283 28.0284 104.467C27.6742 104.831 27.2924 105.167 26.8048 105.562C26.3057 105.944 25.7055 106.399 24.8292 106.88C23.9506 107.356 23.2375 107.595 22.6487 107.789C22.3474 107.867 22.0807 107.947 21.8231 108C21.5655 108.048 21.3217 108.101 21.0779 108.14C20.1096 108.285 19.0884 108.375 17.1863 108.193C16.2272 108.088 15.5073 107.952 14.9093 107.825C14.6103 107.759 14.3411 107.692 14.0858 107.63C13.8328 107.556 13.5914 107.494 13.3545 107.418C12.8807 107.262 12.4046 107.094 11.8411 106.806C11.2776 106.521 10.6129 106.13 9.84005 105.459C9.07415 104.78 8.58195 104.184 8.22085 103.662C8.03455 103.405 7.89195 103.159 7.74935 102.929C7.62285 102.692 7.49405 102.473 7.39055 102.246C7.28475 102.018 7.17205 101.795 7.07545 101.546C7.02485 101.424 6.97195 101.298 6.91675 101.167C6.86845 101.033 6.81555 100.895 6.76265 100.751C6.55565 100.169 6.32335 99.4649 6.11405 98.5104C5.90935 97.5559 5.83115 96.8314 5.79205 96.2288C5.74835 95.6262 5.74605 95.1455 5.75295 94.6648C5.75295 94.4233 5.77135 94.1864 5.78055 93.9311C5.78055 93.8092 5.80125 93.6597 5.81965 93.5079C5.83805 93.3561 5.85875 93.1997 5.87945 93.0318C6.01055 92.3832 6.21065 91.6058 6.68675 90.6904C7.17435 89.7819 7.65505 89.1954 8.05755 88.7147C8.26455 88.4801 8.46235 88.2823 8.64405 88.0891C8.83035 87.9028 9.01895 87.7418 9.20065 87.5716C9.38005 87.3991 9.58015 87.2565 9.78255 87.0886C9.98265 86.9184 10.2127 86.7643 10.4657 86.5895C10.9694 86.2376 11.6019 85.8604 12.4874 85.4372C12.7105 85.3383 12.9197 85.244 13.1175 85.1543C13.3199 85.0761 13.5086 85.0025 13.6857 84.9335C14.0399 84.7863 14.3665 84.6966 14.6563 84.5954C14.9461 84.4896 15.2175 84.4321 15.4682 84.3585C15.7189 84.2826 15.9604 84.2297 16.2042 84.1791C16.6872 84.0664 17.1817 83.9928 17.805 83.9353C17.9614 83.9284 18.127 83.9192 18.2995 83.91C18.3869 83.9054 18.4766 83.9031 18.5686 83.8985C18.6606 83.9008 18.7572 83.9031 18.8561 83.9054C19.0539 83.9123 19.2609 83.9215 19.484 83.9307C19.7071 83.9491 19.9417 83.9836 20.1947 84.0135C20.4477 84.0388 20.68 84.0894 20.9008 84.1354C21.1193 84.1837 21.3285 84.2182 21.5217 84.2711C21.9035 84.3884 22.2463 84.4712 22.5453 84.5839C22.8443 84.6989 23.1157 84.8001 23.3664 84.9036C23.6125 85.0232 23.8425 85.1359 24.0725 85.2486C24.1898 85.3015 24.3025 85.3659 24.4129 85.4349C24.5256 85.5016 24.6383 85.5706 24.7556 85.6419C24.8729 85.7132 24.9925 85.7868 25.1167 85.8627C25.234 85.9501 25.3559 86.0398 25.4847 86.1341C25.6135 86.2307 25.7469 86.3319 25.8895 86.4377C26.0344 86.5435 26.1655 86.6769 26.315 86.808C26.4622 86.9437 26.6186 87.0863 26.7842 87.2381C26.936 87.4037 27.097 87.5785 27.2672 87.7648C27.5294 88.0362 27.7088 88.303 27.8629 88.5376C28.0124 88.7745 28.1434 88.9723 28.217 89.1609C28.3688 89.5358 28.4126 89.8026 28.3873 90.0004C28.3367 90.396 28.0192 90.5248 27.7317 90.695C27.4419 90.8652 27.1729 91.0607 26.8141 90.9572C26.6347 90.9066 26.4322 90.7824 26.1976 90.5455C26.0826 90.4259 25.9332 90.2994 25.7837 90.1292C25.6319 89.9613 25.4732 89.7566 25.2662 89.5473L25.2616 89.5588Z" fill="#231F20"/>
<path d="M53.6642 93.7425C53.9655 92.4913 54.3289 91.5897 54.6624 90.8583C55.0074 90.1292 55.3318 89.568 55.6791 89.0229C56.0379 88.4847 56.4127 87.9557 56.9348 87.3347C57.4615 86.7206 58.1263 85.9961 59.1682 85.1934C60.2101 84.3884 61.1209 83.9537 61.8914 83.6455C62.6665 83.3419 63.3174 83.1786 63.9752 83.0728C64.6307 82.9624 65.2999 82.9026 66.1256 82.9348C66.3326 82.9348 66.5489 82.9555 66.7766 82.9762C67.0043 82.99 67.2504 83.0268 67.5103 83.0705C68.0324 83.1533 68.6073 83.2982 69.2375 83.5282C70.4933 84.0043 71.3375 84.5471 72.0022 85.0301C72.6623 85.52 73.1498 85.957 73.6167 86.4124C74.0744 86.877 74.5069 87.3646 74.9853 88.0224C75.4591 88.6802 75.9765 89.5128 76.4894 90.7042C77 91.8979 77.2438 92.8524 77.4117 93.6528C77.5773 94.4555 77.6464 95.1202 77.674 95.7895C77.697 96.4588 77.6831 97.1396 77.5313 97.9929C77.4945 98.2068 77.4371 98.4299 77.3865 98.6645C77.3198 98.8968 77.2485 99.1544 77.1565 99.4028C77.0599 99.6466 76.9586 99.9042 76.8505 100.178C76.7309 100.449 76.5838 100.728 76.4366 101.029C75.7972 102.216 75.1163 102.984 74.5275 103.575C74.2216 103.862 73.9457 104.12 73.6559 104.327C73.5156 104.435 73.3775 104.539 73.2418 104.64C73.0992 104.732 72.9589 104.822 72.8186 104.911C72.5426 105.098 72.2482 105.252 71.94 105.42C71.8618 105.461 71.7836 105.505 71.7054 105.546C71.6226 105.585 71.5399 105.622 71.4548 105.663C71.2846 105.742 71.1074 105.824 70.9188 105.909C70.1575 106.218 69.233 106.56 67.9472 106.793C66.6615 107.016 65.6748 107.013 64.8606 106.965C64.6559 106.956 64.4651 106.926 64.2788 106.908C64.0948 106.885 63.9154 106.875 63.7452 106.841C63.575 106.809 63.4071 106.779 63.2438 106.749C63.0805 106.721 62.9195 106.689 62.7608 106.645C62.4457 106.558 62.1214 106.494 61.7948 106.369C61.6292 106.312 61.459 106.252 61.2842 106.192C61.1094 106.128 60.9323 106.043 60.7437 105.962C60.3619 105.808 59.9686 105.581 59.5178 105.334C59.3016 105.194 59.0738 105.045 58.83 104.886C58.5885 104.723 58.3539 104.525 58.0917 104.325C57.8732 104.159 57.6938 103.973 57.5098 103.81C57.4201 103.727 57.3305 103.644 57.2454 103.566C57.1626 103.483 57.0866 103.398 57.0107 103.317C56.8589 103.154 56.7163 103 56.5783 102.853C56.4449 102.701 56.3322 102.547 56.2149 102.404C56.0999 102.259 55.9918 102.121 55.886 101.988C55.7917 101.848 55.6997 101.712 55.61 101.581C55.4306 101.319 55.2604 101.073 55.1224 100.815C54.9798 100.56 54.828 100.316 54.6992 100.054C54.575 99.7892 54.4462 99.5201 54.3105 99.2326C54.2392 99.09 54.191 98.9336 54.1266 98.7772C54.1013 98.7105 54.0736 98.6415 54.046 98.5702C54.0368 98.5518 54.0322 98.5288 54.0138 98.515C53.9954 98.5012 53.9678 98.5058 53.9448 98.5035C53.908 98.5035 54.0185 98.5058 53.6482 98.4989C53.363 98.492 52.9949 98.4851 52.5901 98.4782C47.8222 98.3793 47.8246 98.2666 43.0567 98.1677C38.2888 98.0688 38.2865 98.1838 33.5186 98.0849C29.9973 98.0113 29.5373 97.4823 29.5511 96.813C29.5649 96.1437 30.0456 95.7251 33.5669 95.7987C38.3256 95.8976 38.3302 95.6676 43.0912 95.7665C47.8522 95.8654 47.8475 96.123 52.6085 96.2219C53.5446 96.2426 54.3197 96.261 54.4807 96.2633C54.8487 96.2771 55.1431 96.3668 55.403 96.5554C55.6606 96.7463 55.817 96.9786 55.9389 97.2546C56.1988 97.9262 56.2334 98.055 56.3507 98.3333C56.4634 98.5794 56.5691 98.8094 56.6726 99.0371C56.7761 99.2625 56.9049 99.4672 57.0199 99.6857C57.082 99.7915 57.1349 99.9065 57.2039 100.012C57.2729 100.118 57.3443 100.226 57.4179 100.337C57.4915 100.447 57.565 100.562 57.6432 100.682C57.726 100.797 57.8203 100.909 57.9123 101.029C58.0066 101.148 58.1033 101.277 58.2091 101.406C58.3218 101.528 58.4413 101.657 58.5655 101.79C58.6276 101.857 58.692 101.926 58.7564 101.997C58.8277 102.062 58.899 102.128 58.9749 102.197C59.1267 102.331 59.274 102.485 59.4511 102.623C60.2837 103.315 61.0151 103.685 61.6338 103.943C61.7902 104.005 61.9374 104.067 62.08 104.12C62.2272 104.164 62.3675 104.207 62.5032 104.247C62.7723 104.339 63.0391 104.38 63.299 104.437L63.4945 104.479C63.5612 104.488 63.6279 104.497 63.6946 104.506C63.828 104.525 63.9637 104.543 64.104 104.562C64.242 104.587 64.3892 104.587 64.5387 104.601C64.6905 104.61 64.8446 104.628 65.0102 104.633C65.6703 104.649 66.4637 104.644 67.501 104.465C68.5383 104.281 69.2813 104.005 69.8908 103.764C70.4865 103.492 70.9625 103.258 71.4041 102.97C71.5145 102.899 71.6272 102.827 71.7399 102.754C71.8503 102.678 71.9562 102.591 72.0666 102.505C72.177 102.418 72.2988 102.338 72.4092 102.234C72.5196 102.131 72.6347 102.025 72.7566 101.912C73.2235 101.445 73.7617 100.843 74.2723 99.9042C74.3896 99.665 74.5 99.4396 74.6058 99.228C74.6932 99.0072 74.7759 98.8025 74.8518 98.607C74.93 98.4138 74.9692 98.239 75.029 98.0688C75.0681 97.894 75.1072 97.7307 75.144 97.5743C75.2682 96.9395 75.2888 96.4082 75.2842 95.8746C75.2773 95.341 75.2313 94.8028 75.1048 94.1335C74.9737 93.4688 74.7782 92.6638 74.3481 91.6495C73.9157 90.6352 73.4834 89.9245 73.0947 89.361C72.7014 88.7998 72.3518 88.3766 71.9815 87.9787C71.6043 87.5877 71.2132 87.2128 70.6842 86.8034C70.1529 86.4009 69.479 85.9593 68.5061 85.589C67.5286 85.221 66.7581 85.1727 66.0888 85.1612C65.4287 85.1566 64.909 85.2371 64.4007 85.3498C63.8924 85.4602 63.3956 85.6166 62.7999 85.8719C62.5009 85.9984 62.1812 86.1548 61.827 86.3549C61.6476 86.4492 61.4682 86.5757 61.2704 86.693C61.0841 86.831 60.8725 86.9575 60.6678 87.1254C59.8306 87.7671 59.29 88.3697 58.8691 88.8895C58.4528 89.4162 58.1584 89.8716 57.8801 90.3339C57.611 90.8031 57.3603 91.2861 57.0866 91.9094C56.8244 92.5373 56.5254 93.3032 56.2701 94.3704C56.0769 95.157 55.9574 95.7412 55.8263 96.169C55.7665 96.3829 55.7021 96.56 55.6354 96.7026C55.5733 96.8475 55.5088 96.9602 55.4398 97.0476C55.1615 97.3972 54.828 97.3374 54.4922 97.3213C54.1564 97.3052 53.8229 97.3535 53.5998 96.9326C53.5446 96.8268 53.4963 96.6911 53.4572 96.5186C53.425 96.3461 53.402 96.1345 53.3928 95.8769C53.3859 95.364 53.4365 94.6625 53.6642 93.7402V93.7425Z" fill="#231F20"/>
</svg>
