<svg width="115" height="115" viewBox="0 0 115 115" fill="none" xmlns="http://www.w3.org/2000/svg">
<path d="M75.6629 14.4095C75.6629 14.4095 74.736 39.7118 75.6629 39.7509C76.5898 39.79 100.51 40.5375 100.625 40.6249C100.74 40.7123 100.634 16.169 100.634 16.169L75.6629 14.4095Z" fill="#E3DACC"/>
<path d="M66.9924 25.9877C67.0108 28.2325 67.0284 30.4773 67.0453 32.7221C67.0637 36.0916 67.2845 36.0893 67.3029 39.4588C67.3213 42.826 67.0062 42.8283 67.0246 46.1955C67.0246 46.5704 67.0292 46.8993 67.0315 47.1937C67.0361 47.2627 67.0269 47.3248 67.0407 47.3777C67.0591 47.4306 67.0982 47.4674 67.1419 47.4812C67.1856 47.4973 67.2293 47.4881 67.2707 47.4927C68.1401 47.5249 68.9129 47.5548 70.5551 47.6146C73.92 47.7503 73.9269 47.5939 77.2918 47.7273C80.6567 47.863 80.6521 47.9964 84.017 48.1321C85.7006 48.1988 86.5424 48.2218 87.3819 48.2425C87.8028 48.254 88.2237 48.2655 88.7504 48.2816C89.0126 48.2908 89.3024 48.3 89.6313 48.3115C89.7946 48.3184 89.9694 48.323 90.1557 48.3299C90.2891 48.3345 90.4271 48.3414 90.5674 48.346C90.7491 48.3529 90.9377 48.3575 91.124 48.3782C91.4368 48.4242 91.6921 48.5116 91.9267 48.6496C92.1567 48.7876 92.3476 48.967 92.4902 49.1579C92.6351 49.3488 92.7294 49.5512 92.7915 49.7421C92.8306 49.9514 92.8651 50.1469 92.8973 50.324C92.9157 50.6575 92.9341 50.9611 92.9479 51.2463C92.964 51.4418 92.9778 51.6235 92.9916 51.8006C93.0215 52.1525 93.0491 52.4745 93.079 52.8264C93.1365 53.5256 93.1917 54.3283 93.24 55.6577C93.3642 59.0226 93.3067 59.0249 93.4355 62.3875C93.5712 65.7478 93.4562 65.7547 93.6126 69.1104C93.6931 70.7848 93.7874 71.6266 93.8955 72.4247C93.9093 72.5236 93.9231 72.6202 93.9369 72.7214L93.9461 72.7973L93.9507 72.8341L93.9553 72.8387C93.9553 72.8387 93.9622 72.8479 93.9599 72.8525C93.9599 72.8548 93.9599 72.8571 93.9553 72.8594C93.5873 72.9721 93.1802 73.1078 92.7984 73.2481C92.527 73.3378 94.9926 72.519 93.9507 72.8663V72.8824L93.9576 72.9008L93.9668 72.9376C93.9921 73.0388 94.0128 73.1423 94.0335 73.2504C94.0427 73.3033 94.0519 73.3585 94.0634 73.4137C94.0703 73.4597 94.0772 73.508 94.0841 73.5563C94.091 73.6207 94.1002 73.6874 94.1094 73.7564C94.1784 74.3107 94.2359 74.9409 94.2934 75.7896C94.5073 79.166 94.3831 79.1706 94.574 82.5378C94.758 85.9027 94.62 85.9119 94.7971 89.2768C94.9719 92.6417 95.2387 92.6279 95.4089 95.9951C95.4503 96.8369 95.4756 97.4671 95.4894 97.9938C95.4963 98.256 95.5009 98.4929 95.5055 98.7183C95.5055 98.831 95.5078 98.9391 95.5101 99.0449V99.1484L95.4963 99.5394C95.4848 99.8821 95.471 100.227 95.4595 100.593C95.4756 100.777 95.3928 100.958 95.3054 101.142C95.2111 101.324 95.0869 101.504 94.9259 101.667C94.7649 101.828 94.5671 101.97 94.344 102.076C94.1186 102.18 93.8794 102.249 93.5735 102.274C93.4217 102.283 93.2607 102.281 93.0951 102.281C92.941 102.281 92.7846 102.281 92.6213 102.281C92.435 102.281 92.2372 102.281 92.0279 102.281C88.6584 102.281 88.6584 102.136 85.2889 102.136C81.9194 102.136 81.9217 102.361 78.5568 102.361C75.1919 102.361 75.1919 102.214 71.8247 102.214C68.4575 102.214 68.4575 102.318 65.0903 102.318C61.7231 102.318 61.7208 102.095 58.3536 102.095C54.9864 102.095 54.9864 102.32 51.6192 102.32C48.252 102.32 48.252 102.111 44.8848 102.111C42.6384 102.105 40.3929 102.098 38.1481 102.09C35.9033 102.082 33.6585 102.095 31.4137 102.129C29.1673 102.117 26.9218 102.105 24.677 102.092C21.3098 102.092 21.3098 102.24 17.9403 102.24C17.0985 102.24 16.466 102.23 15.9393 102.217C15.5874 102.207 15.27 102.2 14.971 102.194C14.7663 102.194 14.5731 102.175 14.3983 102.136C14.2235 102.097 14.0694 102.042 13.913 101.961C13.6071 101.805 13.3357 101.554 13.1471 101.234C12.9585 100.912 12.8711 100.554 12.8757 100.075C12.8803 99.7349 12.8872 99.36 12.8918 98.9345C12.8918 98.6056 12.8964 98.2376 12.8987 97.8167C12.901 94.4472 12.7078 94.4472 12.7101 91.08C12.7124 87.7105 12.5583 87.7105 12.5606 84.341C12.5629 80.9715 12.6549 80.9715 12.6595 77.6043C12.6702 75.358 12.6809 73.1116 12.6917 70.8653C12.694 67.4958 12.9033 67.4958 12.9056 64.1263C12.8948 61.88 12.8849 59.6336 12.8757 57.3873C12.878 54.0178 12.6365 54.0178 12.6411 50.6483C12.6411 47.2788 12.832 47.2788 12.8343 43.9093C12.8343 40.5398 12.7745 40.5398 12.7745 37.168C12.7745 33.7962 12.9102 33.8008 12.9102 30.4313C12.9102 28.7454 12.8872 27.9036 12.8642 27.0618C12.855 26.6409 12.8435 26.22 12.832 25.6933C12.832 25.5001 12.8274 25.3 12.8251 25.0861C12.8182 24.817 12.8228 24.5226 12.8941 24.2604C12.9562 23.9982 13.085 23.7268 13.2874 23.483C13.4898 23.2392 13.7704 23.0276 14.097 22.9057C14.4144 22.7838 14.7755 22.7539 15.1228 22.7654C15.3804 22.7654 15.6196 22.7677 15.8473 22.77C16.1762 22.7769 16.466 22.7815 16.7282 22.7861C17.2549 22.7999 17.6758 22.8183 18.0967 22.8344C18.9385 22.8712 19.7826 22.9057 21.4662 22.9057C24.8357 22.9057 24.8357 22.7815 28.2052 22.7815C31.5747 22.7815 31.577 22.8252 34.9465 22.8252C37.1928 22.816 39.4384 22.806 41.6832 22.7953C45.055 22.7953 45.055 22.6573 48.4268 22.6573C51.7986 22.6573 51.8009 22.8597 55.175 22.8597C58.5491 22.8597 58.5491 22.9011 61.9232 22.9011C64.5245 22.9011 65.0052 23.2944 65.0052 24.012C65.0052 24.7296 64.5268 25.2172 61.9232 25.2172C58.556 25.2172 58.556 25.1551 55.1888 25.1551C52.9424 25.149 50.6969 25.1436 48.4521 25.139C45.0849 25.139 45.0849 25.3276 41.7154 25.3276C38.3459 25.3276 38.3482 25.1459 34.981 25.1459C31.6138 25.1459 31.6138 25.4541 28.2443 25.4541C24.8748 25.4541 24.8748 25.4035 21.5076 25.4035C19.824 25.4035 18.9822 25.3667 18.1404 25.3322C17.7195 25.3138 17.2986 25.2954 16.7719 25.2816C16.4177 25.2747 15.9922 25.2678 15.4264 25.2586C15.3551 25.2632 15.3091 25.3276 15.3091 25.3805C15.3091 25.4794 15.3068 25.5668 15.3045 25.6473C15.2999 26.174 15.2953 26.5949 15.293 27.0158C15.2838 27.8576 15.2746 28.6994 15.2746 30.383C15.2654 32.6293 15.2562 34.8749 15.247 37.1197C15.247 40.4869 15.1665 40.4869 15.1665 43.8564C15.1665 47.2259 15.2171 47.2259 15.2171 50.5931C15.2278 52.8379 15.2378 55.0835 15.247 57.3298C15.2447 60.697 15.4172 60.6993 15.4149 64.0665C15.4126 67.436 15.4885 67.436 15.4862 70.8032C15.4839 74.1704 15.4218 74.1704 15.4195 77.5399C15.4172 80.9094 15.3735 80.9094 15.3712 84.2789C15.3689 87.6461 15.2769 87.6461 15.2746 91.011C15.2723 94.3759 15.3367 94.3782 15.3344 97.7431C15.3344 98.164 15.3321 98.532 15.3298 98.8609C15.3298 99.0242 15.3275 99.1806 15.3252 99.3255C15.3252 99.3623 15.3252 99.3991 15.3252 99.4336V99.5164C15.3206 99.5509 15.3114 99.5831 15.316 99.6153C15.3206 99.6475 15.339 99.6751 15.3643 99.6889C15.3896 99.705 15.4195 99.705 15.454 99.7096C15.4701 99.7096 15.4885 99.7142 15.5069 99.7165C15.6196 99.7165 15.7392 99.7211 15.8611 99.7234C16.3878 99.7303 17.018 99.7349 17.8598 99.7349C20.1061 99.7288 22.3517 99.7234 24.5965 99.7188C27.9637 99.7188 27.9637 99.6176 31.3309 99.6176C34.6981 99.6176 34.6981 99.8062 38.0653 99.8062C41.4325 99.8062 41.4348 99.4888 44.802 99.4888C47.0468 99.4919 49.2916 99.4942 51.5364 99.4957C53.7827 99.4957 56.029 99.4965 58.2754 99.498C60.5202 99.4949 62.7657 99.4926 65.0121 99.4911C68.3816 99.4911 68.3816 99.7671 71.7488 99.7671C75.116 99.7671 75.1183 99.705 78.4855 99.705C81.8527 99.705 81.855 99.5808 85.2245 99.5808C88.594 99.5808 88.594 99.5118 91.9612 99.5118C92.1728 99.5118 92.3683 99.5141 92.5546 99.5164H92.6581C92.6673 99.5164 92.6604 99.5164 92.6627 99.5164H92.665L92.6719 99.5256C92.6834 99.5348 92.7041 99.5509 92.7294 99.5555C92.7547 99.5555 92.7823 99.5647 92.8007 99.5348C92.8191 99.4658 92.8375 99.4014 92.8559 99.337L92.8835 99.2243C92.8904 99.1438 92.895 99.015 92.8996 98.9092C92.9088 98.6838 92.9157 98.4469 92.9203 98.1847C92.9272 97.658 92.918 97.0255 92.8743 96.1837C92.7041 92.8188 92.5638 92.8257 92.389 89.4608C92.2119 86.0982 92.1153 86.1028 91.9313 82.7402C91.7404 79.3799 91.7887 79.3753 91.5771 76.0242C91.5196 75.1916 91.469 74.5614 91.4092 74.0669C91.4023 74.0048 91.3954 73.9427 91.3885 73.8829L91.3793 73.8001C91.3793 73.8001 91.3747 73.7863 91.3724 73.7794C91.3701 73.7656 91.3701 73.7541 91.3724 73.7403V73.7288L91.4552 73.7035C91.6875 73.6276 91.9198 73.5517 92.1498 73.4712L92.4948 73.3493C92.7616 73.2596 90.3581 74.06 91.3747 73.7219V73.7058L91.3632 73.6667L91.3448 73.5885C91.3218 73.485 91.3011 73.3838 91.2827 73.2803L91.2574 73.1285L91.2459 73.0319C91.2321 72.9192 91.2183 72.8088 91.2068 72.6984C91.1033 71.8175 91.0228 70.9826 90.94 69.2898C90.7836 65.9134 91.0573 65.9019 90.9216 62.5324C90.7905 59.1652 90.6479 59.1698 90.526 55.8026C90.4777 54.464 90.4248 53.6567 90.3696 52.9529C90.342 52.601 90.3167 52.2721 90.2891 51.9179C90.2753 51.7408 90.2638 51.5545 90.2477 51.3544C90.2408 51.2279 90.2362 51.2141 90.2316 51.1704C90.227 51.129 90.2224 51.0876 90.2201 51.0416C90.2109 51.0347 90.2017 51.0324 90.1925 51.0324C88.1117 50.9542 86.0318 50.8768 83.9526 50.8001C81.7078 50.7112 79.463 50.6215 77.2182 50.531C73.851 50.3953 73.8602 50.1331 70.493 49.9997C69.596 49.9583 68.9359 49.9307 68.3839 49.9054C67.7261 49.8709 67.1925 49.8433 66.6221 49.8134C66.2909 49.7881 65.9919 49.7191 65.6952 49.5581C65.4008 49.3948 65.1133 49.1257 64.9316 48.7577C64.8373 48.5737 64.7821 48.3759 64.7453 48.1436C64.7085 47.9113 64.7223 47.6422 64.7177 47.3662C64.7177 47.0327 64.7154 46.6601 64.7131 46.2369C64.6947 42.8651 64.6004 42.8651 64.5843 39.4933C64.5659 36.1192 64.4923 36.1192 64.4762 32.7451C64.4601 29.371 64.5981 29.371 64.5797 25.9969C64.5797 25.6726 64.5843 25.3897 64.5981 25.1459C64.605 25.024 64.6142 24.9113 64.6234 24.8078L64.628 24.7687C64.7545 24.7687 64.8787 24.7687 65.0029 24.7664H65.0167C65.0006 24.7779 65.0167 24.7664 65.0144 24.7618C65.0144 24.7572 65.0121 24.794 65.019 24.702C65.0213 24.6399 65.019 24.5709 65.0167 24.4973C65.0098 24.3501 65.0121 24.1868 65.0167 24.0074C65.019 23.828 64.9983 23.6624 65.0328 23.5152C65.0696 23.3749 65.1754 23.2254 65.4974 23.2047C65.6538 23.2001 65.8677 23.2323 66.1092 23.368C66.3461 23.5014 66.6198 23.7452 66.7923 24.1523C66.8337 24.2535 66.8705 24.3639 66.8935 24.4835C66.9073 24.5433 66.9165 24.6031 66.9211 24.6675C66.9257 24.7112 66.9303 24.7549 66.9326 24.7986C66.9441 24.9021 66.9533 25.0148 66.9625 25.1367C66.9786 25.3805 66.9878 25.6611 66.9901 25.9854L66.9924 25.9877Z" fill="#141413"/>
<path d="M66.0126 97.3222C65.7734 91.9885 65.9528 91.9816 65.7136 86.6479C65.4767 81.3119 65.5342 81.3096 65.3042 75.9759C65.2053 70.6376 65.0213 70.6422 64.9201 65.3016C64.8212 59.961 64.7453 59.9633 64.6441 54.6227C64.6188 53.3186 64.6188 52.3319 64.628 51.5062C64.6349 51.0945 64.6441 50.7219 64.651 50.37C64.6533 50.2826 64.6556 50.1952 64.6579 50.1101C64.6625 50.0848 64.6648 50.0917 64.6694 50.0802C64.6786 50.0641 64.6855 50.048 64.6947 50.025L64.7154 49.9652L64.7246 49.9307L64.7292 49.9123C64.7292 49.9123 64.7246 49.91 64.7223 49.9077C64.7016 49.9008 64.6717 49.8916 64.6303 49.8847C64.6119 49.8824 64.5935 49.8778 64.5751 49.8755H64.559L64.5498 49.8732C64.5475 49.8732 64.5475 49.8732 64.5245 49.8732C64.4578 49.8732 64.3911 49.8778 64.3221 49.8801C64.0507 49.887 63.7586 49.8939 63.4435 49.9031C62.8202 49.9192 62.098 49.9399 61.2424 49.9629C58.5675 50.0388 57.2312 50.0779 55.8926 50.117C54.5563 50.1584 53.2223 50.1975 50.5497 50.2228C45.2045 50.2619 45.2045 50.2918 39.8593 50.3056C39.5258 50.3056 39.2107 50.3056 38.9163 50.3056C38.8427 50.3056 38.7691 50.3056 38.6978 50.3056H38.5667L38.4609 50.2987C38.3229 50.2918 38.1872 50.2849 38.0584 50.2803C37.5363 50.2527 37.0763 50.2297 36.66 50.209C35.8251 50.1584 35.1581 50.1193 34.4888 50.0802C33.1525 49.9974 31.8185 49.9123 29.1459 49.8019C23.8007 49.5788 23.7984 49.6938 18.4532 49.4707C14.5064 49.3051 13.9981 48.7646 14.0257 48.0953C14.0533 47.426 14.6007 47.0212 18.5406 47.1845C23.8674 47.4076 23.8743 47.1776 29.1988 47.4007C31.8622 47.5111 33.1916 47.633 34.5233 47.7526C35.188 47.8124 35.8527 47.8722 36.6853 47.932C37.1016 47.9573 37.5593 47.9872 38.0791 48.0194C38.2102 48.0263 38.3436 48.0332 38.4816 48.0401C38.546 48.0424 38.6334 48.0493 38.6725 48.047C38.7438 48.047 38.8151 48.047 38.8864 48.047C39.1808 48.047 39.4936 48.047 39.8271 48.047C45.1608 48.0332 45.1608 48.0792 50.4945 48.0401C53.1602 48.0171 54.4919 47.9274 55.8236 47.8377C57.153 47.7457 58.487 47.6606 61.1389 47.5893C62.0014 47.564 62.7236 47.5433 63.3446 47.5272C63.6505 47.518 63.9334 47.5088 64.1933 47.5019C64.3796 47.4927 64.5613 47.4858 64.7338 47.4766C64.973 47.4605 65.2007 47.4444 65.4215 47.4237C65.8263 47.7043 66.1092 47.8952 66.2909 48.0102C66.3185 48.0286 66.3392 48.0401 66.3691 48.0608L66.4726 48.1482C66.5416 48.2057 66.6083 48.2632 66.6773 48.3207C66.8107 48.4357 66.9418 48.5507 67.0729 48.6634C67.0729 48.9762 67.0729 49.2867 67.0729 49.6041C67.0729 49.7559 67.0729 49.91 67.0729 50.0664C67.0729 50.1515 67.0706 50.2389 67.0683 50.3263C67.066 50.6782 67.0614 51.0485 67.0568 51.4579C67.0545 52.2767 67.0591 53.2519 67.0844 54.533C67.1442 58.0873 67.2032 61.6423 67.2615 65.1981C67.3197 68.7539 67.3964 72.3112 67.4915 75.8701C67.7192 81.2061 67.9216 81.1992 68.1562 86.5352C68.3954 91.8712 68.4506 91.8689 68.6898 97.2049C68.8669 101.145 68.1723 100.935 67.503 100.965C66.8337 100.995 66.1874 101.264 66.0103 97.3199L66.0126 97.3222Z" fill="#141413"/>
<path d="M16.8225 75.2836C20.8613 75.233 20.8636 75.4124 24.9001 75.3549C28.9389 75.2905 28.9412 75.3572 32.9754 75.2744C34.9925 75.2284 35.9976 75.1548 36.9958 75.072C37.2419 75.0513 37.4903 75.0283 37.7525 75.0053C37.879 74.9938 38.0101 74.98 38.1481 74.9685C38.2125 74.9616 38.2792 74.9547 38.3482 74.9478C38.3965 74.9409 38.4471 74.934 38.4977 74.9271C38.4655 74.9317 38.431 74.9363 38.3988 74.9455C38.3919 74.9386 38.3942 74.9662 38.3965 74.9846L38.4011 75.0444L38.4149 75.1617C38.4264 75.2399 38.4402 75.3181 38.4586 75.3963C38.4954 75.5504 38.5506 75.6999 38.6196 75.8425C38.6541 75.9138 38.6932 75.9851 38.7369 76.0518L38.7691 76.1024C37.5386 74.0163 38.4333 75.5228 38.1596 75.0559L38.2056 75.0329C38.3022 74.9869 38.408 74.9478 38.5161 74.9179C38.5713 74.9041 38.6242 74.8903 38.6794 74.8811L38.7622 74.8673H38.7852C38.8887 74.8558 38.9945 74.8443 39.1049 74.8351C39.2889 74.8236 39.4936 74.8098 39.6937 74.8029C40.1008 74.7868 40.547 74.7753 41.0576 74.7684C45.1194 74.7339 45.1125 74.6695 49.1605 74.6718C53.2062 74.6856 53.2039 74.9662 57.2496 74.9892C61.2907 75.0168 61.293 74.9294 65.3341 74.9616C65.8447 74.9708 66.2587 74.957 66.7302 74.9869C67.1235 75.0076 67.4708 75.0237 67.7859 75.0398C68.4161 75.0697 68.9221 75.0927 69.4258 75.1157C70.4355 75.164 71.4452 75.2123 73.4623 75.3112C77.5011 75.5136 77.4965 75.6263 81.5353 75.8172C85.5718 75.9943 85.581 75.8885 89.6083 76.0242C91.0895 76.0656 91.9267 76.2059 92.3752 76.4129C92.826 76.6176 92.9456 76.9143 92.9617 77.2478C93.0192 77.9056 92.5431 78.3978 89.5416 78.3081C85.489 78.1724 85.4821 78.3909 81.4387 78.2138C77.3976 78.0252 77.4091 77.7653 73.3703 77.5629C71.3509 77.4594 70.3412 77.395 69.3338 77.3306C68.8301 77.2984 68.3241 77.2662 67.6939 77.2271C67.3788 77.2087 67.0315 77.188 66.6382 77.165C66.5485 77.1604 66.4565 77.1535 66.3599 77.1489C66.261 77.1489 66.1598 77.1489 66.0563 77.1466C65.8332 77.1466 65.5963 77.142 65.3433 77.1397C61.3022 77.1052 61.2999 77.3858 57.2611 77.3582C53.22 77.3352 53.2223 77.1213 49.1812 77.1075C45.147 77.1029 45.1401 77.0707 41.1174 77.1075C40.616 77.1144 40.1767 77.1213 39.7926 77.1351C39.604 77.142 39.4269 77.1489 39.259 77.1558C39.1877 77.1604 39.121 77.165 39.0543 77.1719C39.0497 77.1719 38.9853 77.1788 39.075 77.1673C39.1026 77.1627 39.1302 77.1558 39.1601 77.1466L39.1716 77.142C39.1716 77.142 39.1762 77.142 39.1762 77.1374L39.1716 77.1052C39.1647 77.0638 39.1578 77.0224 39.1486 76.981C39.1325 76.8982 39.1095 76.8154 39.0842 76.7372C39.0336 76.5762 38.9646 76.4221 38.8795 76.2772L38.8128 76.1691C38.3321 75.3549 39.4476 77.2455 39.3303 77.0546L39.3234 77.0592L39.3073 77.0661L39.2429 77.096C39.1555 77.1351 39.0635 77.165 38.9692 77.188C38.9232 77.1995 38.8772 77.2087 38.8312 77.2156L38.7898 77.2202L38.7185 77.2271C38.6702 77.2317 38.6242 77.2363 38.5759 77.2409C38.4816 77.2501 38.4126 77.2524 38.3344 77.2593C38.1849 77.2685 38.04 77.2777 37.8997 77.2869C37.626 77.3007 37.3707 77.3145 37.1131 77.326C36.0919 77.372 35.0799 77.4065 33.0536 77.4525C29.001 77.5353 29.0056 77.7262 24.9553 77.7906C20.9073 77.8481 20.9073 77.9056 16.8593 77.9539C13.8693 77.9884 14.0441 77.303 14.0372 76.6337C14.0303 75.9621 13.8417 75.3089 16.8271 75.2744L16.8225 75.2836Z" fill="#141413"/>
<path d="M40.7356 26.8042C40.5953 30.7349 40.4159 30.7303 40.2756 34.661C40.1353 38.594 40.0709 38.5917 39.9306 42.527C39.8593 44.4935 39.8708 45.4779 39.8823 46.4623C39.8869 46.9545 39.8938 47.4467 39.8892 48.0608C39.8846 48.369 39.88 48.7071 39.8731 49.0912C39.8777 49.4753 39.8823 49.9054 39.8869 50.3976C39.9122 54.3306 39.9881 54.3329 40.0157 58.2659C40.041 62.2012 39.7627 62.2012 39.788 66.1365C39.8133 70.0695 39.903 70.0695 39.9283 74.0025C39.9375 74.9823 39.9375 75.7344 39.9513 76.3301C39.9697 76.9465 39.9858 77.4387 39.9996 77.9309C40.0272 78.9153 40.0548 79.8997 40.1123 81.8708C40.2112 85.813 40.0985 85.8153 40.2043 89.7575C40.3124 93.6997 40.4251 93.6974 40.547 97.6327C40.593 99.084 40.4964 99.9097 40.3055 100.372C40.2089 100.602 40.0916 100.742 39.9559 100.825C39.8869 100.864 39.8156 100.894 39.7374 100.906C39.6592 100.924 39.5856 100.954 39.5051 100.97C39.4223 100.986 39.3418 101.009 39.2613 100.993C39.1808 100.972 39.1072 100.949 39.0336 100.906C38.891 100.823 38.7668 100.685 38.6587 100.452C38.4448 99.9902 38.3045 99.1645 38.2585 97.7063C38.1366 93.7641 37.9112 93.7733 37.8031 89.8334C37.6996 85.8935 37.9572 85.8866 37.8583 81.949C37.81 79.9802 37.7962 78.9935 37.7847 78.0091C37.7778 77.5169 37.7709 77.0247 37.7617 76.4083C37.7594 75.7896 37.7548 75.0467 37.7479 74.0577C37.7226 70.1132 37.442 70.1155 37.4144 66.171C37.3891 62.2242 37.5984 62.2242 37.5731 58.2797C37.5623 55.6516 37.5524 53.0227 37.5432 50.393C37.5386 49.9008 37.5363 49.4684 37.534 49.082C37.5455 48.6979 37.557 48.3575 37.5685 48.0493C37.5869 47.4329 37.6007 46.9407 37.6145 46.4462C37.6467 45.4595 37.6766 44.4751 37.741 42.504C37.8813 38.5572 37.6881 38.5549 37.8284 34.6081C37.9687 30.6613 37.9135 30.659 38.0538 26.7122C38.1573 23.7981 38.8335 24.0005 39.5028 24.0235C40.1721 24.0465 40.8368 23.8947 40.731 26.8019L40.7356 26.8042Z" fill="#141413"/>
<path d="M78.7178 13.1514C83.81 13.3354 83.8031 13.5125 88.8953 13.6965C93.9898 13.8805 93.9875 13.9426 99.0797 14.1266C99.2177 14.1312 99.3534 14.1358 99.4845 14.1404C99.6938 14.1496 99.9008 14.1496 100.087 14.1887C100.462 14.26 100.789 14.4325 101.042 14.6533C101.295 14.8741 101.472 15.1409 101.582 15.4077C101.637 15.5411 101.674 15.6745 101.699 15.8056C101.72 15.9367 101.727 16.0678 101.741 16.192C101.745 16.4335 101.752 16.6658 101.757 16.8866C101.761 17.0568 101.768 17.2201 101.773 17.3765C101.784 17.6893 101.796 17.9814 101.805 18.2574C101.828 18.814 101.851 19.3177 101.874 19.8605C101.918 20.9438 101.959 22.172 101.973 24.2328C102.003 29.3342 102.083 29.3319 102.088 34.4379C102.088 35.9582 102.056 37.0277 102.012 37.9178C101.989 38.3617 101.964 38.7619 101.936 39.1529C101.918 39.4082 101.899 39.6566 101.881 39.9096C101.865 40.0867 101.858 40.2684 101.837 40.4409C101.805 40.6065 101.775 40.7744 101.743 40.9446C101.697 41.0366 101.653 41.1286 101.605 41.2229C101.584 41.2735 101.548 41.3057 101.52 41.3471C101.492 41.3862 101.456 41.4299 101.412 41.4667C101.246 41.6093 101.051 41.7059 100.809 41.7772C100.568 41.8416 100.289 41.8715 99.9974 41.8899C99.8525 41.8991 99.703 41.9037 99.5512 41.9083C99.4477 41.9083 99.3419 41.9106 99.2338 41.9129C98.5047 41.9129 97.6721 41.8991 96.6302 41.8807C94.0703 41.8186 92.7892 41.7864 91.5104 41.7542C90.2339 41.7197 88.9551 41.6852 86.4067 41.5518C83.856 41.4161 82.5818 41.3494 81.3076 41.2804C80.6705 41.2459 80.0334 41.2091 79.2353 41.1654C78.8374 41.1424 78.3981 41.1148 77.9013 41.0872C77.6529 41.0711 77.3884 41.055 77.1078 41.0389C76.9169 41.0274 76.7191 41.0136 76.5144 40.9998C76.2315 40.9837 75.9601 40.9193 75.7002 40.7997C75.1781 40.5559 74.8055 40.1212 74.6238 39.652C74.5364 39.4151 74.4858 39.1759 74.4812 38.9275C74.4743 38.8056 74.4812 38.6814 74.4789 38.5618C74.4789 38.4859 74.4789 38.4123 74.4789 38.3387C74.4835 37.8396 74.4881 37.4026 74.4904 37.0024C74.5042 36.2043 74.518 35.5672 74.5295 34.9301C74.5571 33.6536 74.5847 32.3771 74.5847 29.8264C74.5847 24.7227 74.4697 24.7227 74.4697 19.619C74.4697 15.8493 74.9895 15.3433 75.6588 15.3433C76.3281 15.3433 76.7559 15.8493 76.7559 19.619C76.7559 24.7135 76.9859 24.7135 76.9859 29.808C76.9859 32.3564 76.9215 33.6306 76.8571 34.9048C76.8249 35.5419 76.7927 36.179 76.7674 36.9748C76.7582 37.3727 76.749 37.812 76.7375 38.3088C76.7375 38.3686 76.7375 38.4307 76.7352 38.4905V38.5296C76.7329 38.5572 76.7283 38.5848 76.7352 38.6147C76.7467 38.6722 76.7904 38.7274 76.8525 38.7527C76.8847 38.7665 76.9169 38.7665 76.9491 38.7688C77.0411 38.7757 77.1308 38.7803 77.2182 38.7872C77.4988 38.8056 77.761 38.8217 78.0094 38.8378C78.5062 38.87 78.9432 38.8999 79.3388 38.9252C80.1323 38.9781 80.7671 39.0218 81.4019 39.0655C82.6715 39.1506 83.9411 39.238 86.4826 39.3737C89.0241 39.5071 90.2983 39.4956 91.5702 39.4795C92.8421 39.4611 94.1163 39.4519 96.6394 39.5094C97.6813 39.5301 98.507 39.5416 99.174 39.537C99.2154 39.537 99.2568 39.537 99.2959 39.537H99.3465C99.3465 39.537 99.3465 39.537 99.3488 39.537L99.3649 39.5416C99.3787 39.5462 99.3902 39.5485 99.4017 39.5531C99.4155 39.5554 99.4293 39.56 99.4454 39.56C99.4569 39.5554 99.4592 39.5462 99.4661 39.537C99.4937 39.7624 99.5535 38.686 99.5857 37.8856C99.6202 37.0093 99.6455 35.9582 99.6478 34.4678C99.6455 29.3802 99.6616 29.3779 99.6317 24.2857C99.611 22.3077 99.5995 21.0979 99.588 19.9985C99.5742 18.9474 99.5604 18.0021 99.5397 16.537C99.5374 16.514 99.5466 16.4542 99.4983 16.3944C99.4753 16.3668 99.4385 16.3392 99.3925 16.3323C99.3695 16.3277 99.3465 16.33 99.3212 16.3277C99.2269 16.3254 99.128 16.3208 99.0268 16.3162C93.9254 16.1322 93.9185 16.3254 88.8194 16.1414C83.718 15.9574 83.718 16.0126 78.6166 15.8286C78.1451 15.8125 77.738 15.7872 77.3838 15.7527C77.2067 15.7366 77.0434 15.7182 76.8939 15.6975C76.818 15.686 76.7467 15.6768 76.6777 15.6653L76.6018 15.6515H76.5903L76.588 15.6492C76.5788 15.9068 76.5995 15.2996 76.5972 15.3617C76.5972 15.3571 76.5972 15.3479 76.5972 15.3433C76.5903 15.3157 76.6041 15.3525 76.6041 15.3433C76.6041 15.3433 76.6018 15.3387 76.588 15.3341C76.4684 15.2881 76.312 15.3134 76.1533 15.3249C75.9946 15.341 75.8267 15.3387 75.6588 15.3341C75.4909 15.3318 75.323 15.3571 75.1689 15.2973C75.024 15.2375 74.8492 15.0765 74.8768 14.6418C74.8975 14.4302 74.9803 14.1496 75.2126 13.8598C75.4426 13.5769 75.8451 13.271 76.4316 13.1882C76.5029 13.179 76.5788 13.1744 76.6547 13.1698C76.6915 13.1675 76.7283 13.1629 76.7674 13.1606C76.8364 13.156 76.91 13.1514 76.9859 13.1468C77.1377 13.1376 77.301 13.133 77.4781 13.1284C77.8323 13.1215 78.2417 13.1284 78.7132 13.1445L78.7178 13.1514Z" fill="#141413"/>
</svg>
