<svg width="115" height="115" viewBox="0 0 115 115" fill="none" xmlns="http://www.w3.org/2000/svg">
<path d="M64.6194 71.788L64.736 36.1392C64.736 36.1392 48.4739 34.3959 43.9517 46.2267C39.4296 58.0574 46.6694 66.4985 48.7908 68.1449C50.9121 69.7912 56.0658 74.0162 64.6194 71.7858V71.788Z" fill="#E3DACC"/>
<path d="M47.449 42.2176C47.2598 42.4093 47.1255 42.6143 46.9913 42.784C46.9275 42.87 46.8659 42.9515 46.8087 43.0264C46.7559 43.108 46.7074 43.1851 46.6612 43.2601C46.4742 43.5554 46.3245 43.789 46.2013 44.0447C46.0737 44.2981 45.9306 44.5361 45.7898 44.8645C45.715 45.0254 45.6314 45.1995 45.5367 45.4001C45.4443 45.6006 45.3563 45.8343 45.2419 46.0943C45.1252 46.3544 45.0438 46.5902 44.9734 46.8018C44.903 47.0134 44.8392 47.1985 44.7842 47.3682C44.6873 47.712 44.6235 47.9897 44.5531 48.2674C44.4761 48.5407 44.4409 48.8272 44.3638 49.1754C44.333 49.3518 44.278 49.5391 44.2494 49.7617C44.2142 49.9821 44.1746 50.2289 44.1284 50.5088C44.0734 50.7887 44.058 51.04 44.0316 51.2604C44.0074 51.483 43.9876 51.6769 43.9677 51.8554C43.9369 52.2103 43.9347 52.4968 43.9193 52.7811C43.9127 52.9243 43.9061 53.0654 43.8995 53.2175C43.9017 53.3695 43.9061 53.5304 43.9083 53.7089C43.9171 54.066 43.9083 54.4957 43.9677 55.0644C43.9898 55.3487 44.0074 55.5977 44.0228 55.8203C44.0492 56.0429 44.0712 56.2369 44.0932 56.4154C44.135 56.7702 44.1416 57.0611 44.1922 57.3432C44.234 57.6275 44.2736 57.9119 44.333 58.2667C44.4057 58.6171 44.5157 59.0359 44.6719 59.5869C44.7665 59.8579 44.8524 60.0938 44.9316 60.3031C45.0086 60.5125 45.0856 60.6954 45.1715 60.8541C45.3343 61.1737 45.4707 61.4249 45.616 61.6718C45.7722 61.912 45.9284 62.1522 46.1045 62.4586C46.1903 62.6129 46.3047 62.7715 46.4148 62.9611C46.5336 63.1462 46.6414 63.3688 46.7999 63.6024C46.9517 63.8383 47.0793 64.0476 47.1916 64.2372C47.3104 64.4201 47.416 64.5832 47.5106 64.7309C47.6911 65.0328 47.8473 65.2686 48.0014 65.5044C48.0784 65.6235 48.1532 65.7425 48.239 65.8659C48.3293 65.9849 48.4261 66.1105 48.5361 66.2494C48.7518 66.5293 49.0422 66.8356 49.4515 67.2169C49.6628 67.3954 49.8432 67.5651 50.0171 67.6885C50.1909 67.812 50.345 67.9222 50.4858 68.0213C50.7785 68.1866 51.0095 68.3365 51.2516 68.4313C51.3726 68.4864 51.4937 68.5393 51.6213 68.5988C51.7665 68.6627 51.9184 68.7288 52.0878 68.8015C52.4201 68.9514 52.8162 69.1299 53.3465 69.3701C53.8725 69.6016 54.2642 69.7757 54.5921 69.9123C54.9177 70.06 55.1818 70.1614 55.4459 70.276C55.974 70.4898 56.5087 70.7013 57.62 70.9239C57.8995 70.9724 58.1438 71.0165 58.3616 71.0562C58.5817 71.0848 58.7731 71.1091 58.9492 71.1311C59.2991 71.1862 59.5807 71.2038 59.8646 71.2281C60.0054 71.2391 60.1463 71.2523 60.2981 71.2655C60.4477 71.2744 60.6084 71.2722 60.7844 71.2744C60.9627 71.2744 61.1563 71.2744 61.3786 71.2744C61.6008 71.2633 61.8473 71.2413 62.1312 71.2193C63.2645 71.1069 63.8124 70.9195 64.3471 70.7212C64.6156 70.6264 64.8841 70.536 65.2142 70.4016C65.3792 70.3377 65.564 70.2738 65.7731 70.2032C65.8787 70.168 65.9888 70.1349 66.1076 70.093C66.2264 70.049 66.3541 70.0027 66.4905 69.952C66.7634 69.855 67.001 69.7713 67.2145 69.6963C67.4257 69.6192 67.6062 69.5421 67.7756 69.4781C68.1079 69.3459 68.3852 69.2578 68.6426 69.1387C68.9045 69.0241 69.1686 68.9161 69.4921 68.7663C69.6483 68.6847 69.8221 68.5944 70.018 68.4908C70.2138 68.3872 70.4361 68.2726 70.6715 68.1205C70.9092 67.9707 71.1249 67.8494 71.3075 67.7282C71.488 67.607 71.6486 67.499 71.7938 67.402C71.8665 67.3535 71.9369 67.3095 72.0029 67.2654C72.0667 67.2191 72.1283 67.1728 72.1877 67.1287C72.3066 67.0428 72.421 66.959 72.5332 66.8775C72.9755 66.5425 73.4245 66.2009 74.155 65.3656C74.2453 65.2598 74.3311 65.1628 74.4103 65.0681C74.4851 64.9711 74.5555 64.8785 74.6194 64.7926C74.7514 64.6207 74.8724 64.473 74.9692 64.3275C75.0705 64.1843 75.1607 64.0564 75.2465 63.9352C75.3323 63.814 75.4028 63.6928 75.4798 63.5738C75.7835 63.1021 76.0717 62.6151 76.5382 61.5572C76.6021 61.4227 76.6417 61.3059 76.6813 61.1957C76.7209 61.0855 76.7561 60.9819 76.7913 60.8828C76.8617 60.6888 76.8947 60.4927 76.9388 60.3296C77.0268 59.999 77.0488 59.7103 77.0928 59.4348C77.161 58.8728 77.2204 58.3086 77.3327 57.1625C77.4383 56.0143 77.4251 55.4302 77.4251 54.8506C77.4141 54.2709 77.4053 53.6891 77.3238 52.5386C77.2358 51.3882 77.1588 50.8284 77.0972 50.2642C77.007 49.7198 76.9586 49.1269 76.5691 48.1682C76.0915 47.02 75.8737 46.4888 75.6272 45.9511C75.5062 45.6844 75.3874 45.4177 75.2245 45.0959C75.0705 44.7675 74.868 44.3885 74.5973 43.886C74.4543 43.6413 74.3311 43.4276 74.2189 43.2358C74.1066 43.0463 73.9988 42.8876 73.9064 42.7377C73.8118 42.5901 73.7369 42.449 73.6511 42.3278C73.5675 42.2044 73.4883 42.0898 73.4091 41.9752C73.3298 41.8605 73.2506 41.7437 73.167 41.6225C73.0724 41.5079 72.9733 41.3867 72.8655 41.2523C72.7511 41.1222 72.6389 40.9635 72.4826 40.8137C72.3286 40.6616 72.1547 40.4941 71.9567 40.3002C71.752 40.1128 71.554 39.9762 71.3845 39.8417C71.2129 39.7095 71.0611 39.5993 70.9048 39.52C70.6011 39.3547 70.3613 39.2202 70.1082 39.1122C69.8485 39.0131 69.5933 38.9161 69.2852 38.7772C69.1312 38.7067 68.9485 38.656 68.7505 38.5789C68.5502 38.5062 68.3346 38.407 68.0793 38.3166C67.8174 38.2351 67.5908 38.1645 67.3861 38.1006C67.1815 38.0367 67.0076 37.975 66.8294 37.9419C66.4861 37.8648 66.2088 37.8009 65.9337 37.7392C65.6587 37.6731 65.377 37.6466 65.0293 37.5871C64.8555 37.5629 64.664 37.521 64.444 37.499C64.2239 37.4769 63.9774 37.4549 63.6958 37.4284C62.5669 37.3425 61.9969 37.3072 61.4248 37.2874C61.1387 37.2764 60.8526 37.2543 60.494 37.2764C60.1353 37.2962 59.704 37.3006 59.134 37.3888C58.8479 37.4284 58.5993 37.4615 58.377 37.4923C58.1548 37.532 57.9611 37.5695 57.7829 37.6003C57.6046 37.6312 57.4462 37.6598 57.2943 37.6863C57.1425 37.7149 57.0039 37.7502 56.863 37.7811C56.5814 37.8472 56.2975 37.9023 55.9476 37.9948C55.7738 38.0455 55.5823 38.1006 55.3645 38.1623C55.1466 38.2263 54.9023 38.2902 54.6295 38.3915C54.3544 38.4841 54.1145 38.5679 53.9011 38.6406C53.6854 38.7133 53.5028 38.7905 53.3333 38.8522C52.9944 38.9822 52.7194 39.0726 52.4531 39.1916C52.1846 39.304 51.9162 39.412 51.5839 39.5618C51.421 39.6412 51.2406 39.7293 51.0381 39.8285C50.8335 39.9277 50.6046 40.0401 50.3538 40.1856C49.566 40.6131 49.1259 40.7784 48.8112 40.7365C48.4987 40.6969 48.3315 40.4677 48.1444 40.1789C47.9574 39.8902 47.7857 39.6015 47.8715 39.2511C47.9596 38.9073 48.2962 38.4775 49.1611 38.0059C49.4361 37.845 49.687 37.7238 49.9115 37.6158C50.1359 37.5078 50.3318 37.413 50.51 37.3248C50.8731 37.164 51.1702 37.0471 51.4629 36.9281C51.7555 36.8025 52.057 36.7055 52.4289 36.5645C52.6159 36.4984 52.8162 36.4146 53.0517 36.3353C53.2871 36.2559 53.549 36.1656 53.8483 36.0642C54.1453 35.9562 54.4138 35.8835 54.6537 35.8195C54.8935 35.7578 55.1048 35.7005 55.2962 35.652C55.6813 35.5617 55.9982 35.5176 56.3107 35.4603C56.4669 35.4339 56.6232 35.4052 56.7882 35.381C56.9555 35.3589 57.1315 35.3325 57.3274 35.306C57.5232 35.2752 57.7367 35.2399 57.9809 35.2024C58.2252 35.1694 58.5003 35.1341 58.8149 35.0922C59.4399 34.9953 59.9152 34.9688 60.3091 34.9181C60.703 34.8652 61.0199 34.8476 61.339 34.8212C61.9727 34.7661 62.6153 34.7242 63.8916 34.8212C64.2107 34.8498 64.4902 34.8763 64.7388 34.9005C64.9875 34.9225 65.2054 34.9644 65.4034 34.9909C65.7995 35.0526 66.1208 35.0812 66.4355 35.1429C66.7502 35.2069 67.067 35.2708 67.4609 35.3523C67.6568 35.3876 67.8746 35.4559 68.1233 35.5308C68.3698 35.608 68.647 35.6939 68.9617 35.7909C69.2742 35.8989 69.5383 36.0267 69.7803 36.1237C70.018 36.2295 70.2336 36.3088 70.4185 36.4058C70.786 36.6064 71.0787 36.7672 71.3713 36.9281C71.9347 37.2874 72.5112 37.64 73.5235 38.5128C73.7633 38.7442 73.9746 38.9469 74.1616 39.1277C74.2563 39.2158 74.3399 39.3062 74.4147 39.3943C74.4917 39.4803 74.5621 39.5618 74.6304 39.6412C74.7668 39.7977 74.8878 39.9387 75.0045 40.071C75.1145 40.2076 75.2091 40.342 75.3081 40.4743C75.504 40.7387 75.7064 40.9988 75.9221 41.3448C76.0321 41.5167 76.162 41.7019 76.294 41.9179C76.4216 42.136 76.5668 42.3807 76.7297 42.6584C77.0378 43.2226 77.2534 43.6546 77.4075 44.0182C77.5703 44.3819 77.6803 44.6772 77.7882 44.9703C78.0082 45.5544 78.2085 46.1582 78.664 47.2514C78.7806 47.5467 78.895 47.8509 78.9831 48.0955C79.0579 48.3445 79.1239 48.5627 79.1855 48.7633C79.2933 49.16 79.3704 49.4752 79.4474 49.7903C79.5772 50.4207 79.7225 51.0532 79.8193 52.3161C79.9117 53.5767 79.9579 54.2092 80.0041 54.8396C80.0393 55.4721 80.09 56.109 79.9777 57.3807C79.8567 58.6546 79.6718 59.2849 79.4782 59.9086C79.4276 60.0651 79.3748 60.2216 79.322 60.3869C79.2735 60.5522 79.2097 60.7285 79.1393 60.9246C79.0667 61.1208 79.0051 61.3346 78.9082 61.5836C78.8598 61.707 78.807 61.8393 78.752 61.9781C78.697 62.117 78.642 62.2735 78.576 62.4123C78.0676 63.5738 77.8124 64.1777 77.5351 64.7749C77.4647 64.9248 77.3987 65.0747 77.3172 65.2311C77.2336 65.3854 77.1412 65.5485 77.0378 65.727C76.9365 65.9078 76.8067 66.0973 76.6549 66.3089C76.5779 66.4147 76.4964 66.5249 76.4106 66.6461C76.3182 66.7607 76.217 66.8797 76.1091 67.0075C75.2333 68.0169 74.6722 68.3982 74.1308 68.7707C73.9922 68.861 73.8558 68.9514 73.7083 69.0462C73.5631 69.1431 73.4112 69.2445 73.2352 69.3481C73.0614 69.4539 72.8743 69.5751 72.6631 69.714C72.4518 69.8528 72.2053 69.9895 71.9347 70.1614C71.7982 70.2451 71.6706 70.3289 71.5474 70.3972C71.4241 70.4655 71.3075 70.5294 71.1997 70.5911C70.9818 70.7146 70.7904 70.8226 70.6165 70.9217C70.2644 71.1069 69.9828 71.2545 69.7011 71.4044C69.4216 71.5609 69.1312 71.6843 68.7703 71.8474C68.5898 71.9267 68.3896 72.0171 68.1607 72.1096C67.9297 72.1934 67.67 72.2882 67.3729 72.3962C66.7876 72.6188 66.3122 72.7444 65.9337 72.8766C65.7423 72.9383 65.5729 73.0023 65.4078 73.0507C65.2428 73.097 65.0865 73.1411 64.9303 73.1852C64.3097 73.3659 63.676 73.54 62.3776 73.67C62.052 73.6965 61.7681 73.7163 61.5128 73.7251C61.2576 73.7207 61.0331 73.7141 60.8284 73.7031C60.6238 73.6921 60.4411 73.6811 60.2695 73.6634C60.0979 73.637 59.9372 73.6105 59.7744 73.5863C59.4531 73.5312 59.1318 73.4915 58.7335 73.41C58.5355 73.3747 58.3154 73.3372 58.0667 73.302C57.8203 73.2557 57.543 73.205 57.2283 73.1477C55.9696 72.8987 55.349 72.7378 54.7285 72.5769C54.4204 72.4887 54.1079 72.4138 53.7316 72.2771C53.3531 72.1515 52.9064 71.9774 52.3255 71.7218C51.7489 71.4595 51.3242 71.2589 50.9699 71.0936C50.7939 71.0099 50.6376 70.9372 50.488 70.8666C50.3406 70.8005 50.1755 70.7079 50.0237 70.6308C49.4119 70.3046 48.8156 69.9564 47.8231 69.0748C47.5679 68.8588 47.3786 68.6451 47.1938 68.4665C47.0089 68.2858 46.8615 68.1161 46.7295 67.9596C46.5974 67.8032 46.4808 67.6621 46.3686 67.5277C46.2607 67.391 46.1683 67.2566 46.0715 67.1265C45.88 66.8621 45.6864 66.602 45.4663 66.2626C45.3519 66.0951 45.2265 65.9122 45.0856 65.7028C44.9514 65.489 44.8018 65.251 44.6301 64.9777C44.4497 64.7088 44.3286 64.4554 44.2032 64.235C44.0844 64.0124 43.9743 63.8206 43.8907 63.6377C43.7235 63.2718 43.5981 62.9765 43.4704 62.6812C43.2438 62.0795 43.0083 61.4844 42.61 60.2701C42.4318 59.6574 42.2865 59.2012 42.1611 58.8221C42.0511 58.4386 41.9498 58.1323 41.8508 57.8259C41.7408 57.5196 41.6726 57.2066 41.5845 56.8143C41.5427 56.6181 41.4987 56.4 41.4547 56.1531C41.4217 55.9041 41.3975 55.622 41.3689 55.3002C41.3029 54.6566 41.3117 54.1718 41.3073 53.7684C41.3073 53.5657 41.3073 53.385 41.3073 53.2131C41.3183 53.0411 41.3271 52.8803 41.3381 52.7194C41.3623 52.3976 41.3733 52.0758 41.4107 51.6747C41.4327 51.4741 41.4591 51.2537 41.4877 51.0047C41.5185 50.7557 41.5383 50.4736 41.5977 50.1562C41.7034 49.5193 41.7826 49.0432 41.8904 48.6531C41.9916 48.263 42.0533 47.9456 42.1611 47.6393C42.2579 47.3307 42.3569 47.0244 42.4802 46.6387C42.5506 46.4492 42.6254 46.2398 42.7134 46.004C42.7992 45.7659 42.8917 45.4993 43.0237 45.2039C43.1513 44.9064 43.257 44.6441 43.367 44.4149C43.4836 44.1879 43.5849 43.9896 43.6795 43.8088C43.8599 43.4452 44.047 43.1719 44.2164 42.8942C44.3814 42.6143 44.5795 42.3476 44.815 42.0104C44.8744 41.9267 44.936 41.8385 45.002 41.7437C45.0746 41.6534 45.1494 41.5564 45.2309 41.455C45.3959 41.2523 45.561 41.0164 45.7986 40.7696C45.9769 40.5779 46.1309 40.4059 46.2893 40.2715C46.4522 40.1393 46.5996 40.0313 46.7338 39.9453C46.7999 39.9035 46.8637 39.866 46.9231 39.8329C46.9869 39.8021 47.0485 39.78 47.1057 39.7602C47.2224 39.7227 47.3236 39.7029 47.4138 39.6985C47.7747 39.6809 47.9508 39.9057 48.1378 40.1944C48.3249 40.4809 48.4415 40.7277 48.3601 41.012C48.3403 41.0826 48.3073 41.1553 48.261 41.2324C48.2368 41.2721 48.2104 41.3074 48.1796 41.3514C48.151 41.3977 48.118 41.4462 48.0828 41.4947C48.0102 41.5939 47.92 41.6997 47.8099 41.8143C47.7021 41.9311 47.5877 42.0809 47.4446 42.233L47.449 42.2176Z" fill="#141413"/>
<path d="M76.4063 70.6951C76.9814 70.2073 77.5565 69.7195 78.1315 69.2317C78.565 68.8702 78.7499 68.6476 78.9325 68.425C79.025 68.3148 79.1152 68.2024 79.2384 68.0746C79.2538 68.0592 79.2692 68.0415 79.2868 68.0261L79.311 67.9997L79.3638 67.9512C79.4365 67.8851 79.5135 67.8167 79.5949 67.744C79.7599 67.6007 79.9448 67.431 80.1649 67.2635C80.3321 67.1467 80.4927 67.0674 80.6292 67.0299C80.77 66.9836 80.8822 66.9682 81.0033 66.9594C81.2453 66.944 81.4698 66.9903 81.6458 67.063C81.8285 67.1379 81.9473 67.2283 82.0837 67.3473C82.218 67.4641 82.3588 67.6096 82.5041 67.8167C82.5965 67.9512 82.6977 68.0922 82.8165 68.2487C82.8759 68.3258 82.9398 68.4074 83.0058 68.4933C83.0498 68.5484 83.096 68.6079 83.1466 68.6697C83.6293 69.25 84.1112 69.8297 84.5924 70.4086C85.3098 71.2835 85.4242 71.1888 86.1416 72.0637C86.859 72.9387 86.7599 73.0202 87.4773 73.8952C88.1947 74.7702 88.2299 74.7415 88.9473 75.6165C89.6647 76.4914 89.7923 76.3857 90.5097 77.2606C91.2271 78.1356 91.1853 78.1709 91.9026 79.0458C92.62 79.9208 92.5386 79.9891 93.2538 80.8641C93.9712 81.739 94.112 81.6244 94.8272 82.4994C95.5446 83.3744 95.4543 83.4471 96.1717 84.3221C96.8891 85.197 96.7857 85.2808 97.5031 86.1557C98.2204 87.0307 98.4163 86.8698 99.1337 87.7448C99.8511 88.6197 99.7586 88.6969 100.476 89.5718C101.193 90.4468 101.088 90.535 101.805 91.4099C102.523 92.2849 102.688 92.1483 103.405 93.0232C104.122 93.8982 104.012 93.9863 104.73 94.8613C104.855 95.0156 105.181 95.4035 105.385 95.6371C105.61 95.8839 105.751 96.0999 105.834 96.3071C105.878 96.4129 105.914 96.5054 105.936 96.6245C105.96 96.7413 105.971 96.8779 105.96 97.0278C105.949 97.1776 105.914 97.3429 105.85 97.4972C105.786 97.6471 105.691 97.8256 105.52 98.0173C105.458 98.0901 105.379 98.154 105.35 98.1826C105.165 98.3369 105 98.4714 104.851 98.5904C104.776 98.6499 104.706 98.705 104.637 98.7557C104.587 98.7931 104.56 98.8086 104.523 98.835C104.386 98.9254 104.265 98.9937 104.147 99.062C103.907 99.2009 103.66 99.3463 103.251 99.6968C102.393 100.431 102.531 100.596 101.673 101.332C100.815 102.068 100.683 101.914 99.8247 102.65C99.2481 103.135 98.6708 103.621 98.0928 104.107C97.6637 104.475 97.4547 104.664 97.2456 104.856C97.0674 105.013 96.8913 105.171 96.6691 105.367C96.5502 105.469 96.4204 105.594 96.2642 105.687C96.1079 105.782 95.9341 105.861 95.747 105.912C95.5468 105.965 95.3289 105.963 95.1551 105.927C94.9768 105.892 94.8426 105.83 94.7348 105.766C94.5147 105.636 94.3277 105.475 94.1648 105.262C94.024 105.074 93.8765 104.883 93.6917 104.638C93.5773 104.488 93.4386 104.31 93.256 104.072C92.5584 103.181 92.4484 103.267 91.753 102.375C91.0554 101.482 91.1633 101.4 90.4657 100.508C89.7681 99.6174 89.6229 99.732 88.9253 98.8394C88.2277 97.9468 88.1111 98.0394 87.4135 97.149C86.7159 96.2564 86.7863 96.2035 86.0888 95.3109C85.3912 94.4183 85.411 94.4051 84.7134 93.5125C84.0158 92.6199 84.1721 92.4987 83.4767 91.6061C82.7791 90.7135 82.7527 90.7355 82.0551 89.8451C81.3576 88.9525 81.1749 89.0958 80.4773 88.2054C79.7797 87.3128 79.925 87.2004 79.2274 86.3078C78.5298 85.4152 78.4858 85.4505 77.7882 84.5601C77.0907 83.6697 77.1941 83.5881 76.4965 82.6977C75.7989 81.8052 75.7285 81.8625 75.0309 80.9699C74.3334 80.0773 74.4412 79.9935 73.7436 79.1009C73.046 78.2083 72.9536 78.2833 72.256 77.3907C71.9964 77.0535 71.8005 76.8 71.6377 76.5906C71.4308 76.3372 71.3076 76.119 71.2416 75.9118C71.2042 75.8082 71.1822 75.7113 71.1624 75.6055C71.1448 75.4975 71.136 75.3718 71.1514 75.2308C71.1646 75.0897 71.202 74.9288 71.2702 74.7768C71.3384 74.6291 71.4286 74.4859 71.5805 74.3118C71.7323 74.1376 71.9216 74.0076 72.0822 73.8908C72.245 73.774 72.3859 73.6704 72.5157 73.5756C72.6807 73.4522 72.8106 73.3552 72.9426 73.2583C73.1693 73.0886 73.3937 72.9167 73.8536 72.5883C74.0825 72.423 74.2519 72.2929 74.3884 72.1805C74.4214 72.1519 74.4544 72.1254 74.4852 72.099L74.5292 72.0593C74.5292 72.0593 74.5336 72.0527 74.5358 72.0483C74.5402 72.0351 74.5424 72.0241 74.5424 72.013C74.5468 71.969 74.5314 71.9403 74.5644 71.9161C74.5688 71.9117 74.5754 71.9095 74.582 71.9073C74.5754 71.883 74.6172 71.8588 74.6348 71.8103C74.6436 71.786 74.648 71.7596 74.637 71.7243C74.6348 71.7155 74.6326 71.7067 74.6282 71.6979C74.6304 71.6979 74.6128 71.678 74.5974 71.6582C74.582 71.6384 74.5644 71.6185 74.549 71.5987C74.4808 71.5194 74.406 71.4312 74.3158 71.3342C73.5522 70.4967 73.5808 70.4703 72.8172 69.6328C72.2274 68.987 72.3969 68.6146 72.903 68.1495C73.4091 67.6867 73.8624 67.4883 74.4522 68.1341C75.2158 68.9694 75.1718 69.0091 75.9354 69.8444C77.0357 71.0609 77.1259 71.1601 78.1359 72.2753C78.1249 72.2841 78.0017 72.3701 77.8697 72.4671C77.0687 73.0423 76.7122 73.353 76.3271 73.6858C76.2303 73.7696 76.1312 73.8533 76.0278 73.9415C76.0014 73.9635 75.975 73.9856 75.9464 74.0098L75.898 74.0539C75.8672 74.0803 75.8363 74.109 75.8033 74.1398C75.6691 74.2567 75.5041 74.3889 75.2752 74.5542C74.8153 74.8848 74.5622 75.0126 74.307 75.1426C74.2431 75.1757 74.1793 75.2088 74.1133 75.244C74.0803 75.2616 74.0451 75.2815 74.0099 75.2991C73.9967 75.3057 73.9659 75.3256 73.9659 75.3234L73.9505 75.3278C73.9087 75.3388 73.858 75.3608 73.8008 75.4005C73.7744 75.4203 73.7524 75.438 73.7436 75.46C73.7348 75.482 73.7436 75.5063 73.7612 75.5283C73.7964 75.5724 73.8646 75.59 73.9197 75.6011C73.9747 75.6121 74.0231 75.6143 74.0561 75.6121C74.0671 75.6121 74.0803 75.6121 74.0957 75.6099H74.1023C74.1023 75.6099 74.1001 75.6033 74.1111 75.6165L74.1419 75.6517C74.1815 75.7002 74.2233 75.7509 74.2673 75.806C74.9649 76.6964 74.9253 76.7273 75.6229 77.6177C76.3205 78.5081 76.2104 78.594 76.908 79.4844C77.6056 80.3748 77.5792 80.3968 78.2746 81.2872C78.9722 82.1798 78.9501 82.1952 79.6477 83.0878C80.3453 83.9782 80.2837 84.0267 80.9813 84.9171C81.6788 85.8097 81.7162 85.7789 82.4138 86.6715C83.1114 87.5618 83.1378 87.542 83.8354 88.4324C84.533 89.3228 84.6628 89.2214 85.3604 90.1118C86.058 91.0044 86.1152 90.9581 86.8127 91.8485C87.5103 92.7389 87.4641 92.7764 88.1617 93.6668C88.8593 94.5594 88.8263 94.5836 89.5238 95.4762C90.2192 96.3666 90.1532 96.4195 90.8486 97.3121C91.5439 98.2025 91.5946 98.165 92.2899 99.0554C92.9875 99.9458 92.9281 99.9921 93.6257 100.882C94.0937 101.473 94.5624 102.065 95.0318 102.657C95.1199 102.765 95.1947 102.862 95.2629 102.948C95.2981 102.989 95.3311 103.029 95.3619 103.067C95.3773 103.084 95.3927 103.104 95.4081 103.122C95.4125 103.126 95.4147 103.126 95.4169 103.128C95.4389 103.144 95.4587 103.148 95.4764 103.153C95.494 103.155 95.5094 103.155 95.5248 103.159C95.538 103.164 95.56 103.168 95.5842 103.153C95.604 103.137 95.6194 103.137 95.6414 103.139C95.6546 103.142 95.6656 103.144 95.6766 103.146L95.6964 103.15C95.7074 103.148 95.6986 103.164 95.7404 103.135C95.9847 102.985 96.2289 102.835 96.6581 102.467C97.5185 101.731 97.3204 101.5 98.1786 100.766C98.7537 100.278 99.3281 99.79 99.9017 99.3022C100.475 98.8144 101.049 98.3252 101.623 97.8344C102.256 97.2878 102.285 97.2636 102.89 96.7413C102.89 96.7413 102.989 96.7523 103.046 96.717C103.077 96.7016 103.099 96.6773 103.106 96.6465C103.108 96.6311 103.106 96.6112 103.099 96.5914L103.092 96.576L103.088 96.5694L103.062 96.5341C103.022 96.4856 102.982 96.4327 102.938 96.3776C102.221 95.5027 102.175 95.5401 101.457 94.6652C100.74 93.7902 100.648 93.8651 99.9303 92.9902C99.2129 92.1152 99.1623 92.1571 98.4449 91.2821C97.7275 90.4071 97.9872 90.1934 97.2698 89.3184C96.5524 88.4434 96.449 88.5294 95.7294 87.6522C95.012 86.7772 94.9416 86.8345 94.2242 85.9596C93.5068 85.0846 93.5399 85.0582 92.8203 84.1832C92.1029 83.3082 91.9995 83.3942 91.2821 82.517C90.5647 81.6421 90.765 81.4768 90.0476 80.6018C89.3302 79.7268 89.2246 79.8128 88.5072 78.9378C87.7898 78.0629 87.6754 78.1554 86.958 77.2805C86.4753 76.7001 85.9927 76.1197 85.51 75.5393C85.0318 74.956 84.5528 74.3727 84.073 73.7894C83.3557 72.9145 83.5493 72.7536 82.8319 71.8786C82.1146 71.0036 82.1586 70.9684 81.4412 70.0934C81.4148 70.0603 81.3884 70.0295 81.3642 70.0008C81.3509 69.9854 81.3377 69.97 81.3245 69.9546C81.3135 69.9435 81.3047 69.9347 81.2959 69.9259C81.2783 69.9105 81.2651 69.8995 81.2541 69.8973C81.2079 69.8686 81.1859 69.851 81.1463 69.851C81.1023 69.851 81.0693 69.8973 81.0253 69.9347C80.7898 70.1551 80.671 70.2653 80.5521 70.3755C80.3453 70.5695 80.1406 70.7656 79.7049 71.1293C78.8357 71.8544 78.7499 71.753 77.8785 72.4781C77.2073 73.0379 76.9652 72.639 76.5273 72.11C76.0894 71.5833 75.7307 71.2615 76.4019 70.7017L76.4063 70.6951Z" fill="#141413"/>
<path d="M63.346 63.0407C63.346 50.4562 63.5176 50.4562 63.5176 37.8717C63.5381 29.4776 63.558 21.0842 63.577 12.6916C63.577 12.6343 63.577 12.577 63.577 12.5197C63.577 12.4911 63.5726 12.4646 63.5616 12.4404C63.5396 12.3897 63.4912 12.3544 63.4406 12.3456C63.4142 12.3412 63.39 12.3412 63.3636 12.339C63.2645 12.3346 63.1655 12.3302 63.0665 12.3236C62.809 12.3104 62.5582 12.2993 62.3117 12.2861C61.3303 12.2398 60.4412 12.198 59.627 12.1583C58.0228 12.09 56.7113 12.0349 55.545 11.9864C51.2715 12.0833 48.3073 12.1825 40.4953 12.2663C32.1156 12.3794 23.7359 12.4925 15.3561 12.6057C14.4363 12.6145 13.5825 12.6211 12.7947 12.6277H12.59C12.59 12.6277 12.5878 12.6277 12.5856 12.6277C12.5812 12.6277 12.579 12.6277 12.5768 12.6321C12.5592 13.5754 12.5438 14.4239 12.5284 15.2063C12.5086 16.046 12.491 16.8152 12.4734 17.5447C12.4316 19.0015 12.3964 20.2952 12.3568 21.6705C12.2798 24.421 12.2049 27.4999 12.1631 32.8753C12.0619 45.4598 12.1477 45.4598 12.0465 58.0421C12.0025 64.0876 11.9673 67.2326 11.9739 70.3159C12.0091 71.8543 12.0421 73.3794 12.0839 75.2439C12.1037 76.1762 12.1257 77.1922 12.1499 78.3405C12.1609 78.9135 12.1741 79.5196 12.1873 80.1631C12.1873 80.2072 12.1873 80.2513 12.1895 80.2954C12.1895 80.3152 12.1961 80.335 12.2093 80.3527C12.2313 80.3879 12.2776 80.4033 12.3194 80.3989C12.3348 80.3989 12.7331 80.3989 13.149 80.3989C25.734 80.4166 25.734 80.5312 38.3212 80.54C44.6148 80.5179 47.7594 80.4783 50.9062 80.4386C52.4796 80.421 54.053 80.4033 56.0181 80.3813C57.9524 80.3703 60.2718 80.3549 63.3636 80.3372C63.4428 80.3527 63.511 80.2843 63.5022 80.2138C63.5132 79.7973 63.5242 79.4028 63.533 79.0303C63.5462 78.6027 63.5616 78.1994 63.5726 77.8181C63.6012 77.0578 63.6364 76.3878 63.6738 75.8015C63.7509 74.6268 63.8433 73.7761 63.9511 73.1634C64.1668 71.9402 64.4352 71.6735 64.7345 71.6779C65.0338 71.6823 65.2781 71.9556 65.4431 73.181C65.5267 73.7937 65.5883 74.6466 65.6279 75.8235C65.6477 76.412 65.661 77.082 65.6698 77.8424C65.672 78.2236 65.6742 78.627 65.6764 79.0545C65.6764 79.5328 65.6742 80.0375 65.672 80.5708C65.6698 81.0778 65.4849 81.578 65.1108 81.9571C64.7345 82.334 64.2064 82.55 63.6122 82.5279C61.997 82.5368 60.5843 82.5456 59.3233 82.5522C58.0954 82.5654 57.0172 82.5786 56.0335 82.5897C54.0706 82.6249 52.4994 82.6558 50.9282 82.6844C47.7858 82.7505 44.6456 82.8167 38.3608 82.8409C25.789 82.8343 25.789 82.5764 13.2172 82.5588C12.601 82.5588 12.0135 82.5588 11.9871 82.5566C11.3511 82.561 10.7768 82.2657 10.4291 81.8006C10.2552 81.5692 10.1364 81.3026 10.0814 81.0271C10.0506 80.8904 10.0418 80.745 10.0374 80.5995C10.0352 80.4717 10.033 80.346 10.0308 80.2226C10.0176 79.5813 10.0066 78.9774 9.99557 78.4066C9.97357 77.2627 9.95596 76.2489 9.93836 75.3188C9.90755 73.4587 9.88114 71.9336 9.85474 70.393C9.86354 67.3141 9.91855 64.1713 9.96036 58.1457C10.0616 45.5524 9.79312 45.5524 9.89215 32.9591C9.93396 27.6432 9.99557 24.5687 10.0594 21.7961C10.0924 20.4098 10.121 19.0985 10.1562 17.6174C10.1716 16.8769 10.187 16.0945 10.2024 15.2416C10.2156 14.338 10.231 13.3572 10.2464 12.2707C10.2508 12.0327 10.2882 11.7924 10.3829 11.5522C10.4731 11.312 10.6227 11.0784 10.823 10.8734C11.0276 10.6728 11.2851 10.5053 11.5866 10.4084C11.7362 10.3599 11.8947 10.329 12.0619 10.3158C12.2269 10.3026 12.4162 10.307 12.5768 10.3048C13.3646 10.2982 14.2691 10.2893 15.2483 10.2805C23.6266 10.1982 32.0048 10.116 40.3831 10.0337C47.9596 9.94332 50.9722 9.90806 55.534 9.85516C56.544 9.90585 57.8138 9.96756 59.4642 10.0491C60.2762 10.091 61.185 10.1373 62.1995 10.188C62.4525 10.2012 62.7144 10.2144 62.9829 10.2276C63.1171 10.2342 63.2535 10.2409 63.39 10.2497C63.4978 10.2563 63.6078 10.2607 63.7179 10.2673C63.8433 10.2761 63.9709 10.2827 64.092 10.3092C64.5761 10.3995 65.0316 10.6838 65.3243 11.1092C65.4695 11.323 65.5773 11.5654 65.6279 11.8255C65.6588 11.9533 65.6654 12.09 65.6698 12.231C65.6698 12.3632 65.6698 12.4955 65.6698 12.6277C65.6698 25.2343 65.8568 25.2343 65.8568 37.8408C65.8744 46.2452 65.892 54.6495 65.9096 63.0539C65.9096 72.3634 65.2561 71.7947 64.6157 71.7947C63.9753 71.7947 63.346 72.3612 63.346 63.0539V63.0407Z" fill="#141413"/>
<path d="M55.5871 23.663C53.7167 23.663 53.7167 23.4911 51.8462 23.4911C49.9757 23.4911 49.9757 23.4316 48.1052 23.4316C46.2348 23.4316 46.2348 23.6079 44.3643 23.6079C42.4938 23.6079 42.4938 23.6806 40.6233 23.6806C38.7529 23.6806 38.7529 23.414 36.8802 23.414C35.0075 23.414 35.0097 23.4977 33.1392 23.4977C31.2687 23.4977 31.2665 23.5264 29.3961 23.5264C27.5256 23.5264 27.5234 23.4184 25.6485 23.4184C23.7736 23.4184 23.7758 23.5286 21.901 23.5286C20.5168 23.5286 20.332 23.0305 20.332 22.3891C20.332 21.7478 20.5168 21.3378 21.901 21.3378C23.7714 21.3378 23.7714 21.1174 25.6419 21.1174C27.5124 21.1174 27.5124 21.3643 29.3829 21.3643C31.2533 21.3643 31.2533 21.4084 33.1238 21.4084C34.9943 21.4084 34.9943 21.1395 36.8648 21.1395C38.7352 21.1395 38.7352 21.3422 40.6079 21.3422C42.4806 21.3422 42.4784 21.3621 44.3489 21.3621C46.2194 21.3621 46.2216 21.3334 48.092 21.3334C49.9625 21.3334 49.9647 21.1461 51.8396 21.1461C53.7145 21.1461 53.7123 21.0932 55.5871 21.0932C56.9713 21.0932 56.8855 21.7478 56.8855 22.3891C56.8855 23.0305 56.9691 23.6608 55.5871 23.6608V23.663Z" fill="#141413"/>
<path d="M52.2045 38.8458C50.5189 38.8524 50.5189 38.6805 48.831 38.6871C47.1432 38.6937 47.1432 38.632 45.4576 38.6386C43.7719 38.6453 43.7719 38.8216 42.0841 38.826C40.3963 38.8326 40.3985 38.9053 38.7107 38.9119C37.0228 38.9185 37.0228 38.6519 35.335 38.6563C33.6494 38.6629 33.6494 38.7466 31.9637 38.7532C30.2759 38.7599 30.2759 38.7885 28.5881 38.7951C26.9003 38.8017 26.8981 38.6937 25.2102 38.7004C23.5224 38.707 23.5224 38.8172 21.8324 38.8238C20.5846 38.8282 20.4152 38.3301 20.413 37.6887C20.4108 37.0474 20.5758 36.6353 21.8236 36.6309C23.5092 36.6242 23.5092 36.4061 25.1948 36.3994C26.8804 36.3928 26.8827 36.6397 28.5683 36.6353C30.2561 36.6286 30.2561 36.6727 31.9417 36.6661C33.6274 36.6595 33.6274 36.3906 35.3152 36.384C37.003 36.3774 37.003 36.5802 38.6909 36.5736C40.3765 36.5669 40.3765 36.5868 42.0643 36.5824C43.7521 36.5758 43.7521 36.5471 45.44 36.5405C47.1278 36.5339 47.1278 36.3487 48.8178 36.3421C50.5057 36.3355 50.5057 36.2826 52.1957 36.276C53.4434 36.2716 53.3686 36.9262 53.3708 37.5675C53.373 38.2089 53.4522 38.8392 52.2045 38.8436V38.8458Z" fill="#141413"/>
<path d="M41.9171 54.26C40.7772 54.26 40.7772 54.0881 39.6351 54.0881C38.493 54.0881 38.493 54.0286 37.3531 54.0286C36.2132 54.0286 36.211 54.2049 35.0711 54.2049C33.9312 54.2049 33.929 54.2776 32.7891 54.2776C31.6492 54.2776 31.647 54.011 30.5072 54.011C29.3673 54.011 29.3673 54.0947 28.2252 54.0947C27.0831 54.0947 27.0831 54.1234 25.941 54.1234C24.7989 54.1234 24.7989 54.0154 23.6568 54.0154C22.5147 54.0154 22.5147 54.1256 21.3726 54.1256C20.5298 54.1256 20.4154 53.6275 20.4154 52.9861C20.4154 52.3448 20.5276 51.9349 21.3726 51.9349C22.5125 51.9349 22.5125 51.7145 23.6546 51.7145C24.7967 51.7145 24.7967 51.9613 25.9366 51.9613C27.0765 51.9613 27.0787 52.0054 28.2186 52.0054C29.3585 52.0054 29.3607 51.7365 30.5006 51.7365C31.6404 51.7365 31.6426 51.9393 32.7825 51.9393C33.9224 51.9393 33.9224 51.9591 35.0645 51.9591C36.2066 51.9591 36.2066 51.9304 37.3487 51.9304C38.4908 51.9304 38.4908 51.7431 39.6329 51.7431C40.775 51.7431 40.775 51.6902 41.9171 51.6902C42.7599 51.6902 42.7093 52.3448 42.7093 52.9861C42.7093 53.6275 42.7599 54.2578 41.9171 54.2578V54.26Z" fill="#141413"/>
<path d="M47.2292 69.5599C45.8076 69.5599 45.8077 69.388 44.3839 69.388C42.9601 69.388 42.9601 69.3285 41.5386 69.3285C40.117 69.3285 40.1148 69.5048 38.6932 69.5048C37.2717 69.5048 37.2695 69.5775 35.8479 69.5775C34.4264 69.5775 34.4242 69.3109 33.0004 69.3109C31.5766 69.3109 31.5788 69.3946 30.1551 69.3946C28.7313 69.3946 28.7313 69.4233 27.3075 69.4233C25.8838 69.4233 25.8838 69.3153 24.4578 69.3153C23.0319 69.3153 23.0341 69.4255 21.6081 69.4255C20.5562 69.4255 20.4154 68.9274 20.4154 68.286C20.4154 67.6447 20.5562 67.2348 21.6081 67.2348C23.0297 67.2348 23.0297 67.0144 24.4534 67.0144C25.8772 67.0144 25.8772 67.2612 27.2987 67.2612C28.7203 67.2612 28.7225 67.3053 30.1441 67.3053C31.5656 67.3053 31.5678 67.0364 32.9894 67.0364C34.411 67.0364 34.4132 67.2392 35.8369 67.2392C37.2607 67.2392 37.2585 67.259 38.6822 67.259C40.106 67.259 40.106 67.2304 41.5298 67.2304C42.9535 67.2304 42.9535 67.043 44.3795 67.043C45.8055 67.043 45.8032 66.9901 47.2292 66.9901C48.2811 66.9901 48.2173 67.6447 48.2173 68.286C48.2173 68.9274 48.2811 69.5577 47.2292 69.5577V69.5599Z" fill="#141413"/>
</svg>
