<svg width="115" height="115" viewBox="0 0 115 115" fill="none" xmlns="http://www.w3.org/2000/svg">
<g clip-path="url(#clip0_1204_3374)">
<path d="M35.889 66.8896H17.0596V32.6078L51.3251 33.0478V59.0617C51.3251 59.0617 49.48 57.0662 47.2808 57.0662C45.0816 57.0662 44.6154 61.2222 44.6154 61.2222C44.6154 61.2222 42.8824 57.7262 39.1438 57.7262C35.4052 57.7262 36.2123 62.9294 36.2123 62.9294L35.8868 66.8896H35.889Z" fill="#E3DACC"/>
<path d="M66.0284 85.6495C66.3017 86.1375 66.6256 86.5218 66.8813 86.8817C67.0201 87.0562 67.1678 87.2085 67.2956 87.3609C67.43 87.5088 67.5446 87.659 67.6746 87.7849C67.9325 88.041 68.166 88.2707 68.3842 88.4871C68.62 88.6903 68.8426 88.8824 69.0652 89.0745L69.2327 89.218C69.2922 89.2622 69.3517 89.3064 69.4112 89.3505C69.5324 89.4411 69.6536 89.5316 69.7814 89.6243C69.9092 89.7171 70.037 89.8165 70.1759 89.9136C70.3191 90.0042 70.469 90.0969 70.6276 90.1963C70.7863 90.2956 70.9516 90.3972 71.1279 90.5076C71.3086 90.6092 71.5047 90.7086 71.7119 90.8168C71.9212 90.9206 72.135 91.0486 72.3774 91.1524C72.6198 91.2584 72.8777 91.371 73.1531 91.4903C73.4242 91.6184 73.6975 91.6979 73.9443 91.7928C74.1955 91.8812 74.4247 91.9739 74.6495 92.0446C75.1013 92.1748 75.4957 92.3007 75.8572 92.4001C76.223 92.4862 76.5535 92.5657 76.8643 92.6386C77.175 92.7181 77.4747 92.7512 77.77 92.8086C78.3606 92.9301 78.9622 92.9764 79.7115 93.0537C80.0884 93.0692 80.5005 93.0846 80.9721 93.1045C81.2079 93.1001 81.4591 93.0935 81.7257 93.0868C81.858 93.0846 81.9968 93.0802 82.1379 93.078C82.2789 93.067 82.4221 93.0537 82.572 93.0427C82.8695 93.014 83.1538 93.0051 83.4116 92.961C83.6695 92.9212 83.9141 92.8837 84.1433 92.8484C84.3747 92.8196 84.5796 92.7534 84.7801 92.7114C84.9785 92.6629 85.168 92.6231 85.3443 92.5723C85.6925 92.4575 86.0054 92.3581 86.2985 92.2521C86.5828 92.1307 86.8517 92.0158 87.1183 91.8988C87.3806 91.7729 87.634 91.6272 87.9095 91.4881C88.0483 91.4218 88.1828 91.3357 88.326 91.2474C88.467 91.1613 88.6169 91.0707 88.7712 90.9736C88.9298 90.8852 89.0863 90.7704 89.2538 90.6512C89.4213 90.5341 89.5976 90.4105 89.7871 90.2802C89.9722 90.1433 90.1617 89.9843 90.3689 89.8253C90.4725 89.7436 90.5782 89.6619 90.6884 89.5758C90.7986 89.4896 90.9044 89.3881 91.0168 89.2909C91.2416 89.0922 91.4531 88.9067 91.6515 88.7322C91.841 88.5445 92.0195 88.3678 92.1892 88.2022C92.5308 87.8776 92.8106 87.5618 93.0685 87.2814C93.5908 86.7293 93.9698 86.2369 94.3687 85.771C94.7521 85.2852 95.1378 84.8038 95.6072 84.1855C95.8408 83.8741 96.0964 83.5318 96.3895 83.1432C96.5306 82.9511 96.665 82.7523 96.8171 82.5403C96.9691 82.3283 97.1058 82.0921 97.2666 81.8469C97.8793 80.8488 98.2363 80.0605 98.5029 79.3936C98.7608 78.7245 98.9459 78.1791 99.0803 77.6182C99.2125 77.0573 99.3227 76.4876 99.3646 75.7588C99.4043 75.0301 99.3778 74.1446 99.1663 72.9676C98.9459 71.7906 98.6748 70.914 98.439 70.1853C98.1966 69.4565 97.9762 68.8736 97.7537 68.2884C97.5245 67.6966 97.2975 67.1048 97.0132 66.365C96.8722 65.9896 96.7179 65.5723 96.5548 65.0865C96.5151 64.965 96.4733 64.8391 96.4292 64.7111C96.3917 64.6073 96.3521 64.5013 96.3102 64.3909C96.2749 64.2805 96.2198 64.1722 96.167 64.0596C96.1141 63.947 96.0634 63.8278 95.9929 63.7107C95.7416 63.2315 95.4419 62.8363 95.1665 62.4918C94.8844 62.1495 94.6133 61.8602 94.3511 61.6085C93.8288 61.1028 93.3682 60.7318 92.89 60.3807C92.4118 60.0296 91.9159 59.694 91.268 59.3163C90.6201 58.9365 89.8223 58.5081 88.7161 58.0245C87.6032 57.552 86.7415 57.2649 86.0231 57.0485C85.3024 56.8365 84.7207 56.6863 84.1389 56.5759C83.5571 56.4655 82.9709 56.3728 82.2569 56.3485C81.8954 56.3308 81.5186 56.3485 81.0889 56.3926C80.5996 56.4567 80.0509 56.5296 79.425 56.6113C78.1843 56.7835 77.2698 56.9469 76.5139 57.1081C76.1348 57.1854 75.7976 57.2627 75.4803 57.3444C75.3216 57.3841 75.1674 57.4217 75.0153 57.4592C74.8655 57.5012 74.7178 57.5431 74.5702 57.5851C74.2749 57.6668 73.9796 57.7485 73.6732 57.8501C73.3647 57.9472 73.0363 58.0466 72.6815 58.1769C72.503 58.2387 72.3157 58.305 72.1174 58.3756C71.9234 58.4529 71.7163 58.5346 71.4981 58.6207C71.3879 58.6649 71.2755 58.7091 71.161 58.7532C71.0464 58.8018 70.9318 58.857 70.8106 58.91C70.5726 59.0226 70.3081 59.1264 70.0459 59.2656C69.2591 59.6586 68.6619 59.9876 68.1859 60.2372C67.9523 60.3675 67.7429 60.4712 67.5578 60.553C67.3661 60.6302 67.2206 60.7119 67.0774 60.7583C66.5176 60.9549 66.2267 60.8246 66.013 60.5861C65.7992 60.3454 65.7177 60.0716 66.0857 59.5283C66.1805 59.398 66.2929 59.2302 66.4581 59.0779C66.6212 58.9189 66.8173 58.7444 67.0554 58.5479C67.5358 58.1681 68.1925 57.7375 69.0762 57.2958C69.3737 57.1412 69.6624 57.0242 69.9268 56.8983C70.0613 56.8387 70.1913 56.7791 70.3169 56.7217C70.4447 56.6709 70.5681 56.6201 70.6871 56.5715C70.9274 56.4743 71.1521 56.3838 71.3659 56.2977C71.5819 56.2204 71.7846 56.1453 71.9785 56.0747C72.3642 55.9267 72.7168 55.8163 73.0474 55.7037C73.3779 55.5888 73.6931 55.4939 74.006 55.4011C74.1625 55.3548 74.3211 55.3062 74.4798 55.2576C74.6407 55.2157 74.8038 55.1715 74.9712 55.1273C75.3062 55.0368 75.6632 54.9463 76.0621 54.8623C76.8577 54.6813 77.8163 54.5068 79.0901 54.3279C79.7269 54.2396 80.2779 54.1712 80.7671 54.1137C81.3291 54.0541 81.8403 54.0343 82.2767 54.063C83.1582 54.1049 83.8303 54.2264 84.4937 54.3677C85.1548 54.509 85.8005 54.6901 86.5938 54.9352C87.385 55.1847 88.3238 55.5071 89.5403 56.0217C90.7523 56.545 91.625 57.022 92.3368 57.446C93.0486 57.87 93.5974 58.2498 94.1329 58.6517C94.6684 59.0536 95.1863 59.4842 95.7945 60.0782C95.9488 60.2239 96.103 60.3873 96.2639 60.5618C96.4292 60.7318 96.5923 60.9284 96.7642 61.1359C97.1035 61.5555 97.4716 62.0479 97.811 62.6773C97.9013 62.8296 97.9784 62.9864 98.0468 63.1432C98.1173 63.2978 98.1944 63.4435 98.2451 63.5959C98.3024 63.7483 98.3575 63.894 98.4104 64.0353C98.4522 64.1568 98.4919 64.2738 98.5316 64.3864C98.6903 64.8391 98.8445 65.2388 98.99 65.6032C99.2831 66.3297 99.5387 66.9127 99.7899 67.5045C100.041 68.0963 100.292 68.6925 100.568 69.4654C100.839 70.2405 101.145 71.19 101.399 72.5238C101.639 73.862 101.685 74.9043 101.65 75.7699C101.612 76.6355 101.5 77.3267 101.357 78.0024C101.209 78.6803 101.009 79.3428 100.709 80.1466C100.405 80.9482 99.9839 81.8867 99.2831 83.0394C99.1002 83.322 98.9371 83.5914 98.7674 83.8344C98.5955 84.075 98.4368 84.3003 98.2848 84.5123C97.9806 84.912 97.7118 85.2631 97.4672 85.5833C96.9757 86.2214 96.5592 86.7161 96.1515 87.2174C95.9378 87.4625 95.7262 87.7076 95.4992 87.9682C95.3868 88.0984 95.27 88.2309 95.1466 88.3723C95.0188 88.5092 94.8866 88.6505 94.7477 88.7985C94.4679 89.0966 94.1682 89.4278 93.7957 89.7833C93.6128 89.9622 93.4167 90.1521 93.2095 90.3553C92.9935 90.5518 92.7577 90.7549 92.5109 90.9736C92.3853 91.0818 92.2663 91.1878 92.1473 91.2916C92.0239 91.3887 91.9049 91.4815 91.7881 91.572C91.5545 91.7531 91.3407 91.9253 91.1314 92.0821C90.9132 92.2301 90.7105 92.3692 90.5165 92.5017C90.3226 92.6319 90.1441 92.7622 89.959 92.8638C89.5909 93.0714 89.2714 93.279 88.9475 93.438C88.6235 93.5947 88.3194 93.7471 88.0109 93.8906C87.6935 94.0143 87.3762 94.1402 87.0412 94.2727C86.6996 94.3919 86.3316 94.4935 85.9239 94.6194C85.719 94.679 85.5008 94.7187 85.2716 94.7717C85.0424 94.8181 84.8 94.8866 84.5399 94.9241C84.2799 94.9616 84.0044 95.0036 83.7113 95.0478C83.5637 95.072 83.4138 95.0897 83.2574 95.0985C83.1009 95.1118 82.94 95.125 82.7725 95.1383C82.605 95.1515 82.4442 95.1648 82.2877 95.178C82.1312 95.1825 81.9814 95.1869 81.8359 95.1935C81.5428 95.2023 81.2696 95.2112 81.0095 95.22C80.4894 95.2112 80.0333 95.2023 79.6168 95.1957C79.2025 95.1758 78.8278 95.1405 78.4752 95.1206C78.1204 95.1052 77.7898 95.0588 77.4593 95.0168C77.1287 94.9705 76.796 94.944 76.4478 94.8755C76.0996 94.8071 75.7315 94.732 75.3216 94.6503C74.9162 94.5531 74.4732 94.4228 73.9685 94.2837C73.7173 94.2108 73.4595 94.1093 73.1796 94.0143C72.9019 93.9105 72.6 93.8222 72.2959 93.6809C71.9874 93.5484 71.6987 93.4225 71.4254 93.3055C71.1521 93.1906 70.9097 93.0515 70.6717 92.9367C70.4381 92.8174 70.2177 92.7048 70.0084 92.5988C69.8056 92.4796 69.6139 92.367 69.4332 92.261C69.2503 92.1528 69.0784 92.0512 68.9109 91.954C68.7478 91.8502 68.5958 91.742 68.4459 91.6427C68.2961 91.5411 68.1528 91.4417 68.0096 91.3468C67.8663 91.2518 67.7275 91.1546 67.5953 91.0442C67.3264 90.8322 67.0598 90.6202 66.7733 90.395C66.5044 90.1477 66.2201 89.8849 65.9028 89.5934C65.7441 89.4477 65.5987 89.2688 65.4334 89.0944C65.2725 88.9133 65.0962 88.73 64.9221 88.5202C64.5938 88.0808 64.1993 87.6104 63.8467 86.9921C63.558 86.5571 63.3839 86.1265 63.2274 85.7621C63.06 85.3845 62.996 85.1129 62.9255 84.859C62.7977 84.3599 62.7691 84.0198 62.8043 83.7814C62.8726 83.3066 63.1966 83.2403 63.4941 83.1211C63.7916 83.0018 64.0671 82.8318 64.4417 83.1211C64.629 83.2668 64.8428 83.5252 65.0962 83.9624C65.224 84.1744 65.3585 84.4681 65.5127 84.7199C65.667 84.9893 65.808 85.3117 66.0438 85.6584L66.0284 85.6495Z" fill="#141413"/>
<path d="M97.9812 44.3347C96.8262 42.3811 96.7452 42.4296 95.5902 40.4738C94.4352 38.5203 94.3565 38.5688 93.2015 36.6152C92.43 35.3129 91.6593 34.0105 90.8893 32.7081C89.7343 30.7545 89.8633 30.6772 88.7083 28.7236C87.5533 26.7701 87.3127 26.9158 86.1577 24.96C85.0027 23.0064 85.2061 22.8828 84.0511 20.9292C82.8961 18.9756 82.7277 19.0749 81.5727 17.1213C81.4064 16.841 81.4655 16.9381 81.4523 16.9072C81.4523 16.894 81.4502 16.8829 81.448 16.8741C81.4458 16.8476 81.4414 16.8123 81.4349 16.7682C81.4349 16.7196 81.3977 16.671 81.3802 16.6776C81.3627 16.6776 81.3364 16.6909 81.3058 16.724C81.2948 16.7328 81.2817 16.7483 81.2664 16.7682C81.2599 16.7792 81.2511 16.7902 81.2445 16.8013C81.2336 16.8189 81.2227 16.8344 81.2117 16.8542C80.0567 18.8078 79.9911 18.7703 78.8361 20.7239C77.6811 22.6775 77.9217 22.8232 76.7667 24.7789C75.6117 26.7325 75.5395 26.6906 74.3845 28.6442C73.2295 30.5978 73.1332 30.5404 71.9761 32.4962C70.821 34.4497 70.762 34.4144 69.6048 36.3702C68.4498 38.326 68.6051 38.4187 67.4479 40.3745C66.8704 41.3524 66.5904 41.8447 66.3104 42.3391C66.1704 42.5864 66.0282 42.8314 65.8532 43.1404C65.7307 43.3501 65.5863 43.5996 65.3916 43.9329C65.3807 43.9528 65.361 43.9682 65.3326 43.9925C65.2954 44.0168 65.2888 44.0609 65.2954 44.0676C65.2998 44.083 65.3151 44.1007 65.3501 44.1117C65.3676 44.1183 65.3894 44.1227 65.4179 44.1272H65.4398L65.4529 44.1316C65.4835 44.1316 65.5141 44.1316 65.5448 44.1316C65.6695 44.1316 65.8007 44.1316 65.9429 44.1316C67.4464 44.1242 68.95 44.1161 70.4535 44.1073C72.7089 44.1073 72.7089 44.2331 74.9642 44.2331C77.2195 44.2331 77.2195 43.9528 79.477 43.9528C80.9806 43.9498 82.4841 43.9469 83.9877 43.9439C86.2452 43.9439 86.2452 44.0985 88.5005 44.0985C90.7558 44.0985 90.758 44.136 93.0177 44.136C95.2774 44.136 95.2752 44.2022 97.5349 44.2022C99.2784 44.2022 99.3374 44.6503 99.3374 45.339C99.3374 46.0278 99.2784 46.69 97.5349 46.69C95.2796 46.69 95.2796 46.5951 93.0243 46.5951C90.769 46.5951 90.7711 46.4229 88.5158 46.4229C86.2605 46.4229 86.2605 46.562 84.0052 46.562C81.7499 46.562 81.752 46.6348 79.4967 46.6348L74.9883 46.6149C72.7329 46.6149 72.7329 46.5752 70.4798 46.5752C68.2267 46.5752 68.2245 46.4229 65.9691 46.4229C65.1269 46.4295 64.4969 46.4339 63.9698 46.4361C63.296 46.4825 62.9219 46.3037 62.6726 46.1558C62.5479 46.0697 62.4516 46.0322 62.316 45.8445C62.2526 45.7563 62.2001 45.6481 62.1672 45.5532C62.1344 45.456 62.1279 45.3964 62.1169 45.3015C62.0972 45.1315 62.0776 44.9042 62.1694 44.5775C62.2197 44.4119 62.3094 44.2265 62.4341 44.0256C62.5522 43.8247 62.6769 43.6128 62.8126 43.3855C62.946 43.1581 63.0707 42.944 63.1888 42.7431C63.2632 42.6151 63.331 42.4937 63.3966 42.3789C63.506 42.1846 63.5979 42.0146 63.681 41.8557C63.8473 41.5423 63.9698 41.284 64.0944 41.0279C64.3438 40.5158 64.591 40.0015 65.1685 39.0258C66.3235 37.0722 66.5488 37.2068 67.706 35.2533C68.861 33.2997 68.6313 33.1606 69.7885 31.207C70.9435 29.2534 71.1732 29.3903 72.3282 27.4367C73.4832 25.4831 73.3848 25.4235 74.542 23.4677C75.697 21.5119 75.5767 21.4391 76.7317 19.4833C77.8867 17.5297 78.1273 17.6754 79.2845 15.7218C79.4661 15.4128 79.6301 15.1324 79.7745 14.8852C79.9233 14.6269 80.0523 14.404 80.1573 14.223C80.3127 13.9559 80.4833 13.7991 80.6277 13.6866C80.7742 13.5674 80.9011 13.5011 81.0148 13.4437C81.0717 13.4128 81.1198 13.393 81.2008 13.3709C81.2773 13.351 81.367 13.34 81.4523 13.34C81.5377 13.34 81.623 13.3488 81.6886 13.3643C81.7542 13.3775 81.8002 13.3952 81.8614 13.4173C81.9183 13.4371 81.9773 13.457 82.043 13.4923C82.0758 13.5078 82.1086 13.5254 82.1414 13.5409C82.1764 13.5629 82.2136 13.5872 82.2486 13.6115C82.393 13.7108 82.5636 13.8455 82.7167 14.0927C82.8699 14.3444 83.0339 14.6159 83.2199 14.9205C83.3752 15.181 83.5458 15.468 83.7361 15.7858C84.8911 17.7394 84.9786 17.6864 86.1358 19.6422C87.2908 21.5958 87.1727 21.6687 88.3299 23.6223C89.4849 25.578 89.3908 25.6354 90.5458 27.589C91.7008 29.5426 91.9458 29.3947 93.1008 31.3505C94.258 33.3063 94.2143 33.3328 95.3693 35.2886C96.5265 37.2466 96.4696 37.2797 97.6268 39.2377C98.784 41.1957 98.7031 41.242 99.8603 43.2C100.083 43.5775 100.23 43.8821 100.315 44.1316C100.337 44.1934 100.355 44.253 100.368 44.3082C100.374 44.3369 100.381 44.3634 100.385 44.3898C100.39 44.4053 100.387 44.4119 100.394 44.4318C100.418 44.4826 100.438 44.5355 100.455 44.5863C100.523 44.796 100.523 45.0101 100.484 45.1801C100.444 45.3523 100.37 45.4892 100.287 45.5907C100.118 45.796 99.9215 45.8732 99.7728 45.8865C99.6218 45.8997 99.519 45.8534 99.4534 45.796C99.3243 45.6724 99.3287 45.509 99.3265 45.339C99.3265 45.253 99.3265 45.1713 99.3265 45.0962C99.3265 45.041 99.3265 45.0587 99.3265 45.0587V45.0653C99.3309 45.0808 99.3265 45.0653 99.3221 45.0653C99.3178 45.0675 99.3462 45.0653 99.3243 45.0697C99.3199 45.0697 99.3156 45.0742 99.3112 45.0764C98.2328 45.7253 99.0115 45.2574 98.7709 45.4009H98.7665L98.7599 45.392L98.7446 45.3788C98.7249 45.3611 98.7053 45.3413 98.6856 45.3214C98.6462 45.2817 98.6046 45.2375 98.5609 45.1867C98.3903 44.9881 98.1999 44.7099 97.9768 44.3325L97.9812 44.3347Z" fill="#141413"/>
<path d="M50.2537 57.1008C50.2537 54.7198 50.1615 54.7198 50.1615 52.3367C50.1615 49.9535 50.0693 49.9557 50.0693 47.5748C50.0693 45.9875 50.0686 44.3995 50.0671 42.8107C50.0671 40.4298 50.2186 40.4298 50.2186 38.0488C50.2186 36.8573 50.1483 36.2637 50.0781 35.6679C50.043 35.3711 50.0078 35.0721 49.9815 34.7C49.9749 34.607 49.9705 34.5096 49.9639 34.4055C49.9617 34.3545 49.9595 34.3014 49.9573 34.246C49.9552 34.2216 49.953 34.2371 49.9508 34.2305C49.942 34.2283 49.9398 34.2283 49.9376 34.2261C49.9376 34.2216 49.9398 34.2128 49.9376 34.1995C49.9376 34.195 49.9376 34.1906 49.9354 34.1862V34.1795H49.9047L49.852 34.1707C49.7115 34.153 49.5798 34.1375 49.4525 34.1242C49.2001 34.091 48.9696 34.0599 48.7237 34.0267C48.2277 33.9625 47.6635 33.9027 46.7219 33.8673C45.5454 33.823 44.9549 33.8517 44.3666 33.8783C44.0725 33.8916 43.7762 33.9049 43.4096 33.9115C43.0408 33.9115 42.5996 33.9115 42.0092 33.9115C39.6517 33.8983 39.6539 33.7277 37.2965 33.7144C34.9368 33.7011 34.939 33.6236 32.5794 33.6103C30.2197 33.597 30.2153 33.8805 27.8579 33.8673C25.4982 33.854 25.5004 33.7698 23.1408 33.7543C21.962 33.7477 21.3716 33.7144 20.7833 33.6834C20.4892 33.6679 20.1929 33.6524 19.8263 33.6391C19.6419 33.6347 19.44 33.6281 19.2095 33.6236C18.9922 33.6214 18.7485 33.617 18.4698 33.6148C18.3951 33.6192 18.3227 33.5948 18.281 33.6369C18.2415 33.6746 18.2503 33.7211 18.2393 33.7543L18.2305 33.8008C18.2305 33.8141 18.2283 33.8075 18.2261 33.834L18.2217 33.9714C18.2151 34.1552 18.2086 34.3412 18.202 34.5472C18.191 34.9569 18.18 35.4398 18.1734 36.1153C18.1493 38.4962 18.3315 38.4985 18.3073 40.8772C18.2832 43.2559 18.3249 43.2559 18.3008 45.6346C18.2766 48.0156 18.1493 48.0156 18.1252 50.3943C18.1178 51.9816 18.1098 53.5681 18.101 55.1539C18.1405 57.5327 18.022 57.5327 18.0659 59.9114C18.112 62.2901 18.3908 62.2857 18.439 64.6622C18.4456 64.959 18.45 65.2181 18.4544 65.4507C18.4544 65.4861 18.4544 65.5215 18.4566 65.5547V65.557C18.4566 65.557 18.4588 65.557 18.461 65.557L18.4632 65.5547C18.8232 65.5547 19.2556 65.5547 19.8307 65.5547C22.1925 65.5547 22.1925 65.7098 24.5544 65.7098C26.9162 65.7098 26.9184 65.7474 29.2824 65.7474C31.6465 65.7474 31.6465 65.8139 34.0105 65.8139C35.8346 65.8139 35.896 66.2635 35.896 66.9545C35.896 67.6455 35.8346 68.31 34.0105 68.31C31.6509 68.31 31.6509 68.2148 29.289 68.2148C26.9272 68.2148 26.9294 68.042 24.5697 68.042C22.2101 68.042 22.2101 68.1815 19.8482 68.1815C19.2534 68.1815 18.8276 68.186 18.4368 68.1926C18.2612 68.1926 18.0944 68.197 17.9342 68.1993C17.774 68.2015 17.6181 68.2059 17.4754 68.1904C17.1857 68.155 16.9662 68.0863 16.7467 67.9667C16.5272 67.8449 16.323 67.6677 16.165 67.4462C16.0048 67.2181 15.8972 66.99 15.8379 66.6489C15.805 66.4828 15.8094 66.2879 15.8028 66.0885C15.7984 65.9113 15.794 65.7253 15.7875 65.5282C15.7809 65.2956 15.7765 65.0343 15.7677 64.7353C15.7428 63.145 15.7179 61.5548 15.6931 59.9645C15.647 57.5792 15.6821 57.5792 15.6404 55.1938C15.6645 52.8106 15.816 52.8084 15.8401 50.4253C15.8643 48.0421 15.7721 48.0421 15.7962 45.659C15.8204 43.2758 15.6316 43.2736 15.6558 40.8905C15.6799 38.5051 15.9433 38.5073 15.9653 36.1242C15.9718 35.4154 15.9543 34.9171 15.9235 34.5051C15.9082 34.2991 15.8906 34.1131 15.8731 33.9337L15.8599 33.7986L15.8467 33.5439C15.8379 33.3711 15.8314 33.1962 15.8226 33.019C15.8094 32.7731 15.8467 32.5317 15.917 32.3147C15.9872 32.0998 16.1101 31.8628 16.3099 31.648C16.5074 31.4332 16.7752 31.2515 17.0825 31.1474C17.245 31.0987 17.4315 31.0544 17.6466 31.05C17.8618 31.05 18.09 31.05 18.3293 31.05C18.5049 31.05 18.6695 31.0544 18.8254 31.0566C18.9549 31.0611 19.0778 31.0633 19.1941 31.0677C19.4246 31.0766 19.6287 31.0876 19.8131 31.1009C20.1819 31.1275 20.4782 31.163 20.7723 31.1984C21.3628 31.2693 21.9533 31.3401 23.1342 31.3468C25.496 31.3601 25.4982 31.2449 27.8601 31.2582C30.2241 31.2715 30.2241 31.1275 32.5881 31.143C34.95 31.1563 34.9456 31.442 37.3074 31.4553C39.6693 31.4686 39.6715 31.3291 42.0355 31.3446C42.3318 31.3446 42.5887 31.3446 42.8191 31.3446C43.0496 31.349 43.2538 31.3534 43.4381 31.3556C43.8069 31.3556 44.1032 31.3556 44.3996 31.3556C44.9922 31.3512 45.5827 31.3468 46.7658 31.3911C47.7206 31.4265 48.2891 31.4708 48.7896 31.5151C49.0398 31.5395 49.2725 31.5594 49.5293 31.5838C49.6566 31.5948 49.7905 31.6059 49.9354 31.617C50.0451 31.6236 50.1615 31.6303 50.28 31.6391C50.4271 31.6458 50.5785 31.6546 50.7388 31.6635C50.9824 31.6768 51.2568 31.7366 51.5114 31.8584C51.7748 31.9824 52.069 32.2239 52.2555 32.5605C52.3763 32.7753 52.4333 32.9813 52.4684 33.2139C52.5014 33.4442 52.486 33.6812 52.4882 33.896C52.4882 34.0666 52.4838 34.2283 52.4838 34.3811C52.4816 34.4852 52.4794 34.5826 52.4772 34.6757C52.4663 35.0478 52.4531 35.3468 52.4399 35.6435C52.4114 36.2393 52.385 36.8351 52.385 38.0267C52.385 40.4076 52.6704 40.4076 52.6704 42.7908C52.6704 45.1739 52.6199 45.1739 52.6199 47.5571C52.6199 49.9402 52.5541 49.9424 52.5541 52.3278C52.5541 54.7132 52.4597 54.7132 52.4597 57.0985C52.4597 58.9391 52.0053 59.0631 51.3205 59.0631C50.6356 59.0631 50.2603 58.9391 50.2603 57.0985L50.2537 57.1008Z" fill="#141413"/>
<path d="M19.6806 101.971C26.7004 101.971 26.7004 101.878 33.7224 101.878C40.7444 101.878 40.74 101.785 47.7576 101.785C51.2686 101.785 53.0241 101.785 54.7774 101.785C55.654 101.785 56.5329 101.785 57.6292 101.785C57.9874 101.785 58.3807 101.785 58.8267 101.785C58.8443 101.785 58.8618 101.785 58.8816 101.785C58.9014 101.779 58.8904 101.75 58.8948 101.734C58.897 101.582 58.9014 101.423 58.9036 101.25C58.9783 97.7005 59.0969 95.9246 59.2419 94.1399C59.2815 93.6931 59.321 93.2464 59.3716 92.7687C59.3935 92.5298 59.4243 92.2821 59.4551 92.0234C59.4616 91.9592 59.4704 91.8929 59.477 91.8265C59.4902 91.7535 59.5034 91.6806 59.5166 91.6076C59.5429 91.4594 59.5715 91.309 59.5979 91.152C59.8527 89.9577 60.268 88.6816 60.8327 86.9898C61.4017 85.3045 61.8258 84.0527 62.1553 83.0044C62.4893 81.9562 62.7288 81.1135 62.9704 80.2709C63.1989 79.4305 63.4275 78.5879 63.7131 77.5374C63.9943 76.4891 64.3239 75.2329 64.6908 73.5653C64.7743 73.1474 64.8534 72.7581 64.9281 72.3888C64.9874 72.0216 65.0423 71.6788 65.0951 71.3537C65.1214 71.1923 65.1478 71.0353 65.172 70.8805C65.1873 70.7301 65.2027 70.5819 65.2181 70.4404C65.2489 70.1551 65.2796 69.8852 65.306 69.6265C65.3939 68.545 65.4576 67.667 65.5147 66.8023C65.5674 65.9353 65.6114 65.0706 65.6048 64.0068C65.596 63.476 65.5762 62.8966 65.5103 62.2552C65.4444 61.6183 65.3324 60.9106 65.0907 60.2183C64.849 59.5195 64.5172 59.0904 64.1811 58.8494C64.0119 58.7255 63.8339 58.6393 63.6384 58.584C63.5483 58.5486 63.4406 58.5375 63.3462 58.5132C63.2429 58.5021 63.144 58.4844 63.043 58.48C62.8386 58.469 62.6299 58.469 62.4519 58.4911C62.3618 58.4999 62.274 58.5088 62.2015 58.5309C62.1641 58.5397 62.1224 58.5464 62.0872 58.5552L61.9861 58.5884C61.7203 58.6746 61.5687 58.7985 61.4281 58.9666C61.149 59.3027 60.9337 59.9751 60.8283 60.9614C60.7096 61.9522 60.6964 63.246 60.5976 65.0529C60.569 65.5063 60.5404 65.9331 60.5009 66.34C60.4591 66.7337 60.4196 67.1053 60.3822 67.4547C60.3075 68.1513 60.2197 68.7618 60.1449 69.3191C59.9802 70.4293 59.8286 71.3161 59.6528 72.2008C59.4792 73.0854 59.2881 73.9679 59.02 75.0692C58.7432 76.1706 58.4158 77.4909 57.7567 79.2403C57.6688 79.4593 57.5853 79.6716 57.4952 79.8772L57.4623 79.9547L57.4469 79.9923L57.4381 80.0122C57.4205 80.0498 57.392 80.105 57.3678 80.1493C57.2645 80.3328 57.0712 80.5319 56.8383 80.6447C56.6054 80.7619 56.3549 80.7995 56.1352 80.7752C55.9111 80.753 55.709 80.6779 55.5222 80.5496C55.3377 80.4213 55.1729 80.2355 55.0718 79.9989C54.9707 79.7689 54.9488 79.5013 54.9795 79.3044L54.9927 79.2293L55.0059 79.1673L55.0191 79.1142C55.1114 78.7383 55.197 78.3866 55.2783 78.0527C55.4365 77.387 55.5749 76.7987 55.7002 76.2657C55.9484 75.1975 56.1396 74.3438 56.3242 73.4879C56.5087 72.632 56.6845 71.7762 56.88 70.7057C57.069 69.6375 57.2931 68.3415 57.4447 66.6519C57.6292 63.2195 57.5941 61.3794 57.1679 60.0237C57.058 59.6942 56.9196 59.4089 56.757 59.1988C56.6735 59.0993 56.5856 59.0108 56.4911 58.94C56.3901 58.8737 56.2846 58.8118 56.1462 58.7609C56.0034 58.7167 55.8386 58.6724 55.6321 58.6525C55.5266 58.6459 55.4189 58.6348 55.2959 58.637C55.2344 58.637 55.1729 58.637 55.1114 58.637C55.0608 58.6415 55.0103 58.6459 54.9576 58.6503C54.7576 58.6746 54.5906 58.7211 54.461 58.8007C54.3292 58.8825 54.2039 58.9887 54.0699 59.2054C53.9337 59.4133 53.826 59.7008 53.7425 59.9905C53.659 60.2847 53.5997 60.5899 53.5536 60.8907C53.4657 61.4966 53.424 62.0694 53.391 62.6113C53.3559 63.1509 53.3317 63.664 53.2768 64.1727C53.2504 64.4248 53.2218 64.6637 53.1911 64.8915C53.1625 65.1237 53.1295 65.347 53.0988 65.5682C52.9692 66.4595 52.8307 67.3419 52.644 68.4433C52.4572 69.5424 52.2287 70.8606 51.8882 72.6121C51.1961 76.1175 50.7171 77.8558 50.1502 79.6074L50.1437 79.6273L50.1129 79.7114C50.0668 79.8264 50.0162 79.9325 49.9196 80.0586C49.8339 80.1736 49.7108 80.2864 49.5768 80.3726C49.4494 80.4545 49.2912 80.5186 49.1615 80.5452C48.8781 80.6093 48.6562 80.5783 48.4607 80.523C48.2651 80.4655 48.1047 80.3726 47.9531 80.2488C47.8015 80.1183 47.6653 79.9547 47.5686 79.7291C47.472 79.5101 47.4346 79.2359 47.4698 79.0037C47.4786 78.9462 47.4895 78.8887 47.5027 78.8312L47.5137 78.7914L47.5247 78.7538L47.5467 78.6764C47.6038 78.4685 47.6675 78.2606 47.7224 78.0416C47.8367 77.6037 47.9509 77.1349 48.0674 76.6085C48.2981 75.5558 48.5398 74.2775 48.7858 72.5546C49.0319 70.8318 49.1703 69.5314 49.2758 68.4477C49.3769 67.364 49.4516 66.4949 49.5043 65.6279C49.5592 64.761 49.6054 63.8896 49.6207 62.8103C49.6251 62.5405 49.6295 62.2574 49.6207 61.9633C49.6207 61.8151 49.6163 61.6647 49.6142 61.5077C49.6076 61.3551 49.5988 61.1959 49.5922 61.0322C49.5812 60.7027 49.5438 60.3709 49.5043 60.0215C49.4757 59.8556 49.4538 59.6721 49.4186 59.504C49.3988 59.4222 49.3791 59.3381 49.3571 59.2519L49.3263 59.1214L49.2846 59.0064C49.2582 58.929 49.2319 58.8516 49.2055 58.7764C49.1725 58.7145 49.1418 58.6547 49.1132 58.595C49.0978 58.5663 49.0868 58.5309 49.0693 58.5088L49.0187 58.4446C48.9836 58.4048 48.9638 58.3451 48.9243 58.3208C48.8891 58.292 48.8561 58.2589 48.8276 58.2257C48.7946 58.1969 48.7507 58.1815 48.7177 58.1549L48.665 58.1173L48.5969 58.093C48.5529 58.0753 48.5112 58.0554 48.4673 58.0355C48.4145 58.0222 48.3618 58.0112 48.3091 57.9979C48.2563 57.9846 48.2102 57.9669 48.1487 57.9647C48.0256 57.9559 47.9246 57.9271 47.7949 57.9293C47.6741 57.9293 47.5401 57.9205 47.439 57.9227C47.3533 57.9315 47.2698 57.9315 47.2039 57.9515C47.1292 57.9581 47.0765 57.9913 47.015 58.0067C46.9644 58.0377 46.9095 58.0554 46.8656 58.093C46.815 58.1173 46.7755 58.166 46.7293 58.1991C46.6898 58.2478 46.6436 58.2832 46.6041 58.3407C46.4415 58.5508 46.3009 58.8405 46.191 59.1745C45.9713 59.849 45.8527 60.654 45.767 61.6957C45.7253 62.2198 45.6923 62.8059 45.6593 63.4871C45.6242 64.1705 45.6 64.9445 45.5209 65.8734C45.1782 69.4518 44.8662 71.2387 44.4927 73.0323C44.2993 73.928 44.0708 74.8237 43.7171 75.9273C43.5391 76.478 43.3216 77.0818 43.0448 77.7541C42.9041 78.0903 42.7525 78.4441 42.5768 78.8157C42.4933 79.0037 42.3966 79.1917 42.2999 79.3885C42.2516 79.4858 42.2011 79.5853 42.1505 79.6871L42.1308 79.7246L42.0956 79.791C42.0385 79.8905 41.9726 79.9834 41.8715 80.0851C41.6869 80.2776 41.3991 80.4302 41.1245 80.4722C40.8476 80.5186 40.584 80.4788 40.3533 80.3815C40.1226 80.282 39.9051 80.1183 39.7403 79.8728C39.5733 79.634 39.4854 79.2934 39.5074 79.0191C39.5162 78.871 39.5426 78.7604 39.5799 78.6454L39.5997 78.5879L39.6129 78.5503C40.1753 76.9845 40.4873 75.7393 40.7312 74.6999C40.9707 73.656 41.1421 72.8134 41.2915 71.9619C41.4453 71.1127 41.5793 70.2568 41.7133 69.1797C41.8429 68.1049 41.977 66.8067 42.0692 65.075C42.1088 64.2103 42.1308 63.4539 42.1308 62.7882C42.1242 62.1668 42.0714 61.636 41.9901 61.1738C41.8957 60.7182 41.7726 60.3356 41.6276 60.006C41.4716 59.6853 41.2981 59.42 41.0981 59.201C40.8982 58.9821 40.6697 58.814 40.4016 58.6923C40.3335 58.6614 40.261 58.6415 40.1907 58.6105C40.1182 58.5884 40.0391 58.5729 39.9622 58.5486C39.8809 58.5375 39.7996 58.5243 39.7139 58.511C39.6392 58.5154 39.5623 58.4955 39.4854 58.5066C39.1778 58.5265 38.8373 58.6194 38.5033 58.8958C38.4154 58.9533 38.3407 59.0484 38.2528 59.1258C38.1803 59.2253 38.0903 59.3116 38.0221 59.431C37.8683 59.6522 37.7387 59.9286 37.6355 60.2493C37.5234 60.5656 37.4773 60.8995 37.4333 61.2091C37.4223 61.3706 37.4113 61.5254 37.4026 61.678C37.3982 61.8549 37.396 62.0274 37.3916 62.1933C37.3784 62.859 37.4026 63.434 37.385 64.0643C37.3652 64.688 37.2883 65.2254 37.218 65.7075C37.1411 66.1897 37.0642 66.6342 36.9807 67.0743C36.8972 67.5122 36.8115 67.9501 36.7236 68.4167C36.6314 68.879 36.5391 69.3677 36.4204 69.9251C36.1854 71.0331 35.8821 72.3512 35.3878 74.0851C34.8912 75.8168 34.465 77.1017 34.0959 78.1721C33.7224 79.2403 33.3972 80.094 33.0457 80.9432C32.6765 81.7903 32.3074 82.6373 31.6571 83.6746C31.4791 83.9333 31.3209 84.2054 31.0792 84.4906C31.0221 84.5614 30.965 84.6344 30.9057 84.7074C30.8463 84.7804 30.7892 84.8533 30.7101 84.933C30.5651 85.0922 30.4025 85.2404 30.2334 85.3886C29.5457 85.968 28.6822 86.4169 27.7001 86.7133C27.2079 86.8615 26.7487 86.9588 26.3181 87.0296C26.1028 87.0649 25.894 87.0915 25.6919 87.1158L25.6546 87.1202L25.6018 87.1247L25.4964 87.1313C25.4261 87.1357 25.3579 87.1379 25.2898 87.1424C25.1536 87.1468 25.0152 87.1335 24.8834 87.1247C23.8046 87.0185 22.9455 86.4767 22.383 85.8331C22.1018 85.5036 21.8931 85.1453 21.7393 84.7804C21.5921 84.411 21.5064 84.0351 21.4734 83.6679C21.4603 83.5773 21.4646 83.4866 21.4624 83.3959V83.261C21.4624 83.2168 21.4624 83.1659 21.4624 83.1438C21.469 83.0288 21.4756 82.916 21.4822 82.8032C21.4954 82.5776 21.5086 82.3565 21.5196 82.1353C21.6228 80.3616 21.7239 78.5901 21.9282 75.0449C21.9524 74.6181 21.9766 74.2178 21.9985 73.8418C22.0117 73.6582 22.0161 73.4835 22.0161 73.3176C22.0183 73.1496 22.0205 72.9859 22.0227 72.8289C22.0051 72.2074 21.9722 71.6678 21.8865 71.221C21.8667 71.1083 21.8469 70.9999 21.8272 70.8915C21.8008 70.792 21.7722 70.6947 21.7481 70.5996C21.7349 70.5509 21.7239 70.5045 21.7107 70.458C21.6975 70.4138 21.6778 70.374 21.6624 70.332C21.6316 70.2479 21.6009 70.1661 21.5701 70.0865C21.4251 69.7946 21.2867 69.5314 21.0911 69.3434C21.0098 69.2306 20.8868 69.1643 20.7857 69.0647C20.6561 68.9962 20.5484 68.9011 20.3925 68.8458C20.109 68.7042 19.7399 68.6069 19.2917 68.5494C19.2346 68.5428 19.1774 68.5362 19.1203 68.5295C19.0632 68.5229 18.9973 68.5118 18.9687 68.5163C18.9314 68.5163 18.8918 68.5118 18.8545 68.5118C18.8171 68.5163 18.7798 68.5185 18.7424 68.5207C18.5952 68.5406 18.4458 68.587 18.2788 68.6821C17.9493 68.8657 17.5516 69.2881 17.2044 69.9361C16.8551 70.5841 16.6332 71.2564 16.464 71.8602C16.2948 72.4684 16.1872 73.0257 16.1037 73.5366C15.9411 74.5583 15.8818 75.3966 15.8576 76.2303C15.851 76.6704 15.8444 77.1105 15.8378 77.5772C15.8268 78.0505 15.8158 78.5503 15.8049 79.1076C15.7741 80.2156 15.7389 81.5448 15.6906 83.3163C15.4775 90.3978 15.405 90.3934 15.1611 97.4705C15.0644 100.202 14.9018 101.608 14.6799 102.329C14.5679 102.69 14.4405 102.88 14.2998 102.975L14.2537 103.006H14.2493V103.008L13.8978 102.995H13.8934V102.993V103.057C13.8912 103.139 13.9022 103.241 13.7835 103.294C13.7264 103.316 13.6209 103.32 13.5111 103.216C13.4583 103.165 13.41 103.081 13.3924 102.98C13.3726 102.966 13.3551 102.955 13.3331 102.942C13.1793 102.834 13.0387 102.635 12.9266 102.267C12.7025 101.531 12.5883 100.113 12.685 97.3843C12.9266 90.3249 13.0277 90.3271 13.2408 83.2698C13.2979 81.5094 13.3419 80.1869 13.377 79.0877C13.4144 77.9863 13.4452 77.1061 13.4759 76.2237C13.5177 75.2926 13.599 74.3659 13.7923 73.2137C13.8912 72.6387 14.0164 72.004 14.2163 71.2896C14.4185 70.5753 14.6755 69.7725 15.1457 68.8768C15.6181 67.9877 16.2267 67.2092 17.044 66.6983C17.4483 66.4484 17.8987 66.2737 18.3381 66.2029C18.7732 66.1277 19.2192 66.1543 19.4982 66.1874C19.8102 66.2074 20.12 66.2737 20.4122 66.3268C20.711 66.4108 20.9945 66.4727 21.2713 66.5966C21.4097 66.6563 21.5481 66.6983 21.6778 66.7757C21.8074 66.8487 21.937 66.9217 22.0645 66.9925C22.1919 67.0654 22.3061 67.1628 22.427 67.249C22.5456 67.3375 22.6621 67.4259 22.7631 67.5343L23.0751 67.8484C23.1674 67.9611 23.2553 68.0784 23.3454 68.1956L23.4772 68.3747C23.5168 68.4366 23.5519 68.4986 23.5893 68.5627C23.6618 68.691 23.7343 68.8192 23.809 68.9497C24.055 69.4783 24.266 70.0533 24.3824 70.6748C24.523 71.3007 24.5758 71.9708 24.6109 72.7227C24.6087 73.0921 24.6197 73.4901 24.5977 73.9015C24.5758 74.304 24.5516 74.7309 24.5274 75.1864C24.3231 78.6963 24.2396 80.4523 24.1561 82.2083C24.1451 82.4272 24.1341 82.6462 24.1254 82.8695C24.121 82.9801 24.1144 83.0929 24.11 83.2079L24.1056 83.2942C24.1056 83.3185 24.1056 83.3251 24.1078 83.3406C24.1078 83.3672 24.1078 83.3959 24.1078 83.4247C24.1298 83.6436 24.2023 83.8648 24.3692 84.0616C24.534 84.254 24.7845 84.4265 25.1009 84.4597C25.1404 84.4641 25.1822 84.4597 25.2217 84.4663C25.2635 84.4663 25.3052 84.4597 25.3492 84.4597C25.4041 84.4575 25.5051 84.442 25.582 84.4331C25.6633 84.4221 25.7468 84.4088 25.8325 84.3978C26.1687 84.3447 26.5202 84.2717 26.874 84.1677C27.5814 83.9576 28.1219 83.6768 28.4998 83.3672C28.691 83.2079 28.8316 83.0686 28.9964 82.8563C29.159 82.6749 29.3018 82.4604 29.4402 82.2614C29.9851 81.4453 30.3652 80.6889 30.7299 79.937C31.0814 79.1695 31.4242 78.3911 31.8021 77.387C32.1778 76.3829 32.604 75.1643 33.0808 73.5056C33.5554 71.8469 33.8432 70.5863 34.0585 69.5358C34.1113 69.2726 34.1618 69.0227 34.2079 68.7817C34.2541 68.5362 34.298 68.2995 34.3398 68.0695C34.4233 67.6117 34.5002 67.1827 34.5771 66.7536C34.7199 65.9022 34.8847 65.0308 34.9308 64.0798C34.9374 63.8387 34.9374 63.5733 34.933 63.2681C34.9286 62.9607 34.9264 62.6224 34.9286 62.2641C34.9308 62.0849 34.933 61.9014 34.9374 61.7112C34.9418 61.521 34.9594 61.2799 34.9725 61.0565C34.9967 60.8265 35.0297 60.5877 35.0714 60.3422C35.1285 60.0945 35.1725 59.8402 35.2626 59.5792C35.5767 58.5331 36.159 57.6485 36.8862 57.0425C37.2466 56.7329 37.653 56.5139 38.0507 56.3436C38.4616 56.1954 38.868 56.0937 39.2613 56.0782C39.6546 56.0473 40.0325 56.0937 40.3533 56.1556C40.5181 56.1844 40.6785 56.2375 40.8345 56.2795C40.9905 56.3259 41.1399 56.3945 41.2871 56.452C41.8693 56.7107 42.3593 57.0801 42.7547 57.5069C43.5501 58.365 43.9895 59.4133 44.2334 60.6518C44.3433 61.2733 44.4158 61.9522 44.4136 62.7064C44.4136 63.4296 44.3894 64.2125 44.3477 65.1126C44.2576 66.9084 44.1323 68.2464 44.0203 69.3655C43.8994 70.4824 43.794 71.3759 43.6622 72.2671C43.5347 73.1584 43.3809 74.0497 43.1546 75.1599C42.9129 76.2701 42.6053 77.6015 41.9814 79.3509L41.9528 79.4327L41.933 79.4924L40.9004 79.1032H40.8916C40.8696 79.1032 40.8916 79.0988 40.8916 79.0921C40.8916 79.0899 40.8916 79.1098 40.8916 79.101C40.8894 79.0966 40.8872 79.0966 40.8806 79.0921L39.9051 78.5768L39.9095 78.568L39.927 78.5348L40.0259 78.3358C40.1116 78.1588 40.2039 77.9908 40.2764 77.8205C40.3533 77.6524 40.428 77.4887 40.5005 77.3317C40.5686 77.1703 40.6323 77.0154 40.696 76.8651C40.8257 76.5643 40.9245 76.2723 41.03 76.0003C41.1223 75.7239 41.2146 75.4629 41.2937 75.213C41.6057 74.2089 41.7968 73.384 41.9594 72.548C42.2758 70.8782 42.5372 69.1797 42.8734 65.7208C42.9459 64.8959 42.981 64.124 43.0272 63.4296C43.0711 62.7329 43.1239 62.107 43.1898 61.532C43.3282 60.3776 43.5062 59.4222 43.8797 58.4292C44.073 57.936 44.3147 57.4207 44.7475 56.9032C44.9541 56.6444 45.2331 56.3967 45.5561 56.1822C45.8834 55.9676 46.2745 55.815 46.6788 55.7288C47.0853 55.6425 47.5115 55.6536 47.8455 55.6757C48.0212 55.6801 48.2212 55.7089 48.4233 55.7398C48.6211 55.7598 48.8474 55.8283 49.0715 55.8902C49.1813 55.9146 49.3022 55.9721 49.4208 56.0229C49.5395 56.0804 49.6603 56.1202 49.7789 56.1976C49.8976 56.2728 50.0162 56.3525 50.1327 56.4365C50.2513 56.5183 50.3502 56.6311 50.4578 56.7329C50.5106 56.7859 50.5633 56.839 50.616 56.8943C50.66 56.9518 50.7017 57.0115 50.7457 57.069C50.827 57.1884 50.9258 57.3101 50.9917 57.4361C51.0555 57.5622 51.1192 57.6905 51.1851 57.821C51.2554 57.9537 51.284 58.0775 51.3367 58.2102C51.44 58.4778 51.4905 58.7189 51.5476 58.9577C51.5608 59.0174 51.5762 59.0772 51.5894 59.1347C51.5982 59.1922 51.6069 59.2474 51.6179 59.3027C51.6355 59.4133 51.6531 59.5239 51.6729 59.6323C51.7146 59.8512 51.7256 60.0503 51.7498 60.2493C51.7717 60.4483 51.7915 60.6385 51.8003 60.8199C51.8113 61.0012 51.8223 61.1782 51.8332 61.3507C51.8398 61.521 51.8464 61.6846 51.8508 61.8439C51.864 62.1645 51.8706 62.4631 51.8728 62.7462C51.8904 63.8807 51.886 64.7742 51.8728 65.6766C51.8596 66.5767 51.8289 67.4746 51.7563 68.5959C51.6794 69.7149 51.5608 71.0574 51.3081 72.8377C51.0533 74.6181 50.7962 75.9472 50.5413 77.053C50.4117 77.6059 50.2865 78.1013 50.1546 78.5702C50.0931 78.8046 50.0184 79.0324 49.9525 79.2558L49.902 79.4239L49.8888 79.4659V79.477L49.8844 79.4814L48.8408 79.1894C48.8364 79.1894 48.8342 79.1872 48.8276 79.1872C48.81 79.1872 48.8122 79.1872 48.8232 79.185C48.8496 79.1784 48.8693 79.1342 48.8539 79.1673C48.8496 79.1806 48.8474 79.2093 48.8496 79.227C48.854 79.2469 48.8627 79.2514 48.8496 79.2381C48.8452 79.2381 48.832 79.2248 48.8144 79.2204H48.8078L48.8056 79.2182C48.353 79.0722 49.8141 79.5455 47.7905 78.8887V78.8798L47.7993 78.8621L47.8784 78.6365C47.9136 78.537 47.9487 78.4353 47.9839 78.3335C48.0564 78.1323 48.1245 77.9222 48.1904 77.7033C48.3288 77.2698 48.4629 76.8031 48.6057 76.279C48.8869 75.2329 49.1901 73.959 49.5263 72.2406C50.1854 68.8016 50.4095 67.0544 50.6204 65.3293C50.671 64.9003 50.7193 64.4646 50.7545 64.0267C50.794 63.5932 50.8072 63.12 50.8336 62.5582C50.8621 61.9987 50.8907 61.3662 50.9895 60.6142C51.0401 60.2382 51.1104 59.8313 51.229 59.3846C51.3499 58.9378 51.5191 58.4468 51.8223 57.9227C52.1299 57.403 52.5649 56.9231 53.0834 56.6112C53.5953 56.2928 54.138 56.1424 54.6082 56.0871C54.8433 56.0605 55.0762 56.0495 55.2651 56.0539C55.4607 56.0495 55.6606 56.0672 55.854 56.0826C56.2473 56.1291 56.6296 56.1999 57.0009 56.3392C57.3678 56.4785 57.7193 56.6577 58.0181 56.8921C58.3148 57.1221 58.5762 57.3831 58.7739 57.6551C59.187 58.1992 59.4023 58.7498 59.5671 59.2674C59.8769 60.3112 59.9648 61.2888 60.0021 62.4565C60.0175 63.0403 60.0131 63.6684 59.9934 64.3717C59.9824 64.7212 59.9692 65.0905 59.956 65.4842C59.9472 65.681 59.9384 65.8845 59.9296 66.0923C59.9165 66.3135 59.9033 66.5413 59.8879 66.7779C59.7275 68.6291 59.4814 69.9516 59.2705 71.0552C59.053 72.1566 58.8486 73.0279 58.6355 73.8949C58.4202 74.7596 58.2027 75.6243 57.9325 76.7036C57.7984 77.2432 57.6512 77.8359 57.482 78.5105C57.3985 78.8466 57.3085 79.2049 57.214 79.5853L57.1832 79.7092V79.718C56.7834 79.6207 58.0665 79.9414 56.2912 79.5013H56.2868C56.2626 79.4946 56.2473 79.4969 56.2451 79.4991C56.2451 79.4991 56.2517 79.4969 56.256 79.488C56.267 79.4681 56.256 79.488 56.2626 79.5035C56.2648 79.5101 56.2626 79.4991 56.2473 79.4902C56.2429 79.4858 56.2363 79.4836 56.2319 79.4814H56.2275C56.9701 79.8153 55.2102 79.0214 55.3926 79.101L55.397 79.0921L55.4102 79.059C55.4871 78.8842 55.564 78.7007 55.6387 78.5083C56.2363 76.9535 56.5373 75.6863 56.7724 74.6402C57.0031 73.5897 57.1503 72.736 57.2799 71.8801C57.4161 71.0242 57.5238 70.1617 57.6556 69.0846C57.7171 68.545 57.7874 67.9501 57.8556 67.2733C57.8885 66.935 57.9237 66.5767 57.9632 66.1941C57.9962 65.8225 58.0269 65.4244 58.0533 64.9954C58.1522 63.2726 58.1632 61.9191 58.3082 60.7226C58.3807 60.1232 58.4773 59.5637 58.6509 59.0064C58.8267 58.4535 59.0794 57.8917 59.499 57.3764C59.923 56.8656 60.5316 56.4454 61.182 56.2352C61.5028 56.1335 61.8367 56.0605 62.1619 56.0318C62.2432 56.0251 62.3267 56.0163 62.4102 56.0097C62.4915 56.0097 62.5728 56.0052 62.6541 56.003C62.8188 55.9964 62.988 56.003 63.1638 56.0141C63.5109 56.0318 63.8932 56.0937 64.2997 56.2109C64.7062 56.3281 65.1368 56.525 65.5477 56.8081C65.9585 57.0911 66.3408 57.4671 66.6418 57.9006C66.9472 58.3318 67.1845 58.8118 67.3691 59.3116C67.5514 59.8136 67.6745 60.2781 67.758 60.7071C67.8459 61.1362 67.903 61.5342 67.9447 61.9058C68.0282 62.6467 68.059 63.2858 68.0722 63.8631C68.0963 65.0131 68.0634 65.9176 68.0238 66.8155C67.9799 67.7135 67.9272 68.6047 67.8503 69.7172C67.7404 70.8805 67.602 72.276 67.2043 74.0475C66.8198 75.8234 66.4507 77.1216 66.1277 78.1964C65.8047 79.2713 65.5191 80.1161 65.2357 80.9609C64.6622 82.644 64.0404 84.3226 62.9045 87.6444C62.3487 89.2987 61.9752 90.5571 61.7994 91.5368C61.784 91.654 61.7686 91.7668 61.7532 91.8796C61.7379 91.9924 61.7181 92.0919 61.7137 92.2202C61.6983 92.4635 61.6785 92.6935 61.672 92.9235C61.65 93.3791 61.6368 93.8148 61.6258 94.2482C61.5972 96.002 61.5665 97.7536 61.5072 101.259C61.5028 101.542 61.4984 101.816 61.4918 102.082C61.4786 102.491 61.5072 102.915 61.4061 103.234C61.3885 103.318 61.3709 103.404 61.3534 103.486C61.349 103.533 61.3292 103.561 61.3094 103.59L61.2567 103.678C61.2215 103.736 61.1864 103.793 61.1512 103.851C61.1139 103.9 61.059 103.962 61.0018 104.015C60.9425 104.07 60.8942 104.108 60.8436 104.141C60.7975 104.178 60.736 104.209 60.681 104.242C60.5602 104.302 60.4284 104.357 60.2768 104.388C60.1252 104.419 59.956 104.422 59.7912 104.419C59.6264 104.419 59.4616 104.419 59.3013 104.419C59.0464 104.419 58.8003 104.419 58.5608 104.419C58.2554 104.419 57.9676 104.417 57.693 104.417C56.5944 104.411 55.7178 104.406 54.8389 104.399C53.0812 104.386 51.3257 104.373 47.8125 104.373C40.7817 104.373 40.7817 104.307 33.7487 104.307C26.7158 104.307 26.718 104.211 19.685 104.211C14.2559 104.211 13.8934 103.754 13.8934 103.064C13.8934 102.374 14.2559 101.995 19.685 101.995L19.6806 101.971Z" fill="#141413"/>
</g>
<defs>
<clipPath id="clip0_1204_3374">
<rect width="115" height="115" fill="white"/>
</clipPath>
</defs>
</svg>
