<svg width="115" height="115" viewBox="0 0 115 115" fill="none" xmlns="http://www.w3.org/2000/svg">
<path d="M67.1276 59.4274C67.1276 59.4274 72.3831 61.088 73.2203 64.009C74.0575 66.93 75.4191 69.6233 73.4733 73.1055C71.5275 76.5877 68.7054 79.7433 67.1253 79.6605C65.5452 79.5777 59.3812 77.8274 59.0132 73.4137C58.6452 69 60.3932 62.5692 63.7742 61.0696C67.1552 59.57 67.123 59.4274 67.123 59.4274H67.1276Z" fill="#E3DACC"/>
<path d="M26.5333 103.705C26.9496 103.705 27.3268 103.705 27.5936 103.696C27.6212 103.696 27.6488 103.693 27.6741 103.691H27.7086H27.7017C27.7017 103.691 27.7017 103.686 27.7017 103.698L27.7178 103.804C27.7385 103.946 27.7638 104.086 27.7937 104.227L27.8397 104.436L27.8512 104.489C28.0007 105.22 27.6534 103.525 27.6902 103.696H27.704L27.796 103.689C27.8581 103.684 27.9179 103.682 27.9777 103.677C28.0973 103.67 28.2123 103.666 28.325 103.663H28.4584C28.4929 103.663 28.5297 103.663 28.5619 103.663C29.1139 103.675 29.5555 103.695 29.9879 103.721C30.8596 103.767 31.729 103.815 33.4655 103.811C36.9385 103.806 36.9385 103.946 40.4115 103.949C43.8845 103.951 43.8845 103.603 47.3575 103.608C50.8305 103.615 50.8305 103.811 54.3035 103.82C57.7765 103.829 57.7765 103.613 61.2495 103.624C61.9027 103.624 62.4317 103.638 62.8848 103.654C63.1102 103.663 63.3195 103.675 63.5127 103.682H63.5472L63.5564 103.686L63.6116 103.7C63.6369 103.707 63.6622 103.712 63.6875 103.716C63.7795 103.739 63.8646 103.76 63.9543 103.781C64.0164 103.783 64.0371 103.741 64.0532 103.684C64.0601 103.672 64.0647 103.656 64.0693 103.638C64.0716 103.491 64.0739 103.337 64.0762 103.171C64.0785 102.833 64.0785 102.453 64.0739 102.019C64.0532 100.275 63.975 99.406 63.8945 98.5366C63.8554 98.1019 63.8163 97.6649 63.7841 97.1198C63.768 96.8484 63.7542 96.5471 63.7427 96.2067C63.7381 96.0365 63.7335 95.8548 63.7266 95.6639C63.7243 95.496 63.722 95.3235 63.7174 95.1441C63.7174 94.944 63.7036 94.7347 63.7174 94.5231C63.7312 94.3069 63.7772 94.1114 63.837 93.9504C63.8922 93.7871 63.9727 93.6399 64.0647 93.4996C64.2556 93.219 64.504 93.0074 64.7317 92.8763C65.1641 92.6233 65.6034 92.5842 65.838 92.5934C66.4728 92.5957 67.0018 92.6003 67.4963 92.6026C67.8551 92.6141 68.184 92.5819 68.5336 92.5727C68.8832 92.5566 69.2535 92.5405 69.6905 92.5221C70.1252 92.4807 70.6289 92.4347 71.2453 92.3772C72.0733 92.2783 72.6943 92.1932 73.2141 92.1495C73.7316 92.0759 74.1479 92.0322 74.5665 91.9862C74.9874 91.9517 75.3968 91.8689 75.9143 91.7769C76.1719 91.724 76.4571 91.6803 76.7745 91.5929C77.0919 91.5078 77.4461 91.4112 77.8486 91.2939C78.2557 91.1858 78.5961 91.0478 78.9066 90.9397C79.2148 90.827 79.4862 90.7258 79.7277 90.6269C80.2084 90.413 80.5879 90.229 80.9651 90.045C81.7126 89.6563 82.4555 89.2745 83.9528 88.527C84.6911 88.1314 85.2569 87.8554 85.7123 87.5978C86.1746 87.3494 86.5518 87.1608 86.9152 86.9492C87.2809 86.7399 87.6581 86.549 88.102 86.2615C88.3251 86.1189 88.5689 85.9625 88.8472 85.7854C89.1232 85.6037 89.4245 85.3875 89.7695 85.1437C90.1283 84.8953 90.3767 84.6906 90.6182 84.4974C90.8436 84.295 91.0483 84.1225 91.2093 83.9477C91.2921 83.8626 91.3726 83.7798 91.4485 83.7016C91.5175 83.6188 91.5865 83.5406 91.6509 83.4624C91.7866 83.3129 91.8924 83.1588 92.0051 83.007C92.2259 82.7057 92.4237 82.3906 92.6445 81.9927C92.8607 81.5925 93.0976 81.1003 93.2977 80.4172C93.4886 79.7318 93.5438 79.2051 93.5599 78.7704C93.5737 78.3334 93.5507 77.9861 93.5024 77.6457C93.4472 77.3076 93.3713 76.9741 93.2149 76.5969C93.139 76.4083 93.0378 76.2151 92.909 76.0219C92.7825 75.831 92.6169 75.6401 92.4421 75.5182C92.3547 75.463 92.2834 75.417 92.2259 75.4009C92.2121 75.3963 92.1983 75.3894 92.1845 75.3825C92.1661 75.3756 92.1201 75.3664 92.0902 75.3595C92.0235 75.3434 91.9568 75.3273 91.8947 75.3112C91.7659 75.2744 91.6601 75.2721 91.552 75.2491C91.4462 75.2307 91.3542 75.2353 91.2599 75.2238C90.9034 75.21 90.6274 75.2583 90.3169 75.3457C90.011 75.4308 89.6798 75.5826 89.2497 75.8241C88.8196 76.0656 88.2952 76.4129 87.5753 76.9074C87.2096 77.1535 86.8899 77.3697 86.6047 77.5606C86.3172 77.7469 86.0619 77.9102 85.8319 78.0597C85.3788 78.3495 85.0177 78.5841 84.6543 78.8164C84.2863 79.0533 83.9137 79.2902 83.4353 79.5846C82.9569 79.879 82.3658 80.2286 81.5332 80.6426C80.7006 81.0589 80.0313 81.2935 79.4816 81.4959C78.925 81.6776 78.4765 81.8179 78.0234 81.926C77.798 81.9858 77.5703 82.0433 77.3288 82.087C77.0873 82.133 76.8297 82.1905 76.5445 82.2319C76.2593 82.271 75.9442 82.3124 75.5854 82.3538C75.2289 82.3791 74.8287 82.4136 74.3733 82.4343C72.5563 82.4964 71.6478 82.3837 70.737 82.2848C70.2816 82.2158 69.8262 82.1652 69.2581 82.0479C69.1155 82.0203 68.966 81.9927 68.8096 81.9628C68.6509 81.9306 68.4853 81.8869 68.3105 81.8455C68.1334 81.8018 67.9471 81.7581 67.747 81.7098C67.5492 81.65 67.3399 81.5879 67.1145 81.5212C66.8891 81.4591 66.6821 81.3832 66.4866 81.3119C66.2911 81.2406 66.1094 81.1762 65.9369 81.1118C65.5988 80.9646 65.2998 80.845 65.0307 80.7208C64.7662 80.5897 64.5293 80.4724 64.3039 80.362C64.0854 80.2401 63.8807 80.1251 63.6737 80.0078C62.8733 79.5225 62.0637 79.0096 60.7159 77.7538C60.3939 77.4318 60.0995 77.1581 59.8603 76.9005C59.7384 76.774 59.6234 76.6544 59.513 76.5394C59.4601 76.4865 59.4003 76.4198 59.3451 76.3554C59.2876 76.291 59.2347 76.2289 59.1795 76.1668C58.7632 75.6654 58.4872 75.2307 58.2388 74.7845C58.0019 74.3337 57.7926 73.8714 57.5994 73.2757C57.4131 72.68 57.236 71.9486 57.1647 70.9688C57.098 69.989 57.1463 69.2553 57.2084 68.6504C57.2705 68.0432 57.3556 67.5625 57.4637 67.0841C57.5672 66.6057 57.7098 66.1342 57.9237 65.5569C58.1491 64.9842 58.4596 64.3057 59.0093 63.4777C59.5705 62.6566 60.0788 62.1 60.5319 61.6699C60.9873 61.2444 61.3783 60.9293 61.79 60.6464C61.8935 60.5751 61.997 60.5061 62.1005 60.4348C62.2017 60.3727 62.3052 60.3106 62.4133 60.2485C62.6272 60.122 62.8503 59.9863 63.101 59.8368C63.3448 59.6804 63.6392 59.5401 63.9681 59.3722C64.1337 59.2894 64.3062 59.202 64.4925 59.1077C64.6765 59.0088 64.8904 58.9375 65.1089 58.8432C65.3297 58.7535 65.539 58.6707 65.7345 58.5902C65.93 58.512 66.1278 58.466 66.3049 58.4085C66.4866 58.3556 66.6545 58.3073 66.8155 58.2613C66.896 58.2383 66.9742 58.2176 67.0501 58.1969C67.1283 58.1831 67.2042 58.167 67.2801 58.1532C67.5768 58.1003 67.8459 58.0543 68.0989 58.0106C68.3519 57.9669 68.5957 57.9646 68.8349 57.9439C69.0764 57.9324 69.3156 57.8979 69.5709 57.9048C69.8262 57.9048 70.0953 57.9048 70.3943 57.9071C70.99 57.9301 71.7007 57.9692 72.6276 58.1003C73.0899 58.1647 73.4832 58.2544 73.842 58.3165C74.1916 58.3947 74.4952 58.4729 74.7758 58.5396C75.3278 58.6822 75.7579 58.8133 76.1903 58.9444C77.0413 59.2181 77.8923 59.501 79.5299 60.1105C79.9416 60.2669 80.282 60.3888 80.6224 60.5268C80.7972 60.6004 80.9628 60.6694 81.1192 60.7361C81.271 60.8097 81.4136 60.881 81.5493 60.9477C81.823 61.0788 82.0507 61.2283 82.2738 61.3525C82.4877 61.4905 82.6878 61.6216 82.8856 61.7573C83.2697 62.0379 83.6492 62.3231 84.0885 62.7072C84.5324 63.0867 85.043 63.5605 85.6709 64.2229C86.2965 64.8853 86.7404 65.389 87.1176 65.7984C87.4948 66.2101 87.7961 66.5298 88.0997 66.8495C88.3987 67.1669 88.6977 67.4866 89.0542 67.8822C89.4107 68.2778 89.8201 68.7631 90.3629 69.3542C91.4485 70.5295 92.0281 70.8768 92.5801 71.1482C92.6491 71.1758 92.7181 71.2057 92.7894 71.2356C92.8607 71.2563 92.932 71.2793 93.0056 71.3023C93.1574 71.3437 93.369 71.3897 93.5622 71.4127C93.7646 71.4403 93.9785 71.4495 94.1993 71.4334C94.4201 71.4173 94.6432 71.3713 94.8456 71.2724C95.2435 71.0769 95.4413 70.7664 95.5839 70.4467C95.7196 70.1224 95.7771 69.8004 95.8093 69.4715C95.8392 69.1403 95.8415 68.7907 95.8093 68.3422C95.7702 67.896 95.7012 67.344 95.5103 66.6172C95.462 66.4332 95.416 66.2722 95.3585 66.102C95.3033 65.9318 95.2504 65.7731 95.1998 65.6236C95.0986 65.3246 94.9951 65.0624 94.91 64.8232C94.8203 64.584 94.7283 64.3724 94.6478 64.1723C94.5696 63.9699 94.4868 63.7813 94.4017 63.595C94.3189 63.4087 94.2338 63.2201 94.1441 63.0223C94.0475 62.8268 93.944 62.6221 93.829 62.3921C93.7186 62.1598 93.5806 61.9137 93.4219 61.6377C93.3437 61.4974 93.2586 61.3502 93.1712 61.1938C93.0792 61.0374 92.9734 60.8787 92.8653 60.7039C91.9844 59.3262 91.5083 58.6638 91.0299 58.0014C90.9057 57.8381 90.7815 57.6771 90.6481 57.5046C90.5814 57.4195 90.5147 57.3275 90.4388 57.2401C90.3606 57.1527 90.2801 57.063 90.1927 56.9687C90.0202 56.7801 89.8293 56.5754 89.6085 56.3431C89.3716 56.1315 89.1048 55.8923 88.8012 55.6209C88.6517 55.4806 88.4953 55.3725 88.3504 55.2644C88.2055 55.1586 88.0698 55.0574 87.9433 54.9631C87.8145 54.8688 87.6949 54.7814 87.5799 54.6986C87.4603 54.625 87.3453 54.556 87.2372 54.4916C86.8002 54.234 86.4598 54.0155 86.0872 53.8568C85.9055 53.7717 85.7238 53.6843 85.5283 53.5923C85.4317 53.5463 85.3328 53.498 85.2293 53.4474C85.1235 53.406 85.0108 53.3623 84.8935 53.3163C84.6589 53.2243 84.4036 53.1208 84.1161 52.9989C83.9758 52.9345 83.8148 52.877 83.6423 52.8195C83.4698 52.7597 83.2881 52.693 83.0949 52.624C81.5309 52.0904 80.7144 51.9202 79.9048 51.7546C79.4954 51.681 79.0929 51.589 78.5777 51.5154C78.3201 51.4763 78.0418 51.4257 77.7198 51.382C77.3978 51.3406 77.0367 51.2946 76.625 51.2417C74.9713 51.0623 74.1364 51.0485 73.3061 51.0048C72.8898 51.0048 72.4735 50.9795 71.9537 50.9979C71.6938 51.0071 71.4063 51.0048 71.082 51.0278C70.921 51.037 70.7485 51.0485 70.5645 51.0577C70.5185 51.06 70.4725 51.0623 70.4242 51.0669C70.3391 51.0761 70.254 51.0853 70.1666 51.0945C69.9918 51.1129 69.8124 51.1313 69.6261 51.152C68.9315 51.2095 68.115 51.3567 67.4526 51.4556L67.3261 51.4763L67.264 51.4855L67.2226 51.4786C67.1697 51.4694 67.1168 51.4579 67.0662 51.4487C66.9627 51.428 66.8638 51.4096 66.7649 51.3912C66.6683 51.3728 66.5717 51.3544 66.4797 51.336C66.3946 51.3176 66.2773 51.3061 66.2497 51.2739C66.1577 51.221 66.0703 51.1727 65.9875 51.1244C65.9001 51.0738 65.8265 51.037 65.7575 50.9749C65.6057 50.8461 65.3987 50.6 65.286 50.3263C65.1641 50.0549 65.1227 49.7513 65.1273 49.5742C65.1342 49.4799 65.1434 49.381 65.1526 49.2798C65.1779 49.1648 65.2124 49.036 65.2446 48.9049C65.309 48.7577 65.3987 48.5898 65.4815 48.4196C65.6379 48.2356 65.8219 48.0332 66.0174 47.8239C66.4636 47.3984 66.9834 46.9154 67.6389 46.3864C67.8022 46.2553 67.9609 46.1265 68.115 46.0046C68.2185 45.9264 68.3174 45.8528 68.414 45.7815C68.575 45.6596 68.7314 45.5515 68.8786 45.4503C69.173 45.2456 69.4421 45.08 69.6859 44.9305C70.1781 44.6384 70.5852 44.4245 70.9992 44.229C71.2039 44.1278 71.4109 44.0312 71.6317 43.93C71.8502 43.8265 72.0848 43.7207 72.3447 43.6034C72.6023 43.4815 72.8921 43.3619 73.2141 43.2147C73.3866 43.1434 73.5683 43.0675 73.7638 42.987C73.9593 42.9134 74.1663 42.8375 74.3871 42.7547C75.2726 42.4465 75.9373 42.2855 76.4893 42.1475C77.0413 42.0141 77.4829 41.9198 77.9222 41.8324C78.8008 41.6622 79.684 41.5035 81.4343 41.308C83.18 41.1171 84.0379 41.0182 84.8935 40.9009C85.3167 40.8434 85.7422 40.7859 86.2712 40.7146C86.7933 40.6387 87.4258 40.5559 88.2239 40.411C89.0174 40.2638 89.574 40.1051 89.9374 39.9464C90.1145 39.8682 90.2548 39.7923 90.3284 39.7325C90.3468 39.7187 90.3652 39.7049 90.3836 39.6934C90.402 39.6819 90.3974 39.6727 90.4066 39.6658C90.4158 39.6543 90.4181 39.6658 90.4365 39.6359L90.4986 39.5439C90.54 39.4841 90.5837 39.422 90.6274 39.3622C90.6596 39.2978 90.6918 39.2334 90.7263 39.1667C90.7447 39.1345 90.7631 39.1 90.7815 39.0655C90.793 39.031 90.8045 38.9942 90.816 38.9574C90.8344 38.8838 90.8781 38.8102 90.8896 38.7274C90.9701 38.4054 90.9977 38.0029 90.7999 37.444C90.5952 36.8828 90.2686 36.4734 89.988 36.1514C89.8247 35.9996 89.6959 35.8524 89.5487 35.7282C89.3969 35.6086 89.2658 35.4844 89.114 35.3763C88.9599 35.2705 88.8081 35.1624 88.6448 35.0497C88.47 34.9462 88.286 34.8358 88.0813 34.7162C87.8628 34.6104 87.6305 34.4793 87.3568 34.3551C87.0785 34.2401 86.7726 34.0929 86.4046 33.9779C86.0458 33.8399 85.7123 33.7709 85.4225 33.6904C85.1281 33.6237 84.8613 33.5846 84.6244 33.5363C84.1391 33.4788 83.7504 33.4305 83.3502 33.4236C82.5567 33.3937 81.7563 33.3868 80.1164 33.5478C79.7047 33.5984 79.3436 33.6421 79.0216 33.6812C78.6973 33.7318 78.4144 33.7732 78.1545 33.8146C77.637 33.8882 77.2207 33.9779 76.8044 34.0469C75.9718 34.2056 75.1392 34.3712 73.4763 34.776C72.646 34.9807 72.0227 35.144 71.5029 35.2843C71.243 35.3533 71.0107 35.4177 70.7899 35.4775C70.5852 35.5442 70.392 35.6063 70.2011 35.6684C69.8193 35.7995 69.4283 35.8961 68.9614 36.1031C68.7268 36.1974 68.4669 36.3032 68.1725 36.4205C67.8781 36.5401 67.5607 36.7103 67.1904 36.8828C67.0064 36.9725 66.8316 37.0507 66.6706 37.1335C66.5119 37.2209 66.3624 37.3014 66.2198 37.3796C65.9369 37.5314 65.6862 37.6648 65.4585 37.7844C65.0146 38.0489 64.6558 38.2559 64.2947 38.4629C63.9405 38.6791 63.5932 38.9114 63.1585 39.1966C62.9423 39.3415 62.7146 39.5186 62.4524 39.7118C62.1902 39.9073 61.8981 40.1258 61.5784 40.3995C60.2858 41.4667 59.6878 42.0647 59.0852 42.6489C58.4941 43.2446 57.8915 43.8403 56.8036 45.1099C56.6725 45.2686 56.5437 45.4204 56.4356 45.5607C56.408 45.5952 56.3804 45.632 56.3528 45.6665L56.3137 45.7171L56.3091 45.724H56.3068C56.2677 45.7769 56.1987 45.8528 56.1343 45.908C55.9894 46.0345 55.7962 46.138 55.5846 46.1863C55.373 46.2346 55.1637 46.2277 54.9774 46.1771C54.6094 46.0782 54.3058 45.8459 54.1264 45.4526C54.039 45.2594 54.0022 45.0294 54.0229 44.8224C54.0298 44.7258 54.0551 44.6154 54.0804 44.5372C54.0942 44.4958 54.1103 44.4567 54.1264 44.4153L54.1494 44.3647C54.2161 44.2451 54.2805 44.1301 54.3472 44.0197C54.3817 43.9576 54.407 43.9254 54.4346 43.884C54.4622 43.8449 54.4875 43.8058 54.5151 43.7667C54.568 43.6908 54.6186 43.6149 54.6669 43.5436C54.7635 43.4125 54.8532 43.286 54.9406 43.1664C55.2856 42.6972 55.557 42.3384 55.8353 41.9819C56.3942 41.2735 56.9508 40.5628 58.2411 39.3162C59.536 38.0765 60.2398 37.513 60.9413 36.9472C61.3001 36.6735 61.6451 36.3837 62.1051 36.0525C62.3351 35.8869 62.5789 35.696 62.871 35.4936C63.1654 35.2935 63.4897 35.0635 63.8715 34.8105C64.2602 34.5667 64.6006 34.3551 64.9111 34.1734C65.2308 34.0009 65.5114 33.8537 65.769 33.7203C66.2842 33.4627 66.7028 33.3017 67.1168 33.1177C67.9586 32.7911 68.7935 32.4507 70.4587 31.8297C72.1239 31.2156 72.9611 30.9488 73.7937 30.6705C74.6217 30.3968 75.4681 30.1369 77.0965 29.6171C78.7111 29.0927 79.4747 28.7891 80.1049 28.4556C80.2797 28.3751 80.3832 28.2831 80.5258 28.198C80.6592 28.1106 80.7673 28.0094 80.8915 27.8714C81.1307 27.6023 81.4021 27.2021 81.5746 26.5742C81.7425 25.944 81.7149 25.4449 81.6482 25.07C81.5723 24.6928 81.4573 24.4214 81.3078 24.1914C81.1583 23.9591 80.9835 23.759 80.7121 23.5681C80.5741 23.4738 80.4154 23.3772 80.2038 23.299C80.1624 23.276 80.075 23.253 80.006 23.23C79.9324 23.2047 79.8588 23.1794 79.7806 23.1541C79.6288 23.0966 79.4517 23.0575 79.27 23.0069C79.0906 22.954 78.9135 22.9172 78.7456 22.885C78.5777 22.8528 78.4259 22.8114 78.2718 22.793C77.9659 22.7539 77.7037 22.6964 77.4553 22.6757C77.2069 22.6481 76.9838 22.6251 76.7722 22.6021C76.5583 22.5883 76.3559 22.5768 76.1535 22.563C76.0523 22.5561 75.9511 22.5492 75.8476 22.5423C75.7441 22.5423 75.6383 22.5423 75.5279 22.5377C75.3094 22.5377 75.0794 22.5377 74.8218 22.5354C74.3043 22.5607 73.6856 22.5837 72.8553 22.6895C71.197 22.9011 70.3621 23.0598 69.5295 23.2024C69.1132 23.2852 68.6969 23.3703 68.1771 23.4738C67.6596 23.6003 67.0386 23.7429 66.2175 23.9729C64.573 24.4329 63.7657 24.725 62.9538 24.9918C62.549 25.1367 62.1465 25.2793 61.6405 25.4587C61.3875 25.5484 61.1115 25.645 60.7964 25.7577C60.4997 25.8796 60.1708 26.0153 59.7913 26.1694C59.6027 26.2476 59.4233 26.3143 59.26 26.3925C59.099 26.4753 58.9495 26.5535 58.8069 26.6294C58.524 26.7789 58.2756 26.9123 58.0479 27.0319C57.8179 27.1446 57.6339 27.2895 57.4476 27.4045C57.2659 27.5264 57.0934 27.6391 56.9232 27.7541C56.5759 27.9703 56.2516 28.2302 55.8399 28.5384C55.6352 28.6948 55.4006 28.8535 55.1499 29.0559C54.8992 29.2606 54.6209 29.4883 54.3012 29.7505C53.9723 30.0012 53.717 30.2634 53.4755 30.4796C53.2386 30.7004 53.027 30.8913 52.843 31.073C52.4865 31.4525 52.2013 31.7538 51.9161 32.0574C51.6378 32.3679 51.3733 32.6922 51.0306 33.0832C50.8558 33.2764 50.681 33.5041 50.474 33.7571C50.2716 34.0124 50.0301 34.2861 49.7771 34.6219C49.5241 34.9554 49.301 35.2452 49.1032 35.5074C48.8617 35.8524 48.6478 36.1537 48.4523 36.4297C47.8497 37.2899 47.3874 38.1156 46.9136 38.8907C46.4375 39.6888 45.9752 40.4294 45.3864 41.3793C45.3128 41.4966 45.2369 41.6185 45.161 41.7427L45.1311 41.7887C45.1311 41.7887 45.1196 41.7956 45.1127 41.8002L45.0759 41.8186L45.0023 41.8531C44.9011 41.9014 44.7953 41.9497 44.6849 42.0049C44.6297 42.0302 44.5699 42.0578 44.5101 42.0854C44.4526 42.113 44.379 42.1498 44.3537 42.1452C44.2801 42.1567 44.1996 42.1682 44.1168 42.1797C44.0846 42.1843 44.0547 42.1889 44.0248 42.1935C43.9949 42.1981 43.9834 42.1935 43.9627 42.1935C43.9259 42.1935 43.8914 42.1935 43.8592 42.1912C43.8201 42.1889 43.8132 42.1912 43.7419 42.182C43.6637 42.1705 43.5234 42.1406 43.3969 42.09C43.2681 42.0417 43.1485 41.975 43.0772 41.9221C42.999 41.8692 42.9806 41.8416 42.9484 41.8071C42.9185 41.7726 42.8909 41.7404 42.8633 41.7082C42.8357 41.6691 42.8104 41.63 42.7851 41.5932C42.6839 41.4368 42.5988 41.2528 42.5252 41.0021C42.4815 40.8986 42.4631 40.7169 42.4332 40.5536C42.3895 40.4156 42.4171 40.135 42.4171 39.8843C42.5275 39.0586 42.6471 38.088 42.9323 36.6482C43.0128 36.2779 43.0795 35.9375 43.1577 35.6063C43.2405 35.2728 43.321 34.9577 43.3946 34.661C43.4797 34.3689 43.5579 34.0929 43.6338 33.833C43.6706 33.7042 43.7074 33.5777 43.7442 33.4558C43.7672 33.3845 43.7902 33.3155 43.8132 33.2465C43.988 32.7037 44.1398 32.2736 44.3054 31.8458C44.3882 31.6319 44.4687 31.418 44.5676 31.1926C44.6619 30.9672 44.7631 30.728 44.8896 30.4704C45.0138 30.2128 45.1449 29.923 45.3082 29.6079C45.4784 29.2974 45.6578 28.9386 45.8878 28.5476C46.8009 26.9813 47.3276 26.2591 47.8451 25.53C48.3649 24.8032 48.8985 24.0902 49.9933 22.7079C50.7339 21.781 51.2376 21.1899 51.67 20.6747C51.8839 20.4194 52.0863 20.1802 52.2795 19.9387C52.383 19.8145 52.4727 19.6949 52.5693 19.5684C52.6153 19.5063 52.6751 19.435 52.7073 19.3798C52.728 19.3499 52.7464 19.32 52.7671 19.2901C52.7901 19.2556 52.7901 19.2579 52.8039 19.2395C52.8108 19.2234 52.8292 19.2073 52.8384 19.1797C52.8453 19.1659 52.8453 19.1521 52.8476 19.1383C52.8499 19.1222 52.8522 19.1038 52.8568 19.0877C52.8568 19.0624 52.8568 19.0348 52.8568 19.0072C52.8568 18.7864 52.8062 18.4184 52.6613 17.9883C52.4244 17.3213 52.1346 16.8498 51.8678 16.5025C51.601 16.1506 51.3457 15.9183 51.0858 15.709C50.8259 15.4997 50.543 15.3318 50.1773 15.1846C49.8093 15.042 49.3516 14.9201 48.6938 14.95C48.0337 14.9822 47.5139 15.1708 47.0884 15.3318C46.8768 15.4215 46.6836 15.4951 46.5042 15.5963C46.3271 15.6929 46.1546 15.7665 45.989 15.8746C45.8234 15.9781 45.6555 16.0724 45.483 16.1874C45.3105 16.3093 45.1288 16.4358 44.9264 16.5784C44.7309 16.7348 44.5124 16.9073 44.2686 17.1028C44.0294 17.3144 43.7672 17.5651 43.4636 17.8411C43.3118 17.9814 43.1715 18.1125 43.0381 18.2367C42.9714 18.2988 42.907 18.3586 42.8449 18.4184C42.7874 18.4828 42.7322 18.5449 42.677 18.6047C42.4608 18.8462 42.2722 19.0601 42.0997 19.2556C41.9295 19.4511 41.7777 19.6282 41.6328 19.7938C41.4879 19.9594 41.3729 20.1388 41.2464 20.3044C41.0003 20.6425 40.7542 20.9783 40.4368 21.3923C40.2735 21.5924 40.124 21.8431 39.9331 22.1099C39.7468 22.379 39.5352 22.6803 39.296 23.023C39.0476 23.3588 38.8567 23.6762 38.675 23.9499C38.4956 24.2259 38.3323 24.4651 38.1828 24.6836C38.031 24.8998 37.8953 25.0953 37.7642 25.2793C37.64 25.4679 37.525 25.645 37.4077 25.8244C36.9454 26.5374 36.4509 27.2343 35.7034 28.7707C34.2199 31.8481 34.3556 31.9125 33.0699 35.0819C32.4719 36.6896 32.1223 37.4739 31.8233 38.2812C31.6692 38.6814 31.5128 39.0839 31.3265 39.5876C31.2345 39.8406 31.131 40.1166 31.0229 40.4363C30.9217 40.756 30.8067 41.1148 30.6779 41.5265C30.4226 42.3476 30.2317 42.964 30.073 43.4792C29.9258 43.9967 29.8108 44.4107 29.6935 44.827C29.4612 45.655 29.2151 46.4807 28.7919 48.1528C28.348 49.8203 28.2468 50.6828 28.1364 51.543C28.0237 52.4032 27.9064 53.2588 27.5499 54.9447C27.3705 55.7865 27.2049 56.4144 27.0784 56.9342C26.9542 57.454 26.8415 57.8657 26.7288 58.2797C26.5057 59.1077 26.2527 59.9311 26.0227 61.6354C25.9008 62.4864 25.8134 63.1235 25.7513 63.6571C25.703 64.193 25.6731 64.6231 25.6409 65.0509C25.6087 65.4787 25.5788 65.9088 25.5305 66.4447C25.5052 66.7115 25.4776 67.0059 25.4454 67.3417C25.4178 67.6775 25.3879 68.0524 25.3511 68.4825C25.2039 70.1983 25.128 71.0562 25.0935 71.9187C25.0452 72.7789 24.9992 73.6414 24.9026 75.3641C24.8221 77.0868 24.7807 77.9493 24.7416 78.8118C24.714 79.6743 24.6864 80.5368 24.6335 82.2641C24.6105 83.9937 24.5599 84.8562 24.5139 85.721C24.4771 86.5858 24.438 87.4506 24.438 89.1825C24.4725 92.6486 24.5461 92.6463 24.6312 96.1101C24.6818 97.842 24.7048 98.7068 24.7301 99.5739C24.7554 100.441 24.783 101.306 24.8681 103.038C24.9003 103.698 24.8911 104.181 24.8451 104.528C24.6496 104.54 24.4564 104.551 24.2655 104.565H24.254H24.2563V104.551C24.2563 104.581 24.2563 104.611 24.254 104.641C24.254 104.793 24.2402 104.96 24.231 105.14C24.2195 105.319 24.2471 105.489 24.2218 105.641C24.1942 105.784 24.0999 105.952 23.7503 105.956C23.5801 105.954 23.3386 105.899 23.0833 105.706C22.9568 105.609 22.828 105.473 22.7222 105.294C22.6693 105.204 22.621 105.103 22.5842 104.993C22.5474 104.887 22.5198 104.747 22.506 104.645C22.4255 104.303 22.3657 103.829 22.3335 103.162C22.2438 101.423 22.1978 100.551 22.1541 99.682C22.1081 98.8126 22.0575 97.9409 22.0115 96.1998C21.9264 92.7153 21.862 92.7153 21.8275 89.2285C21.8275 87.4851 21.8137 86.6111 21.7976 85.7394C21.7907 84.8677 21.7884 83.9937 21.8137 82.248C21.908 78.7543 22.0828 78.7612 22.2461 75.2721C22.3335 73.5264 22.4186 72.6547 22.4784 71.783C22.5359 70.9113 22.6279 70.0396 22.7797 68.2962C22.8165 67.8615 22.851 67.4797 22.8786 67.1393C22.9154 66.7989 22.9476 66.4999 22.9752 66.2285C23.0327 65.6834 23.0787 65.2487 23.1247 64.8117C23.1707 64.377 23.2167 63.94 23.2742 63.3949C23.3432 62.8498 23.4421 62.1989 23.5663 61.3295C23.6284 60.8948 23.6813 60.5153 23.7296 60.1749C23.7733 59.8345 23.817 59.5355 23.8653 59.2641C23.9527 58.7213 24.0217 58.2843 24.0907 57.8496C24.1597 57.4149 24.231 56.9779 24.3161 56.4351C24.4081 55.8923 24.5507 55.2552 24.7324 54.3996C24.9187 53.5463 25.0567 52.9046 25.1901 52.3756C25.3281 51.8466 25.4385 51.4234 25.5489 51.0002C25.7697 50.1538 25.9905 49.3074 26.4344 47.6146C26.6575 46.7682 26.8139 46.1311 26.9657 45.6044C27.1175 45.0777 27.2371 44.6568 27.3567 44.2359C27.4763 43.815 27.5982 43.3941 27.7477 42.8674C27.9018 42.343 28.1042 41.7151 28.3641 40.8779C28.6194 40.0384 28.8126 39.4082 28.9713 38.8838C29.13 38.3571 29.2473 37.9339 29.3623 37.5084C29.5854 36.6551 29.8545 35.8156 30.4709 34.1642C31.3525 31.9807 32.307 29.8233 33.3344 27.692C33.5345 27.2941 33.7139 26.9491 33.8772 26.6432C34.0382 26.3373 34.1877 26.0705 34.3395 25.8359C34.6362 25.3621 34.8869 24.9918 35.1353 24.6238C35.2595 24.4398 35.3837 24.2535 35.5148 24.058C35.6528 23.8648 35.7977 23.6601 35.9587 23.4324C36.1174 23.2047 36.2899 22.9494 36.4831 22.6596C36.6786 22.3721 36.8718 22.034 37.1386 21.6752C37.6561 20.9461 38.0218 20.3849 38.3415 19.9249C38.6773 19.4741 38.9372 19.1061 39.1971 18.7358C39.3282 18.5518 39.4547 18.3655 39.6019 18.1723C39.7583 17.9883 39.9216 17.7905 40.1056 17.5743C40.4828 17.1488 40.906 16.6106 41.5983 16.0034C41.9364 15.6929 42.2331 15.4215 42.4976 15.1777C42.7805 14.9454 43.0381 14.7476 43.2681 14.5659C43.7534 14.2209 44.1467 13.9518 44.5722 13.7126C44.678 13.6528 44.7792 13.5884 44.8896 13.5309C45.0023 13.4757 45.115 13.4182 45.2323 13.3584C45.3496 13.3009 45.4715 13.2411 45.5957 13.1767C45.7291 13.1215 45.8671 13.064 46.012 13.0042C46.5939 12.7719 47.3276 12.5028 48.4132 12.4108C49.5034 12.3395 50.3567 12.5327 51.0122 12.7696C51.6746 13.0088 52.1553 13.3055 52.5992 13.6298C53.0431 13.9541 53.4433 14.329 53.8596 14.8465C54.2713 15.3686 54.7106 16.0287 55.0763 17.0269C55.2948 17.6387 55.4121 18.1953 55.4443 18.745C55.4558 19.0371 55.4535 19.2671 55.396 19.6282C55.3592 19.7846 55.3224 19.9364 55.2718 20.0767C55.2097 20.2124 55.1499 20.3412 55.0901 20.4677C55.0487 20.5298 55.0073 20.5919 54.9682 20.654C54.936 20.7 54.9061 20.7437 54.8762 20.7897C54.8141 20.884 54.7566 20.9553 54.7014 21.0243C54.591 21.1623 54.4806 21.3072 54.3771 21.4268C54.1655 21.6752 53.9608 21.9121 53.7377 22.1651C53.2938 22.6757 52.7717 23.2668 52.0265 24.1983C50.9616 25.5392 50.4786 26.2361 50.0094 26.9376C49.5425 27.6414 49.0733 28.3429 48.2292 29.7735C47.8152 30.4911 47.5254 31.0362 47.2977 31.4916C47.1781 31.7193 47.0746 31.924 46.9849 32.1195C46.8906 32.315 46.8032 32.499 46.7204 32.6876C46.5525 33.0602 46.3915 33.442 46.219 33.9273C46.173 34.0515 46.1247 34.1895 46.0672 34.3459C46.0442 34.4126 46.0235 34.4793 46.0028 34.5598C45.9522 34.7576 45.9361 34.8864 45.9384 34.9278C45.9269 35.0543 45.9315 35.121 45.9361 35.1992C45.9361 35.2176 45.9361 35.2383 45.9384 35.259C45.9338 35.2797 45.9476 35.3096 45.9844 35.3142C46.0212 35.3211 46.0557 35.2843 46.0672 35.2475C46.0856 35.213 46.104 35.1739 46.127 35.1325C46.2466 34.9117 46.3018 34.8864 46.4007 34.7944C46.4513 34.7507 46.5042 34.6932 46.587 34.6035L46.6192 34.5667L46.6353 34.546L46.6445 34.5368L46.6767 34.4931C46.7687 34.3689 46.8653 34.2355 46.9665 34.0952C47.1781 33.8192 47.4173 33.5087 47.6887 33.1545C47.9532 32.7957 48.2131 32.5013 48.4316 32.2276C48.6547 31.9585 48.841 31.7124 49.0273 31.5054C49.3953 31.0822 49.6897 30.7441 49.9841 30.4037C50.2946 30.0771 50.6051 29.7528 50.9938 29.3457C51.1847 29.141 51.4239 28.9386 51.6792 28.6971C51.8103 28.5775 51.9483 28.451 52.0932 28.3176C52.2404 28.1842 52.3945 28.0393 52.5739 27.899C53.2777 27.3286 53.7975 26.8893 54.2667 26.5627C54.729 26.2315 55.0786 25.9348 55.4696 25.6979C55.8537 25.4495 56.2332 25.1919 56.7254 24.8975C56.9807 24.7641 57.2613 24.6169 57.5787 24.449C57.9007 24.2857 58.2503 24.0879 58.685 23.9246C59.1128 23.7475 59.4877 23.5934 59.8212 23.4554C60.1547 23.3174 60.433 23.2277 60.6929 23.1265C61.2081 22.9333 61.6198 22.77 62.0292 22.609C62.8618 22.31 63.6829 21.9788 65.3918 21.5004C66.2451 21.2543 66.9029 21.1232 67.4457 21.0082C67.9954 20.907 68.4393 20.8495 68.8809 20.7874C69.771 20.6793 70.6542 20.5666 72.4344 20.3274C74.2192 20.1043 75.1392 20.0813 76.0569 20.0537C76.2869 20.0537 76.5192 20.0537 76.7653 20.0537C77.0114 20.0537 77.2736 20.079 77.5657 20.0928C78.1476 20.1319 78.856 20.2147 79.7967 20.4378C80.0313 20.5022 80.2521 20.5551 80.4591 20.6195C80.6661 20.6908 80.8593 20.7552 81.0433 20.8173C81.4458 20.9691 81.8161 21.16 82.122 21.3647C82.7361 21.7856 83.1524 22.2479 83.4744 22.7447C83.7872 23.2484 84.0333 23.7935 84.1736 24.4904C84.3139 25.185 84.3645 26.036 84.1092 27.1078C83.8378 28.1773 83.3847 28.9156 82.9201 29.4676C82.6809 29.7413 82.4394 29.969 82.1864 30.1622C82.0622 30.2542 81.9403 30.3278 81.8184 30.4083C81.6988 30.4819 81.5746 30.5716 81.4619 30.6222C80.5396 31.1052 79.6679 31.4134 77.982 31.9677C76.3007 32.5059 75.498 32.7911 74.6907 33.0993C73.8903 33.4075 73.083 33.7042 71.496 34.2838C69.9136 34.8726 69.1546 35.2153 68.3864 35.5419C68.0092 35.7167 67.6297 35.8915 67.1697 36.1215C66.9466 36.2434 66.7028 36.3768 66.4245 36.5286C66.1462 36.6804 65.8449 36.8828 65.4976 37.0967C64.8099 37.5521 64.3016 37.9132 63.8922 38.2352C63.4759 38.5457 63.1562 38.8194 62.8342 39.0839C62.1948 39.6244 61.5577 40.1695 60.3364 41.3287C59.122 42.4971 58.5447 43.1112 57.9697 43.7161C57.8294 43.8702 57.6891 44.022 57.5396 44.1853C57.397 44.3509 57.2475 44.5257 57.0796 44.7189C57.0014 44.8155 56.9209 44.9167 56.8335 45.0248C56.7415 45.1352 56.6771 45.2364 56.5897 45.3514C56.5368 45.4204 56.5368 45.4365 56.5092 45.4756L56.4908 45.5009L56.4816 45.5147L56.2953 45.4319C55.8537 45.2134 57.2452 45.9034 55.3017 44.9397H55.2994C55.5225 45.1145 53.3467 43.4079 54.269 44.1301V44.1255L54.2782 44.1186L54.2897 44.1048L54.338 44.045C54.4645 43.884 54.6025 43.7184 54.7474 43.5459C55.3316 42.8536 55.7778 42.3499 56.155 41.9359C56.5299 41.5173 56.8381 41.1907 57.1463 40.8664C57.7696 40.2201 58.3906 39.5669 59.7775 38.41C59.9523 38.2651 60.1133 38.1317 60.2674 38.0052C60.4261 37.8833 60.5756 37.7706 60.7159 37.6625C60.9988 37.4509 61.2472 37.2623 61.4726 37.0921C61.9418 36.7747 62.3167 36.5194 62.6916 36.2664C63.0803 36.0295 63.4667 35.7926 63.952 35.4959C64.1958 35.3487 64.4764 35.2061 64.7869 35.0313C65.0997 34.8611 65.4424 34.6564 65.861 34.4678C66.275 34.27 66.6361 34.0929 66.9604 33.9434C67.2962 33.81 67.5906 33.6927 67.8574 33.5846C68.1265 33.4811 68.3634 33.373 68.598 33.3017C68.8326 33.2281 69.0557 33.1591 69.2765 33.0878C69.4973 33.0188 69.7204 32.9498 69.955 32.8762C70.1896 32.8049 70.4219 32.7497 70.6887 32.6784C71.2177 32.5381 71.8548 32.3702 72.7081 32.1609C73.566 31.9516 74.2077 31.7929 74.7436 31.6618C75.2841 31.533 75.7142 31.4295 76.1466 31.326C77.0206 31.1374 77.8831 30.9143 79.6932 30.7073C81.5102 30.5141 82.4624 30.567 83.4008 30.6291C83.6377 30.6521 83.8723 30.6659 84.123 30.6958C84.3737 30.7326 84.6405 30.7694 84.9372 30.8131C85.2339 30.8637 85.5582 30.9373 85.9262 31.0109C86.1102 31.0569 86.3034 31.1121 86.5104 31.1673C86.7174 31.2202 86.9359 31.2823 87.1636 31.3674C87.3936 31.4479 87.6098 31.5192 87.8099 31.5974C88.0077 31.6825 88.1917 31.7607 88.3665 31.8366C88.4539 31.8734 88.5367 31.9102 88.6195 31.947C88.6977 31.9884 88.7759 32.0275 88.8518 32.0643C89.0013 32.1402 89.1416 32.2138 89.2773 32.2828C89.8109 32.5772 90.2272 32.8394 90.6297 33.1407C90.8344 33.2787 91.0276 33.4512 91.2346 33.6237C91.4462 33.7893 91.6486 34.0055 91.8763 34.2332C91.9936 34.3436 92.1017 34.4839 92.2213 34.6242C92.3386 34.7691 92.4674 34.9117 92.5824 35.0957C92.8239 35.443 93.0792 35.8616 93.2839 36.3998C93.7025 37.4808 93.7071 38.4583 93.5576 39.2035C93.5392 39.2978 93.5208 39.3898 93.5047 39.4795C93.4771 39.5669 93.4518 39.652 93.4242 39.7348C93.369 39.8981 93.323 40.0637 93.2563 40.2086C93.1183 40.4938 92.9964 40.7767 92.8262 41.0136C92.7434 41.1378 92.6721 41.2528 92.5732 41.3862C92.5042 41.4667 92.4329 41.5449 92.3593 41.6231L92.2466 41.7404C92.2098 41.7772 92.173 41.8025 92.1362 41.8347C91.9867 41.9566 91.8234 42.0877 91.6716 42.1728C91.5934 42.2211 91.5129 42.2671 91.4301 42.3177C91.3496 42.3591 91.2714 42.3959 91.1886 42.4373C90.5308 42.7478 89.7994 42.9617 88.8771 43.1388C87.9571 43.3113 87.2901 43.3849 86.7335 43.4424C86.1792 43.4953 85.7376 43.5252 85.3006 43.5528C84.4266 43.6103 83.5526 43.6517 81.846 43.8357C80.144 44.0243 79.316 44.1531 78.4903 44.2934C78.0786 44.3647 77.6692 44.4406 77.1701 44.5533C76.6687 44.666 76.0707 44.8086 75.3232 45.0616C75.1369 45.1237 74.969 45.1927 74.8057 45.2502C74.647 45.3123 74.5044 45.3767 74.3641 45.4319C74.0835 45.5561 73.819 45.678 73.589 45.7861C73.1267 46.0069 72.7564 46.1886 72.393 46.3795C72.0296 46.5704 71.6662 46.7682 71.2292 47.0419C71.0084 47.1753 70.7738 47.334 70.507 47.5157C70.3759 47.61 70.2333 47.7043 70.0884 47.8147C69.9918 47.886 69.8906 47.9642 69.7825 48.0447C69.6537 48.1459 69.5732 48.2333 69.5341 48.2908C69.5019 48.3529 69.4743 48.3805 69.5341 48.4242C69.564 48.4426 69.6077 48.4518 69.6537 48.4472C69.6997 48.4403 69.7411 48.4173 69.7779 48.4058C69.8147 48.392 69.8492 48.3805 69.8791 48.3713C69.8929 48.3667 69.909 48.3644 69.9251 48.3598L69.9481 48.3552C69.9757 48.3529 70.0056 48.3483 70.0378 48.346C70.1068 48.3391 70.1712 48.3345 70.2333 48.3276C70.4334 48.3138 70.6197 48.3023 70.7968 48.2908C71.1487 48.2655 71.4592 48.254 71.7421 48.2448C72.3056 48.2195 72.7587 48.2264 73.2095 48.2218C74.1111 48.2402 75.0173 48.2356 76.8159 48.4242C77.7129 48.53 78.3868 48.6174 78.9457 48.7094C79.5069 48.7876 79.9531 48.875 80.3993 48.9578C80.8478 49.0337 81.2894 49.1418 81.8437 49.2729C81.9817 49.3074 82.1266 49.3396 82.2807 49.381C82.4325 49.4247 82.5935 49.473 82.7637 49.5236C83.1041 49.6317 83.4905 49.726 83.9183 49.8893C84.3484 50.048 84.7233 50.1745 85.0591 50.3148C85.3949 50.4666 85.687 50.6023 85.9515 50.7265C86.4897 50.9634 86.8784 51.2325 87.2809 51.4694C87.4787 51.5936 87.6857 51.704 87.8881 51.8489C88.0905 51.9915 88.3044 52.141 88.5436 52.3089C89.0335 52.6263 89.5717 53.0656 90.3031 53.6337C90.6527 53.935 90.9586 54.1995 91.2323 54.4364C91.5014 54.6756 91.7222 54.9033 91.9338 55.0988C92.3616 55.4875 92.6744 55.8256 92.9964 56.1545C93.3276 56.4788 93.6197 56.8353 93.99 57.2769C94.1809 57.4954 94.3626 57.753 94.5742 58.0428C94.68 58.19 94.7904 58.3441 94.9077 58.5097C95.025 58.6753 95.1354 58.8593 95.2596 59.0525C95.3815 59.2457 95.4965 59.4297 95.6046 59.5999C95.7081 59.7724 95.8001 59.9403 95.8875 60.0967C96.06 60.4095 96.2233 60.6809 96.3452 60.9408C96.4717 61.1961 96.5867 61.4284 96.6948 61.6469C96.8006 61.8654 96.888 62.077 96.9823 62.2863C97.1732 62.7026 97.3365 63.1304 97.5504 63.6617C97.6493 63.9308 97.7574 64.2275 97.8816 64.5656C97.992 64.9152 98.1254 65.2763 98.2588 65.757C98.5141 66.7 98.6061 67.4429 98.636 68.0685C98.6636 68.6964 98.6291 69.2116 98.5509 69.7314C98.4658 70.2512 98.3439 70.7802 98.0564 71.4357C97.9069 71.7623 97.7137 72.1211 97.4147 72.4983C97.1157 72.8732 96.6971 73.2642 96.1359 73.5609C95.5747 73.8599 95.0434 73.9795 94.5926 74.0324C94.1372 74.0899 93.76 74.0623 93.4196 74.037C93.2563 74.014 93.0999 73.991 92.9481 73.9703C92.8032 73.9404 92.6652 73.9105 92.5295 73.8829C92.2466 73.807 91.9683 73.7265 91.7199 73.6161C91.2116 73.4045 90.7378 73.1377 90.2341 72.7582C89.7281 72.3787 89.1761 71.8888 88.5482 71.2103C87.9203 70.5318 87.5017 70.012 87.1498 69.5842C86.8071 69.1587 86.5334 68.8206 86.2574 68.4802C85.986 68.149 85.7169 67.8178 85.3788 67.4038C85.0407 66.9967 84.6336 66.5137 84.0724 65.9111C83.5089 65.3108 83.0581 64.9083 82.6717 64.5932C82.4785 64.4345 82.3014 64.3011 82.1289 64.1815C81.961 64.055 81.7954 63.9538 81.6298 63.848C81.3009 63.641 80.9628 63.4547 80.5373 63.2454C80.3211 63.1488 80.0865 63.0338 79.8105 62.9326C79.7415 62.905 79.6702 62.8774 79.5966 62.8475C79.5115 62.8176 79.4241 62.7854 79.3344 62.7509C79.155 62.6842 78.9641 62.6129 78.7617 62.5393C77.1425 61.939 76.3605 61.6239 75.5739 61.3272C74.7873 61.0512 73.9961 60.7246 72.3999 60.4601C72.002 60.4164 71.6524 60.3589 71.3419 60.3451C71.0314 60.3336 70.76 60.3221 70.5116 60.3129C70.0217 60.3451 69.6261 60.3359 69.2397 60.4095C69.0465 60.4371 68.8533 60.4624 68.6463 60.4923C68.4439 60.5383 68.23 60.5889 67.9908 60.6441C67.8735 60.674 67.7447 60.6901 67.6159 60.7361C67.4848 60.7775 67.3491 60.8212 67.2019 60.8695C67.0547 60.9155 66.9006 60.9638 66.735 61.0144C66.574 61.0811 66.4015 61.1501 66.2175 61.226C66.0335 61.3019 65.861 61.3709 65.7 61.4376C65.5436 61.5204 65.3964 61.5963 65.2561 61.6699C64.9801 61.8217 64.7294 61.9321 64.5178 62.0747C64.3062 62.2127 64.113 62.3369 63.9336 62.4542C63.7565 62.5715 63.5748 62.6819 63.4345 62.7992C62.848 63.2661 62.2477 63.7353 61.3714 64.9566C60.9436 65.5753 60.7021 66.0951 60.5273 66.5321C60.3548 66.9714 60.2421 67.3348 60.1593 67.7051C60.0673 68.0708 60.0052 68.4457 59.9454 68.9126C59.8902 69.3795 59.8465 69.9453 59.8902 70.6859C59.9362 71.4265 60.0512 71.967 60.1708 72.4017C60.295 72.8341 60.4146 73.1722 60.5664 73.4873C60.7182 73.8001 60.8838 74.1106 61.1414 74.4464C61.2081 74.5269 61.2794 74.612 61.353 74.7017C61.4496 74.8052 61.5531 74.9156 61.6612 75.0329C61.8797 75.2744 62.135 75.5228 62.4271 75.8103C63.0182 76.3692 63.4713 76.7648 63.8623 77.0707C64.2487 77.3858 64.573 77.6066 64.895 77.8343C65.0606 77.9401 65.2262 78.0436 65.4033 78.1563C65.5804 78.2667 65.7782 78.3633 65.9944 78.4829C66.2083 78.6048 66.4613 78.7014 66.7396 78.8325C66.8776 78.9015 67.0363 78.9475 67.1973 79.0096C67.3629 79.0671 67.5308 79.143 67.724 79.1936C68.1058 79.3063 68.4347 79.4121 68.7429 79.4788C69.0465 79.5547 69.3133 79.6237 69.5617 79.6674C69.8101 79.7134 70.0309 79.7709 70.2448 79.8031C70.4587 79.8376 70.6611 79.8698 70.8612 79.9043C71.0613 79.9411 71.266 79.9641 71.4845 79.9871C71.703 80.0101 71.933 80.0354 72.1906 80.0584C72.4505 80.0699 72.7357 80.0814 73.06 80.0952C73.3843 80.1113 73.7477 80.0906 74.164 80.0883C75.8223 80.0239 76.6112 79.7847 77.3771 79.5524C77.5657 79.488 77.7566 79.4259 77.9567 79.3592C78.1522 79.2833 78.3615 79.2051 78.5915 79.1223C78.8192 79.0303 79.0676 78.9291 79.3505 78.8164C79.6288 78.6922 79.9462 78.5634 80.2981 78.3863C81.0065 78.039 81.5332 77.7423 81.9771 77.4755C82.421 77.2156 82.7821 76.9925 83.1501 76.7671C83.5227 76.5371 83.893 76.3071 84.3576 76.0173C84.5853 75.8724 84.836 75.716 85.1189 75.5343C85.3972 75.3549 85.7031 75.1502 86.0596 74.9064C87.4787 73.9358 88.3044 73.416 89.3302 73.0664C89.8362 72.8985 90.4089 72.7605 91.1196 72.7628C91.2944 72.7651 91.4761 72.7812 91.6693 72.7927C91.8579 72.8157 92.0511 72.8479 92.2581 72.8824C92.357 72.9054 92.4582 72.9307 92.564 72.956C92.6169 72.9698 92.6698 72.9813 92.7227 72.9951L92.8032 73.0158C92.8308 73.0227 92.8722 73.0388 92.9067 73.048C93.0493 73.0963 93.2011 73.1446 93.3345 73.2182C93.4035 73.2527 93.4725 73.2872 93.5438 73.324C93.6105 73.3631 93.6749 73.4045 93.7416 73.4482C94.266 73.7955 94.5972 74.175 94.8617 74.5177C95.1285 74.8604 95.3079 75.1824 95.4643 75.4745C95.7633 76.0633 95.9473 76.5532 96.083 77.0523C96.2187 77.5514 96.3176 78.0643 96.3475 78.7083C96.3728 79.35 96.3291 80.132 96.0623 81.1187C95.7909 82.1054 95.4436 82.7885 95.1285 83.329C94.9767 83.605 94.8111 83.8304 94.6662 84.0535C94.5075 84.2628 94.3626 84.4675 94.2039 84.6561C93.8865 85.0333 93.5599 85.4013 93.116 85.8176C93.0056 85.9211 92.8929 86.0338 92.7641 86.1442C92.6376 86.2523 92.5019 86.3673 92.3593 86.4892C92.219 86.6157 92.0557 86.7261 91.8901 86.8572C91.8073 86.9216 91.7199 86.9883 91.6302 87.055C91.5451 87.1148 91.4577 87.1769 91.3657 87.2413C91.0023 87.4989 90.6849 87.7243 90.3997 87.9267C90.1099 88.1199 89.8546 88.2924 89.6246 88.4465C89.1646 88.7616 88.7805 88.9916 88.4033 89.2331C88.0284 89.4746 87.642 89.7023 87.1567 89.9806C86.6783 90.2704 86.0826 90.5832 85.2914 91.0041C83.6883 91.8114 82.8396 92.1196 82.0001 92.4324C81.5746 92.5773 81.1491 92.7199 80.6224 92.9085C80.3579 93.0005 80.0612 93.0879 79.73 93.1983C79.3965 93.3018 79.0285 93.4421 78.5961 93.5617C77.7359 93.8124 77.0942 94.0079 76.5468 94.1321C76.2754 94.2011 76.0316 94.2632 75.7993 94.3207C75.5693 94.3828 75.3508 94.4334 75.1323 94.4771C74.693 94.5668 74.2537 94.6565 73.7063 94.7692C73.1543 94.8566 72.4896 94.9601 71.5995 95.0728C70.9279 95.1349 70.3851 95.1878 69.9136 95.2315C69.4421 95.2637 69.0419 95.2752 68.6647 95.2959C68.2875 95.3074 67.9287 95.3442 67.54 95.3373C67.264 95.3373 66.9627 95.3373 66.6039 95.3373C66.5855 95.3373 66.5487 95.3373 66.5004 95.3419C66.4751 95.3465 66.4498 95.3649 66.436 95.3925C66.4199 95.4201 66.4268 95.4569 66.4245 95.4914C66.4314 95.7375 66.436 95.9537 66.4406 96.1446C66.4521 96.4827 66.4636 96.7794 66.4728 97.0508C66.4981 97.5913 66.528 98.0237 66.5556 98.4561C66.6154 99.3209 66.6729 100.183 66.6936 101.913C66.7097 103.19 66.7189 104.077 66.7235 104.466C66.7281 104.887 66.6315 105.218 66.4981 105.48C66.3555 105.756 66.1416 106.007 65.8978 106.179C65.7782 106.267 65.6494 106.338 65.5275 106.393C65.3941 106.426 65.2492 106.421 65.1112 106.437C64.8306 106.46 64.55 106.483 64.2602 106.506C64.1153 106.518 63.9681 106.529 63.8163 106.541C63.6714 106.552 63.4828 106.57 63.4161 106.566C63.2252 106.566 63.0228 106.566 62.8066 106.566C62.3719 106.566 61.8705 106.564 61.2656 106.561C58.9487 106.544 56.6318 106.528 54.315 106.513C50.842 106.506 50.842 106.209 47.369 106.202C43.8937 106.198 43.8937 106.338 40.4161 106.336C36.9385 106.336 36.9385 106.184 33.4609 106.189C31.7221 106.193 30.855 106.278 29.9879 106.366C29.5532 106.407 29.1254 106.456 28.5918 106.492C28.5573 106.492 28.5251 106.497 28.4906 106.499C28.4561 106.499 28.417 106.504 28.4101 106.506C28.3779 106.511 28.348 106.513 28.3158 106.515H28.2422C28.2422 106.515 28.2422 106.52 28.2399 106.511L28.1824 106.228L28.003 105.379L27.9731 105.236C28.4975 107.792 28.1157 105.945 28.2307 106.515L28.1985 106.522L28.1341 106.534L28.003 106.554L27.9156 106.564C27.8604 106.568 27.8052 106.575 27.7477 106.58C27.3383 106.612 26.9542 106.619 26.5034 106.619C25.1395 106.612 24.5829 106.409 24.3529 106.138C24.1252 105.864 24.2379 105.51 24.2471 105.151C24.2563 104.793 24.1666 104.427 24.4035 104.158C24.6381 103.886 25.2108 103.725 26.508 103.732L26.5333 103.705Z" fill="#141413"/>
<path d="M66.2681 78.2598C66.4084 78.2345 66.5303 78.2161 66.6407 78.2023C66.7511 78.1885 66.8454 78.1563 66.9351 78.1425C67.1122 78.1034 67.2617 78.0988 67.4043 78.0597C67.5469 78.0229 67.6941 77.9861 67.8735 77.9332C68.0552 77.8826 68.253 77.7653 68.5221 77.6296C69.0373 77.3076 69.2972 77.1397 69.5387 76.9465C69.794 76.7717 70.0286 76.5624 70.4633 76.1116C70.6634 75.8678 70.806 75.6792 70.9187 75.5182C71.0199 75.348 71.0889 75.2008 71.1579 75.0605C71.2223 74.9156 71.3097 74.7845 71.3856 74.6005C71.4661 74.4211 71.5719 74.2095 71.7283 73.9381C71.9882 73.3608 72.1193 73.0756 72.1952 72.7628C72.2803 72.4569 72.3907 72.1602 72.5425 71.5392C72.5839 71.3851 72.6253 71.2517 72.6644 71.1321C72.6989 71.0102 72.7265 70.9044 72.7587 70.8078C72.8208 70.6146 72.8852 70.4628 72.9496 70.3087C72.9818 70.2305 73.0117 70.1546 73.0462 70.0718C73.0738 69.989 73.0968 69.897 73.1198 69.7981C73.1681 69.598 73.2095 69.3519 73.2463 69.0253C73.2693 68.8574 73.2601 68.7286 73.267 68.6021C73.267 68.4802 73.2739 68.3721 73.267 68.2755C73.2509 68.0823 73.2394 67.9259 73.221 67.7718C73.1934 67.62 73.1704 67.4682 73.1428 67.2773C73.0968 67.091 73.0738 66.8633 72.9979 66.5689C72.8599 65.9755 72.7334 65.6972 72.6138 65.4189C72.4804 65.1452 72.3631 64.8646 72.0411 64.3448C71.7122 63.8273 71.5259 63.5743 71.3534 63.3144C71.1648 63.0637 70.9831 62.7992 70.5093 62.3714C70.0286 61.9482 69.7503 61.7803 69.472 61.617C69.1937 61.4583 68.9131 61.2996 68.3565 60.9845C67.5331 60.5429 67.632 60.0645 67.8689 59.4274C67.9862 59.1146 68.1311 58.8731 68.3749 58.7719C68.6187 58.6707 68.966 58.7098 69.4628 58.9812C70.1298 59.3561 70.4725 59.5286 70.8244 59.7011C71.1717 59.8782 71.5236 60.0622 72.1124 60.582C72.6966 61.111 72.9082 61.4629 73.1198 61.7964C73.3176 62.146 73.5269 62.4772 73.9501 63.1419C74.3641 63.8135 74.5044 64.1907 74.6539 64.5541C74.7896 64.9244 74.9345 65.297 75.1162 66.0652C75.2128 66.4493 75.2611 66.7391 75.3301 66.9806C75.383 67.2221 75.4359 67.4176 75.4888 67.6131C75.5348 67.8086 75.5739 68.0064 75.6061 68.2571C75.6245 68.3813 75.6245 68.5193 75.6291 68.6757C75.6291 68.8275 75.636 69.0138 75.613 69.1978C75.5739 69.575 75.5302 69.8579 75.4842 70.0902C75.4612 70.2075 75.4382 70.311 75.4152 70.4099C75.383 70.5065 75.3531 70.5985 75.3255 70.6905C75.2657 70.8722 75.2036 71.0539 75.1415 71.2839C75.1093 71.3989 75.0794 71.5254 75.0449 71.668C75.0012 71.8106 74.9552 71.9693 74.9069 72.1533C74.7252 72.8893 74.5688 73.2412 74.4377 73.6C74.3158 73.9611 74.1387 74.3015 73.819 74.9984C73.4418 75.67 73.2624 76.0127 73.037 76.3301C72.9289 76.4911 72.8231 76.6544 72.6851 76.8545C72.531 77.0431 72.3447 77.2685 72.0963 77.5698C71.5558 78.1379 71.3051 78.4461 71.0222 78.729C70.8796 78.8716 70.7531 79.0303 70.553 79.1844C70.3529 79.3362 70.116 79.5317 69.7641 79.7364C69.403 79.9273 69.1431 80.0906 68.9062 80.1918C68.6693 80.2976 68.4807 80.3804 68.2921 80.4655C68.1035 80.5506 67.8988 80.6058 67.6527 80.6863C67.5262 80.7231 67.3928 80.7737 67.2318 80.8059C67.0685 80.8358 66.8868 80.8703 66.6798 80.9071C66.3739 80.9715 66.1347 80.9255 65.9622 80.8657C65.7897 80.8013 65.6816 80.7001 65.6149 80.5782C65.4815 80.3321 65.5022 79.9917 65.4999 79.6559C65.4976 79.3201 65.4884 78.9889 65.5827 78.7359C65.6287 78.6094 65.7 78.5013 65.8104 78.4208C65.9208 78.338 66.0657 78.3081 66.2727 78.2575L66.2681 78.2598Z" fill="#141413"/>
</svg>
